<svg xmlns="http://www.w3.org/2000/svg" xmlns:xlink="http://www.w3.org/1999/xlink" version="1.1" x="0px" y="0px" viewBox="0 0 100 125" style="enable-background:new 0 0 100 100;" xml:space="preserve"><path style="" d="M92.1,62.2c0.2-0.8,1.3-6.3-2.7-12.1c-2.4-3.6-6.2-6.7-11.2-9.1c-6.3-3.1-14.6-5.2-24.7-6.4l-0.1,0  l-0.3,0.9l0.1,0c0,0,1.9,1.1,4.6,2.9v0l0,0c3.4,2.3,8.2,5.7,12,9.6l-0.5,0.7l0.1,0.1c0,0,1.8,1.8,1.9,11.5c-0.1,0-0.2,0-0.4-0.1  c0.1-0.8,1.2-8.3-4.6-13.8c-6-5.8-14.8-10.7-14.9-10.8l-0.2-0.1l0,0.2c0,0.2,1.8,20.5,1.3,22.9c-0.1,0-0.3,0-0.5,0  c-0.2-4.3-2-9.6-2-9.7l-0.1-0.3L50,49c-1.6,3.5-2.2,9-2.3,9.8c-0.1,0-0.3,0-0.5,0c-0.2-2.4,1.3-22.9,1.3-23.1l0-0.2l-0.2,0.1  c-0.1,0-8.8,4.9-14.9,10.8C27.6,52,28.9,59.8,29,60.2c-0.1,0-0.3,0.1-0.4,0.1c0.1-9.7,2-11.5,2-11.5l0.1-0.1L30.2,48  c3.9-3.9,8.6-7.4,12-9.6l0,0v0c2.7-1.8,4.6-2.8,4.6-2.9l0.1,0l-0.3-0.9l-0.1,0c-10.1,1.1-18.4,3.2-24.7,6.3  c-5.1,2.4-8.9,5.5-11.3,9.1c-4.1,6.1-2.9,11.7-2.7,12.3c-1.1,0-2,0-2.3,0l0,0.2c3.7-0.1,9.3,0.1,9.7,0.7c0.1,0.2,0.2,0.3,0.3,0.4  c-0.2,0.2-1,0.9-0.8,1.5c0.1,0.3,0.6,0.5,1.3,0.5c0.1,0,0.3,0,0.4,0c3.2,0,14-0.6,14.1-0.6l0.2,0l-0.2-0.2c0,0-0.4-0.4-0.3-0.8  c0-0.2,0.1-0.4,0.3-0.5c0,0,0.1,0,0.1,0l0,0l0,0c0.1,0,6.3-0.5,9.3-0.5c-0.1,0.4-0.1,0.8,0,1c0.2,0.4,0.7,0.5,0.9,0.5l0.1,0  c1.6,0.2,3.9,0.3,6.7,0.3c3.4,0,6.9-0.2,9-0.2c0.9,0,1.5-0.1,1.8-0.1c0.4,0,0.7-0.1,0.9-0.4c0.3-0.4,0.3-0.9,0.3-1.2  c5.5,0.1,8.7,0.5,9,0.6v0.2l0,0h0v0l0.1,0c0.5,0.1,0.4,1.2,0.4,1.2l0,0.1l0.1,0c0.1,0,11.6,0.5,14.3,0.5c0,0,0,0,0,0  c0.8,0,1.3-0.2,1.4-0.5c0.2-0.6-0.5-1.4-0.7-1.6c0-0.1,0-0.1,0-0.2c0.8-0.2,5-1.3,9.9-0.7l0-0.2C93.6,62.3,92.9,62.2,92.1,62.2z   M53.4,35.3c0.4,0.1,1.7,0.5,3.6,1.1v0l0.7,0.7L56,36.9C54.6,36.1,53.7,35.5,53.4,35.3L53.4,35.3z M84,63.6c-0.1,0-0.1,0-0.2,0  l-0.7,0c0-13.1-5.3-16.5-10.5-19.7c-2.1-1.3-4.7-2.3-7-3.1c-0.9-1-1.7-1.7-2.2-2.2c5,1.9,10.6,4.5,13.9,7.5  C82.6,50.9,84.7,56.6,84,63.6z M53.3,62l-1.2-3.1c2.3,0,3,0,4.6,0l0,0c0.2,0,18.8,0.6,21.6,4.7c0,0,0,0,0,0l-7.6-0.1  c1.5-0.3,1.7-0.5,1.7-0.7c0-0.2-0.3-0.3-3-0.5C67.8,62.2,60.9,62,53.3,62z M61.1,62.3v0.4c-0.2,0-0.3,0-0.5,0v-0.4  C60.8,62.3,60.9,62.3,61.1,62.3z M61.3,62.3c0.2,0,0.4,0,0.5,0v0.4c-0.2,0-0.3,0-0.5,0V62.3z M62.1,62.3c0.2,0,0.4,0,0.6,0v0.4  c-0.2,0-0.4,0-0.6,0V62.3z M62.9,62.3c0.2,0,0.4,0,0.6,0v0.5c-0.2,0-0.4,0-0.6,0V62.3z M63.7,62.8v-0.5c0.2,0,0.4,0,0.5,0v0.5  C64,62.8,63.8,62.8,63.7,62.8L63.7,62.8z M64.4,62.3c0.2,0,0.4,0,0.6,0v0.5c-0.2,0-0.4,0-0.6,0V62.3z M65.2,62.4c0.2,0,0.4,0,0.6,0  v0.6c-0.2,0-0.4,0-0.6,0V62.4z M66,62.4c0.2,0,0.4,0,0.6,0V63c-0.2,0-0.4,0-0.6,0V62.4z M66.8,62.4c0.2,0,0.4,0,0.6,0v0.6  c-0.2,0-0.4,0-0.6-0.1V62.4z M67.5,62.4c0.2,0,0.4,0,0.6,0v0.7c-0.2,0-0.3,0-0.6-0.1V62.4z M58.6,64.3c-0.1,0-0.3,0-0.6,0v-1.5h0.7  L58.6,64.3z M41.6,62.3v0.2h-0.2v-0.2h-0.2v0.2h-0.7l0.2-0.4c1.8,0,3.8,0,5.8,0l-0.2,0.4h0v-0.2h-0.2v0.2H46v-0.2h-0.2v0.2h-0.2  v-0.2h-0.2v0.2h-0.2v-0.2h-0.2v0.2h-0.2v-0.2h-0.2v0.2h-0.2v-0.2h-0.2v0.2h-0.2v-0.2h-0.2v0.2h-0.2v-0.2h-0.2v0.2h-0.2v-0.2h-0.2  v0.2h-0.2v-0.2h-0.2v0.2h-0.2v-0.2h-0.2v0.2h-0.2v-0.2H42v0.2h-0.2v-0.2H41.6z M16,63.5c-0.7-7,1.5-12.7,6.5-17.4  c3.2-3,8.9-5.6,13.9-7.5c-0.4,0.4-1.2,1.2-2.2,2.2c-2.3,0.7-4.9,1.8-7,3.1c-5.1,3.2-10.4,6.6-10.5,19.7c-0.2,0-0.4-0.1-0.5,0  C16.2,63.5,16.1,63.5,16,63.5z M39.3,40c-0.1,0-1.4,0.3-3.3,0.9l0.7-0.7c1.5-0.4,2.7-0.7,3.4-0.8C39.9,39.7,39.6,39.8,39.3,40z   M17.9,63.6c-0.2-6.7,1.9-12.2,5.9-16c2.5-2.4,6-4.1,9-5.3c-2.6,2.6-5.5,5.7-6,6.3c-0.1,0.1-0.1,0.2-0.2,0.2c-1,1.3-3.2,4.2-3,12.8  c-1.2,0.5-1.9,1.2-2.3,1.9C19.9,63.6,18.7,63.6,17.9,63.6z M17.1,63.6c0-13,5.3-16.3,10.4-19.5c2-1.2,4.3-2.2,6.5-2.9  c-0.3,0.3-0.5,0.5-0.8,0.8c-3.1,1.2-6.8,3-9.5,5.5c-4.1,3.8-6.1,9.4-6,16.2C17.4,63.6,17.2,63.6,17.1,63.6z M23.8,61.6  c-0.1-8.5,2-11.4,3-12.6c0.1-0.1,0.1-0.2,0.2-0.2c0.5-0.7,3.7-3.9,6.3-6.6c0.7-0.3,1.3-0.5,1.9-0.7l-4.1,3.8  c-0.1,0.1-7.4,5.9-6.6,16.1C24.2,61.4,24,61.5,23.8,61.6z M33.7,41.8c0.3-0.3,0.5-0.5,0.8-0.8c0.6-0.2,1.3-0.4,1.9-0.6l-0.7,0.7  C35,41.3,34.3,41.5,33.7,41.8z M37.1,40l1.8-1.7l2-0.3l-1.6,1.4C38.7,39.6,37.9,39.7,37.1,40z M42,37.2l1.6-0.1  c-0.5,0.3-1,0.6-1.5,1l-1.1,0L42,37.2z M41.1,37.8l-0.3-0.7c0.6-0.2,1.2-0.4,1.8-0.6L41.1,37.8z M40.5,37.1l0.3,0.7L39.1,38l0.7-0.7  C40.1,37.3,40.3,37.2,40.5,37.1z M36.6,40.1c-0.6,0.2-1.2,0.3-1.9,0.5c1.2-1.2,2.1-2.1,2.2-2.2c0.8-0.3,1.6-0.6,2.4-0.9L36.6,40.1z   M16.7,63.7c0.1,0,0.1,0,0.2,0c0.1,0,0.3,0,0.7,0.1v1.4c-0.4,0-0.7,0-1,0V63.7z M17.9,63.8c0.3,0,0.6,0,1,0v1.4c-0.3,0-0.7,0-1,0  V63.8z M19.1,63.8c0.3,0,0.6,0,0.9,0v1.4c-0.3,0-0.6,0-0.9,0V63.8z M20.2,63.8c0.3,0,0.7,0,1,0c0,0,0,0,0,0  c-0.2,0.6-0.1,1.1,0.1,1.3c-0.4,0-0.7,0-1.1,0V63.8z M21.4,63.9c0,0,0-0.1,0-0.1c0.1,0,0.2,0,0.2,0v1.4c-0.1,0-0.1,0-0.2,0  C21.4,65,21.2,64.5,21.4,63.9z M21.9,63.8c0.3,0,0.6,0,0.9,0v1.3c-0.3,0-0.6,0-0.9,0V63.8z M23.1,63.7c0.3,0,0.6,0,0.9,0V65  c-0.3,0-0.6,0-0.9,0V63.7z M24.2,63.7c0.3,0,0.6,0,0.9,0V65c-0.3,0-0.6,0-0.9,0V63.7z M25.4,63.7c0.3,0,0.6,0,0.9,0v1.3  c-0.3,0-0.6,0-0.9,0V63.7z M26.5,63.6c0.3,0,0.6,0,1,0v1.3c-0.3,0-0.6,0-1,0V63.6z M27.7,63.6c0.3,0,0.6,0,0.9,0v1.3  c-0.3,0-0.6,0-0.9,0V63.6z M28.8,63.5c0.3,0,0.6,0,0.9,0v1.3c-0.3,0-0.5,0-0.9,0V63.5z M27.7,62.7c0.1,0,0.2-0.1,0.5-0.1v0.3  C28,62.8,27.8,62.8,27.7,62.7z M28.4,62.6c0.1,0,0.1,0,0.2,0V63c-0.1,0-0.2,0-0.2,0V62.6z M28.9,62.5c0.2,0,0.3,0,0.5-0.1v0.6  c-0.2,0-0.4,0-0.5-0.1V62.5z M29.6,63.1v-0.7c0.2,0,0.3,0,0.5,0v0.8C29.9,63.1,29.8,63.1,29.6,63.1z M30.3,62.4c0.2,0,0.4,0,0.6,0  v0.9c-0.1,0-0.2,0-0.2,0c-0.1,0-0.3,0-0.4,0V62.4z M31.1,62.3c0.2,0,0.3,0,0.5,0v0.8c-0.2,0-0.4,0-0.5,0V62.3z M31.9,62.3  c0.2,0,0.4,0,0.6,0v0.8c-0.2,0-0.4,0-0.6,0V62.3z M32.7,62.3c0.2,0,0.4,0,0.6,0V63c-0.2,0-0.4,0-0.6,0V62.3z M33.5,62.2  c0.2,0,0.4,0,0.5,0V63c-0.2,0-0.4,0-0.5,0V62.2z M34.2,62.2c0.2,0,0.4,0,0.6,0v0.7c-0.2,0-0.4,0-0.6,0V62.2z M35,62.2  c0.2,0,0.4,0,0.5,0v0.7c-0.2,0-0.4,0-0.5,0V62.2z M35.8,62.2c0.2,0,0.4,0,0.6,0v0.7c-0.2,0-0.4,0-0.6,0V62.2z M36.6,62.2  c0.2,0,0.4,0,0.6,0v0.6c-0.2,0-0.4,0-0.6,0V62.2z M37.4,62.2c0.2,0,0.4,0,0.6,0v0.6c-0.2,0-0.4,0-0.6,0V62.2z M38.1,62.2  c0.2,0,0.4,0,0.5,0v0.6c-0.2,0-0.4,0-0.5,0V62.2z M38.9,62.2c0.2,0,0.4,0,0.6,0v0.6c-0.2,0-0.4,0-0.6,0V62.2z M30.3,62.2  c-2.9,0.2-2.9,0.4-2.9,0.6c0,0.1,0,0.3,1.9,0.6c-2.2,0.1-5.2,0.2-7.7,0.3c0.4-0.7,1.3-1.5,3.6-2.2c5.2-1.7,14.6-2.2,14.7-2.2  c3.4-0.1,5.9-0.1,7.9-0.2l-1.1,3C39.7,61.9,33.1,62,30.3,62.2z M33.4,59.5c0-1.1,0.2-9.5,9.4-16c0.1,0.3,0.2,0.6,0.2,1  c-2.3,1.6-5,4-6.3,7.3c-2,5.4-2.1,7-2.1,7.5C34.3,59.4,33.8,59.5,33.4,59.5z M43,43.4c0.5-0.4,1.1-0.7,1.6-1.1  c0.1,0.3,0.1,0.7,0.2,1.1c-0.5,0.3-1,0.6-1.6,1C43.2,44,43.1,43.7,43,43.4z M34.9,59.3c0-0.4,0.1-2,2.1-7.4c1.2-3.2,3.8-5.6,6.1-7.2  c0.4,2.4,0.8,6.7,0.5,14c-1.1,0-2.3,0-3.7,0.1C39.8,58.9,37.7,59,34.9,59.3z M43.3,44.6c0.6-0.4,1.1-0.7,1.6-1  c0.1,0.9,0.2,2.1,0.2,3.5c0,5-0.1,10.8-0.2,11.6c-0.4,0-0.8,0-1.2,0C44.1,51.4,43.8,47.1,43.3,44.6z M45.1,43.5  c0.9-0.5,1.6-0.8,1.9-1c-0.4,5.7-1.1,14.4-0.9,16.2c-0.3,0-0.6,0-0.9,0c0-0.8,0.1-6.6,0.2-11.6C45.3,45.7,45.2,44.5,45.1,43.5z   M47,42.3c-0.2,0.1-0.9,0.4-2,1c-0.1-0.4-0.1-0.8-0.2-1.1c0.7-0.4,1.5-0.8,2.3-1.2C47.1,41.4,47.1,41.9,47,42.3z M44.8,42  c-0.1-0.4-0.2-0.6-0.3-0.9l1.3-0.8l0.1,1.1C45.5,41.6,45.2,41.8,44.8,42z M47.2,40.7c-0.4,0.2-0.7,0.4-1.1,0.5L46,40.2l1.3-0.8  C47.2,39.8,47.2,40.2,47.2,40.7z M47.3,39.1L46,39.9l-0.1-1c0.8-0.6,1.3-0.9,1.5-1.1C47.4,38.1,47.3,38.5,47.3,39.1z M45.7,39.1  l0.1,1l-1.3,0.8c-0.1-0.3-0.2-0.5-0.3-0.6C44.7,39.8,45.2,39.4,45.7,39.1z M44,40.4c0.1,0.2,0.4,0.7,0.7,1.7  c-0.6,0.3-1.1,0.7-1.7,1.1c-0.2-0.8-0.4-1.2-0.5-1.4C43,41.3,43.5,40.8,44,40.4z M42.2,41.9c0.1,0.2,0.3,0.6,0.5,1.4  c-9.4,6.6-9.6,15.2-9.6,16.2c-0.4,0-0.8,0.1-1.2,0.2c0-1,0.2-8.1,6.1-13.9C39.7,44.2,41.1,43,42.2,41.9z M50.1,62.5v-0.4  c0.7,0,1.3,0,2,0l0.1,0.4H50.1z M48,62.5l0.1-0.4c0.6,0,1.2,0,1.8,0v0.4H48z M50.1,61.9v-3.1c0.4,0,0.8,0,1.1,0L52,62  C51.4,62,50.8,61.9,50.1,61.9z M50.1,58.7v-4.1l1.1,4.1C50.9,58.7,50.5,58.7,50.1,58.7z M49.9,58.7c-0.3,0-0.6,0-1,0l1-4.1V58.7z   M49.9,58.9v3.1c-0.6,0-1.2,0-1.8,0l0.7-3C49.2,58.9,49.6,58.9,49.9,58.9z M47.9,61.9c-0.3,0-0.7,0-1,0l1.1-3c0.2,0,0.4,0,0.6,0  L47.9,61.9z M47.9,62.1l-0.1,0.4h-1.1l0.2-0.4C47.2,62.1,47.5,62.1,47.9,62.1z M47.2,62.8l-0.1,1c-0.3,0-0.5,0.1-0.7,0.1l0.5-1.2  H47.2z M47.4,62.8H48l-0.1,0.9c-0.2,0-0.4,0-0.6,0.1L47.4,62.8z M48.2,62.8H49l0,0.9c-0.3,0-0.6,0-0.8,0L48.2,62.8z M49.2,62.8h0.7  l0,0.9c-0.3,0-0.5,0-0.7,0L49.2,62.8z M50.1,62.8h0.6l0,0.9c-0.2,0-0.4,0-0.6,0L50.1,62.8z M51,62.8h0.5l0,0.9c-0.2,0-0.4,0-0.6,0  L51,62.8z M51.7,62.8h0.5l0.2,1c-0.2,0-0.4-0.1-0.7-0.1L51.7,62.8z M52.4,62.8h0.9l0.4,1.3c-0.4-0.1-0.8-0.2-1.1-0.2L52.4,62.8z   M52.4,62.5l-0.1-0.4c0.3,0,0.6,0,0.9,0l0.1,0.4H52.4z M52.3,62l-0.8-3.1c0.2,0,0.3,0,0.5,0l1.2,3.1C52.8,62,52.5,62,52.3,62z   M51.4,58.6l-1-3.8l1.4,3.8C51.7,58.6,51.6,58.6,51.4,58.6z M48.7,58.7c-0.2,0-0.4,0-0.6,0l1.6-4.3L48.7,58.7z M42.8,62.8l-0.3,1.6  c-0.2,0-0.4,0-0.6-0.1l0.2-1.6H42.8z M43,62.8h0.6l-0.1,1.7c-0.3,0-0.5,0-0.7,0L43,62.8z M43.8,62.8h0.6l-0.2,1.7  c-0.2,0-0.4,0-0.6,0L43.8,62.8z M44.7,62.8h0.6l0,1.8c-0.3,0-0.5,0-0.8,0L44.7,62.8z M45.5,62.8h1.2l-0.8,1.8c-0.2,0-0.3,0-0.5,0  L45.5,62.8z M46.3,64.2c0.1,0,0.4-0.1,0.8-0.1l0,0.5c-0.3,0-0.6,0-0.9,0L46.3,64.2z M47.3,64c0.2,0,0.4,0,0.6-0.1l-0.1,0.6  c-0.2,0-0.4,0-0.6,0L47.3,64z M48.1,63.9c0.2,0,0.5,0,0.8-0.1l0,0.7c-0.3,0-0.6,0-0.8,0L48.1,63.9z M49.1,63.8c0.2,0,0.5,0,0.7,0  l0,0.7c-0.2,0-0.5,0-0.7,0L49.1,63.8z M50.1,63.8c0.2,0,0.4,0,0.6,0l0,0.7c-0.2,0-0.4,0-0.6,0L50.1,63.8z M50.9,63.9  c0.2,0,0.4,0,0.6,0l0,0.6c-0.2,0-0.4,0-0.6,0L50.9,63.9z M51.8,63.9c0.2,0,0.5,0.1,0.7,0.1l0.1,0.5c-0.2,0-0.5,0-0.7,0L51.8,63.9z   M52.7,64.1c0.4,0.1,0.8,0.1,1.2,0.2l0,0.2c-0.4,0-0.8,0-1.2,0L52.7,64.1z M53.6,62.8h0.7l0,1.7c0,0-0.1,0-0.1,0L53.6,62.8z   M54.5,62.8h0.6v1.6c-0.2,0-0.4,0-0.7,0L54.5,62.8z M55.3,62.8H56v1.6c-0.2,0-0.4,0-0.6,0V62.8z M56.2,62.8h0.7l0,1.6  c-0.2,0-0.4,0-0.7,0V62.8z M57.1,62.8h0.7v1.5c-0.2,0-0.4,0-0.7,0L57.1,62.8z M58.7,62.5v-0.2h-0.2v0.2h-0.2v-0.2h-0.2v0.2H58v-0.2  h-0.2v0.2h-0.2v-0.2h-0.2v0.2h-0.2v-0.2H57v0.2h-0.2v-0.2h-0.2v0.2h-0.2v-0.2h-0.2v0.2H56v-0.2h-0.2v0.2h-0.2v-0.2h-0.2v0.2h-0.2  v-0.2h-0.2v0.2h-0.2v-0.2h-0.2v0.2h-0.2v-0.2h-0.2v0.2h-0.2v-0.2h-0.2v0.2h-0.2v-0.2h-0.2v0.2h0l-0.1-0.4c2,0,3.9,0,5.7,0.1l0.2,0.3  H58.7z M68,59.7c-0.4-0.1-0.8-0.1-1.2-0.2c0-0.8,0-9.5-9.6-16.2c0.2-0.8,0.4-1.2,0.5-1.4c1.2,1.1,2.6,2.3,4.1,3.9  C68.1,51.9,68,59.4,68,59.7z M55,58.6c0-0.9-0.1-6.5-0.1-11.4c0-1.4,0.1-2.6,0.2-3.5c0.5,0.3,1,0.6,1.6,1c-0.5,2.4-0.8,6.6-0.5,14  C55.8,58.6,55.4,58.6,55,58.6z M55.1,43.5c0.1-0.4,0.1-0.8,0.2-1.1c0.6,0.3,1.1,0.7,1.6,1c-0.1,0.3-0.2,0.6-0.2,1  C56.2,44.1,55.6,43.7,55.1,43.5z M56.4,58.6c-0.3-7.2,0.1-11.4,0.5-13.8c2.3,1.6,4.9,4,6.1,7.2c2,5.4,2.1,6.9,2.1,7.3  c-4.4-0.5-8.2-0.6-8.3-0.6l0,0C56.6,58.7,56.5,58.6,56.4,58.6z M63.2,51.9c-1.2-3.3-3.9-5.8-6.3-7.4c0.1-0.4,0.2-0.7,0.2-1  c9.4,6.5,9.5,15,9.4,15.9c-0.4-0.1-0.9-0.1-1.3-0.2C65.3,58.9,65.2,57.3,63.2,51.9z M57.1,43.2c-0.5-0.4-1.1-0.7-1.6-1  c0.3-1,0.5-1.5,0.7-1.7c0.5,0.4,1,0.8,1.5,1.3C57.5,42,57.3,42.4,57.1,43.2z M55.2,42c-0.3-0.2-0.7-0.4-1.1-0.6l0.1-1.1l1.3,0.8  C55.4,41.4,55.3,41.7,55.2,42z M55.6,41l-1.3-0.8l0.1-1c0.4,0.3,1,0.8,1.6,1.2C55.8,40.5,55.7,40.6,55.6,41z M54.1,40l-1.3-0.8  c0-0.6-0.1-1-0.1-1.3c0.3,0.2,0.8,0.5,1.5,1.1L54.1,40z M54,40.2l-0.1,1.1c-0.4-0.2-0.7-0.4-1.1-0.5c0-0.5-0.1-1-0.1-1.4L54,40.2z   M55.2,42.3c-0.1,0.3-0.2,0.7-0.2,1.1c-1-0.6-1.8-0.9-2-1c0-0.5-0.1-0.9-0.1-1.3C53.7,41.4,54.4,41.8,55.2,42.3z M54.9,43.6  c-0.1,1-0.2,2.2-0.2,3.7c0,4.9,0.1,10.5,0.1,11.4c-0.3,0-0.6,0-0.9,0c0.2-1.8-0.5-10.4-0.9-16C53.3,42.7,54,43.1,54.9,43.6z   M59.9,39.5c0.6,0.1,1.9,0.4,3.4,0.8L64,41c-1.9-0.6-3.2-0.9-3.3-0.9C60.4,39.9,60.2,39.7,59.9,39.5z M59,38.2l-1.1,0  c-0.5-0.4-1-0.7-1.5-1l1.6,0.1L59,38.2z M59.2,38.1l2,0.3L63,40c-0.8-0.2-1.6-0.4-2.2-0.5L59.2,38.1z M63.7,40.5  c0.6,0.2,1.2,0.4,1.9,0.6c0.3,0.3,0.5,0.5,0.8,0.8c-0.7-0.3-1.3-0.5-1.9-0.7L63.7,40.5z M78.6,63.6c0,0,0-0.1-0.1-0.1  c-0.4-0.6-1.2-1.1-2.2-1.6c0.2-8.6-2.1-11.6-3-12.9c-0.1-0.1-0.1-0.2-0.2-0.2c-0.5-0.6-3.4-3.7-6-6.3c3,1.2,6.5,2.9,9,5.3  c4,3.8,6.1,9.3,5.9,15.9L78.6,63.6z M82.3,63.6c0.2-6.7-1.9-12.3-6-16.1C73.7,45,70,43.2,66.9,42c-0.3-0.3-0.6-0.6-0.8-0.8  c2.2,0.7,4.6,1.7,6.5,2.9c5.1,3.2,10.3,6.5,10.4,19.5L82.3,63.6z M66.7,42.2c2.6,2.7,5.8,6,6.3,6.6c0.1,0.1,0.1,0.2,0.2,0.2  c0.9,1.3,3.1,4.2,3,12.7c-0.2-0.1-0.4-0.2-0.6-0.3c0.8-10.2-6.6-16.1-6.6-16.1l-4.1-3.8C65.4,41.7,66.1,41.9,66.7,42.2z M71.1,62.6  v0.5c-0.2,0-0.3,0.1-0.5,0.1v-0.7C70.8,62.6,70.9,62.6,71.1,62.6z M72.2,62.8c-0.1,0.1-0.5,0.2-0.9,0.3v-0.4  C71.7,62.7,72.1,62.7,72.2,62.8z M70.4,62.6v0.7c-0.2,0-0.4,0.1-0.5,0.1v-0.9C70,62.5,70.2,62.5,70.4,62.6z M70.6,63.7v1.2  c-0.3,0-0.6,0-0.7,0v-1.1L70.6,63.7z M70.8,63.7l0.9,0v1.2c-0.3,0-0.6,0-0.9,0V63.7z M71.9,63.7l1,0v1.2c-0.3,0-0.7,0-1,0V63.7z   M73.1,63.7l0.9,0V65c-0.3,0-0.6,0-0.9,0V63.7z M74.2,63.7l1,0V65c-0.3,0-0.7,0-1,0V63.7z M75.4,63.7l0.9,0v1.3c-0.3,0-0.6,0-0.9,0  V63.7z M76.5,63.7l1,0v1.3c-0.3,0-0.7,0-1,0V63.7z M77.8,63.8l0.8,0c0.2,0.4,0.3,0.9,0.1,1.4c-0.3,0-0.6,0-0.8,0V63.8z M78.8,63.8  l1.1,0v1.4c-0.3,0-0.6,0-1,0C79,64.7,79,64.2,78.8,63.8z M80,63.8l0.9,0v1.4c-0.3,0-0.6,0-0.9,0V63.8z M81.2,63.8l0.9,0v1.4  c-0.3,0-0.6,0-0.9,0V63.8z M82.3,63.8l0.9,0v1.5c-0.3,0-0.6,0-0.9,0V63.8z M63.1,38.5c0.1,0.1,1,1,2.2,2.2c-0.7-0.2-1.3-0.4-1.9-0.5  l-2.7-2.5C61.4,37.9,62.2,38.2,63.1,38.5z M60.2,37.4l0.7,0.7l-1.7-0.2l0.3-0.7C59.7,37.3,59.9,37.3,60.2,37.4z M59,37.9l-1.5-1.3  c0.6,0.2,1.2,0.4,1.8,0.6L59,37.9z M59.3,38.4l1.1,1c-0.5-0.1-0.9-0.2-0.9-0.2c-0.4-0.3-0.8-0.6-1.2-0.8L59.3,38.4z M69.7,48.7  l0.5-0.7l-0.1-0.1c-2.8-2.8-6-5.4-8.9-7.5c0.6,0.2,1.8,0.5,3.2,0.9l4.4,4.2c0.1,0.1,7.3,5.8,6.6,15.9c-1.1-0.4-2.4-0.8-3.8-1.1  C71.5,51.3,70,49.1,69.7,48.7z M66.3,46.5c5.7,5.5,4.7,12.8,4.5,13.6c-0.5-0.1-1-0.2-1.5-0.3c0.4-12.5-16.8-23.2-17.7-23.8  c0-0.1,0-0.2,0-0.2C52.9,36.6,60.8,41.2,66.3,46.5z M51.7,36.4c1.8,1.2,17.8,11.5,17.4,23.5c-0.3-0.1-0.6-0.1-1-0.2l0.1,0  c0-0.1,0.2-7.8-6.2-14c-6.3-6.2-9.5-8.1-9.5-8.1l-0.2-0.1l0,0.2c0,0.2,1.6,18.4,1.3,21c-0.2,0-0.5,0-0.8,0  C53.4,56.2,52,40,51.7,36.4z M50.1,49.3c0.4,1.1,1.7,5.5,1.9,9.2l-1.9-5.1v0h0L50,53.1l-2,5.2C48.2,56.8,48.8,52.4,50.1,49.3z   M47.1,58.7c-0.3,0-0.5,0-0.8,0c-0.2-2.5,1.3-20.9,1.3-21.1l0-0.2l-0.2,0.1c0,0-3.2,1.9-9.5,8.1c-6,5.9-6.2,13.2-6.2,14.1  c-0.3,0-0.6,0.1-0.9,0.1c-0.3-11.9,15.7-22.4,17.5-23.5C48.1,40,46.9,56.4,47.1,58.7z M33.7,46.5c5.5-5.4,13.4-9.9,14.6-10.6  c0,0.1,0,0.1,0,0.2c-0.8,0.5-18.1,11.3-17.7,23.8c-0.5,0.1-0.9,0.2-1.4,0.2C29.1,59.8,27.9,52.1,33.7,46.5z M30.4,48.6  c-0.3,0.4-1.9,2.7-2,11.7c-1.2,0.2-2.3,0.5-3.3,0.8c-0.2,0.1-0.3,0.1-0.5,0.2c-0.7-10,6.5-15.8,6.6-15.9l4.4-4.1  c1.4-0.5,2.6-0.8,3.2-0.9C36,42.4,32.7,45,30,47.9l-0.1,0.1L30.4,48.6z M40.5,39.2c0,0-0.4,0.1-0.9,0.2l1.1-1l1,0  C41.4,38.6,41,38.9,40.5,39.2z M44,36.9L42.3,37l0.7-0.7l0,0c1.9-0.6,3.2-1,3.6-1.1l0,0C46.4,35.5,45.4,36,44,36.9z M8.1,62.2  c0-0.1-1.6-5.9,2.7-12.2c5.4-8,17.7-13.2,35.7-15.2l0.1,0.3c-1.4,0.4-17.6,4.9-24.1,10.9c-5.1,4.7-7.3,10.4-6.6,17.4  c-0.1-0.1-0.2-0.2-0.4-0.4C15,62.3,10.9,62.2,8.1,62.2z M15,64.9c-0.1-0.4,0.5-1.1,0.8-1.3c0.1,0,0.1,0.1,0.2,0.1  c-0.3,0.3-0.7,0.9-0.8,1.4C15,65,15,65,15,64.9z M15.3,65.2c0-0.5,0.6-1.2,0.8-1.5c0.1,0,0.1,0,0.2,0c0,0,0.1,0,0.2,0v1.6  c-0.1,0-0.3,0-0.4,0C15.8,65.3,15.5,65.2,15.3,65.2z M30.4,64.7c-0.1,0-0.3,0-0.5,0v-1.3c0.2,0,0.3,0,0.4,0  c-0.1,0.1-0.2,0.3-0.2,0.5C30.1,64.3,30.3,64.6,30.4,64.7z M40.2,62.6C40.2,62.6,40.1,62.7,40.2,62.6c-0.2,0.1-0.3,0.1-0.5,0.1v-0.6  c0.3,0,0.6,0,0.9,0l-0.2,0.4L40.2,62.6L40.2,62.6z M40.3,62.8h0.2l-0.3,1C40.2,63.5,40.2,63.2,40.3,62.8z M40.5,64L40.5,64l0.3-1.2  h0.4l-0.2,1.4C40.8,64.2,40.6,64.1,40.5,64z M41.2,64.3l0.2-1.5h0.5l-0.2,1.6C41.5,64.3,41.3,64.3,41.2,64.3L41.2,64.3z M59.4,64  c-0.1,0.2-0.3,0.2-0.6,0.3l0.1-1.5h0.7C59.7,63,59.7,63.6,59.4,64z M59.9,62.6L59.9,62.6l-0.2-0.1l-0.2-0.3c0.3,0,0.6,0,0.9,0v0.4  C60.2,62.7,60,62.7,59.9,62.6C59.9,62.7,59.9,62.6,59.9,62.6z M68.3,63.2v-0.7c0.2,0,0.4,0,0.6,0v0.8C68.8,63.2,68.6,63.2,68.3,63.2  z M69.1,63.5v-1c0.1,0,0.2,0,0.3,0c0.1,0,0.1,0,0.2,0v0.9h0l-0.5,0.1C69.2,63.5,69.2,63.5,69.1,63.5z M69.3,63.6l0.3,0v1.1  c0,0-0.1,0-0.1,0C69.6,64.5,69.6,63.9,69.3,63.6z M83.8,65.3C83.8,65.3,83.8,65.3,83.8,65.3c-0.1,0-0.2,0-0.3,0v-1.5l0.4,0  c0,0,0.1,0,0.1,0l0.7,1.3C84.5,65.2,84.2,65.3,83.8,65.3z M85,64.9c0,0-0.1,0.1-0.1,0.1l-0.7-1.2c0.1,0,0.1-0.1,0.2-0.1  C84.7,63.9,85.1,64.5,85,64.9z M84.3,63c0.5-6.8-1.7-12.4-6.7-17c-6.5-6-22.7-10.5-24.1-10.9l0.1-0.3c10,1.2,18.3,3.3,24.5,6.4  c5,2.5,8.8,5.5,11.2,9c4,5.9,2.8,11.4,2.6,12C87.8,62.1,84.7,62.9,84.3,63z" fill="#231F20"/></svg>