<svg xmlns="http://www.w3.org/2000/svg" xmlns:xlink="http://www.w3.org/1999/xlink" version="1.1" x="0px" y="0px" viewBox="0 0 100 125" style="enable-background:new 0 0 100 100;" xml:space="preserve"><path style="fill: white;" d="M90.9,74.6v-0.7l-4.8,0l-5.6-31.5l-5.6-2.3l0,0l0,0l0,0l0,0l-5.1,1.5l-0.3-0.1  c0.3-6.2-1.2-11.2-4.6-14.8c-5.5-5.8-13.9-5.8-14-5.8c0,0,0,0,0,0C44.7,21.3,40,23.3,36.8,27c-5.2,6-4.5,14.3-4.5,14.7L31,42.3  l-4.2-1l0,0l-4.6,2.3l-5,30.6l-4.4,0l-0.2,1.1l-7.2,1.7l40.5,1.5h0l50.3-2.1L90.9,74.6z M94.6,76.2l-48.4,2l1-2.6h20.6l0-1.4  l11.8-0.1V75l11.1-0.2L94.6,76.2z M29.2,74.2l-1.4,0c0.1-4.2,0.4-8.7,0.8-9C29,65.5,29.2,70,29.2,74.2z M28.8,64.9  c-0.1-0.1-0.1-0.1-0.2-0.1c-0.2,0-0.6,0-0.9,4.8c-0.1,2-0.2,3.9-0.2,4.5l-0.5,0c1-14.4,4.4-20,5.2-21.1c0.6,2.2,0.9,6.8,1,11.7  c0,0-0.1,0-0.2,0c-0.3,0.1-0.4,0.4-0.5,1.1c0,0.3-0.6,6.8-0.7,8.2l-0.2,0c0-1.6,0-8.5-0.7-9.2c-0.1-0.1-0.1-0.1-0.2-0.1  c-0.2,0-0.6,0-0.9,4.8c-0.1,2-0.2,3.9-0.2,4.5l-0.3,0C29.5,72.6,29.5,65.6,28.8,64.9z M25.9,74.2c1.1-7.3,3.5-21.1,5.3-22.3  c0.1-0.1,0.2-0.1,0.2-0.1c0.2,0,0.5,0.4,0.7,1c-0.5,0.6-4.2,5.8-5.4,21.4L25.9,74.2z M32.2,74.2c0-1.4,0.6-8.1,0.7-8.2  c0.1-0.8,0.2-0.8,0.3-0.8c0,0,0,0,0.1,0c0.1,3.1,0.1,6.2,0,9L32.2,74.2z M30.9,65.1c0.4,0.4,0.6,4.8,0.6,9l-1.4,0  C30.1,69.9,30.5,65.5,30.9,65.1z M30.9,74.5L47,74.4v1l-16.1-0.1V74.5z M47.9,74.4l19.6-0.1l0,1.1H47.2l0-1L47.9,74.4z M74,73.9  c-1.3-15.6-5.8-21.1-6.4-21.7c0.2-0.6,0.5-0.9,0.8-1c0.1,0,0.2,0,0.4,0.1c2.5,1.8,5.9,20.7,6.2,22.6L74,73.9z M67.6,52.5  c0.8,1,4.9,6.6,6.2,21.4l-0.7,0c-0.1-3-0.3-9.5-1.3-9.5c-0.1,0-0.1,0-0.2,0.1c-0.8,0.8-0.8,8-0.8,9.4l-0.4,0c-0.1-3-0.3-9.5-1.3-9.5  c-0.1,0-0.1,0-0.2,0.1c-0.8,0.8-0.8,8.1-0.8,9.4l-0.3,0c0,0,0,0,0,0v0h0c-0.1-1.3-0.7-8-0.8-8.3c-0.1-0.6-0.2-1-0.5-1.1  c-0.1,0-0.2,0-0.2,0C66.5,59.4,66.8,54.7,67.6,52.5z M71.1,73.9c0-4.4,0.2-9.1,0.7-9.2c0.5,0.1,0.9,4.8,1,9.2L71.1,73.9z M68.4,74  c0-4.4,0.2-9.1,0.7-9.2c0.5,0.1,0.9,4.8,1,9.2L68.4,74z M66.3,64.8c0,0,0.1,0,0.1,0c0.1,0,0.2,0.1,0.3,0.9c0,0.1,0.8,7.3,0.8,8.4  l-1.2,0C66.2,71.1,66.2,67.9,66.3,64.8z M90.6,74.5L80,74.7v-0.5l10.7-0.1V74.5z M80.3,42.5l5.6,31.3l-10.5,0.1  C75,72,71.7,53,69,51.1c-0.2-0.1-0.4-0.2-0.6-0.2C65.6,51.4,65.9,71.1,66,74l-18,0.1l0.5-43.7l8.7,3.3l0.4,4l17.8,6.1l-0.3-3.4  L80.3,42.5z M61.2,36.5c-0.1-0.4-0.1-1.4,0.3-1.7c0.2-0.1,0.4-0.2,0.7-0.1c1.4,0.4,1,2.3,0.9,2.4l0,0.1l0.3,0.1v2.2l-2.4-0.8v-2  l0.3,0.2L61.2,36.5z M64.3,37.3c-0.1-0.3-0.4-1.1-0.1-1.5c0.1-0.2,0.4-0.3,0.7-0.3c0.3,0,0.5,0.2,0.7,0.6c0.3,0.5,0.2,1.1-0.1,1.7  l-0.1,0.1l0.4,0.2v2.1l-1.7-0.6v-2.1l0.4,0.1L64.3,37.3z M66.7,38.4c-0.1-0.2-0.4-0.9-0.1-1.3c0.1-0.2,0.3-0.3,0.6-0.3  c0.2,0,0.5,0.2,0.6,0.5c0.2,0.5,0.2,1-0.1,1.5l-0.1,0.1l0.4,0.2V41l-1.5-0.5v-1.9l0.3,0.1L66.7,38.4z M74.9,40.4l0.3,3.1l-4.9-1.7  L74.9,40.4z M37,27.2c3.1-3.7,7.8-5.7,13.8-6c0.1,0,8.4,0.1,13.8,5.7c1.7,1.7,2.9,3.8,3.6,6.3c-1.4-1.1-6.8-4.9-17.1-4.9  c-11.5,0-16.3,3.8-17.5,4.9C34.4,31.2,35.4,29.1,37,27.2z M33.6,33.7L33.6,33.7c0.1,0,4.4-5.1,17.6-5.1c11.4,0,16.7,4.6,17.2,5.1  c0.6,2.3,0.9,4.9,0.8,7.7l-1-0.3v-2.2L68,38.8c0.3-0.5,0.3-1.1,0-1.6c-0.2-0.4-0.6-0.6-0.9-0.6c-0.4,0-0.7,0.1-0.9,0.4  c-0.2,0.4-0.1,1,0,1.3l-0.1,0v2.2l-0.1,0v-2.4l-0.3-0.1c0.3-0.6,0.4-1.3,0-1.8c-0.2-0.4-0.6-0.7-1-0.7c-0.5,0-0.8,0.1-1,0.4  c-0.3,0.4-0.1,1.1,0,1.5l-0.1,0v2.4l-0.1,0V37L63.5,37c0.1-0.5,0.2-2.2-1.2-2.6c-0.4-0.1-0.7-0.1-1,0.1c-0.5,0.4-0.5,1.2-0.4,1.7  L60.6,36v2.4L58,37.6l-0.4-4L48.3,30l-7.6,4l-0.2,3.9l-1.2,0.6v-1.7L39,36.8c0-0.4,0-1.1-0.4-1.4c-0.2-0.2-0.5-0.2-0.8-0.1  c-1,0.3-1.1,1.4-1,2.1l-0.2,0v2.1h0l0,0v-2.1l-0.1,0c0.1-0.3,0.2-0.8,0-1.2c-0.2-0.2-0.4-0.4-0.8-0.4c-0.3,0-0.6,0.2-0.8,0.6  c-0.2,0.5-0.2,1,0,1.5l-0.2,0.1v2.3l0,0v-2.1l-0.1,0c0.1-0.3,0.2-0.7,0-1c-0.1-0.2-0.4-0.3-0.7-0.3c-0.3,0-0.6,0.2-0.7,0.5  c-0.2,0.4-0.2,0.9,0,1.3L33,39v2.3l-0.4,0.2C32.6,40.9,32.4,37.5,33.6,33.7z M37.2,37.5c0,0-0.4-1.5,0.7-1.9c0.2-0.1,0.4-0.1,0.5,0  c0.3,0.3,0.3,1.1,0.2,1.4l0,0.3l0.3-0.1v1.4L37,39.5v-1.7l0.2-0.1L37.2,37.5z M35.3,38.1c-0.3-0.4-0.3-0.9-0.1-1.3  c0.1-0.3,0.4-0.4,0.6-0.4c0.3,0,0.5,0.1,0.5,0.2c0.2,0.3,0,0.9-0.1,1.2L36.1,38l0.3-0.1v1.8l-1.3,0.6v-2l0.3-0.2L35.3,38.1z   M33.5,38.9c-0.2-0.4-0.3-0.8-0.1-1.2c0.1-0.2,0.3-0.4,0.5-0.4c0.2,0,0.4,0.1,0.5,0.2c0.2,0.3,0,0.8-0.1,1l-0.1,0.3l0.3-0.1v1.9  l-1.1,0.5v-2l0.3-0.1L33.5,38.9z M26.8,41.7l3.8,0.9l-4.1,2L26.8,41.7z M22.4,43.9l4-2L26.1,45l14.6-7l0.2-3.9l7.3-3.8l-0.5,43.7  l-14.2,0.1c0.1-3.2,0.3-22.2-2-22.7c-0.2,0-0.3,0-0.5,0.1c-2.3,1.6-5.1,20.6-5.4,22.6l-8.1,0L22.4,43.9z M21.8,74.5v0.7h-8.9  l0.1-0.7L21.8,74.5z M45.9,78.3L7.6,76.9l5.2-1.2l0-0.1h9.3v-1l8.5,0v1l16.3,0.2L45.9,78.3L45.9,78.3z" fill="#231F20"/></svg>