<svg xmlns="http://www.w3.org/2000/svg" xmlns:xlink="http://www.w3.org/1999/xlink" version="1.1" x="0px" y="0px" viewBox="0 0 100 125" style="enable-background:new 0 0 100 100;" xml:space="preserve"><path style="" d="M69.4,93.7c-4.9-1.2-7.2-4.4-7.2-4.4c-1.3-2.3-1.6-4.1-0.9-5.5c1.1-2.1,4.1-2.4,4.1-2.4l0.2,0  l-0.1-0.2c-0.4-0.7-1-1-2-1c-0.8,0-1.6,0.3-1.9,0.4c-0.8-0.7-1.8-1-3-1l0,0C53.6,72.3,54,35.5,54,35.1c0-0.9,1-1.3,1-1.3l0.1,0v-1.1  l-0.3-0.3v-1.8l-0.1,0c-0.4-0.1-0.8-0.1-1.2-0.2V23l0.5-0.5v-2.3l-0.1,0c-0.5-0.1-1-0.2-1.5-0.3v-7.8c0-0.3-0.2-0.6-0.6-0.7  c0.3-2.1-0.8-2.9-1.4-3.3l-0.4-2.9l-0.5,2.9c-1.7,0.9-1.5,3-1.4,3.3c-0.2,0.1-0.4,0.3-0.4,0.6v7.7c-1,0.2-1.5,0.4-1.6,0.4l-0.1,0  v2.2l0.5,0.5v7.5c-0.8,0.1-1.2,0.2-1.2,0.2l-0.1,0v1.6l-0.3,0.3v1.3l0.1,0c0.8,0.2,1.1,1.2,1.2,1.3c0.1,31.3-4.3,44.2-4.4,44.3l0,0  c-0.1,0-0.1,0-0.2,0c-1.8,0-2.7,0.8-3,1c-0.7-0.3-1.3-0.5-1.9-0.5c-1.5,0-2.1,1-2.1,1.1l-0.1,0.2l0.2,0c1.7,0.2,3,1,3.7,2.1  c0.7,1.2,0.8,2.7,0.2,4.6c-1.3,4.1-7.9,5.6-7.9,5.6l-0.1,0v1.2h38.9v-1L69.4,93.7z M58.8,87.6c1.2,4.5,5.3,5.9,6.1,6.2v0.6h-2.9  l0.1,0c0,0-3.2-4.1-4.1-5.6c-0.5-0.8-1.3-1.6-2.2-1.6c-0.8,0-1.5,0.7-2.1,1.9c-0.7-3.9,0.5-7.9,0.6-8.3c0.3-0.1,2.2-1.1,4.3-1.1  c1.2,0,2.1,0.3,2.9,0.9C60.6,81.1,57.6,83.3,58.8,87.6z M52.5,89.4c0,0-0.2-2.5-2.5-2.5c-2.3,0-2.5,2-2.5,2.1l-0.7,5.4H45v-0.9  c3-5.7,1.5-11.9,1.2-12.8c0.5-0.3,2.1-1.1,4.1-1.1c1.3,0,2.6,0.4,3.6,1.1c-0.3,1-2.2,8,1.2,12.6v1h-1.8L52.5,89.4z M53,94.4h-5.9  l0.7-5.4c0-0.1,0.2-1.8,2.3-1.8c2.1,0,2.2,2.1,2.2,2.2L53,94.4z M44.7,94.4h-6.5c0.5-0.7,3.2-4.1,4-5.5c0.4-0.7,1.2-1.5,2-1.5  c0.7,0,1.4,0.7,1.9,2c-0.3,1.3-0.7,2.7-1.4,4L44.7,94.4z M45.8,55.6c0.1,0,0.4-0.1,0.8-0.1c0,0.2,0,0.5,0,0.7  c-0.4,0-0.6,0.1-0.8,0.1C45.7,56,45.8,55.8,45.8,55.6z M46.4,36.7c0,0,0.3-0.1,0.7-0.2c0.1,0.6,0.1,1.4,0.1,2.1c0,0.2,0,0.5,0,1.1  c0,2.1-0.1,4.1-0.2,6c-0.3,0-0.6,0.1-0.7,0.1C46.4,43,46.4,40,46.4,36.7z M47.1,34.8L46,33.2c0.5-0.1,1.1-0.2,1.9-0.2v0l0.5,1.2  c0,0.2,0,0.8,0,1.9c-0.4,0-0.8,0.1-1.1,0.2C47.3,35.4,47.1,34.8,47.1,34.8z M53,34.8c0,0-0.1,0.6-0.2,1.5C52.2,36.1,51.6,36,51,36  c0-1.1,0-1.7,0-1.9l0.5-1.1v0c0.8,0,1.7,0.1,2.6,0.2L53,34.8L53,34.8z M54.1,80.6c-0.6-0.4-1.2-0.6-1.8-0.8  c-0.1-0.2-0.2-0.6-0.2-1.1c1.4,0,3,0.1,4.7,0.2c0.2,0.3,0.3,0.6,0.5,0.8C55.7,79.8,54.4,80.4,54.1,80.6z M50.8,45.9  c0,0.2,0,0.5,0,0.7c-0.9,0-1.7,0-2.3,0c0-0.2,0-0.5,0-0.7C49.2,45.8,49.9,45.8,50.8,45.9z M48.5,45.6c0.1-3.9,0.2-7.2,0.2-9.3  c0.6-0.1,1.3-0.1,2,0c0,2.1,0,5.4,0.1,9.3C49.9,45.6,49.2,45.6,48.5,45.6z M50.8,46.9c0,2.6,0.1,5.3,0.1,8.2c-1,0-1.9,0-2.6,0  c0.1-2.8,0.2-5.6,0.2-8.2C49.2,46.9,49.9,46.8,50.8,46.9z M50.9,55.3c0,0.2,0,0.5,0,0.7c-1,0-1.9,0-2.7,0c0-0.2,0-0.5,0-0.7  C49,55.3,49.9,55.3,50.9,55.3z M50.9,56.3c0,2.6,0.1,5.2,0.2,7.7C49.9,64,48.9,64,48,64c0.1-2.5,0.2-5.1,0.3-7.7  C49,56.3,49.9,56.3,50.9,56.3z M51.9,76.2c-0.1-1-0.1-2.2-0.2-3.5c1.1,0,2.2,0.1,3.5,0.2c0.2,1.3,0.5,2.5,0.8,3.5  C54.4,76.3,53.1,76.2,51.9,76.2z M56,76.7c0.2,0.7,0.4,1.3,0.6,1.8c-1.7-0.1-3.2-0.1-4.6-0.2c-0.1-0.5-0.1-1.1-0.2-1.8  C53.1,76.5,54.5,76.6,56,76.7z M51.6,72.4c0-0.2,0-0.5,0-0.7c1,0,2.1,0.1,3.4,0.2c0,0.2,0.1,0.5,0.1,0.7  C53.8,72.5,52.7,72.4,51.6,72.4z M51.1,66c0.1,1.9,0.1,3.8,0.2,5.4c-1.4,0-2.6,0-3.6,0c0.1-1.7,0.2-3.5,0.2-5.4  C48.8,65.9,49.9,65.9,51.1,66z M47.9,65.7c0-0.5,0-0.9,0.1-1.4c0.9,0,1.9-0.1,3.1,0c0,0.5,0,0.9,0,1.4  C49.9,65.6,48.8,65.6,47.9,65.7z M51.3,71.7c0,0.2,0,0.5,0,0.7c-1.4,0-2.7,0-3.7,0c0-0.2,0-0.5,0-0.7C48.7,71.7,49.9,71.7,51.3,71.7  z M51.6,71.4c-0.1-1.7-0.1-3.5-0.2-5.4c0.9,0.1,1.8,0.1,2.8,0.3c0.2,2,0.5,3.7,0.7,5.3C53.7,71.5,52.6,71.4,51.6,71.4z M51.4,65.7  c0-0.5,0-0.9,0-1.4c0.8,0.1,1.7,0.1,2.7,0.3c0,0.5,0.1,0.9,0.1,1.4C53.2,65.8,52.3,65.8,51.4,65.7z M51.4,64  c-0.1-2.5-0.1-5.1-0.2-7.7c0.7,0,1.4,0.1,2.2,0.1c0.2,2.8,0.4,5.4,0.6,7.8C53.1,64.2,52.2,64.1,51.4,64z M47.7,64  c-0.6,0-1.1,0.1-1.6,0.2c0.2-2.3,0.4-4.9,0.6-7.7c0.3,0,0.7-0.1,1.2-0.1C47.9,58.9,47.8,61.5,47.7,64z M47.7,64.3  c0,0.5,0,0.9-0.1,1.4c-0.7,0-1.2,0.1-1.7,0.2c0-0.5,0.1-0.9,0.1-1.4C46.6,64.4,47.1,64.3,47.7,64.3z M47.7,66  c-0.1,1.9-0.2,3.7-0.2,5.4c-0.9,0-1.6,0.1-2.2,0.1c0.3-1.6,0.5-3.4,0.7-5.4C46.4,66.1,47,66,47.7,66z M47.4,71.7c0,0.2,0,0.5,0,0.7  c-0.9,0-1.7,0.1-2.3,0.1c0-0.2,0.1-0.5,0.1-0.7C45.8,71.8,46.5,71.7,47.4,71.7z M47.3,72.7c-0.1,1.3-0.2,2.5-0.2,3.5  c-1.2,0-2.1,0.1-2.8,0.1c0.3-1,0.5-2.2,0.8-3.5C45.6,72.8,46.4,72.7,47.3,72.7z M47.6,72.7c1.1,0,2.3,0,3.8,0  c0.1,1.3,0.1,2.5,0.2,3.5c-1.6,0-3,0-4.2,0C47.5,75.2,47.5,74,47.6,72.7z M51.6,76.5c0.1,0.7,0.1,1.3,0.2,1.8c-1.8,0-3.3,0-4.6,0  c0.1-0.5,0.1-1.1,0.2-1.8C48.6,76.4,50,76.4,51.6,76.5z M51.8,78.6c0.1,0.5,0.1,0.8,0.2,1.1c-0.6-0.1-1.1-0.2-1.7-0.2  c-1.4,0-2.6,0.4-3.4,0.7c0.1-0.3,0.2-0.9,0.3-1.5C48.5,78.6,50,78.5,51.8,78.6z M57.6,79.5c-0.2-0.2-0.3-0.4-0.5-0.7  c0.3,0,0.6,0,0.9,0.1c0.1,0.2,0.3,0.4,0.4,0.6C58.1,79.5,57.8,79.5,57.6,79.5z M56.9,78.5c-0.2-0.5-0.4-1.1-0.7-1.8  c0.3,0,0.6,0,0.8,0.1c0.2,0.7,0.5,1.3,0.8,1.8C57.6,78.5,57.3,78.5,56.9,78.5z M56.2,76.4c-0.3-1-0.5-2.1-0.8-3.5c0.2,0,0.5,0,0.7,0  c0.3,1.3,0.6,2.5,0.9,3.5C56.8,76.4,56.5,76.4,56.2,76.4z M55.4,72.6c0-0.2-0.1-0.5-0.1-0.7c0.2,0,0.4,0,0.7,0  c0,0.2,0.1,0.5,0.1,0.7C55.8,72.6,55.6,72.6,55.4,72.6z M55.2,71.6c-0.3-1.6-0.5-3.3-0.7-5.3c0.2,0,0.4,0.1,0.6,0.1  c0.2,1.9,0.5,3.6,0.8,5.3C55.6,71.6,55.4,71.6,55.2,71.6z M54.5,66c0-0.5-0.1-0.9-0.1-1.4c0.2,0,0.4,0.1,0.6,0.1  c0,0.5,0.1,0.9,0.2,1.4C54.9,66.1,54.7,66,54.5,66z M54.3,64.3c-0.2-2.4-0.4-5-0.6-7.8c0.2,0,0.4,0,0.6,0.1c0.2,2.6,0.4,5.3,0.6,7.8  C54.7,64.4,54.5,64.4,54.3,64.3z M54.2,56.3c-0.2,0-0.4,0-0.6-0.1c0-0.2,0-0.5,0-0.7c0.2,0,0.4,0,0.6,0.1  C54.2,55.8,54.2,56,54.2,56.3z M53.4,56.2c-0.8-0.1-1.5-0.1-2.2-0.1c0-0.2,0-0.5,0-0.7c0.7,0,1.4,0.1,2.1,0.1  C53.4,55.7,53.4,56,53.4,56.2z M51.2,55.1c0-2.8-0.1-5.6-0.1-8.2c0.6,0,1.2,0.1,1.9,0.1c0.1,2.9,0.2,5.6,0.4,8.2  C52.6,55.1,51.9,55.1,51.2,55.1z M51.1,46.6c0-0.2,0-0.5,0-0.7c0.6,0,1.2,0.1,1.8,0.1c0,0.2,0,0.5,0,0.7  C52.3,46.7,51.7,46.6,51.1,46.6z M53.2,46.1c0.2,0,0.4,0,0.6,0.1c0,0.2,0,0.5,0,0.7c-0.2,0-0.4,0-0.6-0.1  C53.2,46.5,53.2,46.3,53.2,46.1z M53.8,45.8c-0.2,0-0.4-0.1-0.6-0.1c-0.1-1.9-0.1-3.9-0.2-6c0-0.5,0-0.9,0-1.1c0-0.8,0-1.5,0.1-2.1  c0.2,0.1,0.5,0.1,0.7,0.2C53.7,38.7,53.7,41.9,53.8,45.8z M52.7,38.7c0,0.2,0,0.5,0,1c0,2.1,0.1,4.1,0.2,6c-0.7-0.1-1.3-0.1-1.8-0.1  c0-3.9-0.1-7.3-0.1-9.3c0.6,0,1.2,0.1,1.7,0.3C52.7,37.2,52.7,37.9,52.7,38.7z M50.8,34L50.8,34c0,0.3,0,0.9,0,2c-0.7,0-1.4,0-2,0  c0-1,0-1.7,0-1.9l0,0L48.2,33c0.9,0,1.9-0.1,3,0L50.8,34z M48.4,36.3c0,2-0.1,5.4-0.2,9.3c-0.4,0-0.7,0.1-1,0.1  c0.1-1.9,0.1-3.9,0.2-5.9c0-0.5,0-0.9,0-1c0-0.8,0-1.6-0.1-2.2C47.7,36.4,48,36.4,48.4,36.3z M46.3,46.1c0,0,0.3-0.1,0.7-0.1  c0,0.2,0,0.5,0,0.7c-0.4,0-0.6,0.1-0.7,0.1C46.3,46.6,46.3,46.4,46.3,46.1z M47.2,46c0.3,0,0.6-0.1,1-0.1c0,0.2,0,0.5,0,0.7  c-0.4,0-0.7,0.1-1,0.1C47.2,46.5,47.2,46.2,47.2,46z M48.2,46.9c-0.1,2.6-0.1,5.3-0.2,8.2c-0.5,0-0.9,0.1-1.2,0.1  c0.1-2.5,0.3-5.3,0.4-8.2C47.5,47,47.8,46.9,48.2,46.9z M48,55.3c0,0.2,0,0.5,0,0.7c-0.5,0-0.9,0.1-1.2,0.1c0-0.2,0-0.5,0-0.7  C47.1,55.4,47.5,55.4,48,55.3z M45.7,56.6c0.1,0,0.3-0.1,0.8-0.1c-0.2,2.8-0.4,5.4-0.6,7.7c-0.4,0.1-0.8,0.1-0.9,0.2  C45.2,62.1,45.5,59.5,45.7,56.6z M44.9,64.7c0.1,0,0.5-0.1,1-0.2c0,0.5-0.1,0.9-0.1,1.4c-0.5,0.1-0.8,0.1-1,0.2  C44.8,65.6,44.8,65.2,44.9,64.7z M44.7,66.4c0.1,0,0.5-0.1,1-0.2c-0.2,2-0.4,3.8-0.7,5.3c-0.5,0-0.9,0.1-1.1,0.1  C44.1,70.1,44.4,68.4,44.7,66.4z M43.8,71.9c0.2,0,0.5-0.1,1.1-0.1c0,0.2-0.1,0.5-0.1,0.7c-0.6,0-0.9,0.1-1.1,0.1  C43.7,72.4,43.8,72.2,43.8,71.9z M43.6,72.9c0.1,0,0.5-0.1,1.1-0.1c-0.2,1.4-0.5,2.5-0.8,3.5c-0.5,0-0.9,0.1-1.1,0.1  C43.1,75.5,43.4,74.3,43.6,72.9z M42.8,76.7c0.2,0,0.5-0.1,1.1-0.1c-0.2,0.7-0.4,1.3-0.7,1.8c-0.4,0-0.7,0.1-0.9,0.1  C42.5,78.1,42.6,77.5,42.8,76.7z M44.2,76.6c0.7,0,1.7-0.1,2.9-0.1c-0.1,0.7-0.1,1.3-0.2,1.8c-1.4,0-2.6,0.1-3.4,0.1  C43.8,77.9,44,77.3,44.2,76.6z M46.9,78.6c-0.1,0.8-0.2,1.4-0.3,1.7l0,0c-0.3,0.1-0.5,0.3-0.6,0.3c-1.1-0.5-2.1-0.8-3-1  c0.2-0.2,0.3-0.5,0.5-0.9C44.2,78.7,45.4,78.6,46.9,78.6z M55.3,93.3c-0.8-1.1-1.3-2.4-1.6-3.7c0.6-1.3,1.3-2,2-2.1  c0.8,0,1.6,0.7,2,1.4c0.8,1.4,3.5,4.8,4,5.5h-6.3L55.3,93.3L55.3,93.3z M54.2,55.3c-0.2,0-0.4,0-0.6-0.1c-0.1-2.5-0.3-5.3-0.4-8.2  c0.2,0,0.4,0,0.6,0.1C53.9,49.7,54,52.4,54.2,55.3z M53.8,35.1c0,0.1,0,0.6,0,1.4c-0.2-0.1-0.4-0.1-0.7-0.2c0.1-0.8,0.2-1.3,0.2-1.4  l1.1-1.6c0.2,0,0.3,0,0.5,0.1v0.3C54.6,33.7,53.8,34.2,53.8,35.1z M52.5,30.3v-1.7c0.3,0.1,0.5,0.1,0.8,0.2l0,0v1.6  C53,30.4,52.7,30.3,52.5,30.3z M47.2,22.6l0.5,0.2v2.6c-0.4,0.1-0.7,0.1-0.8,0.2v-2.8l-0.1-0.1C46.8,22.7,47,22.6,47.2,22.6z   M53.5,22.7l-0.2,0.2v2.7c-0.3-0.1-0.5-0.2-0.8-0.2v-2.6l0.5-0.2C53.1,22.6,53.3,22.7,53.5,22.7z M53.3,28.6  c-0.3-0.1-0.5-0.2-0.8-0.2v-2.7c0.3,0.1,0.5,0.1,0.8,0.2l0,0V28.6z M50.9,25.5c0.4,0,0.8,0.1,1.3,0.1v2.7c-0.4-0.1-0.8-0.1-1.2-0.1  L50.9,25.5z M50.6,28.1c-0.4,0-0.8,0-1.2,0l0-2.7c0.4,0,0.8,0,1.2,0L50.6,28.1z M52.2,22.7v2.7c-0.4-0.1-0.8-0.1-1.3-0.1l0-2.5  l0.2-0.4v-0.1c0.5,0,1,0.1,1.5,0.2L52.2,22.7z M50.8,22.3l-0.2,0.4l0,2.5c-0.4,0-0.8,0-1.2,0l0-2.5l0,0l-0.2-0.4  C49.8,22.3,50.3,22.2,50.8,22.3L50.8,22.3z M49.2,22.7l0,2.5c-0.5,0-0.9,0.1-1.3,0.2v-2.8l-0.3-0.1c0.4-0.1,0.9-0.2,1.4-0.2v0  L49.2,22.7z M46.8,25.9c0.1,0,0.4-0.1,0.8-0.2v2.6c-0.4,0.1-0.7,0.1-0.8,0.2V25.9z M47.9,25.7c0.4-0.1,0.8-0.1,1.3-0.2l0,2.7  c-0.5,0-0.9,0.1-1.2,0.2V25.7z M49.2,28.5l0,1.8c-0.4,0-0.8,0-1.2,0.1v-1.7C48.3,28.6,48.7,28.5,49.2,28.5z M49.5,28.5  c0.4,0,0.8,0,1.2,0l0,1.8c-0.4,0-0.8,0-1.2,0L49.5,28.5z M50.9,30.2l0-1.8c0.4,0,0.8,0.1,1.2,0.1v1.7C51.8,30.3,51.3,30.2,50.9,30.2  z M48.5,11.5c0,0,0-0.2,0-0.4l0,0c0.1,0,1.4-1,3.2,0c0,0.1,0,0.2,0,0.4H48.5z M50,8.3c0.3,0.1,1.6,0.5,1.6,2.5  c-1.6-0.8-2.8-0.3-3.2,0C48.5,10,48.7,8.9,50,8.3z M48.4,11.7h3.3c0.2,0,0.4,0.2,0.4,0.4v7.8c-0.2,0-0.5-0.1-0.7-0.1v-7.2  c0-0.4-0.3-0.7-0.7-0.7h-0.4c-0.4,0-0.7,0.3-0.7,0.7v7.1c-0.1,0-0.3,0-0.4,0v-7.1c0-0.2-0.1-0.3-0.2-0.4c-0.2-0.2-0.7-0.2-1-0.2  C48.1,11.9,48.3,11.7,48.4,11.7z M51.2,14.7h-1.3v-2.1c0-0.3,0.2-0.5,0.5-0.5h0.4c0.3,0,0.5,0.2,0.5,0.5V14.7z M49.9,15h1.3v0.5  h-1.3V15z M49.9,15.8h1.3v4c-0.5,0-0.9-0.1-1.3-0.1V15.8z M48.1,12.3c0.2,0,0.6,0,0.8,0.1c0,0,0.1,0.1,0.1,0.2v2.1H48L48.1,12.3  L48.1,12.3z M48,15h0.9v0.5H48V15z M48,15.8h0.9v4c-0.3,0-0.6,0-0.9,0.1V15.8z M46.4,20.5c0.2-0.1,0.7-0.2,1.4-0.3H48v0  c1.3-0.2,3.2-0.2,5.7,0.4v2l0,0c-0.2-0.1-0.5-0.1-0.7-0.2v-0.9h-0.3v0.8c-0.6-0.1-1.1-0.2-1.6-0.2l0-0.7h-0.3V22c-0.5,0-1,0-1.5,0  v-0.7H49V22c-0.6,0.1-1.2,0.1-1.6,0.2v-0.9h-0.3v0.9c-0.3,0.1-0.5,0.1-0.6,0.2l-0.1-0.1V20.5z M46.8,28.9c0.1,0,0.4-0.1,0.8-0.2v1.7  c-0.3,0-0.6,0.1-0.8,0.1V28.9z M45.5,32.4v-1.5c0.8-0.1,5.2-0.8,9.1,0v1.7l0.3,0.3V33c-0.2,0-0.3,0-0.4-0.1v-1h-0.3v1  c-0.9-0.1-1.8-0.2-2.6-0.2l0-0.8h-0.3v0.8c-1.1-0.1-2.2,0-3,0v-0.7H48v0.8c-0.8,0.1-1.5,0.1-1.9,0.2v-1h-0.3v1  c-0.3,0-0.5,0.1-0.5,0.1v-0.4L45.5,32.4z M45.2,33.6v-0.3c0,0,0.2,0,0.5-0.1v0l1.1,1.7c0,0.1,0.1,0.6,0.2,1.4  c-0.3,0.1-0.5,0.1-0.6,0.2c0-0.4,0-0.9,0-1.3l0,0C46.4,35.1,46.1,33.9,45.2,33.6z M46.2,47l0,0.1c0,0,0.2-0.1,0.7-0.1  c-0.1,2.9-0.2,5.6-0.4,8.1c-0.3,0-0.6,0.1-0.8,0.1C46,52.7,46.1,50,46.2,47z M42.3,78.8c0.1,0,0.4,0,0.8-0.1  c-0.2,0.3-0.3,0.6-0.5,0.8c-0.2,0-0.4,0-0.5,0C42.1,79.4,42.2,79.2,42.3,78.8z M45.9,80.9L45.9,80.9L45.9,80.9  c0.3,0.8,1.1,4.2,0.4,8.1c-0.6-1.2-1.3-1.8-2-1.8c-0.8-0.1-1.6,0.6-2.2,1.6c-0.9,1.5-4,5.6-4.1,5.6l0.1,0h-2.7v-0.7  c0.7-0.2,4.8-1.6,6.1-6.2c1.2-4.5-1.7-6.6-2.4-7c0.3-0.3,1.1-0.9,2.7-0.9C42.8,79.7,44.3,80.1,45.9,80.9z M30.8,93.7  c0.9-0.2,6.7-1.7,8-5.8c0.6-1.9,0.5-3.5-0.3-4.8c-0.7-1.1-2-1.9-3.6-2.2c0.2-0.3,0.8-0.7,1.8-0.7c0.6,0,1.2,0.2,1.9,0.5l0.1,0.1l0,0  c0.5,0.3,3.5,2.3,2.3,6.7c-1.3,4.8-5.9,6-6,6l-0.1,0v0.9h-4.1V93.7z M69.2,94.4h-4.1v-0.8l-0.1,0c0,0-4.6-1.2-6-6  c-1.3-4.7,2.5-6.7,2.7-6.8c0,0,0.9-0.4,1.8-0.4c0.7,0,1.3,0.2,1.6,0.7c-0.7,0.1-3.1,0.6-4.1,2.5c-0.8,1.5-0.5,3.4,0.9,5.8  c0,0,2.3,3.3,7.3,4.5V94.4z" fill="#231F20"/></svg>