<svg xmlns="http://www.w3.org/2000/svg" xmlns:xlink="http://www.w3.org/1999/xlink" version="1.1" x="0px" y="0px" viewBox="0 0 100 125" style="enable-background:new 0 0 100 100;" xml:space="preserve"><path style="" d="M94.4,87.5l-1-5.5l-3.9-0.1l-1.9-4.7l-3.2-35.8l-3.9-14.7c0.1,0,0.2-0.1,0.2-0.2  c0-0.1-0.1-0.2-0.2-0.2c0,0,0.1,0,0.1,0c0.3-0.2,0.4-0.6,0.2-1c0,0,0-0.1-0.1-0.1c0.1,0.3,0,0.7-0.3,0.9c-0.3,0.2-0.7,0.1-0.9-0.2  c0,0,0,0.1,0.1,0.1c0.1,0.3,0.4,0.4,0.7,0.4c-0.1,0-0.1,0.1-0.1,0.2c0,0.1,0,0.1,0.1,0.2L79,41.7l0.2,2.8c0,0,0,0,0,0l0,0l2.4,32.7  l-0.9,4.5l-3.4-0.1L63.5,69l-6.3-3.5l-0.4-9.3l-1.5-9.3c0.1,0,0.2-0.1,0.1-0.2c0-0.1-0.1-0.2-0.2-0.2l0,0c0,0,0.1,0,0.1,0  c0.3-0.2,0.4-0.7,0.2-1c0,0-0.1-0.1-0.1-0.1c0.2,0.3,0.1,0.7-0.2,0.9s-0.7,0.1-0.9-0.2c0,0,0,0.1,0.1,0.1c0.2,0.3,0.4,0.4,0.7,0.4  c-0.1,0-0.1,0.1-0.1,0.2c0,0.1,0.1,0.2,0.2,0.2L55,48.8l0,0v0l-1,7.5v7.4L52.6,63l-5.6-2.1l-0.8-4.9l0-0.1l-0.7-0.4l-1.3,2.4  l-0.5-3.4c0.7-0.2,1.1-0.9,1.1-1.8c0-0.1,0-0.2,0-0.3c-0.1,0.9-0.8,1.5-1.6,1.5s-1.5-0.7-1.6-1.5c0,0.1,0,0.2,0,0.3  c0,0.9,0.6,1.7,1.4,1.8l-0.1,0.8h-1.3l0,1.5l-1-1l-0.6,4.8l-17.3,5.2l0.9-23.8l0,0l0,0l0.4-9.5l-1.5-18.5c0.1,0,0.2-0.1,0.2-0.2  c0-0.1-0.1-0.2-0.2-0.2c0,0,0.1,0,0.1,0c0.3-0.2,0.4-0.6,0.2-1c0,0,0-0.1-0.1-0.1c0.1,0.3,0,0.7-0.3,0.9s-0.7,0.1-0.9-0.2  c0,0,0,0.1,0.1,0.1c0.1,0.3,0.4,0.4,0.7,0.4c-0.1,0-0.1,0.1-0.1,0.2c0,0.1,0.1,0.2,0.2,0.2l-0.6,3.4l0,0v0l-2.7,14.9l-2.2,43.1  l-1.4,5.4l-0.2,0l-0.1,0l-1,2l-0.4-1.9v-1.1l1-27.3l-1-12.1c0.1,0,0.2-0.1,0.2-0.2c0-0.1-0.1-0.2-0.2-0.2c0,0,0.1,0,0.1,0  c0.3-0.2,0.4-0.6,0.2-1c0,0,0-0.1-0.1-0.1c0.1,0.3,0,0.7-0.3,0.9c-0.3,0.2-0.7,0.1-0.9-0.2c0,0,0,0.1,0.1,0.1  c0.1,0.3,0.4,0.4,0.7,0.4c-0.1,0-0.1,0.1-0.1,0.2c0,0.1,0.1,0.2,0.2,0.2l-2.1,11.9L10,79.7l-0.3,1.9l-4.1,2.9l0,0v3.1h5.1l0.9-0.2  H94.4z M6.1,85.2l0-0.7l0.1-0.1L6.1,85.2L6.1,85.2z M6.4,84.2l0.1-0.1v0.8L6.4,85V84.2z M6.8,83.9L6.8,83.9l0.1,0.8l-0.1,0V83.9z   M7.1,83.7l0.1-0.1v1l-0.1,0.1V83.7z M7.4,83.5l0.1-0.1v1.1l-0.1,0.1V83.5z M7.8,83.2l0.1-0.1v1.1l-0.1,0.1V83.2z M8.2,82.9l0.1-0.1  v1.2l-0.1,0.1V82.9z M8.5,82.7l0.1-0.1v1.3L8.5,84V82.7z M8.9,82.5L9,82.4v1.4l-0.1,0.1V82.5z M9.2,82.2l0.2-0.1v1.4l-0.2,0.1V82.2z   M9.6,81.9L9.6,81.9l0.1,1.4l-0.1,0V81.9z M9.9,81.7l0.2-0.1v1.6l-0.2,0.1V81.7z M10.3,81.4l0.1-0.1V83l-0.1,0.1V81.4z M10.9,79.4  h1.2L12,82.7l-0.1,0l0.1-2.1l-1.1,0.1l-0.3,0.2l0.2-1.2L10.9,79.4z M13.4,79.2h-0.8l0.1-2.9l0.8,0.5L13.4,79.2z M12.3,79.2L13,59.6  l0.2-5.4c0,0,0.1,0,0.1,0c0,0,0,0,0.1,0L12.3,79.2L12.3,79.2z M12.4,79.4l0,0.3l0.2,3l-0.4,0L12.4,79.4L12.4,79.4z M11.5,54.3l0-0.4  c0.1-0.1,0.7-0.5,1.4-0.5l0,0.5C12.3,53.9,11.8,54.1,11.5,54.3z M13.1,53.4C13.2,53.4,13.2,53.4,13.1,53.4c0.9,0.1,1.2,0.4,1.2,0.5  l0,0.4c-0.2-0.1-0.5-0.3-1.1-0.4c0,0-0.1,0-0.1,0L13.1,53.4z M13.2,52.1c0.8,0.1,1.1,0.5,1.2,0.5l0,0.4c-0.2-0.1-0.5-0.3-1.2-0.4  c0,0,0,0-0.1,0L13.2,52.1C13.2,52.1,13.2,52.1,13.2,52.1z M13.2,52.8c0.8,0.1,1.1,0.4,1.2,0.5l0,0.3c-0.2-0.1-0.5-0.3-1.1-0.4  c0,0-0.1,0-0.1,0L13.2,52.8C13.2,52.8,13.2,52.8,13.2,52.8z M13.5,55.4l0.8,0.5l0,1l-0.8-0.5L13.5,55.4z M12.7,76l0-1.3l0.8,0.5  l0,1.2L12.7,76z M12.8,74.5l0-1.2l0.8,0.5l0,1.2L12.8,74.5z M12.8,73l0.2-6.7l0.8,0.5l-0.3,6.7L12.8,73z M13.1,66l0-1.1l0.8,0.5  l0,1.1L13.1,66z M13.1,64.6l0-1.1L14,64l0,1.1L13.1,64.6z M13.2,63.3l0-1.1l0.8,0.5l0,1.1L13.2,63.3z M13.2,61.9l0-1.2l0.8,0.5  l0,1.2L13.2,61.9z M13.3,60.5l0-1.1l0.8,0.4l0,1.1L13.3,60.5z M13.3,59.2l0-1.1l0.8,0.5l0,1.1L13.3,59.2z M13.4,57.8l0-1l0.8,0.5  l0,1.1L13.4,57.8z M13.5,55.2l0-1c0.6,0.1,0.8,0.4,0.8,0.4l0,1.1L13.5,55.2z M13.2,51.9C13.2,51.9,13.2,51.9,13.2,51.9l0.4-9.1  l0.8,9.6C14.2,52.2,13.9,52,13.2,51.9z M13,51.8c-0.2,0-0.5,0-0.7,0.1l1-9.1l0,0l0.1-0.6L13,51.8z M12.1,52  c-0.2,0.1-0.3,0.1-0.4,0.2l1.1-6.2L12.1,52z M11.6,52.4c0.1-0.1,0.6-0.4,1.3-0.4l0,0.5c-0.6,0-1.1,0.2-1.4,0.4L11.6,52.4z   M11.6,53.2c0.1-0.1,0.7-0.4,1.4-0.4l0,0.4c-0.6,0-1.1,0.2-1.4,0.4L11.6,53.2z M11.5,54.6c0,0,0.2-0.1,0.5-0.2l-1.3,24.9h-0.4  L11.5,54.6z M12.2,54.2c0.2-0.1,0.4-0.1,0.7-0.1l-0.2,5.5l-0.6,19.6h-1.2L12.2,54.2z M10.7,81.2l0.2-0.2v1.7l-0.2,0.1V81.2z   M11.1,80.9l0.7-0.1l-0.1,1.8l-0.6,0.1V80.9z M11.9,82.9l2,0l-2.1,4.2L11.9,82.9z M19.1,32.5c0.2-0.1,1-0.7,2.2-0.6l0,0.9  c-1.1,0-1.9,0.4-2.2,0.6L19.1,32.5z M22.1,75.1h-1.4l0.2-5.4l1.3,0.8L22.1,75.1z M20.2,75.1l1-30.8l0.3-9.2c0.1,0,0.1,0,0.2,0  c0.1,0,0.1,0,0.2,0l-1.4,39.9H20.2z M21.3,35.1l-0.3,9.2l-1,30.8h-2l2-39.8C20.4,35.2,20.8,35.1,21.3,35.1z M21.6,33  c0,0,0.1,0,0.1,0c1.4,0.2,1.8,0.8,1.9,0.9l0,0.6c-0.3-0.2-0.8-0.5-1.8-0.7c-0.1,0-0.1,0-0.2,0L21.6,33z M21.3,33.8  c-1.1,0-1.9,0.4-2.3,0.6l0-0.7c0.2-0.1,1.1-0.7,2.2-0.7L21.3,33.8z M21.7,34.1c1.3,0.2,1.8,0.7,1.9,0.8l0,0.8  c-0.2-0.2-0.8-0.5-1.8-0.7c-0.1,0-0.2,0-0.2,0l0-0.9C21.6,34,21.6,34,21.7,34.1z M22.3,68L21,67.1l0.1-2l1.4,0.8L22.3,68z   M22.2,70.3l-1.3-0.8l0.1-2.1l1.3,0.8L22.2,70.3z M21.1,64.9l0.1-1.9l1.4,0.8l-0.1,1.9L21.1,64.9z M21.1,62.7l0.1-1.8l1.4,0.8  l-0.1,1.8L21.1,62.7z M21.2,60.6l0.1-2l1.4,0.9l-0.1,2L21.2,60.6z M21.3,58.3l0.1-1.9l1.4,0.9l-0.1,1.9L21.3,58.3z M21.4,56.1  l0.1-1.9l1.4,0.9L22.7,57L21.4,56.1z M21.4,53.9l0.1-1.9l1.4,0.9l-0.1,1.9L21.4,53.9z M21.5,51.7l0.1-1.9l1.4,0.9l-0.1,1.9  L21.5,51.7z M21.6,49.5l0.1-1.8l1.4,0.9L23,50.4L21.6,49.5z M21.7,47.4l0.1-2l1.4,0.9l-0.1,2L21.7,47.4z M21.7,45.2l0.1-1.8l1.4,0.8  l-0.1,1.9L21.7,45.2z M21.8,43.1l0.1-1.9l1.4,0.9l-0.1,1.8L21.8,43.1z M22,37.1l1.4,0.9l-0.1,1.7L22,38.9L22,37.1z M22,36.9l0.1-1.6  c1,0.2,1.4,0.6,1.4,0.7l-0.1,1.8L22,36.9z M23.6,33.6c-0.3-0.2-0.8-0.6-1.9-0.8c-0.1,0-0.1,0-0.2,0l0-0.9c0,0,0.1,0,0.1,0  c1.4,0.2,1.9,0.8,1.9,0.9L23.6,33.6z M20.2,31.8l1.6-14.5l0.3-1.8l-0.8,16.2C20.9,31.7,20.6,31.7,20.2,31.8z M19,34.7L19,34.7  c0,0,0.9-0.7,2.3-0.7l0,0.9c-1.1,0-1.9,0.4-2.3,0.6L19,34.7z M19,35.8c0.1-0.1,0.4-0.3,0.8-0.4l-2,39.7H17L19,35.8z M20,75.3  l-0.2,5.2l-3.1-0.1l1.2-5.1H20z M20.2,75.3h0.3l1.6,5.2l-2.1,0L20.2,75.3z M20.7,75.3h1.3l0.9,5.3l-0.6,0L20.7,75.3z M38.2,64.9  l0.7,0.1l-0.4,0.5l-0.8-0.1L38.2,64.9z M81.9,77.2l-0.1-1.5l1.5-0.7l0.1,2.2L81.9,77.2z M84.3,42.4c-0.4-0.2-1.3-0.5-2.5-0.4l0-0.7  c1.3-0.1,2.3,0.3,2.5,0.4L84.3,42.4z M86.6,77.1l-3-33c0.5,0.1,0.8,0.3,0.9,0.3l2.9,32.6L86.6,77.1z M83.6,77.2l-0.2-2.3l0,0l0,0  L81.3,44c0.1,0,0.1,0,0.2,0c0.1,0,0.2,0,0.3,0l0.5,7.6l1.7,25.6L83.6,77.2z M82.5,51.6L82,43.9c0.5,0,1,0,1.4,0.1l3,33l-2.2,0.1  L82.5,51.6z M82,43.7l0-0.7c1.3-0.1,2.3,0.4,2.5,0.5l0.1,0.7C84.1,44,83.2,43.7,82,43.7z M81.9,42.8l0-0.6c1.3-0.1,2.3,0.3,2.5,0.5  l0.1,0.6C84.1,43.1,83.1,42.7,81.9,42.8z M81.7,42.8c-0.1,0-0.2,0-0.2,0c-1.2,0.2-1.8,0.5-2,0.7l0-0.5c0,0,0.5-0.5,2.1-0.7  c0.1,0,0.1,0,0.2,0L81.7,42.8z M81.8,41l-1.2-13.6l0.4,1.6l2.1,12C82.7,41,82.3,41,81.8,41z M81.6,41.3l0,0.7c-0.1,0-0.1,0-0.2,0  c-1.3,0.2-1.8,0.5-2.1,0.7l0-0.6c0.1-0.1,0.7-0.6,2.1-0.8C81.5,41.3,81.5,41.3,81.6,41.3z M79.4,43.7c0.1-0.1,0.6-0.5,2.1-0.7  c0.1,0,0.1,0,0.2,0l0,0.7c-0.1,0-0.2,0-0.3,0c-1.2,0.2-1.7,0.4-2,0.6L79.4,43.7z M79.5,44.6c0.1-0.1,0.6-0.4,1.6-0.6l0.1,1.3  l-1.6,0.8L79.5,44.6z M81.2,45.6l0.1,1.4l-1.6,0.8l-0.1-1.4L81.2,45.6z M79.7,48l1.6-0.8l0.1,1.5l-1.6,0.8L79.7,48z M81.4,49  l0.1,1.6L80,51.2l-0.1-1.5L81.4,49z M81.5,50.8l0.1,1.5L80.1,53L80,51.5L81.5,50.8z M81.7,52.5l0.1,1.6l-1.6,0.8l-0.1-1.6L81.7,52.5  z M81.8,54.4l0.1,1.5l-1.5,0.8l-0.1-1.5L81.8,54.4z M81.9,56.1l0.1,1.6l-1.5,0.8l-0.1-1.6L81.9,56.1z M82,57.9l0.1,1.6l-1.5,0.8  l-0.1-1.6L82,57.9z M82.2,59.8l0.1,1.9l-1.5,0.8l-0.1-1.9L82.2,59.8z M82.3,61.9l0.1,1.7l-1.5,0.8l-0.1-1.7L82.3,61.9z M82.5,63.9  l0.1,1.6L81,66.2l-0.1-1.6L82.5,63.9z M82.6,65.7l0.1,1.6l-1.5,0.7l-0.1-1.6L82.6,65.7z M81.2,68.3l1.5-0.7l0.1,1.1l-1.5,0.7  L81.2,68.3z M81.3,69.6l1.5-0.7l0.1,1.7l-1.5,0.7L81.3,69.6z M82.9,70.8l0.1,1.7l-1.5,0.7l-0.1-1.7L82.9,70.8z M83.1,72.7l0.1,2  l-1.5,0.7l-0.1-2L83.1,72.7z M84,77.4l0.3,4.4l0.2,0l-0.3-4.4l2.3-0.1l1.6,4.5l-4.9,0l-1.3,0l1.7-4.4L84,77.4z M20.4,82.9l-0.3,4.3  h-2.5l0.3-4.3L20.4,82.9z M27.8,79.4H25L25,79.2h2.9L27.8,79.4z M27.6,79.6l-0.2,0.3h-2.2l-0.1-0.3H27.6z M27.2,80.2L27,80.4h-1.7  l-0.1-0.2H27.2z M25.4,80.6h1.4l-0.2,0.2l-1.2,0L25.4,80.6z M52.1,64.3l0.9,0.8l-0.7,0.6l0.2,15.5l-0.1,0l-0.3-15.4l0,0l-0.9-0.9  C51.6,64.7,51.9,64.4,52.1,64.3z M73.5,81.8L73.5,81.8L73.5,81.8l0.1,1.3l-0.3,0v-1.3L73.5,81.8L73.5,81.8z M73.1,83.1l-1.2,0v-1.3  l1.2,0V83.1z M67.9,83.1v-1.3l3.2,0.1v1.3L67.9,83.1z M61.3,83v-1.4l0.4,0V83L61.3,83z M50.9,83v-1.5l3.6,0.1V83L50.9,83z M48,82.9  v-1.5l0.4,0v1.5L48,82.9z M43.4,82.9v-1.6l0.4,0v1.6L43.4,82.9z M40.9,82.9v-1.6l0.4,0v1.6L40.9,82.9z M38.5,82.9v-1.6l0.4,0v1.6  L38.5,82.9z M36.1,82.8v-1.6l0.4,0v1.6L36.1,82.8z M31,82.8v-1.7l0.4,0v1.7L31,82.8z M31.6,81.1l1.7,0v1.7l-1.7,0V81.1z M33.8,79.7  v1.3l-1.6,0v-1.1l0.7-0.8L33.8,79.7z M33.5,81.2l0.4,0v1.7l-0.4,0V81.2z M34.1,81.2l1.7,0v1.7l-1.7,0V81.2z M36,81l-1.5,0v-1.8  l0.6-1.7l0.8,0.6V81z M38.1,81l-1.5,0v-3.5l0.6-1.6l0.9,0.6V81z M36.7,81.2l1.6,0v1.6l-1.6,0V81.2z M40.2,81l-1.3,0V76l0.5-1.7  l0.7,0.6V81z M39.1,81.3l1.6,0v1.6l-1.6,0V81.3z M42.3,81.1l-1.3,0v-6.7l0.6-1.6l0.8,0.6V81.1z M41.5,81.3l1.6,0v1.6l-1.6,0V81.3z   M44.3,81.1l-1.2,0v-8.4l0.5-1.6l0.7,0.7V81.1z M44,81.3l1.5,0v1.6l-1.5,0V81.3z M46.3,81.1l-1.2,0v-9.9l0.5-1.6l0.7,0.6V81.1z   M45.6,81.4l0.4,0v1.6l-0.4,0V81.4z M46.3,81.4l1.5,0v1.5l-1.5,0V81.4z M46.9,69.7l0.6-1.6l0.7,0.7l0.2,12.5l-1.3,0L46.9,69.7z   M48.6,81.4l1.4,0V83l-1.4,0V81.4z M48.8,68.3l0.6-1.7l0.7,0.7v13.9l-1.2,0L48.8,68.3z M50.3,81.4l0.4,0V83l-0.4,0V81.4z M50.7,66.9  l0.6-1.7l0.7,0.7l0.3,15.4l-1.3,0L50.7,66.9z M52.5,65.8l0.6-0.5l0.8,2.1v13.8l-1.1,0L52.5,65.8z M54.5,67.4L55,67l0.9,2.2L56,81.3  l-1.2,0L54.5,67.4z M54.7,81.5l0.4,0V83l-0.4,0V81.5z M55.3,81.5l1.5,0V83l-1.5,0V81.5z M57.7,81.3l-1.2,0V69.2l0.4-0.4l0.8,2.1  V81.3z M57,81.6l0.4,0V83L57,83V81.6z M57.6,81.6l1.2,0V83l-1.2,0V81.6z M59.5,81.4l-1.2,0V70.8l0.4-0.4l0.8,2.2V81.4z M59.1,81.6  l0.4,0V83l-0.4,0V81.6z M59.7,81.6l1.4,0V83l-1.4,0V81.6z M61.4,81.4l-1.2,0v-8.9l0.3-0.5l0.9,2.2V81.4z M63.3,81.4l-1.2,0v-7.4  l0.3-0.5l0.9,2.3V81.4z M61.9,81.6l1.2,0v1.4l-1.2,0V81.6z M63.3,81.7l0.4,0v1.4l-0.4,0V81.7z M66.8,81.5l-1.3,0v-4l0.4-0.6l0.9,2.3  V81.5z M65,81.5l-1.2,0v-5.8l0.4-0.4l0.8,2.2V81.5z M63.9,81.7l1.3,0v1.4l-1.3,0V81.7z M65.4,81.7l0.3,0v1.4l-0.3,0V81.7z   M65.9,81.7l1.3,0v1.3l-1.3,0V81.7z M68.7,81.5l-1.3,0v-2.4l0.4-0.6l0.9,2.1V81.5z M67.4,81.7l0.3,0v1.3l-0.3,0V81.7z M71.4,81.8  l0.2,0l0,0l0,0l0,0v1.3l-0.3,0V81.8z M70.8,81.6v-0.5l0.6,0.5L70.8,81.6z M70.6,80.9v0.7l-1.3,0v-1.3l0.2-0.4l0.1,0.1L70.6,80.9z   M69.1,80.2v1.3l-0.2,0v-0.9L68,78.6l1.3,1.2L69.1,80.2z M67.2,79v2.5l-0.1,0v-2.3l-0.9-2.3l1.5,1.4L67.2,79z M65.3,77.4v4.1l-0.1,0  L65.3,77.4l-0.9-2l1.4,1.3L65.3,77.4z M63.6,75.6v5.9l-0.1,0v-5.6l-0.9-2.2l1.5,1.4L63.6,75.6z M61.8,74v7.4l-0.2,0v-7.2L60.7,72  l1.6,1.4L61.8,74z M59.9,72.4v9l-0.2,0v-8.8L59,70.4l1.4,1.3L59.9,72.4z M58.1,70.7v10.6l-0.2,0V70.9l-0.7-2l1.5,1.4L58.1,70.7z   M56.3,69.1v12.3l-0.1,0l-0.1-12.2l-0.8-2.1l1.6,1.5L56.3,69.1z M54.3,67.3l0.2,14l-0.4,0V67.4l-0.8-2.1l1.6,1.4L54.3,67.3z   M50.5,66.9L50.5,66.9l0.2,14.3l-0.3,0v-14l-0.9-0.9c0.6-0.5,1.2-0.9,1.7-1.3L50.5,66.9z M48.6,68.3L48.6,68.3l0.1,12.9l-0.1,0  l-0.2-12.5v0l-0.9-0.9c0.6-0.4,1.1-0.8,1.6-1.2L48.6,68.3z M46.7,69.6l0.2,11.5l-0.4,0v-11l-0.9-0.8c0.6-0.5,1.2-0.9,1.8-1.4  L46.7,69.6z M44.8,71.2l0,9.9l-0.3,0v-9.5l-0.9-0.8c0.6-0.5,1.2-0.9,1.8-1.4L44.8,71.2z M42.8,72.6l0,8.5l-0.3,0v-7.8l-1-0.8  c0.6-0.5,1.2-0.9,1.8-1.4L42.8,72.6z M40.7,74.3l0,6.8l-0.3,0v-6.3l-1-0.8c0.6-0.5,1.2-0.9,1.9-1.4L40.7,74.3z M38.7,75.9l0,5.1  l-0.3,0v-4.6l-1.1-0.7c0.6-0.5,1.3-1,2-1.5L38.7,75.9z M36.5,77.4l0,3.6l-0.3,0v-3l-1-0.7c0.6-0.4,1.2-0.9,1.9-1.4L36.5,77.4z   M34.3,79.1l0,1.8l-0.3,0v-1.4l-1-0.8c0.3-0.2,1-0.7,1.9-1.4L34.3,79.1z M32,79.7v1.2l-1,0c0.1-0.2,0.4-0.9,1.5-1.7L32,79.7z   M30.7,82.8l-1.7,0v-1.7l1.7,0V82.8z M28.4,82.8v-1.7l0.4,0v1.7L28.4,82.8z M28,80.8l1.6-2.1v2.2L28,80.8z M28.2,81.1v1.7l-1.8,0V81  L28.2,81.1z M25.8,82.8V81l0.4,0v1.7L25.8,82.8z M25.6,81v1.7l-1.9,0V81L25.6,81z M23.5,82.7l-0.4,0V81l0.4,0V82.7z M22.9,82.7l-2,0  v-1.8l2,0V82.7z M20.7,82.7l-0.4,0v-1.8l0.4,0V82.7z M20.1,82.7l-1.9,0v-1.8l1.9,0V82.7z M20.6,83l2.5,0l-0.3,4.3h-2.5L20.6,83z   M23.3,83l2.5,0l-0.3,4.3h-2.5L23.3,83z M26.1,83l2.4,0l-0.3,4.3h-2.4L26.1,83z M28.7,83l2.4,0l-0.3,4.2h-2.4L28.7,83z M31.3,83  l2.4,0l-0.3,4.2H31L31.3,83z M33.9,83.1l2.2,0l-0.1,4.2h-2.4L33.9,83.1z M36.4,83.1l2.3,0l-0.1,4.2h-2.3L36.4,83.1z M38.9,83.1  l2.2,0L41,87.3h-2.2L38.9,83.1z M41.3,83.1l2.2,0l-0.1,4.1h-2.2L41.3,83.1z M43.7,83.1l2.1,0l-0.1,4.1h-2.1L43.7,83.1z M46.1,83.1  l2.1,0l-0.1,4.1H46L46.1,83.1z M48.4,83.2l2.1,0l-0.1,4.1h-2.1L48.4,83.2z M50.7,83.2l2,0l-0.1,4.1h-2L50.7,83.2z M52.9,83.2l2,0  l0,4.1h-2L52.9,83.2z M55.1,83.2l2.1,0l0,4h-2.1L55.1,83.2z M57.4,83.2l1.8,0l0,4h-1.8L57.4,83.2z M59.5,83.2l2,0l0,4h-2L59.5,83.2z   M61.6,83.3l1.8,0l0,4h-1.8L61.6,83.3z M63.7,83.3l1.8,0l0,4h-1.8L63.7,83.3z M65.7,83.3l1.8,0l0,4h-1.8L65.7,83.3z M67.8,83.3  l1.8,0v3.9h-1.8L67.8,83.3z M69.8,83.3l1.7,0v3.9h-1.7V83.3z M71.7,83.3l1.7,0v3.9h-1.7V83.3z M73.7,83.4l1.7,0v3.9h-1.7V83.4z   M75.6,83.4l1.7,0v3.9h-1.7V83.4z M77.5,83.4l1.6,0v3.9h-1.6V83.4z M79.3,83.4l1.7,0v3.9h-1.7V83.4z M80.8,82l0.3,0v1.2l-0.3,0V82z   M88.4,83.2v-1.1l1,0v1.1L88.4,83.2z M88.1,83.2l-0.3,0v-1.2l0.3,0V83.2z M84.7,82v1.2l-0.3,0V82L84.7,82z M84.9,82l1,0v1.2l-1,0V82  z M86.1,82.1l0.3,0v1.2l-0.3,0V82.1z M86.6,82.1l1.1,0v1.2l-1.1,0V82.1z M84.2,82v1.2l-1.1,0V82h0.1L84.2,82z M82.9,82v1.2l-0.3,0  V82L82.9,82z M82.4,82v1.2l-1,0V82L82.4,82z M81.1,83.4l1.6,0v3.8h-1.6V83.4z M83,83.4l1.5,0v3.8H83V83.4z M84.7,83.4l1.4,0v3.8  h-1.4V83.4z M86.4,83.5l1.6,0v3.8h-1.6V83.5z M88.2,83.5l1.4,0v3.8h-1.4V83.5z M89.9,83.5l1.8,0v3.8h-1.8V83.5z M91.6,83.3v-1.1  l0.3,0v1.1L91.6,83.3z M91.4,83.3l-1.3,0v-1.1l1.3,0V83.3z M89.9,83.3l-0.3,0v-1.1l0.3,0V83.3z M80.6,83.2l-1.2,0v-1.2l1.2,0V83.2z   M79.2,83.2l-0.3,0v-1.2l0.3,0V83.2z M78.7,83.2l-1.1,0v-1.3l1.1,0V83.2z M77.4,83.2l-0.3,0v-1.3l0.3,0V83.2z M76.9,83.2l-1,0v-1.3  l1,0V83.2z M75.7,83.1l-0.3,0v-1.3l0.3,0V83.1z M75,81.6l-0.3,0v-0.9l0.3,0.3V81.6z M75.2,81.9v1.3l-1.4,0v-1.3L75.2,81.9z   M71.7,81.6l-0.9-0.8v0l-1.4-1.2v0L52.3,64.1c0.1-0.1,0.2-0.2,0.3-0.2l20.7,17.7L71.7,81.6z M73.6,81.6L73.6,81.6L52.7,63.7v-0.3  l20.9,16.2V81.6z M52.5,63.7c-1.3,1-17.7,13.7-19.6,14.9c-1.7,1.1-2.1,2-2.1,2.3l-0.9,0v-2.1l22.5-15.6l0.1,0V63.7z M29.7,78.5  l13.9-18.8l8.5,3.3L29.7,78.5z M43.6,59.5v-0.4c0.2,0,1.1-0.1,1.5,0.3c0.2,0.2,0.2,0.4,0.2,0.8L43.6,59.5z M43.4,59.6L27.8,80.8  l-0.8,0l2.7-3.6h0v0l12.7-16.5l0,0l0.6-4.9l0.4,2.6h0L43.4,59.6L43.4,59.6z M37.5,65.6l0.9,0.1l-0.5,0.6l-1-0.1L37.5,65.6z   M36.7,66.4l1,0.1L37.3,67l-1.1-0.1L36.7,66.4z M36,67.1l1.1,0.1l-0.4,0.5l-1.2-0.1L36,67.1z M35.4,67.9l1.2,0.1l-0.4,0.5l-1.3-0.1  L35.4,67.9z M34.7,68.6l1.3,0.1l-0.4,0.6l-1.4-0.1L34.7,68.6z M33.9,69.4l1.5,0.1L35.1,70l-1.6-0.1L33.9,69.4z M33.3,70.1l1.6,0.1  l-0.5,0.6l-1.7-0.1L33.3,70.1z M32.5,70.9l1.8,0.1l-0.5,0.6l-1.9-0.1L32.5,70.9z M31.7,71.8l1.9,0.1l-0.5,0.6l-2-0.1L31.7,71.8z   M30.9,72.6l2,0.1l-0.5,0.7l-2.2-0.1L30.9,72.6z M30.1,73.5l2.2,0.1l-0.5,0.6l-2.3-0.1L30.1,73.5z M29.3,74.3l2.3,0.1l-0.6,0.8  l-2.5-0.1L29.3,74.3z M28.4,75.3l2.5,0.1L30.4,76l-2.6-0.1L28.4,75.3z M27.6,76.2l2.6,0.1L29.6,77l-2.8,0L27.6,76.2z M26.6,77.2  l2.9,0l-0.9,1.2l-3.1,0L26.6,77.2z M25.3,78.6l3.1,0L28.1,79h-3.2L25.3,78.6z M24.7,79.2l0.5,1.6l-2,0L24.7,79.2z M17.9,80.9v1.8  l-0.4,0v-1.8L17.9,80.9z M17.7,82.9l-0.3,4.3h-2.8l0.3-4.4L17.7,82.9z M14.2,82.7l0.6-1.1v1.1L14.2,82.7z M14.1,82.9l0.5,0l-0.3,4.4  h-2.5L14.1,82.9z M91.9,87.3v-3.8l1.6,0l0.7,3.8H91.9z M93.5,83.3l-1.4,0v-1.1l1.2,0L93.5,83.3z M89.3,81.8l-1,0l-1.6-4.5l0.8,0  L89.3,81.8z M84.3,41.4c-0.2-0.1-0.5-0.2-1-0.3l0.1,0l-1.9-10.4L84.3,41.4L84.3,41.4z M80.4,28.2L81.5,41c-0.1,0-0.1,0-0.1,0  c-1.2,0.2-1.9,0.5-2.1,0.7l0-0.1L80.4,28.2z M81.8,77.4l1.5,0l-1.7,4.4l-0.6,0L81.8,77.4z M77.1,81.7l-1.8,0V81l-0.8-0.8v1.4l-0.6,0  v-2.2L53.5,63.7l9.9,5.5L77.1,81.7z M55.4,56.1l0,0.8c-0.2,0-0.4,0-0.6,0.1l0.4-8.1l0-0.2L55.4,56.1z M54.3,58c0,0,0.1-0.1,0.3-0.2  l0,0.3c-0.1,0.1-0.3,0.1-0.3,0.2V58z M54.9,57.8c0.2-0.1,0.4-0.1,0.6-0.1l0,0.3c-0.2,0-0.4,0.1-0.6,0.1L54.9,57.8z M54.9,57.5l0-0.4  c0.2,0,0.4-0.1,0.6-0.1l0,0.4C55.2,57.4,55,57.5,54.9,57.5z M55.7,57.6C55.7,57.6,55.7,57.6,55.7,57.6c0.8,0.1,1.1,0.4,1.1,0.4l0,0  l0,0.3c-0.2-0.1-0.5-0.3-1-0.3c0,0,0,0-0.1,0L55.7,57.6z M55.7,58.2c0.7,0,1,0.3,1.1,0.4l0,0.4c-0.2-0.1-0.5-0.3-1-0.3  c0,0-0.1,0-0.1,0L55.7,58.2C55.7,58.2,55.7,58.2,55.7,58.2z M55.7,58.9c0.8,0.1,1,0.3,1.1,0.4l0,0.7l-1.1-0.5L55.7,58.9  C55.7,58.9,55.7,58.9,55.7,58.9z M55.8,63.2l1.2,0.6l0,0.9l-1.3-0.6L55.8,63.2z M55.8,63l0-0.9l1.2,0.5l0,1L55.8,63z M55.7,61.9  l0-0.9l1.2,0.5l0,0.9L55.7,61.9z M55.7,60.7l0-0.9l1.2,0.5l0,0.9L55.7,60.7z M56.7,57.7c-0.2-0.1-0.5-0.3-1.1-0.3c0,0,0,0,0,0l0-0.4  c0.7,0.1,1,0.3,1.1,0.4L56.7,57.7z M54.6,57.2l0,0.4c-0.1,0.1-0.3,0.1-0.3,0.2v-0.4C54.3,57.4,54.4,57.3,54.6,57.2z M54.3,58.6  c0,0,0.1-0.1,0.3-0.2l0,0.5c-0.1,0.1-0.3,0.1-0.3,0.2V58.6z M54.9,58.3c0.2-0.1,0.4-0.1,0.6-0.1l0,0.5c-0.2,0-0.4,0.1-0.6,0.1  L54.9,58.3z M55.5,58.9l0.1,5.7l-0.7-0.4l0-5.2C55,59,55.2,58.9,55.5,58.9z M55.8,64.7l0-0.4L57,65l0,0.4L55.8,64.7z M56.7,57.2  c-0.2-0.1-0.5-0.3-1.1-0.3c0,0,0,0,0,0l0-0.8l-0.1-7l1.2,7.2L56.7,57.2z M54.9,51.6L54.6,57c-0.1,0.1-0.3,0.1-0.3,0.2v-0.8  L54.9,51.6z M54.3,59.3c0,0,0.2-0.1,0.3-0.2l0,5l-0.4-0.2V59.3z M45.6,55.8l0.4,0.2l0.8,4.7l-1.2-0.5c0-0.4-0.1-0.8-0.3-1  c-0.5-0.5-1.4-0.4-1.7-0.4v-0.5h0.6L45.6,55.8z M43.2,54.6c0.1,0,0.2,0,0.3,0l0.6,3.6l0,0h-0.5l-0.5-3.6  C43.1,54.6,43.2,54.6,43.2,54.6z M42.8,55.5l-0.6,5.1l-3.2,4.1l-0.7-0.1l3.2-3.4l0,0l0.2-5.7H42.8z M40.7,56.3l0.8,0.8l-0.1,3  l-1.3,0.4L40.7,56.3z M41.4,60.3l0,0.8L23.2,80.5l-0.9-5.4l0.3-9.2L41.4,60.3z M21.9,40.9l0.1-1.8l1.4,0.9l-0.1,1.8L21.9,40.9z   M23.7,32.5c-0.3-0.2-0.8-0.6-1.9-0.8c0,0-0.1,0-0.1,0l0.7-15.3L23.7,32.5L23.7,32.5z M21.2,20.6L20,31.9c-0.4,0.1-0.7,0.3-0.8,0.4  l0-0.1L21.2,20.6z M17,75.3h0.7l-1.2,5.1l-0.9,0L17,75.3z M15.2,80.8l2.2,0v1.8l-2.3,0v-1.6L15.2,80.8z M13.8,82.7l-1,0l-0.2-3  l0-0.3h0.8l0,0.2l0,1.1L13.8,82.7z M10.2,79.7l-0.1,0L10.2,79.7l0-0.3h0.4l0,0.2l-0.3,1.4L10,81.4L10.2,79.7z M5.8,84.6l0,0.7  l-0.1,0L5.8,84.6L5.8,84.6z M5.8,85.6l5-2.5l-0.2,4.4H5.8V85.6z M10.8,87.4L11,83l0.7-0.1l-0.2,4.4L10.8,87.4z" fill="#231F20"/></svg>