<svg xmlns="http://www.w3.org/2000/svg" xmlns:xlink="http://www.w3.org/1999/xlink" version="1.1" x="0px" y="0px" viewBox="0 0 100 125" style="enable-background:new 0 0 100 100;" xml:space="preserve"><g><path style="" d="M20.5,69v6h4.1l-0.1-6H20.5z M20.8,74.6v-5.4h3.4l0.1,5.4H20.8z" fill="#231F20"/><path style="" d="M17.3,42.5h1.1v-2.7h-1.1V42.5z M17.6,40.1h0.6v2.1h-0.6V40.1z" fill="#231F20"/><path style="" d="M8,43.3h0.9v-2.7H8V43.3z M8.2,40.9h0.3V43H8.2V40.9z" fill="#231F20"/><path style="" d="M11.1,47.7H12V45h-0.9V47.7z M11.3,45.3h0.3v2.1h-0.3V45.3z" fill="#231F20"/><path style="" d="M22.8,47.9h0.9v-2.7h-0.9V47.9z M23.1,45.5h0.3v2.1h-0.3V45.5z" fill="#231F20"/><path style="" d="M9.6,36.2H8.8V38h0.3v0.3H10v-1.7H9.6V36.2z M9.1,36.5h0.2v1.3H9.1V36.5z M9.7,36.9V38H9.4V38h0.3   L9.7,36.9L9.7,36.9z" fill="#231F20"/><path style="" d="M12,35.8h-0.8v1.8h0.3V38h0.9v-1.7H12V35.8z M11.4,36.1h0.2v1.3h-0.2V36.1z M12,36.6v1.1h-0.3v-0.1   H12L12,36.6L12,36.6z" fill="#231F20"/><path style="" d="M14.8,35.6H14v1.8h0.3v0.3h0.9v-1.7h-0.3V35.6z M14.3,35.9h0.2v1.3h-0.2V35.9z M14.8,36.4v1.1h-0.3   v-0.1h0.3L14.8,36.4L14.8,36.4z" fill="#231F20"/><path style="" d="M22.8,38.2h0.9v-1.7h-0.3v-0.4h-0.8v1.8h0.3V38.2z M23.4,36.8v1.1h-0.3v0h0.3L23.4,36.8L23.4,36.8z    M22.8,36.3H23v1.3h-0.2V36.3z" fill="#231F20"/><path style="" d="M21.2,38v-1.7h-0.3v-0.5h-0.8v1.8h0.3V38H21.2z M20.9,36.6v1.1h-0.3v-0.1h0.3L20.9,36.6L20.9,36.6z    M20.4,36.1h0.2v1.3h-0.2V36.1z" fill="#231F20"/><path style="" d="M17.5,37.8h0.9v-1.7H18v-0.5h-0.8v1.8h0.3V37.8z M18.1,36.4v1.1h-0.3v-0.1H18L18.1,36.4L18.1,36.4z    M17.5,35.9h0.2v1.3h-0.2V35.9z" fill="#231F20"/><path style="" d="M94.8,77.4l-1.4-38.8v-4.9L92,33.3v1.6l-0.9-0.2v-1.5l-3.2-0.4v1.5l-1.9-0.1v-1.5h-4.2v1.5l-2,0.2   v-1.5l-2.9,0.5v1.5l-1.2,0.1v-1.5l-1.1,0.4l0,4.1h-2.8v1.5h-2v-1.5h-4.1v1.5h-1.8v-1.5h-4v1.6h-2v-1.6h-4v1.5h-2.1v-1.5h-1.2V27.3   c1.1,0.6,2,0.6,2.3,0.6c0.4,0,0.7,0.1,0.9,0.3c0.6,0.6,0.5,1.9,0.5,1.9l0.3,0c0.5-5.6-3-7.7-4-8.2v-0.6c0.1-0.1,0.2-0.3,0.2-0.5   c0-0.4-0.3-0.8-0.8-0.8c-0.4,0-0.8,0.3-0.8,0.8c0,0.4,0.3,0.7,0.6,0.7v16.3h-1.7v1.5h-1.9v-1.5h-4v1.6h-2.1v-1.6h-4v1.6h-2v-1.6   h-3.9v1.6h-2.2v-1.6h-2.8l0-4.1l-1.1-0.4v1.5l-1.2-0.1v-1.5l-2.9-0.5v1.5l-2-0.2v-1.5h-4.2v1.5l-1.9,0.1v-1.5l-3.2,0.4v1.5L8,34.8   v-1.6l-1.3,0.4v4.9L5.2,77.4H4.6v2.5h23.9v-2.6h-0.9l-1.2-24.8c3.4-0.6,15.2-2.5,21.1-2.5c0.3,0,0.7,0,0.9,0v0.7h0.7v0.4h1.6v-0.4   h0.7v-0.7c1.6,0.1,15,0.6,22.1,2.2l-1.2,25h-0.9v2.6h23.9v-2.5H94.8z M54,28.1c-0.3-0.3-0.6-0.5-1.1-0.4c-0.1,0-0.2,0-0.4,0v-3.9   c0.9,1,1.8,2.6,1.9,5C54.3,28.5,54.1,28.3,54,28.1z M52.1,23.4v4.2c-0.4-0.1-1-0.3-1.6-0.6v-4.7C50.9,22.5,51.5,22.9,52.1,23.4z    M50.3,22.2v4.7L50.2,27v-5.4h0.1v0.3c0,0,0,0,0,0L50.3,22.2C50.2,22.1,50.2,22.1,50.3,22.2z M49.6,20.8c0-0.3,0.2-0.5,0.5-0.5   c0.3,0,0.5,0.2,0.5,0.5c0,0.2-0.1,0.4-0.3,0.4h-0.3v0C49.7,21.2,49.6,21.1,49.6,20.8z M50.2,27.1c0,0,0.1,0,0.1,0.1v10.7h-0.1V27.1   z M30.6,39.7v-1.6h3.4v1.6h2.5v-1.6h3.5v1.6h2.6v-1.6H46v1.5h2.5v-1.5h1.4h0.7h0.9v1.5h2.6v-1.5h3.4v1.6h2.5v-1.6h3.5v1.5H66v-1.5   h3.6v1.5h2.6v-1.5h3.4l-0.7,10c-1.5-0.3-13.5-2.6-24.7-2.6c-11.2,0-23.3,2.3-24.8,2.6l-0.7-10h3.3v1.6H30.6z M47.3,49.8   c-0.3,0-0.6,0-1,0l0-0.8c0.3,0,0.7,0,1,0L47.3,49.8z M46,46l0,2.8c-0.3,0-0.7,0-1,0l0-2.8C45.3,46,45.6,46,46,46z M44.6,46l0,2.8   c-0.3,0-0.7,0-1,0.1l0-2.8C44,46.1,44.3,46,44.6,46z M43.3,46.1l0,2.8c-0.3,0-0.7,0-1,0.1l-0.1-2.8C42.6,46.1,43,46.1,43.3,46.1z    M42,46.2l0.1,2.8c-0.4,0-0.7,0.1-1.1,0.1l-0.1-2.8C41.3,46.3,41.6,46.2,42,46.2z M40.7,46.3l0.1,2.8c-0.3,0-0.7,0.1-1,0.1   l-0.1-2.8C39.9,46.4,40.3,46.3,40.7,46.3z M39.3,46.4l0.1,2.8c-0.3,0-0.6,0.1-1,0.1l-0.1-2.8C38.6,46.5,39,46.5,39.3,46.4z    M38,46.6l0.1,2.8c-0.4,0-0.7,0.1-1.1,0.1L37,46.7C37.3,46.6,37.7,46.6,38,46.6z M36.7,46.7l0.1,2.8c-0.3,0-0.7,0.1-1,0.1l-0.1-2.8   C36,46.8,36.4,46.8,36.7,46.7z M35.4,46.9l0.1,2.8c-0.3,0-0.7,0.1-1,0.1L34.4,47C34.8,47,35.1,46.9,35.4,46.9z M34.1,47l0.1,2.8   c-0.3,0-0.7,0.1-1,0.1l-0.1-2.8C33.5,47.1,33.8,47.1,34.1,47z M32.8,47.2L33,50c-0.3,0-0.7,0.1-1,0.1l-0.2-2.8   C32.1,47.3,32.5,47.3,32.8,47.2z M31.5,47.4l0.2,2.8c-0.4,0.1-0.7,0.1-1,0.2l-0.2-2.8C30.8,47.5,31.2,47.5,31.5,47.4z M30.2,47.6   l0.2,2.8c-0.4,0.1-0.7,0.1-1,0.2l-0.2-2.8C29.5,47.7,29.9,47.7,30.2,47.6z M28.9,47.8l0.2,2.8c-0.4,0.1-0.7,0.1-1,0.2L27.8,48   C28.1,47.9,28.5,47.9,28.9,47.8z M27.5,48.1l0.2,2.8c-0.4,0.1-0.7,0.1-1,0.2l-0.2-2.8C26.8,48.2,27.1,48.1,27.5,48.1z M26.2,48.3   l0.2,2.8c-0.5,0.1-0.8,0.2-1,0.2l-0.2-2.8C25.4,48.4,25.8,48.4,26.2,48.3z M26.5,51.3l0.1,0.9c-0.5,0.1-0.8,0.1-1,0.2l-0.1-0.9   C25.6,51.5,26,51.4,26.5,51.3z M26.8,51.3c0.3-0.1,0.6-0.1,1-0.2l0.1,0.9c-0.4,0.1-0.7,0.1-1,0.2L26.8,51.3z M28.1,51   c0.3-0.1,0.7-0.1,1-0.2l0.1,1c-0.4,0.1-0.7,0.1-1,0.2L28.1,51z M29.4,50.8c0.3-0.1,0.7-0.1,1-0.2l0.1,1c-0.3,0.1-0.7,0.1-1,0.2   L29.4,50.8z M30.7,50.6c0.3-0.1,0.7-0.1,1-0.2l0.1,1c-0.4,0.1-0.7,0.1-1,0.2L30.7,50.6z M32,50.4c0.3,0,0.6-0.1,1-0.1l0,1   c-0.3,0-0.7,0.1-1,0.1L32,50.4z M33.3,50.2c0.3,0,0.7-0.1,1-0.1l0,1c-0.3,0-0.7,0.1-1,0.1L33.3,50.2z M34.6,50.1   c0.3,0,0.7-0.1,1-0.1l0,1c-0.3,0-0.7,0.1-1,0.1L34.6,50.1z M35.9,49.9c0.3,0,0.7-0.1,1-0.1l0,0.9c-0.3,0-0.7,0.1-1,0.1L35.9,49.9z    M37.1,49.7c0.3,0,0.7-0.1,1.1-0.1l0,0.9c-0.4,0-0.7,0.1-1,0.1L37.1,49.7z M38.5,49.6c0.3,0,0.6-0.1,1-0.1l0,0.9   c-0.3,0-0.6,0.1-1,0.1L38.5,49.6z M39.7,49.5c0.3,0,0.7-0.1,1-0.1l0,0.9c-0.3,0-0.7,0.1-1,0.1L39.7,49.5z M41,49.4   c0.3,0,0.7-0.1,1.1-0.1l0,0.9c-0.3,0-0.7,0.1-1,0.1L41,49.4z M42.4,49.3c0.3,0,0.7,0,1-0.1l0,0.8c-0.3,0-0.7,0.1-1,0.1L42.4,49.3z    M43.7,49.2c0.3,0,0.7,0,1-0.1l0,0.8c-0.3,0-0.7,0-1,0.1L43.7,49.2z M45,49.1c0.3,0,0.7,0,1,0l0,0.8c-0.3,0-0.7,0-1,0.1L45,49.1z    M46.3,48.8l0-2.8c0.3,0,0.7,0,1,0l0,2.8C46.9,48.8,46.6,48.8,46.3,48.8z M47.5,45.9c0.4,0,0.7,0,1.1,0l-0.1,2.9   c-0.3,0-0.6,0-0.9,0L47.5,45.9z M48.9,45.9c0.1,0,0.2,0,0.4,0v3.5h-0.5L48.9,45.9z M49.5,45.9c0.2,0,0.4,0,0.6,0c0.2,0,0.3,0,0.5,0   v3.8h-1V45.9z M50.8,45.9c0.1,0,0.3,0,0.4,0l0.1,3.5h-0.5V45.9z M73.6,48.2l-0.2,2.7c-0.3-0.1-0.6-0.1-1-0.2l0.2-2.7   C72.9,48.1,73.3,48.2,73.6,48.2z M72.1,50.7c-0.3-0.1-0.7-0.1-1-0.2l0.2-2.7c0.4,0.1,0.8,0.1,1.1,0.2L72.1,50.7z M70.7,50.5   c-0.3-0.1-0.7-0.1-1-0.2l0.2-2.7c0.4,0.1,0.7,0.1,1,0.2L70.7,50.5z M69.4,50.3c-0.3-0.1-0.7-0.1-1-0.2l0.2-2.7   c0.4,0.1,0.7,0.1,1,0.2L69.4,50.3z M68.1,50.1c-0.3,0-0.7-0.1-1-0.1l0.1-2.7c0.4,0,0.7,0.1,1,0.1L68.1,50.1z M66.8,49.9   c-0.3,0-0.7-0.1-1-0.1l0.1-2.7c0.3,0,0.7,0.1,1,0.1L66.8,49.9z M65.5,49.7c-0.3,0-0.7-0.1-1-0.1l0.1-2.7c0.3,0,0.7,0.1,1,0.1   L65.5,49.7z M64.2,49.6c-0.3,0-0.7-0.1-1-0.1l0.1-2.7c0.3,0,0.7,0.1,1,0.1L64.2,49.6z M63,49.4c-0.3,0-0.7-0.1-1.1-0.1l0.1-2.7   c0.4,0,0.7,0.1,1.1,0.1L63,49.4z M61.6,49.3c-0.3,0-0.6-0.1-1-0.1l0.1-2.7c0.3,0,0.6,0.1,1,0.1L61.6,49.3z M60.4,49.1   c-0.3,0-0.7-0.1-1-0.1l0.1-2.7c0.4,0,0.7,0.1,1.1,0.1L60.4,49.1z M59.1,49c-0.3,0-0.7-0.1-1.1-0.1l0.1-2.8c0.4,0,0.7,0.1,1.1,0.1   L59.1,49z M57.8,48.9c-0.3,0-0.7,0-1-0.1l0-2.8c0.4,0,0.7,0,1.1,0.1L57.8,48.9z M56.4,48.8c-0.3,0-0.7,0-1-0.1l0-2.8   c0.3,0,0.7,0,1,0.1L56.4,48.8z M55.1,48.8c-0.3,0-0.7,0-1,0l0-2.8c0.3,0,0.7,0,1,0.1L55.1,48.8z M53.8,48.7c-0.3,0-0.7,0-1,0l0-2.8   c0.3,0,0.7,0,1,0L53.8,48.7z M52.6,48.7c-0.3,0-0.6,0-0.9,0l-0.1-2.8c0.4,0,0.7,0,1.1,0L52.6,48.7z M51.6,49c0.3,0,0.6,0,0.9,0   l0,0.9c-0.4,0-0.7,0-0.9,0L51.6,49z M52.8,49c0.3,0,0.7,0,1,0l0,0.9c-0.4,0-0.7,0-1,0L52.8,49z M54.1,49c0.3,0,0.7,0,1,0l0,1   c-0.4,0-0.7,0-1-0.1L54.1,49z M55.4,49.1c0.3,0,0.7,0,1,0.1l0,1c-0.4,0-0.7,0-1-0.1L55.4,49.1z M56.7,49.1c0.3,0,0.7,0,1,0.1l0,1   c-0.3,0-0.7,0-1-0.1L56.7,49.1z M58,49.2c0.4,0,0.7,0.1,1.1,0.1l0,1c-0.4,0-0.7,0-1.1-0.1L58,49.2z M59.4,49.3c0.3,0,0.7,0.1,1,0.1   l0,0.9c-0.3,0-0.7-0.1-1-0.1L59.4,49.3z M60.7,49.5c0.3,0,0.6,0.1,1,0.1l0,0.9c-0.3,0-0.7-0.1-1-0.1L60.7,49.5z M61.9,49.6   c0.4,0,0.7,0.1,1.1,0.1l0,0.9c-0.4,0-0.7-0.1-1.1-0.1L61.9,49.6z M63.2,49.7c0.3,0,0.7,0.1,1,0.1l0,0.9c-0.3,0-0.7-0.1-1-0.1   L63.2,49.7z M64.5,49.9c0.3,0,0.7,0.1,1,0.1l0,0.8c-0.3,0-0.7-0.1-1-0.1L64.5,49.9z M65.8,50c0.3,0,0.7,0.1,1,0.1l0,0.8   c-0.3,0-0.7-0.1-1-0.1L65.8,50z M67.1,50.2c0.3,0,0.7,0.1,1,0.1l0,0.8c-0.3,0-0.6-0.1-1-0.1L67.1,50.2z M68.4,50.4   c0.4,0.1,0.7,0.1,1,0.2l0,0.7c-0.3,0-0.7-0.1-1-0.1L68.4,50.4z M69.7,50.6c0.4,0.1,0.7,0.1,1,0.2l0,0.7c-0.3-0.1-0.7-0.1-1-0.2   L69.7,50.6z M71,50.8c0.4,0.1,0.7,0.1,1,0.2L72,51.7c-0.3-0.1-0.7-0.1-1-0.2L71,50.8z M72.3,51c0.4,0.1,0.7,0.1,1,0.2L73.3,52   c-0.3-0.1-0.7-0.1-1-0.2L72.3,51z M73.6,51.3c0.5,0.1,0.8,0.1,1,0.2l-0.1,0.8c-0.3-0.1-0.6-0.2-1-0.2L73.6,51.3z M74.6,51.2   c-0.2,0-0.5-0.1-1-0.2l0.2-2.7c0.5,0.1,0.8,0.1,0.9,0.2L74.6,51.2z M28.2,79.6H4.9v-1.9h0.6l0-0.1h22h0.7V79.6z M27.3,77.3H5.5   l1.4-38.8v-4.7l0.7-0.2v1.5l1.5-0.2v-1.5l2.7-0.3v1.5l2.5-0.1V33H18v1.5l2.5,0.2v-1.5l2.3,0.4V35l1.8,0.2v-1.4l0.5,0.2l0,3.9h-0.8   l1,14.7l0,0.2l0.2,0c0,0,0.3,0,0.7-0.1L27.3,77.3z M47.6,49.8l0-0.8c0.3,0,0.6,0,0.9,0l0,0.8C48.2,49.8,47.9,49.8,47.6,49.8z    M48.7,50.5V50h0l0-0.4h0.5v0.9H48.7z M49.5,50.9v-0.3h0V50h1v0.6h0v0.3H49.5z M51.2,50.5h-0.4v-0.9h0.5l0,0.2l-0.1,0V50.5z    M74.6,52.6l0.2,0l1-14.6l0-0.2h-0.9l0-3.9l0.5-0.2v1.4l1.8-0.2v-1.5l2.3-0.4v1.5l2.5-0.2V33h3.7v1.5l2.5,0.1v-1.5l2.7,0.3v1.5   l1.5,0.2v-1.5l0.7,0.2v4.7l1.4,38.7H72.7l1.2-24.9C74.1,52.5,74.4,52.5,74.6,52.6z M95.1,79.6H71.8v-2h0.7h22l0,0.1h0.6V79.6z" fill="#231F20"/><path style="" d="M79.5,69h-3.9l-0.1,6h4.1V69z M79.2,74.6h-3.5l0.1-5.4h3.4V74.6z" fill="#231F20"/><path style="" d="M82.7,39.8h-1.1v2.7h1.1V39.8z M82.4,42.2h-0.6v-2.1h0.6V42.2z" fill="#231F20"/><path style="" d="M91.1,43.3H92v-2.7h-0.9V43.3z M91.4,40.9h0.3V43h-0.3V40.9z" fill="#231F20"/><path style="" d="M88,47.7h0.9V45H88V47.7z M88.3,45.3h0.3v2.1h-0.3V45.3z" fill="#231F20"/><path style="" d="M77.2,45.2h-0.9v2.7h0.9V45.2z M76.9,47.6h-0.3v-2.1h0.3V47.6z" fill="#231F20"/><path style="" d="M77.2,37.9h0.3v-1.8h-0.8v0.4h-0.3v1.7h0.9V37.9z M77,36.3h0.2v1.3H77V36.3z M76.6,37.9v-1.1h0   L76.6,37.9l0.3,0v0H76.6z" fill="#231F20"/><path style="" d="M79.6,37.6h0.3v-1.8h-0.8v0.5h-0.3V38h0.9V37.6z M79.4,36.1h0.2v1.3h-0.2V36.1z M79.1,37.7v-1.1h0   L79.1,37.7l0.3-0.1v0.1H79.1z" fill="#231F20"/><path style="" d="M82.5,37.4h0.3v-1.8H82v0.5h-0.3v1.7h0.9V37.4z M82.2,35.9h0.2v1.3h-0.2V35.9z M81.9,37.5v-1.1h0   L81.9,37.5l0.3-0.1v0.1H81.9z" fill="#231F20"/><path style="" d="M85.8,37.4H86v-1.8h-0.8v0.5h-0.3v1.7h0.9V37.4z M85.5,35.9h0.2v1.3h-0.2V35.9z M85.2,37.5v-1.1h0   L85.2,37.5l0.3-0.1v0.1H85.2z" fill="#231F20"/><path style="" d="M90.9,38h0.3v-1.8h-0.8v0.5H90v1.7h0.9V38z M90.6,36.5h0.2v1.3h-0.2V36.5z M90.3,38v-1.1h0L90.3,38   l0.3-0.1V38H90.3z" fill="#231F20"/><path style="" d="M88.6,37.6h0.3v-1.8H88v0.5h-0.3V38h0.9V37.6z M88.3,36.1h0.2v1.3h-0.2V36.1z M88,37.7v-1.1h0v1h0.3   v0.1H88z" fill="#231F20"/><path style="" d="M32.1,45.3c1,0,1.7-0.8,1.7-1.7s-0.8-1.7-1.7-1.7s-1.7,0.8-1.7,1.7S31.1,45.3,32.1,45.3z M32.1,42.2   c0.8,0,1.5,0.7,1.5,1.5s-0.7,1.5-1.5,1.5c-0.8,0-1.5-0.7-1.5-1.5S31.3,42.2,32.1,42.2z" fill="#231F20"/><path style="" d="M68,45.3c1,0,1.7-0.8,1.7-1.7s-0.8-1.7-1.7-1.7s-1.7,0.8-1.7,1.7S67,45.3,68,45.3z M68,42.2   c0.8,0,1.5,0.7,1.5,1.5s-0.7,1.5-1.5,1.5c-0.8,0-1.5-0.7-1.5-1.5S67.2,42.2,68,42.2z" fill="#231F20"/><path style="" d="M53.7,41.6h-7.2v3.4h7.2V41.6z M53.4,44.8h-6.7v-2.9h6.7V44.8z" fill="#231F20"/></g></svg>