<svg xmlns="http://www.w3.org/2000/svg" xmlns:xlink="http://www.w3.org/1999/xlink" version="1.1" x="0px" y="0px" viewBox="0 0 100 125" style="enable-background:new 0 0 100 100;" xml:space="preserve"><g><path style="" d="M10.7,66.1H9.3v1.2h1.3V66.1z M10.4,67.1H9.6v-0.7h0.9V67.1z" fill="#231F20"/><path style="" d="M12.5,66.1h-1.3v1.2h1.3V66.1z M12.3,67.1h-0.9v-0.7h0.9V67.1z" fill="#231F20"/><path style="" d="M10.7,64.7H9.3v1.2h1.3V64.7z M10.4,65.6H9.6v-0.7h0.9V65.6z" fill="#231F20"/><path style="" d="M12.5,64.7h-1.3v1.2h1.3V64.7z M12.3,65.6h-0.9v-0.7h0.9V65.6z" fill="#231F20"/><path style="" d="M10.7,63.2H9.3v1.2h1.3V63.2z M10.4,64.2H9.6v-0.7h0.9V64.2z" fill="#231F20"/><path style="" d="M12.5,63.2h-1.3v1.2h1.3V63.2z M12.3,64.2h-0.9v-0.7h0.9V64.2z" fill="#231F20"/><path style="" d="M10.7,61.8H9.3v1.2h1.3V61.8z M10.4,62.7H9.6V62h0.9V62.7z" fill="#231F20"/><path style="" d="M12.5,61.8h-1.3v1.2h1.3V61.8z M12.3,62.7h-0.9V62h0.9V62.7z" fill="#231F20"/><path style="" d="M10.7,57.6H9.3v1.2h1.3V57.6z M10.4,58.5H9.6v-0.7h0.9V58.5z" fill="#231F20"/><path style="" d="M12.5,57.6h-1.3v1.2h1.3V57.6z M12.3,58.5h-0.9v-0.7h0.9V58.5z" fill="#231F20"/><path style="" d="M10.7,59.3H9.3v1.2h1.3V59.3z M10.4,60.2H9.6v-0.7h0.9V60.2z" fill="#231F20"/><path style="" d="M12.5,59.3h-1.3v1.2h1.3V59.3z M12.3,60.2h-0.9v-0.7h0.9V60.2z" fill="#231F20"/><path style="" d="M10.7,60.5H9.3v1.2h1.3V60.5z M10.4,61.5H9.6v-0.7h0.9V61.5z" fill="#231F20"/><path style="" d="M12.5,60.5h-1.3v1.2h1.3V60.5z M12.3,61.5h-0.9v-0.7h0.9V61.5z" fill="#231F20"/><path style="" d="M14,60.3h4.4v-1.6H14V60.3z M14.2,58.9h4v1.1h-4V58.9z" fill="#231F20"/><path style="" d="M19.4,60.3h4.4v-1.6h-4.4V60.3z M19.6,58.9h4v1.1h-4V58.9z" fill="#231F20"/><path style="" d="M24.8,60.3h4.4v-1.6h-4.4V60.3z M25,58.9h4v1.1h-4V58.9z" fill="#231F20"/><path style="" d="M30.2,60.3h4.4v-1.6h-4.4V60.3z M30.4,58.9h4v1.1h-4V58.9z" fill="#231F20"/><path style="" d="M35.6,60.3H40v-1.6h-4.4V60.3z M35.8,58.9h4v1.1h-4V58.9z" fill="#231F20"/><path style="" d="M87.5,67.2h1.3V66h-1.3V67.2z M87.7,66.2h0.9V67h-0.9V66.2z" fill="#231F20"/><path style="" d="M89.3,65.7h1.3v-1.2h-1.3V65.7z M89.5,64.8h0.9v0.7h-0.9V64.8z" fill="#231F20"/><path style="" d="M87.5,65.7h1.3v-1.2h-1.3V65.7z M87.7,64.8h0.9v0.7h-0.9V64.8z" fill="#231F20"/><path style="" d="M89.3,64.3h1.3v-1.2h-1.3V64.3z M89.5,63.3h0.9v0.7h-0.9V63.3z" fill="#231F20"/><path style="" d="M87.5,64.3h1.3v-1.2h-1.3V64.3z M87.7,63.3h0.9v0.7h-0.9V63.3z" fill="#231F20"/><path style="" d="M89.3,62.8h1.3v-1.2h-1.3V62.8z M89.5,61.9h0.9v0.7h-0.9V61.9z" fill="#231F20"/><path style="" d="M87.5,62.8h1.3v-1.2h-1.3V62.8z M87.7,61.9h0.9v0.7h-0.9V61.9z" fill="#231F20"/><path style="" d="M89.3,58.6h1.3v-1.2h-1.3V58.6z M89.5,57.7h0.9v0.7h-0.9V57.7z" fill="#231F20"/><path style="" d="M87.5,58.6h1.3v-1.2h-1.3V58.6z M87.7,57.7h0.9v0.7h-0.9V57.7z" fill="#231F20"/><path style="" d="M89.3,60.3h1.3v-1.2h-1.3V60.3z M89.5,59.4h0.9v0.7h-0.9V59.4z" fill="#231F20"/><path style="" d="M87.5,60.3h1.3v-1.2h-1.3V60.3z M87.7,59.4h0.9v0.7h-0.9V59.4z" fill="#231F20"/><path style="" d="M89.3,61.6h1.3v-1.2h-1.3V61.6z M89.5,60.6h0.9v0.7h-0.9V60.6z" fill="#231F20"/><path style="" d="M87.5,61.6h1.3v-1.2h-1.3V61.6z M87.7,60.6h0.9v0.7h-0.9V60.6z" fill="#231F20"/><path style="" d="M81.6,58.6v1.6h4.4v-1.6H81.6z M85.7,60h-4v-1.1h4V60z" fill="#231F20"/><path style="" d="M76.2,60.2h4.4v-1.6h-4.4V60.2z M76.4,58.8h4V60h-4V58.8z" fill="#231F20"/><path style="" d="M70.8,60.2h4.4v-1.6h-4.4V60.2z M71,58.8h4V60h-4V58.8z" fill="#231F20"/><path style="" d="M65.4,60.2h4.4v-1.6h-4.4V60.2z M65.6,58.8h4V60h-4V58.8z" fill="#231F20"/><path style="" d="M60,60.2h4.4v-1.6H60V60.2z M60.2,58.8h4V60h-4V58.8z" fill="#231F20"/><path style="" d="M94.6,64v-0.2h-3.3v-14c0,0,0.1-0.8,0.6-0.9l0.1,0v-0.8l-0.1,0c0,0-0.3-0.1-0.8-0.2V46l1.1-0.6   l-1-0.3c0-0.4-0.3-1.8-1.7-2.1v-0.5c0-0.2-0.1-0.4-0.3-0.4v-0.5h-0.2v0.5c-0.2,0-0.3,0.2-0.3,0.4v0.5c-0.4,0.1-0.8,0.2-1,0.5   C87,44.1,87,44.8,87,45.1l-1.2,0.3l1.2,0.5v2c-0.2,0.1-0.5,0.1-0.7,0.2l-0.1,0v0.7l0.1,0c0,0,0.8,0.2,0.8,0.8V54l-0.9,0.5l-0.9-0.6   v-1.3c0,0,0.1-0.7,0.4-0.7l0.1,0v-0.7l-0.1,0c0,0-0.2-0.1-0.5-0.1v-1.5l0.9-0.5l-0.8-0.3c0-0.3-0.2-1.5-1.4-1.7v-0.4   c0-0.2-0.1-0.3-0.3-0.4v-0.4h-0.2v0.4c-0.2,0-0.3,0.2-0.3,0.4v0.4c-0.3,0.1-0.6,0.2-0.8,0.4c-0.4,0.4-0.4,1-0.4,1.2l-1,0.3l1,0.4   v1.6c-0.2,0-0.4,0.1-0.7,0.2l-0.1,0v0.6l0.1,0c0,0,0.6,0.2,0.6,0.6v1.2l-0.9,0.7l-0.8-0.8l-0.9,0.8l-0.8-0.7l-1,0.7l-0.1,0   c0.2-0.5,1.1-3.2-0.5-5.8c-0.9-1.5-2-2.3-3-2.8l0,0c0,0-1.3-0.8-1.6-1.4C72.1,44.3,72,44.1,72,44c-0.2-0.4-0.3-0.7-0.7-0.8   c0.2-0.1,0.3-0.3,0.3-0.5c0-0.3-0.2-0.5-0.5-0.6v-0.3c0.2,0,0.4-0.2,0.4-0.4S71.2,41,71,41v-1.3h-0.2V41c-0.2,0-0.4,0.2-0.4,0.4   s0.2,0.4,0.4,0.4v0.3c-0.3,0-0.5,0.3-0.5,0.6c0,0.2,0.1,0.4,0.3,0.5c-0.4,0.2-0.5,0.5-0.7,0.9c0,0.1-0.1,0.2-0.1,0.3   c-0.3,0.5-1.6,1.4-1.6,1.4l0,0c-1.4,0.6-2.6,1.7-3.3,3.1c-0.9,1.7-0.6,4-0.4,4.9l-0.1-0.1l-1,0.7l-0.8-0.7l-1,0.8l-0.8-0.8   l-0.9,0.7l-0.7-0.6V47h0.3l0-0.1c0,0,0-0.4,0.4-0.8l0.1-0.1l-0.2-0.1c0,0-0.1,0-0.3-0.1v-0.9l0.9-0.4h-0.9c0-0.2-0.1-0.5-0.3-0.8   c-0.1-0.1-0.2-0.2-0.3-0.2v-0.4c0-0.2-0.1-0.3-0.3-0.4v-0.4h-0.2v0.4c-0.2,0-0.3,0.2-0.3,0.4v0.4c-0.2,0.1-0.3,0.1-0.4,0.3   c-0.3-0.7-1.3-2.9-3.7-4.2l0,0c0,0-2-1.1-2.4-1.8c-0.1-0.1-0.1-0.3-0.2-0.4c-0.2-0.5-0.4-0.9-0.8-1.1c0.2-0.1,0.3-0.3,0.3-0.5   c0-0.3-0.3-0.6-0.7-0.7v-0.5c0.2,0,0.4-0.2,0.4-0.5c0-0.2-0.2-0.4-0.4-0.5v-1.5h-0.2v1.5c-0.2,0-0.4,0.2-0.4,0.5   c0,0.2,0.2,0.4,0.4,0.5v0.5c-0.4,0-0.7,0.3-0.7,0.7c0,0.2,0.1,0.4,0.3,0.5c-0.4,0.2-0.6,0.5-0.9,1c-0.1,0.2-0.2,0.3-0.3,0.5   c-0.5,0.8-2.3,1.8-2.3,1.8l0,0c-2.4,1.3-3.4,3.5-3.7,4.3c-0.1-0.1-0.3-0.3-0.5-0.3v-0.4c0-0.2-0.1-0.3-0.3-0.4v-0.4h-0.2v0.4   c-0.2,0-0.3,0.2-0.3,0.4v0.4c-0.1,0-0.3,0.1-0.3,0.2c-0.2,0.2-0.3,0.6-0.3,0.8h-0.9l0.9,0.4v0.9c-0.2,0-0.3,0.1-0.3,0.1L40.1,46   l0.1,0.1c0.4,0.3,0.4,0.8,0.4,0.8l0,0.1h0.3v6.8l-0.8,0.8l-0.9-0.8l-0.8,0.8l-1-0.8l-0.8,0.8l-0.9-0.6c0.1-0.7,0.5-3.1-0.4-4.9   c-0.7-1.4-1.9-2.5-3.3-3.1l0,0c0,0-1.3-0.9-1.6-1.4c0-0.1-0.1-0.2-0.1-0.3c-0.2-0.4-0.3-0.7-0.7-0.9c0.2-0.1,0.3-0.3,0.3-0.5   c0-0.3-0.2-0.5-0.5-0.6v-0.3c0.2,0,0.4-0.2,0.4-0.4s-0.2-0.4-0.4-0.4v-1.3h-0.2v1.3c-0.2,0-0.4,0.2-0.4,0.4s0.2,0.4,0.4,0.4v0.3   c-0.3,0-0.5,0.3-0.5,0.6c0,0.2,0.1,0.4,0.3,0.5c-0.3,0.1-0.5,0.5-0.7,0.8c-0.1,0.1-0.1,0.3-0.2,0.4c-0.4,0.6-1.6,1.4-1.6,1.4l0,0   c-1.1,0.5-2.1,1.3-3,2.8c-1.6,2.6-0.6,5.3-0.5,5.8l-0.2,0.2l-1-0.7l-0.8,0.7l-0.9-0.7L19,54.5l-0.9-0.7v-1.2c0-0.4,0.6-0.6,0.6-0.6   l0.1,0v-0.6l-0.1,0c-0.2-0.1-0.4-0.1-0.7-0.2v-1.6l1-0.4l-1-0.3c0-0.2,0-0.8-0.4-1.2c-0.2-0.2-0.5-0.4-0.8-0.4v-0.4   c0-0.2-0.1-0.3-0.3-0.4v-0.4h-0.2v0.4c-0.2,0-0.3,0.2-0.3,0.4v0.4c-1.2,0.2-1.4,1.4-1.4,1.7l-0.8,0.3l0.9,0.5v1.5   c-0.3,0.1-0.5,0.1-0.5,0.1l-0.1,0V52l0.1,0c0.4,0,0.4,0.7,0.4,0.7V54l-0.9,0.5l-0.9-0.4v-4.3c0-0.5,0.8-0.8,0.8-0.8l0.1,0v-0.7   l-0.1,0c-0.2-0.1-0.5-0.1-0.7-0.2v-2l1.2-0.5L13,45.2c0-0.3,0-1-0.5-1.5c-0.3-0.3-0.6-0.5-1-0.5v-0.5c0-0.2-0.1-0.4-0.3-0.4v-0.5   h-0.2v0.5c-0.2,0-0.3,0.2-0.3,0.4v0.5c-1.5,0.2-1.7,1.7-1.7,2.1l-1,0.3l1.1,0.6V48c-0.5,0.1-0.8,0.2-0.8,0.2l-0.1,0V49l0.1,0   c0.5,0,0.6,0.8,0.6,0.8v14H5.4v0.2h3.3v3.6H5.4v0.2H42h0.1h15.8H58h36.6v-0.2h-3.3V64H94.6z M41.1,66.2h0.8v0.1h-0.8V66.2z    M41.1,66v-9.4h0.8V66H41.1z M41.1,56.4v-0.1h0.8v0.1H41.1z M41.1,56.1V49h0.8v7.1H41.1z M41.1,48.8v-0.1h0.8v0.1H41.1z M42.4,46.9   c0-0.1,0-0.1,0-0.2c0.2-0.1,6.2-1.7,15.1,0c0,0.1,0,0.1,0,0.2l0,0.1h0.2l-0.6,0.4l-0.7-0.6l-0.6,0.6l-0.6-0.6l-0.7,0.6l-0.7-0.6   l-0.6,0.6l-0.7-0.6l-0.7,0.6l-0.7-0.6l-0.6,0.6L50,46.8l-0.7,0.6l-0.6-0.6L48,47.4l-0.6-0.6l-0.7,0.6l-0.6-0.6l-0.7,0.6l-0.7-0.6   l-0.6,0.6l-0.7-0.5l-0.8,0.5L42.1,47l0,0h0.3L42.4,46.9z M42.1,47.3l0.3,0.2c-0.2,0.1-0.3,0.2-0.3,0.4v0.3c0,0.1,0.1,0.3,0.2,0.3   h-0.2V47.3z M43,48.2c0,0.1-0.1,0.3-0.3,0.3c-0.2,0-0.3-0.1-0.3-0.3v-0.3c0-0.1,0.1-0.3,0.3-0.3c0.2,0,0.3,0.1,0.3,0.3V48.2z    M42.9,47.5l0.5-0.3l0.5,0.3c-0.2,0.1-0.3,0.2-0.3,0.4v0.3c0,0.1,0.1,0.3,0.2,0.3H43c0.1-0.1,0.2-0.2,0.2-0.3v-0.3   C43.2,47.7,43.1,47.5,42.9,47.5z M44.4,48.2c0,0.1-0.1,0.3-0.3,0.3s-0.3-0.1-0.3-0.3v-0.3c0-0.1,0.1-0.3,0.3-0.3s0.3,0.1,0.3,0.3   V48.2z M44.3,47.5l0.4-0.4l0.5,0.4c-0.2,0.1-0.3,0.2-0.3,0.4v0.3c0,0.1,0.1,0.3,0.2,0.3h-0.6c0.1-0.1,0.2-0.2,0.2-0.3v-0.3   C44.6,47.7,44.5,47.5,44.3,47.5z M45.7,48.2c0,0.1-0.1,0.3-0.3,0.3c-0.2,0-0.3-0.1-0.3-0.3v-0.3c0-0.1,0.1-0.3,0.3-0.3   c0.2,0,0.3,0.1,0.3,0.3V48.2z M45.6,47.5l0.5-0.4l0.4,0.4c-0.2,0.1-0.3,0.2-0.3,0.4v0.3c0,0.1,0.1,0.3,0.2,0.3h-0.5   c0.1-0.1,0.2-0.2,0.2-0.3v-0.3C46,47.7,45.8,47.5,45.6,47.5z M47,47.9v0.3c0,0.1-0.1,0.3-0.3,0.3c-0.2,0-0.3-0.1-0.3-0.3v-0.3   c0-0.1,0.1-0.3,0.3-0.3C46.8,47.6,47,47.8,47,47.9z M46.9,47.5l0.5-0.4l0.4,0.4c-0.2,0.1-0.4,0.2-0.4,0.4v0.3   c0,0.1,0.1,0.3,0.2,0.3H47c0.1-0.1,0.2-0.2,0.2-0.3v-0.3C47.2,47.7,47.1,47.5,46.9,47.5z M48.3,48.2c0,0.1-0.1,0.3-0.3,0.3   c-0.2,0-0.3-0.1-0.3-0.3v-0.3c0-0.1,0.1-0.3,0.3-0.3c0.2,0,0.3,0.1,0.3,0.3V48.2z M48.2,47.5l0.5-0.4l0.4,0.4   c-0.2,0.1-0.3,0.2-0.3,0.4v0.3c0,0.1,0.1,0.3,0.2,0.3h-0.6c0.1-0.1,0.2-0.2,0.2-0.3v-0.3C48.5,47.7,48.4,47.5,48.2,47.5z    M49.6,48.2c0,0.1-0.1,0.3-0.3,0.3c-0.2,0-0.3-0.1-0.3-0.3v-0.3c0-0.1,0.1-0.3,0.3-0.3c0.2,0,0.3,0.1,0.3,0.3V48.2z M49.5,47.5   l0.5-0.4l0.5,0.4c-0.2,0.1-0.3,0.2-0.3,0.4v0.3c0,0.1,0.1,0.3,0.2,0.3h-0.6c0.1-0.1,0.2-0.2,0.2-0.3v-0.3   C49.8,47.7,49.7,47.5,49.5,47.5z M51,48.2c0,0.1-0.1,0.3-0.3,0.3c-0.2,0-0.3-0.1-0.3-0.3v-0.3c0-0.1,0.1-0.3,0.3-0.3   c0.2,0,0.3,0.1,0.3,0.3V48.2z M50.8,47.5l0.4-0.4l0.5,0.4c-0.2,0.1-0.3,0.2-0.3,0.4v0.3c0,0.1,0.1,0.3,0.2,0.3H51   c0.1-0.1,0.2-0.2,0.2-0.3v-0.3C51.2,47.7,51,47.5,50.8,47.5z M52.3,48.2c0,0.1-0.1,0.3-0.3,0.3c-0.2,0-0.3-0.1-0.3-0.3v-0.3   c0-0.1,0.1-0.3,0.3-0.3c0.2,0,0.3,0.1,0.3,0.3V48.2z M52.2,47.5l0.4-0.4l0.5,0.4c-0.2,0.1-0.3,0.2-0.3,0.4v0.3   c0,0.1,0.1,0.3,0.2,0.3h-0.6c0.1-0.1,0.2-0.2,0.2-0.3v-0.3C52.5,47.7,52.4,47.5,52.2,47.5z M53.6,48.2c0,0.1-0.1,0.3-0.3,0.3   c-0.2,0-0.3-0.1-0.3-0.3v-0.3c0-0.1,0.1-0.3,0.3-0.3c0.2,0,0.3,0.1,0.3,0.3V48.2z M53.5,47.5l0.4-0.4l0.5,0.4   c-0.2,0.1-0.3,0.2-0.3,0.4v0.3c0,0.1,0.1,0.3,0.2,0.3h-0.6c0.1-0.1,0.2-0.2,0.2-0.3v-0.3C53.8,47.7,53.7,47.5,53.5,47.5z    M54.9,48.2c0,0.1-0.1,0.3-0.3,0.3c-0.2,0-0.3-0.1-0.3-0.3v-0.3c0-0.1,0.1-0.3,0.3-0.3c0.2,0,0.3,0.1,0.3,0.3V48.2z M54.8,47.5   l0.5-0.4l0.4,0.4c-0.2,0.1-0.3,0.2-0.3,0.4v0.3c0,0.1,0.1,0.3,0.2,0.3h-0.6c0.1-0.1,0.2-0.2,0.2-0.3v-0.3   C55.1,47.7,55,47.5,54.8,47.5z M56.2,48.2c0,0.1-0.1,0.3-0.3,0.3c-0.2,0-0.3-0.1-0.3-0.3v-0.3c0-0.1,0.1-0.3,0.3-0.3   c0.2,0,0.3,0.1,0.3,0.3V48.2z M56.1,47.5l0.4-0.4l0.5,0.4c-0.2,0.1-0.3,0.2-0.3,0.4v0.3c0,0.1,0.1,0.3,0.2,0.3h-0.6   c0.1-0.1,0.2-0.2,0.2-0.3v-0.3C56.4,47.7,56.3,47.5,56.1,47.5z M57.5,48.2c0,0.1-0.1,0.3-0.3,0.3c-0.2,0-0.3-0.1-0.3-0.3v-0.3   c0-0.1,0.1-0.3,0.3-0.3c0.2,0,0.3,0.1,0.3,0.3V48.2z M57.4,47.5l0.5-0.3v1.4h-0.3c0.1-0.1,0.2-0.2,0.2-0.3v-0.3   C57.7,47.7,57.6,47.5,57.4,47.5z M42.1,48.8h15.8v0L42.1,48.8L42.1,48.8z M58.1,48.7h0.8v0.1h-0.8V48.7z M58.9,49v7.1h-0.8V49H58.9   z M58.1,66.2h0.8v0.1h-0.8V66.2z M58.1,66v-9.4h0.8V66H58.1z M58.1,56.4v-0.1h0.8v0.1H58.1z M59.4,55.6v-0.5c0-0.2,0.2-0.4,0.4-0.4   c0.2,0,0.4,0.2,0.4,0.4v0.5c0,0.2-0.2,0.4-0.4,0.4C59.6,56,59.4,55.8,59.4,55.6z M87,56.2v0.2H59.1v-0.2H87z M61.2,55.6v-0.5   c0-0.2,0.2-0.4,0.4-0.4c0.2,0,0.4,0.2,0.4,0.4v0.5c0,0.2-0.2,0.4-0.4,0.4C61.4,56,61.2,55.8,61.2,55.6z M62.9,55.6v-0.5   c0-0.2,0.2-0.4,0.4-0.4c0.2,0,0.4,0.2,0.4,0.4v0.5c0,0.2-0.2,0.4-0.4,0.4C63.1,56,62.9,55.8,62.9,55.6z M64.7,55.6v-0.5   c0-0.2,0.2-0.4,0.4-0.4c0.2,0,0.4,0.2,0.4,0.4v0.5c0,0.2-0.2,0.4-0.4,0.4C64.9,56,64.7,55.8,64.7,55.6z M64.7,54   C64.7,54,64.7,54,64.7,54c0.2,0,0.6-0.1,1.3-0.2l-0.9,0.6L64.7,54z M77.7,55.6c0,0.2-0.2,0.4-0.4,0.4c-0.2,0-0.4-0.2-0.4-0.4v-0.5   c0-0.2,0.2-0.4,0.4-0.4c0.2,0,0.4,0.2,0.4,0.4V55.6z M76.7,55.1v0.5c0,0.2,0.1,0.3,0.1,0.4h-0.8c0.1-0.1,0.1-0.2,0.1-0.4v-0.5   c0-0.3-0.2-0.5-0.4-0.6l0.7-0.6l0.6,0.6C76.9,54.6,76.7,54.9,76.7,55.1z M65.3,54.5L66,54l0.6,0.6c-0.3,0.1-0.4,0.3-0.4,0.6v0.5   c0,0.2,0.1,0.3,0.1,0.4h-0.8c0.1-0.1,0.1-0.2,0.1-0.4v-0.5C65.7,54.9,65.5,54.6,65.3,54.5z M66.4,55.6v-0.5c0-0.2,0.2-0.4,0.4-0.4   c0.2,0,0.4,0.2,0.4,0.4v0.5c0,0.2-0.2,0.4-0.4,0.4C66.6,56,66.4,55.8,66.4,55.6z M67,54.5l0.8-0.6l0.6,0.6   c-0.2,0.1-0.4,0.3-0.4,0.6v0.5c0,0.2,0.1,0.3,0.1,0.4h-0.9c0.1-0.1,0.1-0.2,0.1-0.4v-0.5C67.4,54.9,67.3,54.6,67,54.5z M68.2,55.6   v-0.5c0-0.2,0.2-0.4,0.4-0.4c0.2,0,0.4,0.2,0.4,0.4v0.5c0,0.2-0.2,0.4-0.4,0.4C68.4,56,68.2,55.8,68.2,55.6z M68.8,54.6l0.7-0.6   l0.7,0.6c-0.2,0.1-0.4,0.3-0.4,0.6v0.5c0,0.2,0.1,0.3,0.1,0.4h-0.8c0.1-0.1,0.1-0.2,0.1-0.4v-0.5C69.2,54.9,69,54.6,68.8,54.6z    M70,55.6v-0.5c0-0.2,0.2-0.4,0.4-0.4c0.2,0,0.4,0.2,0.4,0.4v0.5c0,0.2-0.2,0.4-0.4,0.4C70.1,56,70,55.8,70,55.6z M70.5,54.5   l0.7-0.6l0.6,0.6c-0.2,0.1-0.4,0.3-0.4,0.6v0.5c0,0.2,0.1,0.3,0.1,0.4h-0.8c0.1-0.1,0.1-0.2,0.1-0.4v-0.5   C71,54.9,70.8,54.6,70.5,54.5z M71.7,55.6v-0.5c0-0.2,0.2-0.4,0.4-0.4s0.4,0.2,0.4,0.4v0.5c0,0.2-0.2,0.4-0.4,0.4   S71.7,55.8,71.7,55.6z M72.3,54.6L73,54l0.6,0.6c-0.2,0.1-0.4,0.3-0.4,0.6v0.5c0,0.2,0.1,0.3,0.1,0.4h-0.8c0.1-0.1,0.1-0.2,0.1-0.4   v-0.5C72.7,54.9,72.5,54.6,72.3,54.6z M73.4,55.6v-0.5c0-0.2,0.2-0.4,0.4-0.4c0.2,0,0.4,0.2,0.4,0.4v0.5c0,0.2-0.2,0.4-0.4,0.4   C73.6,56,73.4,55.8,73.4,55.6z M74,54.6l0.7-0.6l0.7,0.6c-0.2,0.1-0.4,0.3-0.4,0.6v0.5c0,0.2,0.1,0.3,0.1,0.4h-0.9   c0.1-0.1,0.1-0.2,0.1-0.4v-0.5C74.4,54.9,74.3,54.6,74,54.6z M75.2,55.6v-0.5c0-0.2,0.2-0.4,0.4-0.4c0.2,0,0.4,0.2,0.4,0.4v0.5   c0,0.2-0.2,0.4-0.4,0.4C75.4,56,75.2,55.8,75.2,55.6z M75.6,54.4l-0.8-0.7l-0.9,0.7L73,53.7l-0.9,0.7l-0.8-0.7l-0.9,0.7l-0.8-0.7   l-0.9,0.7l-0.8-0.8l-1,0.8l-0.7-0.7c1.4-0.2,3.5-0.5,5.7-0.5c2.2,0,3.7,0.3,4.6,0.5L75.6,54.4z M78.7,55.6v-0.5   c0-0.2,0.2-0.4,0.4-0.4s0.4,0.2,0.4,0.4v0.5c0,0.2-0.2,0.4-0.4,0.4S78.7,55.8,78.7,55.6z M80.5,55.6v-0.5c0-0.2,0.2-0.4,0.4-0.4   c0.2,0,0.4,0.2,0.4,0.4v0.5c0,0.2-0.2,0.4-0.4,0.4C80.7,56,80.5,55.8,80.5,55.6z M82,53.2c1.3-0.5,2.6-0.1,3,0v0.7l-0.6,0.6   l-0.8-0.7l-1,0.7L82,53.9V53.2z M86.5,55.6c0,0.2-0.2,0.4-0.4,0.4s-0.4-0.2-0.4-0.4v-0.5c0-0.2,0.2-0.4,0.4-0.4s0.4,0.2,0.4,0.4   V55.6z M85.5,55.1v0.5c0,0.2,0.1,0.3,0.1,0.4h-0.8c0.1-0.1,0.1-0.2,0.1-0.4v-0.5c0-0.3-0.2-0.5-0.4-0.6l0.6-0.5l0.8,0.5   C85.7,54.7,85.5,54.9,85.5,55.1z M82.2,55.6v-0.5c0-0.2,0.2-0.4,0.4-0.4c0.2,0,0.4,0.2,0.4,0.4v0.5c0,0.2-0.2,0.4-0.4,0.4   C82.4,56,82.2,55.8,82.2,55.6z M82.8,54.5l0.8-0.6l0.6,0.6c-0.2,0.1-0.4,0.3-0.4,0.6v0.5c0,0.2,0.1,0.3,0.1,0.4h-0.9   c0.1-0.1,0.1-0.2,0.1-0.4v-0.5C83.2,54.9,83,54.6,82.8,54.5z M84,55.6v-0.5c0-0.2,0.2-0.4,0.4-0.4c0.2,0,0.4,0.2,0.4,0.4v0.5   c0,0.2-0.2,0.4-0.4,0.4C84.2,56,84,55.8,84,55.6z M82.4,54.5c-0.3,0.1-0.4,0.3-0.4,0.6v0.5c0,0.2,0.1,0.3,0.1,0.4h-0.8   c0.1-0.1,0.1-0.2,0.1-0.4v-0.5c0-0.3-0.2-0.5-0.4-0.6l0.7-0.6L82.4,54.5z M87.3,54.2c1.7-0.6,3.4-0.1,3.8,0v2.2   c-0.5-0.2-2.1-0.6-3.8,0V54.2z M87.3,56.6c1.7-0.6,3.4-0.1,3.8,0v0.7c-0.5-0.2-2.1-0.6-3.8,0V56.6z M91.1,54   c-0.1,0-0.3-0.1-0.6-0.1v-3.7c0.3,0.1,0.5,0.1,0.6,0.1V54z M90.3,53.8c-0.1,0-0.3,0-0.4-0.1v-3.7c0.2,0,0.3,0,0.4,0.1V53.8z    M89.6,53.7c-0.1,0-0.3,0-0.4,0V50c0.2,0,0.3,0,0.4,0V53.7z M89,53.7c-0.1,0-0.3,0-0.5,0V50c0.2,0,0.3,0,0.5,0V53.7z M88.3,53.7   c-0.1,0-0.3,0-0.4,0.1v-3.7c0.1,0,0.3-0.1,0.4-0.1V53.7z M87.6,53.9c-0.1,0-0.2,0.1-0.4,0.1v-3.7c0.1,0,0.2-0.1,0.4-0.1V53.9z    M59.1,56.6H87v0.8H59.1V56.6z M87.3,57.6c1.7-0.6,3.4-0.1,3.8,0v10h-3.8V57.6z M90.8,47.8v-1.2c0-0.3-0.2-0.6-0.6-0.6   c-0.2,0-0.5,0.2-0.5,0.4v-0.1c0-0.2-0.1-0.4-0.3-0.5h1.1l0.3,0.2L90.8,47.8C90.9,47.8,90.8,47.8,90.8,47.8z M88.2,47.8   c-0.2,0-0.5,0.1-0.7,0.1v-1.3c0-0.2,0.2-0.3,0.3-0.3s0.3,0.2,0.3,0.3V47.8z M89.1,45.9c0.3,0,0.5,0.2,0.5,0.3v1.4   c-0.1,0-0.2,0-0.2,0c-0.2,0-0.5,0-0.7,0v-1.5C88.6,46.1,88.8,45.9,89.1,45.9z M90.6,47.8c-0.2,0-0.4,0-0.7-0.1v-1.1   c0-0.2,0.2-0.3,0.3-0.3s0.3,0.2,0.3,0.3V47.8z M88.7,42.6c0-0.1,0.1-0.2,0.2-0.2s0.2,0.1,0.2,0.2V43c-0.1,0-0.1,0-0.2,0   c-0.1,0-0.2,0-0.2,0V42.6z M87.7,43.7c0.3-0.3,0.7-0.5,1.3-0.5c1.6,0,1.9,1.4,2,1.8h-3.7C87.2,44.8,87.3,44.2,87.7,43.7z    M86.4,45.5l0.7-0.2H91l0.6,0.2L91,45.8l-0.4-0.2l-3.1,0l-0.4,0.2L86.4,45.5z M87.2,46l0.4-0.2h1.1c-0.2,0.1-0.3,0.3-0.3,0.5v0.1   c-0.1-0.2-0.3-0.4-0.5-0.4c-0.3,0-0.6,0.3-0.6,0.6v1.3c0,0-0.1,0-0.1,0V46z M86.4,48.7v-0.4c0.9-0.3,1.9-0.4,2.9-0.4   c1.3,0,2.2,0.2,2.4,0.3v0.4c-0.6,0.1-0.7,1-0.7,1.1v0.4c-0.5-0.2-2.1-0.6-3.8,0v-0.4C87.3,49.1,86.6,48.8,86.4,48.7z M87,56h-0.4   c0.1-0.1,0.1-0.2,0.1-0.4v-0.5c0-0.2-0.1-0.5-0.4-0.6l0.7-0.3V56z M82.8,51c-0.2,0-0.3,0-0.5,0.1v-1c0-0.1,0.1-0.3,0.3-0.3   c0.1,0,0.3,0.1,0.3,0.3V51z M85,50c0-0.2-0.2-0.4-0.5-0.4c-0.2,0-0.3,0.1-0.4,0.2v0c0-0.1-0.1-0.3-0.2-0.3h0.8l0.3,0.1V50z    M83.5,49.5c0.2,0,0.4,0.1,0.4,0.3v1.1c-0.2,0-0.5,0-0.7,0v-1.1C83.1,49.7,83.3,49.5,83.5,49.5z M84.2,50c0-0.1,0.1-0.3,0.3-0.3   c0.1,0,0.3,0.1,0.3,0.3v1c-0.2,0-0.3,0-0.5-0.1V50z M83.3,46.8c0-0.1,0.1-0.2,0.2-0.2s0.2,0.1,0.2,0.2v0.3c-0.1,0-0.1,0-0.2,0   c-0.1,0-0.1,0-0.2,0V46.8z M82.4,47.8c0.2-0.3,0.6-0.4,1-0.4c1.3,0,1.5,1.1,1.6,1.4h-3C82.1,48.6,82.1,48.1,82.4,47.8z M81.5,49.2   L82,49h3.1l0.4,0.1l-0.5,0.2l-0.3-0.2h-2.5L82,49.4L81.5,49.2z M82,49.6l0.3-0.1h0.8c-0.1,0.1-0.2,0.2-0.2,0.3v0   c-0.1-0.1-0.2-0.2-0.4-0.2c-0.3,0-0.5,0.2-0.5,0.5v1c0,0,0,0,0,0V49.6z M81.3,51.8v-0.3c2.1-0.6,3.9-0.2,4.2-0.1v0.3   c-0.5,0.1-0.5,0.8-0.5,0.9V53c-0.5-0.1-1.7-0.4-3,0v-0.5C82,52.1,81.5,51.8,81.3,51.8z M80.7,54.5c-0.3,0.1-0.4,0.3-0.4,0.6v0.5   c0,0.2,0.1,0.3,0.1,0.4h-0.8c0.1-0.1,0.1-0.2,0.1-0.4v-0.5c0-0.3-0.2-0.5-0.4-0.6l0.7-0.6L80.7,54.5z M79,54.5   c-0.3,0.1-0.5,0.3-0.5,0.6v0.5c0,0.2,0.1,0.3,0.1,0.4h-0.8c0.1-0.1,0.1-0.2,0.1-0.4v-0.5c0-0.3-0.2-0.5-0.4-0.6l0.8-0.6L79,54.5z    M76.8,53.9c0.2,0.1,0.3,0.1,0.4,0.1c0,0.1,0,0.1-0.1,0.2L76.8,53.9z M70.7,41.4c0-0.1,0.1-0.2,0.3-0.2s0.3,0.1,0.3,0.2   s-0.1,0.2-0.3,0.2S70.7,41.5,70.7,41.4z M70.9,42.3c0.2,0,0.4,0.2,0.4,0.4s-0.2,0.4-0.4,0.4c-0.2,0-0.4-0.2-0.4-0.4   S70.7,42.3,70.9,42.3z M69.9,44.5c0-0.1,0.1-0.2,0.1-0.3c0.2-0.4,0.4-0.8,0.9-0.8c0.5,0,0.6,0.3,0.9,0.8c0.1,0.1,0.1,0.3,0.2,0.4   c0.2,0.3,0.6,0.7,1,1c-0.9-0.3-1.8-0.3-2.5-0.3c-0.5,0-1.1,0.1-1.6,0.3C69.3,45.2,69.8,44.8,69.9,44.5z M65,49   c1.1-2.1,3.3-3.5,5.4-3.6c1.9-0.1,4.3,0.3,6.2,3.3c1.2,2,0.9,4.1,0.6,5.1c-0.5-0.2-2.2-0.8-5.5-0.8c-3.4,0-6.6,0.6-7.1,0.7   C64.5,53,64.2,50.6,65,49z M64.5,54.1C64.5,54.2,64.5,54.2,64.5,54.1L64.5,54.1l0.4,0.4c-0.3,0.1-0.4,0.3-0.4,0.6v0.5   c0,0.2,0.1,0.3,0.1,0.4h-0.8c0.1-0.1,0.1-0.2,0.1-0.4v-0.5c0-0.3-0.2-0.5-0.4-0.6l0.8-0.5L64.5,54.1z M63.2,54.5   c-0.3,0.1-0.4,0.3-0.4,0.6v0.5c0,0.2,0.1,0.3,0.1,0.4H62c0.1-0.1,0.1-0.2,0.1-0.4v-0.5c0-0.3-0.2-0.5-0.4-0.6l0.8-0.6L63.2,54.5z    M61.4,54.5c-0.2,0.1-0.4,0.3-0.4,0.6v0.5c0,0.2,0.1,0.3,0.1,0.4h-0.8c0.1-0.1,0.1-0.2,0.1-0.4v-0.5c0-0.3-0.2-0.5-0.4-0.6l0.8-0.6   L61.4,54.5z M59.7,54.5c-0.3,0.1-0.4,0.3-0.4,0.6v0.5c0,0.2,0.1,0.3,0.1,0.4h-0.3v-1.9L59.7,54.5z M59.2,46.8h-0.3v1.7h-0.8v-1.7   h-0.3c0-0.3-0.3-0.6-0.4-0.7c1-0.3,1.8-0.1,2.1,0C59.3,46.3,59.2,46.6,59.2,46.8z M57.6,45.8v-1l-0.1,0h0.1v-0.1h1.6l0,0.1h0.1   l-0.1,0v1C58.8,45.7,58.3,45.7,57.6,45.8z M58.3,43.1c0-0.1,0.1-0.2,0.2-0.2c0.1,0,0.2,0.1,0.2,0.2v0.4c0,0-0.1,0-0.1,0   c-0.1,0-0.2,0-0.3,0V43.1z M58.5,43.7c0.2,0,0.4,0.1,0.5,0.2c0.2,0.2,0.2,0.4,0.2,0.6h-1.6C57.6,44.1,57.8,43.7,58.5,43.7z    M49.8,34.1c0-0.2,0.1-0.3,0.3-0.3c0.2,0,0.3,0.1,0.3,0.3c0,0.2-0.1,0.3-0.3,0.3C49.9,34.4,49.8,34.3,49.8,34.1z M49.4,35.7   c0-0.3,0.3-0.5,0.6-0.5c0.3,0,0.6,0.2,0.6,0.5s-0.3,0.5-0.6,0.5C49.7,36.2,49.4,36,49.4,35.7z M48.6,37.9c0.1-0.2,0.2-0.3,0.3-0.5   c0.3-0.6,0.5-1,1.2-1c0.7,0,0.9,0.5,1.1,1c0.1,0.1,0.1,0.3,0.2,0.4c0.2,0.4,0.8,0.8,1.3,1.2c-0.8-0.3-1.7-0.4-2.7-0.4   c-1,0-1.8,0.2-2.6,0.4C47.9,38.7,48.4,38.3,48.6,37.9z M50,38.9c5.6,0,7.4,4.8,7.5,5.2c-0.1,0.1-0.1,0.3-0.1,0.5h-0.8l0.8,0.4v0.9   c-0.1,0-0.1,0-0.2,0.1L57,46l0.1,0.1c0.1,0.1,0.2,0.2,0.3,0.4c-8-1.5-13.8-0.3-14.9,0c0.1-0.2,0.2-0.3,0.3-0.4L43,46l-0.2-0.1   c-0.1,0-0.1,0-0.2-0.1v-0.9l0.8-0.4h-0.8c0-0.1,0-0.2,0-0.3C42.7,43.8,44.4,38.9,50,38.9z M41.4,43.1c0-0.1,0.1-0.2,0.2-0.2   c0.1,0,0.2,0.1,0.2,0.2v0.4c-0.1,0-0.2,0-0.3,0c0,0-0.1,0-0.1,0V43.1z M41,43.9c0.1-0.1,0.3-0.2,0.5-0.2c0.7,0,0.9,0.3,0.9,0.7   h-1.6C40.8,44.3,40.8,44.1,41,43.9z M40.7,44.8L40.7,44.8L40.7,44.8l1.7-0.1v0.1h0.1l-0.1,0v1c-0.7-0.1-1.2-0.1-1.6,0L40.7,44.8   L40.7,44.8z M40.8,46.8c0-0.1-0.1-0.4-0.3-0.7c0.3-0.1,1.2-0.3,2.1,0c-0.1,0.2-0.4,0.5-0.4,0.7h-0.3v1.7h-0.8v-1.7H40.8z M8.9,50.4   c0.1,0,0.3-0.1,0.6-0.1v3.7C9.2,54,9,54,8.9,54.1V50.4z M12.7,54.1c-0.1,0-0.2-0.1-0.4-0.1v-3.7c0.1,0,0.2,0.1,0.4,0.1V54.1z    M12.1,53.9c-0.1,0-0.3-0.1-0.4-0.1v-3.7c0.1,0,0.3,0,0.4,0.1V53.9z M11.5,53.8c-0.2,0-0.3,0-0.5,0v-3.7c0.1,0,0.3,0,0.5,0V53.8z    M10.8,53.8c-0.2,0-0.3,0-0.4,0v-3.7c0.1,0,0.3,0,0.4,0V53.8z M10.1,53.8c-0.2,0-0.3,0-0.4,0.1v-3.7c0.1,0,0.3,0,0.4-0.1V53.8z    M8.9,54.3c0.4-0.1,2.1-0.6,3.8,0v2.2c-1.7-0.6-3.3-0.2-3.8,0V54.3z M8.9,56.7c0.4-0.1,2.1-0.6,3.8,0v0.7c-1.7-0.6-3.3-0.2-3.8,0   V56.7z M12.7,57.7v9.9H8.9v-10C9.3,57.5,11,57,12.7,57.7z M12.9,56.8h28v0.8h-28V56.8z M12.9,56.5v-0.2h28v0.2H12.9z M13.4,55.7   v-0.5c0-0.2,0.2-0.4,0.4-0.4c0.2,0,0.4,0.2,0.4,0.4v0.5c0,0.2-0.2,0.4-0.4,0.4C13.6,56.1,13.4,55.9,13.4,55.7z M18,54l-0.6,0.5   l-1-0.7l-0.8,0.7L15,54l0-0.7c0.4-0.1,1.7-0.4,3,0V54z M18.2,54.1l0.7,0.6c-0.2,0.1-0.4,0.3-0.4,0.6v0.5c0,0.2,0.1,0.3,0.1,0.4   h-0.8c0.1-0.1,0.1-0.2,0.1-0.4v-0.5c0-0.3-0.2-0.5-0.5-0.6L18.2,54.1L18.2,54.1z M19.5,55.7c0,0.2-0.2,0.4-0.4,0.4   c-0.2,0-0.4-0.2-0.4-0.4v-0.5c0-0.2,0.2-0.4,0.4-0.4c0.2,0,0.4,0.2,0.4,0.4V55.7z M15.2,55.7v-0.5c0-0.2,0.2-0.4,0.4-0.4   c0.2,0,0.4,0.2,0.4,0.4v0.5c0,0.2-0.2,0.4-0.4,0.4C15.4,56.1,15.2,55.9,15.2,55.7z M15.7,54.6l0.7-0.6l0.8,0.6   c-0.3,0.1-0.5,0.3-0.5,0.6v0.5c0,0.2,0.1,0.3,0.1,0.4H16c0.1-0.1,0.1-0.2,0.1-0.4v-0.5C16.2,54.9,16,54.7,15.7,54.6z M17,55.7v-0.5   c0-0.2,0.2-0.4,0.4-0.4c0.2,0,0.4,0.2,0.4,0.4v0.5c0,0.2-0.2,0.4-0.4,0.4C17.1,56.1,17,55.9,17,55.7z M15.5,54.6   c-0.3,0-0.5,0.3-0.5,0.6v0.5c0,0.2,0.1,0.3,0.1,0.4h-0.8c0.1-0.1,0.1-0.2,0.1-0.4v-0.5c0-0.3-0.2-0.5-0.4-0.6l0.8-0.5L15.5,54.6z    M20.5,55.7v-0.5c0-0.2,0.2-0.4,0.4-0.4s0.4,0.2,0.4,0.4v0.5c0,0.2-0.2,0.4-0.4,0.4S20.5,55.9,20.5,55.7z M22.2,55.7v-0.5   c0-0.2,0.2-0.4,0.4-0.4S23,55,23,55.2v0.5c0,0.2-0.2,0.4-0.4,0.4S22.2,55.9,22.2,55.7z M37,55.7c0,0.2-0.2,0.4-0.4,0.4   c-0.2,0-0.4-0.2-0.4-0.4v-0.5c0-0.2,0.2-0.4,0.4-0.4c0.2,0,0.4,0.2,0.4,0.4V55.7z M36,55.2v0.5c0,0.2,0.1,0.3,0.1,0.4h-0.8   c0.1-0.1,0.1-0.2,0.1-0.4v-0.5c0-0.3-0.2-0.5-0.4-0.6l0.6-0.5l0.8,0.6C36.2,54.8,36,55,36,55.2z M24,55.7v-0.5   c0-0.2,0.2-0.4,0.4-0.4c0.2,0,0.4,0.2,0.4,0.4v0.5c0,0.2-0.2,0.4-0.4,0.4C24.1,56.1,24,55.9,24,55.7z M24.5,54.7l0.7-0.6l0.7,0.6   c-0.2,0.1-0.4,0.3-0.4,0.6v0.5c0,0.2,0.1,0.3,0.1,0.4h-0.9c0.1-0.1,0.1-0.2,0.1-0.4v-0.5C25,55,24.8,54.7,24.5,54.7z M25.7,55.7   v-0.5c0-0.2,0.2-0.4,0.4-0.4c0.2,0,0.4,0.2,0.4,0.4v0.5c0,0.2-0.2,0.4-0.4,0.4C25.9,56.1,25.7,55.9,25.7,55.7z M26.3,54.7l0.6-0.6   l0.7,0.6c-0.3,0.1-0.4,0.3-0.4,0.6v0.5c0,0.2,0.1,0.3,0.1,0.4h-0.8c0.1-0.1,0.1-0.2,0.1-0.4v-0.5C26.7,55,26.6,54.7,26.3,54.7z    M27.5,55.7v-0.5c0-0.2,0.2-0.4,0.4-0.4c0.2,0,0.4,0.2,0.4,0.4v0.5c0,0.2-0.2,0.4-0.4,0.4C27.6,56.1,27.5,55.9,27.5,55.7z M28,54.7   l0.7-0.6l0.7,0.6C29.2,54.7,29,55,29,55.2v0.5c0,0.2,0.1,0.3,0.1,0.4h-0.8c0.1-0.1,0.1-0.2,0.1-0.4v-0.5C28.5,55,28.3,54.7,28,54.7   z M29.2,55.7v-0.5c0-0.2,0.2-0.4,0.4-0.4c0.2,0,0.4,0.2,0.4,0.4v0.5c0,0.2-0.2,0.4-0.4,0.4C29.4,56.1,29.2,55.9,29.2,55.7z    M29.8,54.7l0.7-0.6l0.7,0.6c-0.2,0.1-0.4,0.3-0.4,0.6v0.5c0,0.2,0.1,0.3,0.1,0.4h-0.8c0.1-0.1,0.1-0.2,0.1-0.4v-0.5   C30.2,55,30,54.7,29.8,54.7z M31,55.7v-0.5c0-0.2,0.2-0.4,0.4-0.4c0.2,0,0.4,0.2,0.4,0.4v0.5c0,0.2-0.2,0.4-0.4,0.4   C31.1,56.1,31,55.9,31,55.7z M31.5,54.7l0.7-0.6l0.8,0.6c-0.2,0.1-0.4,0.3-0.4,0.6v0.5c0,0.2,0.1,0.3,0.1,0.4h-0.9   c0.1-0.1,0.1-0.2,0.1-0.4v-0.5C32,55,31.8,54.7,31.5,54.7z M32.7,55.7v-0.5c0-0.2,0.2-0.4,0.4-0.4c0.2,0,0.4,0.2,0.4,0.4v0.5   c0,0.2-0.2,0.4-0.4,0.4C32.9,56.1,32.7,55.9,32.7,55.7z M33.3,54.7l0.6-0.6l0.8,0.6c-0.2,0.1-0.4,0.3-0.4,0.6v0.5   c0,0.2,0.1,0.3,0.1,0.4h-0.8c0.1-0.1,0.1-0.2,0.1-0.4v-0.5C33.7,55,33.6,54.7,33.3,54.7z M34.5,55.7v-0.5c0-0.2,0.2-0.4,0.4-0.4   c0.2,0,0.4,0.2,0.4,0.4v0.5c0,0.2-0.2,0.4-0.4,0.4C34.7,56.1,34.5,55.9,34.5,55.7z M34.9,54.5l-1-0.7l-0.8,0.7l-1-0.7l-0.8,0.7   l-0.9-0.7l-0.8,0.7l-0.9-0.7l-0.8,0.7L27,53.8l-0.8,0.7l-0.9-0.7l-0.9,0.7l-0.8-0.6c0.8-0.2,2.4-0.6,4.8-0.6c3.3,0,6.4,0.6,7.1,0.7   L34.9,54.5z M24.2,54.7c-0.3,0.1-0.4,0.3-0.4,0.6v0.5c0,0.2,0.1,0.3,0.1,0.4h-0.8c0.1-0.1,0.1-0.2,0.1-0.4v-0.5   c0-0.3-0.2-0.5-0.4-0.6l0.6-0.5L24.2,54.7z M38,55.7v-0.5c0-0.2,0.2-0.4,0.4-0.4c0.2,0,0.4,0.2,0.4,0.4v0.5c0,0.2-0.2,0.4-0.4,0.4   C38.2,56.1,38,55.9,38,55.7z M39.7,55.7v-0.5c0-0.2,0.2-0.4,0.4-0.4s0.4,0.2,0.4,0.4v0.5c0,0.2-0.2,0.4-0.4,0.4   S39.7,55.9,39.7,55.7z M40.6,56.1c0.1-0.1,0.1-0.2,0.1-0.4v-0.5c0-0.3-0.2-0.5-0.4-0.6l0.6-0.6v2H40.6z M39.2,54.1l0.7,0.6   c-0.2,0.1-0.4,0.3-0.4,0.6v0.5c0,0.2,0.1,0.3,0.1,0.4h-0.8c0.1-0.1,0.1-0.2,0.1-0.4v-0.5c0-0.3-0.2-0.5-0.4-0.6L39.2,54.1z    M37.4,54.1l0.8,0.6c-0.2,0.1-0.4,0.3-0.4,0.6v0.5c0,0.2,0.1,0.3,0.1,0.4h-0.8c0.1-0.1,0.1-0.2,0.1-0.4v-0.5c0-0.3-0.2-0.5-0.5-0.6   L37.4,54.1z M28.9,41.5c0-0.1,0.1-0.2,0.3-0.2s0.3,0.1,0.3,0.2s-0.1,0.2-0.3,0.2S28.9,41.6,28.9,41.5z M29.2,42.4   c0.2,0,0.4,0.2,0.4,0.4s-0.2,0.4-0.4,0.4s-0.4-0.2-0.4-0.4S28.9,42.4,29.2,42.4z M28.1,44.6c0.1-0.1,0.1-0.3,0.2-0.4   c0.2-0.5,0.4-0.8,0.9-0.8c0.5,0,0.7,0.4,0.9,0.8c0,0.1,0.1,0.2,0.1,0.3c0.2,0.3,0.6,0.7,1,1.1c-0.5-0.2-1.1-0.3-1.6-0.3   c-0.8,0-1.7,0-2.5,0.3C27.5,45.3,27.9,44.9,28.1,44.6z M23.4,48.8c1.9-3,4.3-3.3,6.2-3.3c2.2,0.1,4.4,1.5,5.4,3.6   c0.9,1.7,0.5,4.1,0.4,4.8c-0.6-0.1-3.8-0.7-7.1-0.7c-3.3,0-5,0.6-5.5,0.8C22.6,52.9,22.2,50.8,23.4,48.8z M22.9,54.1   c0.1,0,0.2-0.1,0.4-0.1L23,54.3C22.9,54.2,22.9,54.2,22.9,54.1z M21.6,54.1l0.8,0.6C22.2,54.8,22,55,22,55.2v0.5   c0,0.2,0.1,0.3,0.1,0.4h-0.8c0.1-0.1,0.1-0.2,0.1-0.4v-0.5c0-0.3-0.2-0.5-0.5-0.6L21.6,54.1z M19.9,54.1l0.8,0.6   c-0.2,0.1-0.4,0.3-0.4,0.6v0.5c0,0.2,0.1,0.3,0.1,0.4h-0.8c0.1-0.1,0.1-0.2,0.1-0.4v-0.5c0-0.3-0.2-0.5-0.5-0.6L19.9,54.1z    M17.9,51.2v-1c0-0.3-0.2-0.5-0.5-0.5c-0.2,0-0.3,0.1-0.4,0.2v0c0-0.1-0.1-0.3-0.2-0.3h0.8l0.3,0.1L17.9,51.2   C17.9,51.2,17.9,51.2,17.9,51.2z M15.3,49.6h0.8c-0.1,0.1-0.2,0.2-0.2,0.3v0c-0.1-0.1-0.2-0.2-0.4-0.2c-0.2,0-0.4,0.2-0.5,0.4v-0.4   L15.3,49.6z M15.2,50.2c0-0.1,0.1-0.3,0.3-0.3c0.1,0,0.3,0.1,0.3,0.3v0.9c-0.2,0-0.4,0-0.5,0.1V50.2z M16.1,49.9   c0-0.1,0.2-0.3,0.4-0.3c0.2,0,0.4,0.1,0.4,0.3V51c-0.3,0-0.5,0-0.7,0V49.9z M17.7,51.1c-0.2,0-0.3,0-0.5-0.1v-0.9   c0-0.1,0.1-0.3,0.3-0.3c0.1,0,0.3,0.1,0.3,0.3V51.1z M16.3,46.9c0-0.1,0.1-0.2,0.2-0.2s0.2,0.1,0.2,0.2v0.3c-0.1,0-0.1,0-0.2,0   c-0.1,0-0.1,0-0.2,0V46.9z M16.5,47.5c0.5,0,0.8,0.1,1,0.4c0.3,0.4,0.4,0.9,0.4,1.1h-3C15,48.6,15.2,47.5,16.5,47.5z M14.4,49.3   l0.4-0.1H18l0.5,0.1L18,49.5l-0.3-0.1l-2.5,0l-0.3,0.2L14.4,49.3z M14.4,51.8v-0.3c0.4-0.1,2.1-0.5,4.2,0.1v0.3   c-0.2,0.1-0.7,0.3-0.7,0.8v0.5c-1.3-0.4-2.5-0.2-3,0v-0.4C15,52.6,14.9,51.9,14.4,51.8z M13.6,54.7c-0.2,0.1-0.4,0.3-0.4,0.6v0.5   c0,0.2,0.1,0.3,0.1,0.4h-0.4v-1.8L13.6,54.7z M12.7,48v-1.3c0-0.3-0.2-0.6-0.6-0.6c-0.2,0-0.4,0.1-0.5,0.4v-0.1   c0-0.2-0.1-0.4-0.3-0.5h1.1l0.4,0.2L12.7,48C12.7,48,12.7,48,12.7,48z M10,47.8c-0.3,0-0.5,0-0.7,0.1v-1.2c0-0.2,0.2-0.3,0.3-0.3   s0.3,0.2,0.3,0.3V47.8z M10.9,46c0.3,0,0.5,0.2,0.5,0.3v1.5c-0.2,0-0.5,0-0.7,0c-0.1,0-0.2,0-0.2,0v-1.4C10.4,46.2,10.6,46,10.9,46   z M12.5,48c-0.2,0-0.5-0.1-0.7-0.1v-1.2c0-0.2,0.2-0.3,0.3-0.3s0.3,0.2,0.3,0.3V48z M10.7,42.7c0-0.1,0.1-0.2,0.2-0.2   c0.1,0,0.2,0.1,0.2,0.2v0.4c-0.1,0-0.2,0-0.2,0c-0.1,0-0.2,0-0.2,0V42.7z M11,43.3c0.6,0,1,0.2,1.3,0.5c0.4,0.5,0.5,1.1,0.5,1.4H9   C9.1,44.8,9.3,43.3,11,43.3z M8.4,45.6L9,45.4h3.9l0.7,0.2l-0.7,0.3l-0.3-0.2l-3,0L9,45.9L8.4,45.6z M9.1,46.1l0.3-0.2h1.1   c-0.2,0.1-0.3,0.3-0.3,0.5v0.1c-0.1-0.2-0.3-0.4-0.5-0.4c-0.3,0-0.6,0.3-0.6,0.6v1.2c0,0,0,0,0,0V46.1z M8.2,48.8v-0.4   c0.3-0.1,1.2-0.3,2.4-0.3c1,0,1.9,0.1,2.9,0.4v0.4c-0.2,0.1-0.9,0.4-0.9,0.9v0.4c-1.7-0.6-3.3-0.2-3.8,0v-0.4   C8.9,49.8,8.8,48.9,8.2,48.8z M14.2,64h0.3l0-0.1c0-0.1,0.1-1.6,1.7-2.1c0.2,0,1.5,0.4,1.7,2.1l0,0.1h0.2v3.7h-3.9V64z M18.2,63.8   L18.2,63.8c-0.2-1.2-1-1.8-1.5-2h1.5V63.8z M14.3,63.8L14.3,63.8l-0.1-2h1.5C14.6,62.3,14.4,63.4,14.3,63.8z M19.7,64h0.3l0-0.1   c0-0.1,0.1-1.6,1.7-2.1c0.2,0,1.5,0.4,1.7,2.1l0,0.1h0.2v3.7h-3.9V64z M23.6,63.8L23.6,63.8c-0.2-1.2-1-1.8-1.5-2h1.5V63.8z    M19.7,63.8L19.7,63.8l-0.1-2h1.5C20,62.3,19.8,63.4,19.7,63.8z M25,64h0.3l0-0.1c0-0.1,0.1-1.6,1.7-2.1c0.2,0,1.5,0.4,1.7,2.1   l0,0.1h0.2v3.7H25V64z M28.9,63.8L28.9,63.8c-0.2-1.2-1-1.8-1.5-2h1.5V63.8z M25.1,63.8L25.1,63.8l-0.1-2h1.5   C25.4,62.3,25.1,63.4,25.1,63.8z M30.4,64h0.3l0-0.1c0-0.1,0.1-1.6,1.7-2.1c0.2,0,1.5,0.4,1.7,2.1l0,0.1h0.2v3.7h-3.9V64z    M34.3,63.8L34.3,63.8c-0.2-1.2-1-1.8-1.5-2h1.5V63.8z M30.5,63.8L30.5,63.8l-0.1-2h1.5C30.8,62.3,30.5,63.4,30.5,63.8z M35.8,64   h0.3l0-0.1c0-0.1,0.1-1.6,1.7-2.1c0.2,0,1.5,0.4,1.7,2.1l0,0.1h0.2v3.7h-3.9V64z M39.7,63.8L39.7,63.8c-0.2-1.2-1-1.8-1.5-2h1.5   V63.8z M35.9,63.8L35.9,63.8l-0.1-2h1.5C36.2,62.3,35.9,63.4,35.9,63.8z M39.9,67.6v-6.1h-4.3v6.1h-1v-6.1h-4.3v6.1h-1v-6.1h-4.3   v6.1h-1v-6.1h-4.3v6.1h-1.1v-6.1H14v6.1h-1.1v-9.9h28v9.9H39.9z M41.1,67.6v-1.1h0.8v1.1H41.1z M46,66.1h-1v-0.8   c0-0.3,0.2-0.5,0.5-0.5S46,65,46,65.2V66.1z M45.5,64.5c-0.4,0-0.7,0.3-0.7,0.7v0.8h-0.2v-1.7h1.8v1.7h-0.1v-0.8   C46.2,64.8,45.9,64.5,45.5,64.5z M44.5,56.7c0.1,0.1,0.2,0.2,0.2,0.3c0,0.2-0.1,0.3-0.2,0.5V56.7z M44.5,57.8c0,0,0.4-0.4,0.4-0.8   c0-0.2-0.1-0.4-0.3-0.6c0-0.1,0-0.3,0.2-0.4c0.1-0.1,0.2-0.1,0.4-0.1l0.3,0.1l-0.2-0.2c-0.1-0.1-0.3-0.5-0.2-0.7   c0.1-0.2,0.3-0.3,0.6-0.3l0.1,0l0-0.1c0,0,0-0.4,0.2-0.6c0.1-0.1,0.3-0.2,0.4-0.2v5h-1.8V57.8L44.5,57.8z M54.8,55.9   c0,0,0.4,0.1,0.4,0.3c0.1,0.2,0,0.4-0.2,0.6c0,0-0.2,0.2-0.1,0.5c0.1,0.2,0.2,0.4,0.5,0.5v1.1h-1.8v-5c0.3,0,0.7,0.2,0.7,0.8l0,0.1   l0.1,0c0,0,0.4,0.1,0.5,0.3c0.1,0.2,0,0.4-0.2,0.7l-0.1,0.1L54.8,55.9z M55.4,66.1h-0.2v-0.8c0-0.4-0.3-0.7-0.7-0.7   c-0.4,0-0.7,0.3-0.7,0.7v0.8h-0.2v-1.7h1.8V66.1z M55,66.1h-1v-0.8c0-0.3,0.2-0.5,0.5-0.5S55,65,55,65.2V66.1z M52.6,64.1   C52.6,64,52.6,64,52.6,64.1c0-0.1,0-0.1,0-0.1V64.1z M52.6,63.3C52.6,63.3,52.6,63.3,52.6,63.3c0-0.2,0-0.3,0-0.4   c-0.1-0.1-0.2-0.2-0.3-0.2c-0.1-0.3-0.3-0.4-0.5-0.5c-0.1-0.3-0.4-0.4-0.6-0.4c-0.2-0.3-0.5-0.3-0.6-0.3c-0.2-0.2-0.4-0.3-0.6-0.2   c-0.2,0-0.4,0.2-0.5,0.3c-0.4,0-0.6,0.2-0.6,0.3c-0.3,0-0.5,0.2-0.6,0.4c0,0,0,0,0,0c-0.1,0-0.2,0-0.3,0.1   c-0.1,0.1-0.1,0.2-0.1,0.3c-0.2,0-0.3,0.1-0.3,0.2s0,0.2,0,0.3c0,0-0.1,0-0.1,0.1c0,0,0,0,0,0v-2.6h5.3V63.3z M46.3,64.2h-1.8v-1.1   h1.8V64.2z M46.3,62.9h-1.8v-2.1h1.8V62.9z M44.5,60.5v-1.4h1.8v1.4H44.5z M46.5,59.2h1.5v1.4h-1.5V59.2z M50.1,60.5v-1.4h1.5v1.4   H50.1z M49.9,60.5h-1.6v-1.4h1.6V60.5z M47.3,63.8C47.3,63.8,47.3,63.9,47.3,63.8c0,0.1,0,0.1,0,0.2V63.8z M51.8,60.5v-1.4h1.6v1.4   H51.8z M53.6,59.2h1.8v1.4h-1.8V59.2z M55.4,60.7v2.1h-1.8v-2.1H55.4z M55.4,64.2h-1.8v-1.1h1.8V64.2z M53.4,58.9h-1.6v-6.1   c0.1,0.1,0.2,0.2,0.3,0.3l0,0.1l0.1,0c0,0,0.8,0,1.1,0.7l0,0.1l0.1,0c0,0,0,0,0,0V58.9z M51.6,58.9h-1.5v-6.9   c0.2,0.1,0.5,0.2,0.7,0.5l0,0l0.1,0c0,0,0.4-0.1,0.7,0.1V58.9z M49.9,58.9h-1.6v-6.3c0.2-0.1,0.4-0.1,0.7-0.1l0.1,0l0-0.1   c0,0,0.3-0.4,0.8-0.5c0,0,0,0,0,0V58.9z M48.1,58.9h-1.5v-5l0,0l0-0.1c0,0,0.2-0.8,1.1-0.7l0.1,0l0-0.1c0,0,0.1-0.2,0.2-0.3V58.9z    M46.5,60.7h0.5v6.9h-0.5V60.7z M47.3,64.3c0.1-0.1,0.3-0.2,0.2-0.4c0-0.1,0-0.2-0.1-0.3c0,0,0-0.1,0.1-0.2c0,0,0.1,0,0.1,0   l0.3,0.1l-0.2-0.2c0-0.1-0.1-0.2-0.1-0.3c0-0.1,0.2-0.1,0.2-0.1l0.1,0l0-0.1c0,0,0-0.2,0.1-0.3c0.1,0,0.1-0.1,0.2-0.1l0.1,0l0-0.1   c0,0,0.1-0.4,0.5-0.3l0.1,0l0-0.1c0,0,0.1-0.2,0.5-0.2l0.1,0l0-0.1c0,0,0.1-0.2,0.3-0.2c0.1,0,0.3,0.1,0.4,0.2l0,0l0.1,0   c0,0,0.4-0.1,0.5,0.2l0,0.1l0.1,0c0,0,0.4,0,0.5,0.3l0,0.1l0.1,0c0,0,0.4,0,0.4,0.3l0,0.1l0.1,0c0,0,0.2,0,0.2,0.1   c0,0.1,0,0.2-0.1,0.3l-0.1,0.1l0.2,0c0,0,0.1,0,0.2,0.1c0,0.1,0,0.2-0.1,0.3c0,0-0.1,0.1-0.1,0.3c0,0.1,0.1,0.2,0.2,0.2v3.3h-5.3   V64.3z M52.8,60.7h0.6v6.9h-0.6V60.7z M53.6,66.3h1.8v1.4h-1.8V66.3z M55.1,57.3c0-0.2,0.1-0.3,0.1-0.3c0.1-0.2,0.2-0.3,0.2-0.4   v1.1C55.3,57.6,55.2,57.5,55.1,57.3z M55.4,56.2C55.4,56.2,55.4,56.2,55.4,56.2c-0.1-0.2-0.3-0.3-0.5-0.4c0.2-0.3,0.2-0.6,0.1-0.8   c-0.1-0.3-0.5-0.4-0.6-0.4c-0.1-0.8-0.8-0.9-1.1-0.9c-0.3-0.7-1-0.7-1.2-0.7c-0.4-0.6-1.1-0.6-1.3-0.6c-0.4-0.4-0.8-0.5-1.1-0.5   c-0.5,0-0.8,0.4-0.9,0.5c-0.9,0-1.2,0.4-1.3,0.6c-0.8-0.1-1.2,0.5-1.3,0.8c-0.3,0-0.5,0.1-0.7,0.2c-0.2,0.2-0.3,0.5-0.3,0.7   c-0.3,0.1-0.6,0.2-0.6,0.4c-0.1,0.3,0,0.5,0.1,0.7c-0.1,0-0.2,0-0.3,0.1c0,0,0,0-0.1,0.1v-4.6h10.9V56.2z M44.5,66.3h1.8v1.4h-1.8   V66.3z M55.6,67.6V51.1H44.3v16.5h-2.2V49h15.8v18.6H55.6z M58.1,67.6v-1.1h0.8v1.1H58.1z M60.2,63.9h0.2l0-0.1   c0.2-1.7,1.5-2,1.7-2.1c1.6,0.5,1.7,2,1.7,2.1l0,0.1h0.3v3.7h-3.9V63.9z M64.1,63.6L64.1,63.6c-0.1-0.3-0.4-1.5-1.5-2h1.5V63.6z    M60.3,63.6L60.3,63.6l0-2h1.5C61.2,61.9,60.4,62.4,60.3,63.6z M65.6,63.9h0.2l0-0.1c0.2-1.7,1.5-2,1.7-2.1c1.6,0.5,1.7,2,1.7,2.1   l0,0.1h0.3v3.7h-3.9V63.9z M69.5,63.6L69.5,63.6c-0.1-0.3-0.4-1.5-1.5-2h1.5V63.6z M65.7,63.6L65.7,63.6l0-2h1.5   C66.6,61.9,65.8,62.4,65.7,63.6z M71,63.9h0.2l0-0.1c0.2-1.7,1.5-2,1.7-2.1c1.6,0.5,1.7,2,1.7,2.1l0,0.1h0.3v3.7H71V63.9z    M74.9,63.6L74.9,63.6c-0.1-0.3-0.4-1.5-1.5-2h1.5V63.6z M71,63.6L71,63.6l0-2h1.5C72,61.9,71.2,62.4,71,63.6z M76.4,63.9h0.2   l0-0.1c0.2-1.7,1.5-2,1.7-2.1c1.6,0.5,1.7,2,1.7,2.1l0,0.1h0.3v3.7h-3.9V63.9z M80.3,63.6L80.3,63.6c-0.1-0.3-0.4-1.5-1.5-2h1.5   V63.6z M76.4,63.6L76.4,63.6l0-2h1.5C77.3,61.9,76.6,62.4,76.4,63.6z M81.8,63.9H82l0-0.1c0.2-1.7,1.5-2,1.7-2.1   c1.6,0.5,1.7,2,1.7,2.1l0,0.1h0.3v3.7h-3.9V63.9z M85.7,63.6L85.7,63.6c-0.1-0.3-0.4-1.5-1.5-2h1.5V63.6z M81.8,63.6L81.8,63.6l0-2   h1.5C82.8,61.9,82,62.4,81.8,63.6z M85.9,67.6v-6.2h-4.3v6.2h-1.1v-6.2h-4.3v6.2h-1v-6.2h-4.3v6.2h-1v-6.2h-4.3v6.2h-1v-6.2H60v6.2   h-0.9v-10H87v10H85.9z" fill="#231F20"/><path style="" d="M57.3,66.2V49.6H42.6v16.6h-0.2v1.2h1.8v-1.2h-0.4V50.7h12.4v15.5h-0.4v1.2h1.8v-1.2H57.3z    M43.9,66.4v0.8h-1.4v-0.8l0,0h1.2H43.9z M43.5,50.4v15.7h-0.8V49.8h14.3v16.4h-0.7V50.4H43.5z M57.4,67.2H56v-0.8h0.2h1.1h0.1   V67.2z" fill="#231F20"/><path style="" d="M89.3,67.2h1.3V66h-1.3V67.2z M89.5,66.2h0.9V67h-0.9V66.2z" fill="#231F20"/></g></svg>