<svg xmlns="http://www.w3.org/2000/svg" xmlns:xlink="http://www.w3.org/1999/xlink" version="1.1" x="0px" y="0px" viewBox="0 0 100 125" style="enable-background:new 0 0 100 100;" xml:space="preserve"><g><rect x="10.7" y="41.1" style="" width="0.3" height="1.2" fill="#231F20"/><rect x="13.4" y="39.5" style="" width="0.3" height="1.6" fill="#231F20"/><rect x="16.9" y="39" style="" width="0.3" height="1.7" fill="#231F20"/><rect x="21.3" y="39.3" style="" width="0.3" height="1.7" fill="#231F20"/><rect x="25.1" y="40.2" style="" width="0.3" height="1.7" fill="#231F20"/><rect x="28.1" y="41.9" style="" width="0.3" height="1.4" fill="#231F20"/><rect x="29.7" y="43.2" style="" width="0.3" height="1" fill="#231F20"/><rect x="33.1" y="45.1" style="" width="0.3" height="1.4" fill="#231F20"/><rect x="35.3" y="45.1" style="" width="0.3" height="1.4" fill="#231F20"/><path style="" d="M34.5,55.3c-1,0-1.9,0.5-2.7,1.5l0,0v5.2h5.6v-5.2l0,0C37.3,56.8,36.1,55.3,34.5,55.3z M35.6,61.8   h-2v-2.7h2V61.8z M37.1,61.8h-1.2v-3h-2.6v3h-1.2V57c0.8-0.9,1.6-1.4,2.4-1.4c1.3,0,2.4,1.1,2.6,1.4V61.8z" fill="#231F20"/><path style="" d="M37.4,68.2c0-0.1-1.2-1.5-2.8-1.5c-1,0-1.9,0.5-2.7,1.5l0,0v5.2h5.6L37.4,68.2L37.4,68.2z    M37.1,73.1h-5v-4.8c0.8-0.9,1.6-1.4,2.4-1.4c1.3,0,2.4,1.1,2.6,1.4V73.1z" fill="#231F20"/><path style="" d="M37.4,55.1v-4.3l0,0c0-0.1-1.2-1.5-2.8-1.5c-1,0-1.9,0.5-2.7,1.5l0,0v4.3H37.4z M32.1,50.9   c0.8-0.9,1.6-1.4,2.4-1.4c1.3,0,2.4,1.1,2.6,1.4v3.9h-5V50.9z" fill="#231F20"/><path style="" d="M39.4,45.5v1.8h1.9v-1.8H39.4z M41,47.1h-1.3v-1.2H41V47.1z" fill="#231F20"/><path style="" d="M39.4,54.3h1.9v-1.8h-1.9V54.3z M39.7,52.7H41V54h-1.3V52.7z" fill="#231F20"/><path style="" d="M39.4,52.3h1.9v-4.5h-1.9V52.3z M39.7,48.1H41V52h-1.3V48.1z" fill="#231F20"/><path style="" d="M39.4,70.5h1.9V54.6h-1.9V70.5z M39.7,70.2v-3.7H41v3.7H39.7z M41,62.6v3.6h-1.3v-3.6H41z    M39.7,62.3v-3.6H41v3.6H39.7z M41,54.9v3.5h-1.3v-3.5H41z" fill="#231F20"/><path style="" d="M91.1,75v-0.5L90,73.9l0-29.4l0,0c0,0,0,0,0,0V41c0-0.1-0.3-1.4-1-1.5c-0.4-0.1-0.7,0.2-1.1,0.7   c-0.2-0.5-0.6-1.4-1.4-1.6c-0.5-0.1-1.1,0.3-1.7,1.1c-0.1-0.2-0.4-0.6-0.7-0.8v-2.6l2.6-1l-0.9-2.1l-1.9-0.5c0-0.5,0.1-2-1-3.3   c-0.7-0.8-1.6-1.2-2.8-1.4v-0.5h-0.4v-1.3l0-0.1c0-0.1-0.2-0.5-0.5-0.7v-0.7h-0.3v0.7c-0.2,0.1-0.4,0.4-0.4,0.7v1.3H78v0.5   c-1.3,0.2-2.3,0.6-2.9,1.4c-1.1,1.3-1,3-1,3.3L72,33.3l-0.7,1.8l2.6,1.1l0,3.8c-0.3,0.2-0.6,0.6-0.9,1.1l0,0v0.6   c-0.3-0.4-0.7-0.9-1.2-0.8c-0.5,0.1-0.9,0.6-1.1,1.6c-0.1-0.2-0.3-0.4-0.5-0.4c-0.3,0-0.5,0.5-0.6,1.5v0.7   c-0.2-0.1-0.5-0.1-0.8-0.1c-0.3,0.1-0.5,0.3-0.7,0.6c-0.2-0.3-0.6-0.7-1.1-0.7c-0.4,0-0.8,0.2-1.2,0.7c-0.2-0.3-0.6-0.7-1.1-0.7   c0,0,0,0,0,0c-0.4,0-0.8,0.3-1.1,0.8c-0.2-0.3-0.6-0.8-1-0.8v-4.3c0.2-0.1,0.4-0.2,0.4-0.3c0-0.1-0.2-0.2-0.2-0.2c0,0-0.1,0-0.1,0   v-0.6l0.4-0.2l-0.2-0.4l-0.3-0.1c0-0.1,0-0.3-0.2-0.5c-0.1-0.1-0.2-0.2-0.4-0.2v-0.1h-0.1v-0.1l0,0c0,0-0.1-0.1-0.2-0.1   c0,0,0,0,0,0c-0.1,0-0.1,0.1-0.1,0.2v0.1h-0.1v0.1c-0.2,0-0.3,0.1-0.4,0.2c-0.2,0.2-0.2,0.4-0.2,0.5l-0.3,0.1l-0.1,0.4l0.4,0.2   l0,0.6c-0.2,0-0.3,0.1-0.3,0.1c0,0,0,0.1,0.1,0.2c0,0,0.2,0.1,0.3,0.2v0.4H50.2v-6c0.6,0.4,1.2,0.4,1.3,0.4l0,0   c0.2,0,0.4,0.1,0.5,0.2c0.3,0.3,0.3,1,0.3,1l0.2,0c0.3-3.4-2-4.5-2.4-4.6v-0.2c0.1-0.1,0.2-0.2,0.2-0.3c0-0.2-0.2-0.4-0.4-0.4   c-0.2,0-0.4,0.2-0.4,0.4c0,0.2,0.1,0.3,0.3,0.4v9.2H39.1v-0.4c0.1-0.1,0.3-0.1,0.3-0.2c0.1-0.1,0.1-0.2,0.1-0.2   c0-0.1-0.2-0.1-0.3-0.1v-0.6l0.4-0.2l-0.1-0.4l-0.3-0.1c0-0.1,0-0.3-0.2-0.5c-0.1-0.1-0.3-0.2-0.4-0.2v-0.1h-0.1l0-0.2   c0,0,0-0.1-0.1-0.2c-0.1,0-0.1,0.1-0.2,0.1l0,0.2h-0.1v0.1c-0.2,0-0.3,0.1-0.4,0.2c-0.2,0.2-0.2,0.4-0.2,0.5l-0.3,0.1l-0.2,0.4   l0.4,0.2l0,0.6c0,0-0.1,0-0.1,0c-0.1,0-0.2,0.1-0.2,0.2c0,0.1,0.2,0.2,0.4,0.3v4.3c-0.4,0.1-0.8,0.5-1,0.8   c-0.3-0.5-0.7-0.8-1.1-0.8c0,0,0,0,0,0c-0.5,0-0.9,0.4-1.1,0.7c-0.4-0.5-0.8-0.8-1.2-0.7c-0.5,0-0.9,0.4-1.1,0.7   c-0.2-0.3-0.4-0.5-0.7-0.6c-0.3-0.1-0.6,0-0.8,0.1l0-0.8c-0.1-1-0.3-1.4-0.6-1.5c-0.2,0-0.4,0.2-0.5,0.4c-0.3-1-0.7-1.5-1.1-1.6   c-0.5-0.1-0.9,0.4-1.2,0.8v-0.6l0,0c-0.3-0.5-0.6-0.8-0.9-1.1v-3.8l2.6-1.1L28,33.3l-2.1-0.7c0-0.4,0.1-2.1-1-3.3   c-0.7-0.8-1.7-1.2-2.9-1.4v-0.5h-0.4l0-1.3c-0.1-0.3-0.2-0.6-0.4-0.7v-0.7h-0.3v0.7c-0.3,0.1-0.5,0.6-0.5,0.7l0,1.3H20v0.5   c-1.2,0.2-2.2,0.6-2.8,1.4c-1.1,1.2-1.1,2.8-1,3.3L14.2,33l-0.9,2.1l2.6,1l0,0l0,2.6c-0.4,0.3-0.6,0.6-0.7,0.8   c-0.6-0.8-1.2-1.2-1.7-1.1c-0.7,0.1-1.2,1.1-1.4,1.6c-0.4-0.5-0.7-0.7-1.1-0.7c-0.7,0.1-1,1.4-1,1.6v3.5c0,0,0,0,0,0l0,0v29.4   l-1.1,0.6V75l-2.7,0v0.3l34.8,0H59v0l34.8,0V75L91.1,75z M52.5,35.2c-0.1-0.1-0.1-0.3-0.2-0.4c-0.2-0.2-0.4-0.3-0.6-0.3   c0,0,0,0,0,0l0,0c-0.1,0-0.1,0-0.2,0v-2.3C51.9,32.8,52.4,33.8,52.5,35.2z M51.2,32.1L51.2,32.1l0,2.4c-0.2,0-0.6-0.1-0.9-0.4v-2.7   C50.4,31.6,50.8,31.8,51.2,32.1z M50.1,40.2L50.1,40.2l-0.1-9c0,0,0,0,0.1,0V40.2z M49.7,30.8c0-0.1,0.1-0.3,0.3-0.3   s0.3,0.1,0.3,0.3c0,0.1-0.1,0.2-0.2,0.2h-0.1C49.8,31,49.7,30.9,49.7,30.8z M90.8,74.7V75l-21,0v-4c5.6-1.9,18.4-1.1,19.9-1v4.1   L90.8,74.7z M18.9,39.2c-0.6-0.6-1.3-1-1.9-0.9c0,0,0,0-0.1,0v-2c0-0.5,0.4-0.9,1-0.9c0.5,0,1,0.4,1,0.9V39.2z M22.2,38.4   c-0.2-0.1-0.4-0.1-0.6-0.2c-0.6,0-1.2,0.2-1.6,0.5v-2.9c0-0.5,0.5-0.9,1.1-0.9s1.1,0.4,1.1,0.9V38.4z M21.5,38.6   c0.6,0,1.2,0.5,1.7,1.3V41h0v1.9c-1.2-0.3-2.5-0.5-3.9-0.7v-2.4C19.3,39.7,20.4,38.5,21.5,38.6z M25.1,39.6c-0.7,0-1.3,0.5-1.6,0.9   v-0.8l0,0c-0.1-0.2-0.2-0.3-0.4-0.5v-2.8c0-0.5,0.4-0.9,1-0.9c0.5,0,1,0.4,1,0.9V39.6z M37.7,48.2v14.1h-6.2V48.2H37.7z M39,38.6   c0-0.1-0.1-0.1-0.2-0.1c-0.1,0-0.2,0.1-0.2,0.1c0-0.1-0.1-0.2-0.3-0.2c-0.1,0-0.3,0.1-0.3,0.2c0-0.1-0.1-0.2-0.2-0.2   c-0.1,0-0.1,0-0.2,0.1v0l0-0.1l0.3-0.1h0.6l0.3,0.1L39,38.6L39,38.6z M38,39.3c-0.1,0-0.1,0-0.2,0v-0.6c0,0,0-0.1,0.1-0.1   c0.1,0,0.1,0,0.1,0.1V39.3z M38.5,39.3c-0.1,0-0.2,0-0.2,0v-0.6c0,0,0.1-0.1,0.1-0.1c0.1,0,0.1,0,0.1,0.1V39.3z M38.9,39.3   c-0.1,0-0.1,0-0.2,0v-0.5c0,0,0-0.1,0.1-0.1c0.1,0,0.1,0,0.1,0.1V39.3z M31.5,62.6h6.2v3.2h-6.2V62.6z M31.2,48.1v21.9   c-0.2-0.1-0.4-0.2-0.6-0.3V47.2C31,47.7,31.2,48.1,31.2,48.1L31.2,48.1L31.2,48.1z M12.1,63.1C12.1,63.1,12.2,63.1,12.1,63.1   c0.6,0.1,1,1.9,1.2,3.2v2.2c-1.5,0.1-2.6,0.1-3,0.1v-1.9C11.3,63.5,11.9,63.1,12.1,63.1z M13.7,66.8l0-0.1c0.7-3.2,1.3-3.5,1.5-3.5   c0,0,0,0,0,0c0.6,0,1.2,2,1.4,3.5v1.9c-1.1,0-2.1,0-3,0.1V66.8z M17,66.6L17,66.6c0.9-3,1.6-3.6,2.1-3.6c1,0,1.8,2.7,2,3.7v1.7   c-1.4,0-2.8-0.1-4.1-0.1V66.6z M21.4,66.8c0.9-3,1.6-3.4,2-3.4c0.9,0,1.6,2.5,1.8,3.6v1.8c-1.2-0.1-2.5-0.2-3.8-0.3V66.8z    M25.5,67.1L25.5,67.1c0.7-2.8,1.2-3.1,1.4-3.1c0.5,0,0.9,1.7,1.1,3v2.2c-0.8-0.1-1.6-0.3-2.5-0.4V67.1z M28.3,67.6l0.1-0.2   c0.5-1.8,0.9-1.9,1-1.9c0.3,0,0.7,1.2,0.9,2.2v2c-0.6-0.2-1.2-0.3-1.9-0.5V67.6z M30.2,66.4c-0.2-0.5-0.4-1-0.8-1.2v-19   c0.3,0.2,0.5,0.5,0.8,0.7V66.4z M29.1,65.2c-0.3,0.1-0.6,0.6-0.9,1.5c-0.2-1-0.6-2.7-1.3-3V44.6c0.9,0.4,1.6,0.9,2.1,1.3V65.2z    M26.7,63.7c-0.3,0.1-0.8,0.7-1.3,2.7c-0.3-1.1-0.9-3-1.9-3.2V43.3c1.3,0.3,2.3,0.7,3.2,1.2V63.7z M23.2,63.1   c-0.7,0.2-1.3,1.2-1.9,3.1c-0.3-1.1-1-3.2-2-3.4V42.5c1.5,0.2,2.8,0.4,3.9,0.7V63.1z M18.9,62.8c-0.7,0.1-1.4,1.1-2.1,3.2   c-0.2-1.1-0.7-2.9-1.5-3.1V42.7c1.7-0.3,3.1-0.2,3.6-0.2V62.8z M15,62.8c-0.4,0.1-0.9,0.7-1.5,2.9c-0.2-1-0.6-2.6-1.3-2.9V43.5   c0.9-0.4,1.8-0.6,2.7-0.8V62.8z M12,62.8c-0.4,0.1-0.9,0.6-1.7,2.9l0-21.1c0.5-0.4,1.1-0.7,1.7-1V62.8z M10.3,69   c1.5-0.1,14.3-0.8,19.9,1v0.6c-5.7-1.9-18.2-1.1-19.9-1V69z M30.5,70.2c0.2,0.1,0.4,0.2,0.6,0.3V71c-0.2-0.1-0.4-0.2-0.6-0.3V70.2z    M31.2,71.3V75l-0.6,0v-3.9C30.7,71.2,31,71.3,31.2,71.3z M31.5,66.2h6.2v8.8l-6.2,0V66.2z M38,39.5c0.3,0,0.5,0,0.8,0v35.5l-0.8,0   V39.5z M39.1,44.3h2.6v28.6h-2.6V44.3z M62.3,38.6c0-0.1-0.1-0.1-0.2-0.1c-0.1,0-0.2,0.1-0.2,0.2c0-0.1-0.1-0.2-0.3-0.2   c-0.1,0-0.2,0.1-0.3,0.2c0-0.1-0.1-0.1-0.2-0.1c-0.1,0-0.2,0.1-0.2,0.1v0l0.1-0.1l0.3-0.1H62l0.3,0.1L62.3,38.6L62.3,38.6z    M68.5,48.2v14.1h-6.2V48.2H68.5z M76.8,39.2c-0.1,0.2-0.2,0.3-0.4,0.5l0,0v0.8c-0.3-0.4-0.9-0.9-1.6-0.9v-3.2c0-0.5,0.4-0.9,1-0.9   c0.5,0,1,0.4,1,0.9V39.2z M76.8,41v-1.2c0.5-0.8,1.1-1.2,1.7-1.3c1.2-0.1,2.2,1.1,2.3,1.3v2.4c-1.5,0.2-2.8,0.4-3.9,0.7L76.8,41   L76.8,41z M80.1,38.8c-0.4-0.3-1-0.6-1.6-0.6c-0.2,0-0.4,0.1-0.6,0.2V36c0-0.5,0.5-0.9,1.1-0.9c0.6,0,1.1,0.4,1.1,0.9V38.8z    M83.1,38.4C83.1,38.4,83.1,38.4,83.1,38.4c-0.7-0.1-1.3,0.2-2,0.9v-2.9c0-0.5,0.4-0.9,1-0.9c0.5,0,1,0.4,1,0.9V38.4z M68.8,70.5   c0.2-0.1,0.4-0.2,0.6-0.3v0.6c-0.2,0.1-0.4,0.2-0.6,0.3V70.5z M69.8,70.1c5.6-1.9,18.4-1.1,19.9-1v0.7c-1.6-0.1-14.2-0.9-19.9,1   V70.1z M69.8,67.7c0.2-1.1,0.6-2.2,0.9-2.2c0.1,0,0.5,0.1,1,1.9l0.1,0.2v1.6c-0.7,0.1-1.3,0.3-1.9,0.5V67.7z M73.1,64   C73.1,64,73.1,64,73.1,64c0.2,0,0.7,0.3,1.4,3.1l0,0v1.7c-0.9,0.1-1.7,0.2-2.5,0.4V67C72.2,65.7,72.7,64,73.1,64z M76.6,63.4   C76.6,63.4,76.6,63.4,76.6,63.4c0.4,0,1.1,0.5,2,3.4v1.7c-1.3,0-2.6,0.1-3.8,0.3V67C75,66,75.7,63.5,76.6,63.4z M80.9,63.1   C80.9,63.1,80.9,63.1,80.9,63.1c0.5,0,1.2,0.6,2.1,3.5l0,0v1.8c-1.3,0-2.7,0-4.1,0.1v-1.7C79.1,65.8,79.9,63.2,80.9,63.1z    M84.8,63.1C84.8,63.1,84.8,63.1,84.8,63.1c0.2,0,0.8,0.4,1.5,3.5l0,0.1v1.8c-0.9,0-1.9-0.1-3-0.1v-1.9   C83.6,65.1,84.2,63.1,84.8,63.1z M87.8,63.2c0.2,0,0.9,0.3,1.8,3.6v2c-0.4,0-1.5-0.1-3-0.1v-2.2C86.8,65,87.3,63.2,87.8,63.2z    M88,62.9V43.6c0.6,0.3,1.2,0.6,1.7,1v21.1C88.9,63.5,88.4,63,88,62.9z M87.7,62.9c-0.7,0.3-1.1,1.8-1.3,2.9   c-0.6-2.2-1.1-2.8-1.5-2.9V42.7c0.9,0.2,1.8,0.4,2.7,0.8V62.9z M84.6,62.9c-0.8,0.2-1.3,2.1-1.5,3.1c-0.7-2-1.3-3.1-2.1-3.2V42.5   c0.5,0,1.9-0.1,3.6,0.2V62.9z M80.8,42.5v20.3c-1,0.2-1.7,2.4-2,3.4c-0.6-1.9-1.3-2.9-1.9-3.1V43.2C78,42.9,79.3,42.7,80.8,42.5z    M76.5,63.2c-1,0.2-1.6,2.2-1.9,3.2c-0.5-2-1-2.5-1.3-2.7V44.5c0.9-0.4,2-0.8,3.2-1.2V63.2z M73,63.7c-0.7,0.2-1.1,1.9-1.3,3   c-0.3-0.9-0.6-1.3-0.9-1.5V45.9c0.6-0.4,1.3-0.9,2.1-1.3V63.7z M70.5,65.2c-0.3,0.1-0.6,0.6-0.8,1.2V46.9c0.2-0.2,0.5-0.5,0.8-0.7   V65.2z M69.5,69.8c-0.2,0.1-0.4,0.2-0.6,0.3V48.2h0l0,0c0,0,0.2-0.4,0.7-0.9V69.8z M62.3,62.6h6.2v3.2h-6.2V62.6z M61.1,39.3v-0.5   c0,0,0-0.1,0.1-0.1c0.1,0,0.1,0,0.1,0.1v0.5C61.2,39.3,61.1,39.3,61.1,39.3z M62.2,39.4c-0.1,0-0.1,0-0.2,0v-0.6c0,0,0-0.1,0.1-0.1   s0.1,0,0.1,0.1V39.4z M61.8,39.3c-0.1,0-0.2,0-0.2,0v-0.6c0,0,0.1-0.1,0.1-0.1c0.1,0,0.1,0,0.1,0.1V39.3z M60.9,72.9h-2.6V44.3h2.6   V72.9z M57.9,48.7H42v-0.5h15.9V48.7z M57.9,47.8H42v-2h15.9V47.8z M42,49h15.9v5.6H42V49z M57.9,45.5H42v-1.2h15.9V45.5z M42,54.9   h15.9v18h-1.4V60.2l0,0c-2.1-2.6-4.4-3.8-6.7-3.7c-3.7,0.1-6.2,3.6-6.3,3.7l0,0v12.7H42V54.9z M54.9,74.9v-1.7h0.3   C55.3,73.5,55.5,74.4,54.9,74.9z M44.9,73.3L44.9,73.3L44.9,73.3l0.2-0.1v1.7C44.9,74.7,44.3,74,44.9,73.3z M45.1,65.8L45.1,65.8   l0,7.1H45v-7.2c0.2-0.3,2-2.6,4.6-2.8c1.9-0.1,3.7,0.8,5.6,2.8v7.2h-0.2v-7.1l0,0c-1.4-1.7-3-2.5-4.7-2.5c0,0,0,0,0,0   C47.3,63.2,45.2,65.7,45.1,65.8z M55.4,65.5c-1.9-2.1-3.9-3.1-5.9-2.9c-3,0.2-4.8,2.8-4.9,3l0,0v7.3h-0.9V62.4h12.5v10.5h-0.8   L55.4,65.5L55.4,65.5z M45.2,59.4c0.5-0.4,1.2-0.9,2-1.3V60h-2L45.2,59.4L45.2,59.4z M47.5,60.3V58c0.4-0.1,0.8-0.3,1.2-0.4v2.6   h2.6v-2.6c0.4,0.1,0.8,0.2,1.2,0.4v2.2h2.7v-0.6c0.2,0.2,0.5,0.4,0.7,0.6l0.1,1.8H44l0.2-1.8c0.1-0.1,0.3-0.3,0.6-0.6v0.6H47.5z    M49,57.6c0.2,0,0.4-0.1,0.7-0.1c0.4,0,0.9,0,1.3,0.1V60h-2V57.6z M52.8,58.2c0.7,0.3,1.4,0.7,2,1.3V60h-2V58.2z M56.3,61.6   l-0.1-1.4c0,0,0.1,0.1,0.1,0.1V61.6z M49.7,57.2c-3.4,0.2-5.6,2.8-5.7,2.9l0,0l-0.2,1.4v-1.3c0.3-0.4,2.7-3.4,6-3.6   c2.2-0.1,4.3,1.1,6.3,3.4C54,58.1,51.9,57.1,49.7,57.2z M44.6,73.2c-0.4,0.7-0.2,1.3,0.1,1.7H42v-1.7H44.6z M45.4,65.9   c0.3-0.3,2.3-2.4,4.8-2.4c0,0,0,0,0,0c1.6,0,3,0.8,4.4,2.4v9h-9.2V65.9z M55.5,73.2h2.4v1.7h-2.6C55.7,74.4,55.7,73.7,55.5,73.2z    M58.3,73.2h2.6v1.7h-2.6V73.2z M61.2,39.5c0.3,0,0.5,0,0.8,0V75h-0.8V39.5z M62.3,66.2h6.2V75l-6.2,0V66.2z M68.8,71.4   c0.2-0.1,0.4-0.2,0.6-0.3V75h-0.6V71.4z M88.9,39.8c0.4,0.1,0.7,1,0.7,1.3v3.2c-0.5-0.4-1.1-0.7-1.7-1v-2.7l0,0   C88.4,40,88.7,39.7,88.9,39.8z M86.5,38.9c0.7,0.1,1.1,1.1,1.2,1.5v2.8c-0.9-0.4-1.8-0.6-2.7-0.8V40C85.5,39.2,86,38.8,86.5,38.9z    M84.6,40v2.4c-1.7-0.3-3.1-0.2-3.6-0.2v-2.4c0.7-0.8,1.3-1.2,2-1.1C84,38.8,84.6,39.9,84.6,40z M83.4,38.5v-2   c0-0.7-0.6-1.2-1.3-1.2s-1.3,0.5-1.3,1.2v3.1c-0.1-0.1-0.3-0.3-0.4-0.4h0V36c0-0.7-0.6-1.2-1.4-1.2c-0.8,0-1.4,0.5-1.4,1.2v2.6   c-0.1,0.1-0.2,0.2-0.4,0.3v-2.4c0-0.7-0.6-1.2-1.3-1.2c-0.7,0-1.3,0.5-1.3,1.2v3.3c-0.1,0-0.3,0.1-0.4,0.1v-4.3l0.5-1.2l2.2-0.6   h4.2l2.3,0.7l0.4,0.9v3.2C83.7,38.5,83.5,38.5,83.4,38.5z M78.3,27.7h0.4l0-1.6c0.1-0.5,0.2-0.5,0.3-0.5c0.1,0,0.3,0.3,0.4,0.5v1.5   h0.4v0.2c-0.3,0-0.5-0.1-0.8-0.1c-0.2,0-0.4,0-0.6,0V27.7z M75.3,29.5c0.8-0.9,2-1.3,3.7-1.3c1.7,0,2.9,0.5,3.7,1.3   c0.9,1.1,1,2.5,0.9,3L82.1,32l-6.2,0l-1.5,0.5C74.4,32.1,74.3,30.6,75.3,29.5z M71.7,35l0.5-1.4l3.7-1.2H82l3.5,1l0.7,1.7l-2.2,0.9   v-0.5l-0.5-1.1l-2.4-0.8l-4.3,0l-2.4,0.7l-0.5,1.4v0.4L71.7,35z M73.3,41.2c0.5-0.8,1-1.2,1.5-1.3c0.9,0,1.7,1.1,1.7,1.1l0,0V43   c-1.2,0.3-2.3,0.7-3.2,1.1V43v-0.9V41.2z M71.8,41.3c0.5-0.1,1,0.7,1.2,1.1v1.9c-0.9,0.4-1.6,0.9-2.1,1.3v-2.6h0   C71.2,41.6,71.5,41.3,71.8,41.3z M70.1,42.5c0.1,0,0.3,0.3,0.4,0.6l0,0.1v2.6c-0.3,0.2-0.5,0.4-0.8,0.7v-1.9l0,0l0-0.9   C69.9,42.5,70.1,42.5,70.1,42.5z M68.7,44.6c0.3-0.1,0.6,0,0.7,0.1v2c-0.5,0.6-0.8,1-0.9,1.2h-0.5v-2.7   C68.3,44.9,68.5,44.7,68.7,44.6z M66.8,44.5c0.5,0,0.9,0.6,1,0.7v2.7h-2v-2.7C66.1,44.7,66.5,44.5,66.8,44.5z M64.4,44.5   C64.4,44.5,64.4,44.5,64.4,44.5c0.5,0,0.9,0.6,1,0.7v2.7h-2v-2.6C63.8,44.8,64.1,44.5,64.4,44.5z M63.2,45.3v2.6h-0.8v-3.4   C62.6,44.6,62.9,45,63.2,45.3z M62.6,39.6c0,0-0.1,0.1-0.3,0.1v-0.2C62.4,39.5,62.4,39.5,62.6,39.6C62.6,39.6,62.6,39.6,62.6,39.6z    M61.1,37.8c0.1-0.1,0.3-0.2,0.5-0.2c0.2,0,0.4,0.1,0.5,0.2c0.1,0.1,0.1,0.3,0.1,0.3l-0.2,0l-1,0L61,38.1C61,38,61,37.9,61.1,37.8z    M60.6,38.5l0.1-0.1l0.5-0.2h0.9l0.5,0.1l0.1,0.2l-0.2,0.1l-0.1-0.2L62,38.3l-0.7,0l-0.4,0.1l-0.1,0.2v0L60.6,38.5z M60.7,39.6   C60.6,39.6,60.6,39.6,60.7,39.6c0-0.1,0.1-0.1,0.2-0.1v0.2C60.8,39.7,60.7,39.6,60.7,39.6z M60.9,40.6V44H39.1v-3.4H60.9z    M39.4,39.6c0,0-0.1,0.1-0.3,0.1v-0.2C39.3,39.5,39.4,39.5,39.4,39.6C39.4,39.5,39.4,39.6,39.4,39.6z M37.8,37.7   c0.1-0.1,0.3-0.2,0.5-0.2c0.2,0,0.4,0.1,0.5,0.2C39,37.8,39,38,39,38.1l-0.1,0l-1,0l-0.2,0C37.7,38,37.7,37.8,37.8,37.7z    M37.3,38.5l0.1-0.2l0.5-0.1h0.9l0.5,0.2l0.1,0.1l-0.2,0.1l-0.1-0.2l-0.4-0.1l-0.7,0l-0.4,0.1l-0.1,0.2l0,0L37.3,38.5z M37.4,39.6   C37.4,39.6,37.4,39.6,37.4,39.6c0.1-0.1,0.2-0.1,0.3-0.1v0.2C37.5,39.7,37.4,39.6,37.4,39.6z M37.7,44.5v3.4h-0.8v-2.6   C37.1,45,37.4,44.6,37.7,44.5z M35.6,44.5C35.6,44.5,35.6,44.5,35.6,44.5c0.3,0,0.7,0.3,1,0.8v2.6h-2v-2.7   C34.7,45.1,35.1,44.5,35.6,44.5z M33.2,44.5c0.3,0,0.7,0.2,1.1,0.8v2.7h-2v-2.7C32.3,45.1,32.7,44.5,33.2,44.5z M31.3,44.6   c0.3,0.1,0.5,0.3,0.7,0.6v2.7h-0.5c-0.1-0.2-0.4-0.6-0.9-1.2v-2C30.6,44.6,30.9,44.5,31.3,44.6z M29.9,42.4c0,0,0.2,0.1,0.3,1.2   l0,0.9h0v1.9c-0.2-0.2-0.5-0.4-0.8-0.7v-2.6l0-0.1C29.6,42.7,29.8,42.4,29.9,42.4z M28.2,41.2c0.3,0,0.6,0.4,0.9,1.7h0v2.6   c-0.6-0.4-1.3-0.9-2.1-1.3v-1.9C27.2,42,27.7,41.2,28.2,41.2z M26.7,42v0.9v1.1c-0.9-0.4-2-0.8-3.2-1.1v-1.9l0,0   c0,0,0.7-1.2,1.7-1.1c0.5,0,1.1,0.4,1.5,1.3V42z M20.3,27.7h0.4v-1.5c0.1-0.2,0.3-0.5,0.4-0.5c0,0,0,0,0,0c0,0,0.1,0,0.2,0.5v1.6   h0.4v0.2c-0.2,0-0.4,0-0.6,0c-0.3,0-0.5,0-0.8,0.1V27.7z M17.3,29.5c0.8-0.9,2-1.3,3.7-1.3c1.7,0,2.9,0.5,3.7,1.3   c1,1.1,0.9,2.6,0.9,3L24.1,32L18,32l-1.5,0.4C16.4,31.9,16.4,30.5,17.3,29.5z M13.7,35l0.7-1.7l3.5-1h6.1l3.7,1.2l0.5,1.4l-2.2,0.9   v-0.4l-0.6-1.4l-2.4-0.6l-4.3,0l-2.5,0.8l-0.4,1.1l0,0.6L13.7,35z M16.2,35.4l0.4-0.9l2.3-0.7h4.2l2.2,0.6l0.5,1.2v4.3   c-0.1-0.1-0.3-0.1-0.4-0.1v-3.3c0-0.7-0.6-1.2-1.3-1.2s-1.3,0.5-1.3,1.2v2.4c-0.1-0.1-0.2-0.2-0.4-0.3v-2.6c0-0.7-0.6-1.2-1.4-1.2   s-1.4,0.5-1.4,1.2V39h0c-0.2,0.2-0.3,0.3-0.4,0.4v-3.1c0-0.7-0.6-1.2-1.3-1.2s-1.3,0.5-1.3,1.2v2c-0.1,0-0.2,0.1-0.3,0.1V35.4z    M17,38.7c0.6-0.1,1.3,0.3,2,1.1v2.4c-0.5,0-1.9-0.1-3.6,0.2v-2.4C15.4,39.8,16,38.8,17,38.7z M13.5,38.9c0.5-0.1,1,0.3,1.5,1.1   v2.4c-0.9,0.2-1.8,0.4-2.7,0.8v-2.8C12.4,40,12.8,39,13.5,38.9z M10.3,41c0.1-0.3,0.3-1.2,0.8-1.3c0.3,0,0.6,0.2,0.9,0.8l0,0v2.7   c-0.6,0.3-1.2,0.6-1.7,1L10.3,41z M9.2,74.7l1.1-0.6l0-4.1c1.5-0.1,14.3-0.9,19.9,1v4l-21,0V74.7z M39.1,74.9v-1.7h2.6v1.7H39.1z" fill="#231F20"/><rect x="88.9" y="41.1" style="" width="0.3" height="1.2" fill="#231F20"/><rect x="86.3" y="39.6" style="" width="0.3" height="1.6" fill="#231F20"/><rect x="82.8" y="39.1" style="" width="0.3" height="1.7" fill="#231F20"/><rect x="78.4" y="39.3" style="" width="0.3" height="1.7" fill="#231F20"/><rect x="74.6" y="40.2" style="" width="0.3" height="1.7" fill="#231F20"/><rect x="71.6" y="42" style="" width="0.3" height="1.4" fill="#231F20"/><rect x="70" y="43.2" style="" width="0.3" height="1" fill="#231F20"/><rect x="66.6" y="45.1" style="" width="0.3" height="1.4" fill="#231F20"/><rect x="64.3" y="45.1" style="" width="0.3" height="1.4" fill="#231F20"/><path style="" d="M68.2,62.1v-5.2l0,0c-0.8-1-1.7-1.5-2.7-1.5c-1.6,0-2.8,1.5-2.8,1.5l0,0v5.2H68.2z M66.4,61.8h-2   v-2.7h2V61.8z M62.9,57c0.2-0.2,1.2-1.4,2.6-1.4c0.8,0,1.7,0.5,2.4,1.4v4.8h-1.2v-3h-2.6v3h-1.2V57z" fill="#231F20"/><path style="" d="M68.2,68.2c-0.8-1-1.7-1.5-2.7-1.5c-1.6,0-2.8,1.5-2.8,1.5l0,0v5.2h5.6L68.2,68.2L68.2,68.2z    M67.9,73.2h-5v-4.8c0.2-0.2,1.2-1.4,2.6-1.4c0.8,0,1.7,0.5,2.4,1.4V73.2z" fill="#231F20"/><path style="" d="M68.2,50.8L68.2,50.8c-0.9-1.1-1.8-1.6-2.7-1.6c-1.6,0-2.8,1.5-2.8,1.5l0,0v4.3h5.6V50.8z    M67.9,54.8h-5v-3.9c0.2-0.2,1.2-1.4,2.6-1.4c0.9,0,1.7,0.5,2.4,1.4V54.8z" fill="#231F20"/><path style="" d="M60.6,45.5h-1.9v1.8h1.9V45.5z M60.3,47.1H59v-1.2h1.3V47.1z" fill="#231F20"/><path style="" d="M60.6,52.5h-1.9v1.8h1.9V52.5z M60.3,54H59v-1.2h1.3V54z" fill="#231F20"/><path style="" d="M60.6,47.8h-1.9v4.5h1.9V47.8z M60.3,52H59v-3.9h1.3V52z" fill="#231F20"/><path style="" d="M60.6,70.5V54.6h-1.9v15.9H60.6z M59,70.2v-3.7h1.3v3.7H59z M60.3,62.6v3.6H59v-3.6H60.3z M59,62.3   v-3.6h1.3v3.6H59z M60.3,55v3.5H59V55H60.3z" fill="#231F20"/><path style="" d="M42.6,54.2h4.2v-4.8h-4.2V54.2z M42.9,49.7h3.6v4.2h-3.6V49.7z" fill="#231F20"/><path style="" d="M53.3,49.4v4.8h4.2v-4.8H53.3z M57.2,53.9h-3.6v-4.2h3.6V53.9z" fill="#231F20"/><path style="" d="M47.1,54.2h5.8v-4.8h-5.8V54.2z M47.4,49.7h5.2v4.2h-5.2V49.7z" fill="#231F20"/><path style="" d="M43.5,52.1h2.3v-2h-2.3V52.1z M43.8,50.4h1.7v1.4h-1.7V50.4z" fill="#231F20"/><path style="" d="M56.6,50.1h-2.3v2h2.3V50.1z M56.2,51.8h-1.7v-1.4h1.7V51.8z" fill="#231F20"/><path style="" d="M48.5,52.1h3v-2h-3V52.1z M48.8,50.4h2.4v1.4h-2.4V50.4z" fill="#231F20"/><rect x="40.4" y="41.3" style="" width="0.3" height="2.3" fill="#231F20"/><rect x="41.9" y="41.3" style="" width="0.3" height="2.3" fill="#231F20"/><rect x="43.5" y="41.3" style="" width="0.3" height="2.3" fill="#231F20"/><rect x="45.1" y="41.3" style="" width="0.3" height="2.3" fill="#231F20"/><rect x="46.7" y="41.3" style="" width="0.3" height="2.3" fill="#231F20"/><rect x="48.3" y="41.3" style="" width="0.3" height="2.3" fill="#231F20"/><rect x="49.9" y="41.3" style="" width="0.3" height="2.3" fill="#231F20"/><rect x="51.4" y="41.3" style="" width="0.3" height="2.3" fill="#231F20"/><rect x="53" y="41.3" style="" width="0.3" height="2.3" fill="#231F20"/><rect x="54.6" y="41.3" style="" width="0.3" height="2.3" fill="#231F20"/><rect x="56.2" y="41.3" style="" width="0.3" height="2.3" fill="#231F20"/><rect x="57.8" y="41.3" style="" width="0.3" height="2.3" fill="#231F20"/><rect x="59.4" y="41.3" style="" width="0.3" height="2.3" fill="#231F20"/></g></svg>