<svg xmlns="http://www.w3.org/2000/svg" xmlns:xlink="http://www.w3.org/1999/xlink" version="1.1" x="0px" y="0px" viewBox="0 0 100 125" style="enable-background:new 0 0 100 100;" xml:space="preserve"><g><path style="fill: white;" d="M94.7,90.6c-0.2-9-8.3-41.5-8.4-41.9l0-0.1l0,0c0,0,0,0,0,0c0-0.2,0.2-1-0.3-1.7   c-0.3-0.5-0.9-0.7-1.7-0.9l0-0.5l-0.3,0c0-0.2-0.1-0.6-0.3-0.8c-0.1,0-0.1-0.1-0.2-0.1c0,0,0,0,0.1,0c0.1-0.1,0.1-0.2,0.1-0.3   c0-0.2-0.2-0.4-0.4-0.4l0,0l0-0.7l-0.3,0l0,0.7l0,0c-0.1,0-0.2,0.1-0.2,0.1c-0.1,0.1-0.1,0.2-0.1,0.3c0,0.1,0.1,0.2,0.1,0.3   c0,0-0.1,0.1-0.1,0.1c-0.2,0.2-0.2,0.5-0.2,1l-0.3,0l0,0.5c-0.4,0.2-0.8,0.4-1,0.8c-0.3,0.6-0.3,1.3,0.2,2.1v1.9l-1.9-0.7   l-1.3-16.4l0-0.1L78,34.1l0-0.3c0.1-0.2,0.5-1.3-0.1-2.1c-0.2-0.2-0.4-0.4-0.6-0.5v-0.5h-0.5c0-0.2,0-0.7-0.2-0.9   c-0.1-0.1-0.1-0.1-0.2-0.2c0.1-0.1,0.1-0.2,0.1-0.3c0-0.2-0.1-0.3-0.3-0.4v-0.7H76v0.7c-0.2,0-0.3,0.2-0.3,0.4c0,0.1,0,0.2,0.1,0.3   c-0.3,0.1-0.4,0.5-0.4,1.1h-0.5v0.5c-0.4,0.2-0.7,0.6-0.7,1.4l-1.3-0.6c-2.3-14.4-15.7-17-20.8-17.5c-0.1-0.9-0.4-1.4-0.7-1.7l0,0   c-0.2-0.4-0.5-0.6-0.7-0.8c0.3-0.1,0.5-0.3,0.5-0.5S50.9,11,50.5,11c0.2-0.1,0.3-0.3,0.3-0.5c0-0.2-0.2-0.4-0.4-0.5   c0.2-0.1,0.3-0.4,0.3-0.6c0-0.2-0.1-0.4-0.2-0.5c-0.1-0.9-0.2-2.1-0.4-2.2c-0.1,0-0.1,0-0.2,0c-0.3,0.2-0.4,1.6-0.4,2.1   c-0.2,0.1-0.3,0.3-0.3,0.6c0,0.3,0.1,0.5,0.3,0.6c-0.2,0.1-0.4,0.3-0.4,0.5c0,0.2,0.1,0.4,0.3,0.5c-0.3,0.1-0.5,0.3-0.5,0.5   s0.2,0.4,0.5,0.5c-0.4,0.2-0.6,0.6-0.7,0.7c-0.1,0.1-0.2,0.1-0.3,0.2C48,13.4,48,14.2,48,14.5c-19.7,1.9-20.8,16.3-20.8,17.4   l-1.3,0.5c-0.1-0.8-0.4-1.2-0.8-1.4v-0.5h-0.5c0-0.5-0.1-0.9-0.4-1.1c0.1-0.1,0.1-0.2,0.1-0.3c0-0.2-0.1-0.3-0.3-0.4V28h-0.2v0.7   c-0.2,0-0.3,0.2-0.3,0.4c0,0.1,0,0.2,0.1,0.3c-0.1,0-0.1,0.1-0.2,0.2c-0.2,0.3-0.3,0.7-0.2,0.9h-0.5v0.5c-0.3,0.1-0.5,0.3-0.6,0.5   c-0.6,0.8-0.2,2-0.1,2.1l0,0.4l-0.2,0.1l-0.1,0l-1.3,16.6l-1.8,0.7v-1.9c0.4-0.8,0.5-1.6,0.2-2.1c-0.2-0.4-0.6-0.7-1-0.8l0-0.5   l-0.3,0c0-0.5,0-0.9-0.2-1c0,0-0.1-0.1-0.1-0.1c0.1-0.1,0.1-0.2,0.1-0.3c0-0.1,0-0.2-0.1-0.3C17.1,44.1,17,44,16.9,44l0.1,0l0-0.7   l-0.3,0l0,0.7l0,0c-0.2,0-0.4,0.2-0.4,0.4c0,0.1,0,0.2,0.1,0.3c0,0,0,0,0.1,0c-0.1,0-0.1,0.1-0.2,0.1c-0.2,0.2-0.3,0.6-0.3,0.8   l-0.3,0l0,0.5c-0.8,0.1-1.3,0.4-1.7,0.9c-0.5,0.7-0.3,1.6-0.3,1.7c0,0,0,0,0,0l0,0l0,0c-0.1,0.3-8.2,32.9-8.4,41.9h0l0,0   c0.1,0,1.9,0.8,8.2,0.9l8.1,1c0.1,0,9.5,0.8,14.7,0.8c0.1,0,0.3,0,0.4,0l0,0l26.6-0.1v0c0.1,0,0.3,0,0.4,0c5.2,0,14.6-0.8,14.7-0.8   l8.1-1C92.8,91.5,94.6,90.7,94.7,90.6L94.7,90.6L94.7,90.6z M63.2,93.1L63.2,93.1l-3.3,0v-2h3.3L63.2,93.1   C63.2,93.1,63.2,93.1,63.2,93.1z M55.2,75H44.8v-0.6c0.1-0.2,1.2-2.8,5.3-4.6c0.5,0.2,3.8,1.9,5.2,4.6V75z M48.2,79.7v-4.5h3.6v4.5   H48.2z M44.8,75.3H48v4.5h-2.4v13.4l-0.8,0V75.3z M45.8,80h8.4v13.1l-8.4,0V80z M52.1,79.7v-4.5h3.1v17.8l-0.8,0V79.7H52.1z    M55.5,74.3c-1.5-3-5.3-4.8-5.4-4.8l-0.1,0l-0.1,0c-4.4,2-5.4,4.7-5.5,4.8l0,18.8l-1.4,0V73.1c0.2-0.3,2.2-3.6,6.8-5.3   c0.5,0.2,5.7,2.2,7,5.4v19.9l-1.4,0L55.5,74.3L55.5,74.3z M56.9,72.6c-1.7-3.1-6.7-5-6.9-5.1l0,0l0,0c-4,1.5-6.1,4.1-6.8,5.1v-7.9   h13.8V72.6z M42.9,64.4v28.7l-1.2,0V62.9h16.6v30.2l-1.1,0V64.4H42.9z M41.4,62.6v30.5l-1.1,0V61.5h19.4v31.6l-1.2,0V62.6H41.4z    M12.9,53.3c0.2-0.1,0.4-0.2,0.5-0.8c0-0.2,0.1-0.3,0.2-0.3c0.1,0,0.1,0,0.2,0c0.1,0,0.1,0.1,0.1,0.2l0,0.1   c-0.1,0.4-0.1,0.7,0.1,0.8c0.1,0.1,0.2,0.1,0.3,0c0.2-0.1,0.3-0.3,0.3-0.6c0-0.2,0.1-0.3,0.2-0.4c0,0,0.1,0,0.1,0   c0,0,0.1,0.1,0.1,0.3c0,0.2,0,0.4,0,0.5c0,0.2,0,0.3,0.1,0.3c0,0,0,0,0,0c0.1,0,0.2,0,0.3,0c0.2-0.1,0.3-0.4,0.4-0.7   c0-0.2,0.1-0.3,0.1-0.3c0,0,0.1,0,0.1,0l0,0c0.1,0,0.1,0,0.1,0c0,0,0.1,0.1,0,0.5c-0.1,0.4,0,0.7,0.3,0.8c0,0,0,0,0.1,0   c0.1,0,0.2,0,0.3-0.1l0,0.3c-2-0.4-3.4-0.4-3.8-0.3C12.8,53.5,12.9,53.4,12.9,53.3z M13.2,51.8c0.4,0,2.4-0.1,3.6,0.3L16.7,53   c-0.2,0.4-0.3,0.4-0.3,0.4c0,0-0.1-0.2-0.1-0.5c0.1-0.4,0-0.5-0.1-0.7c-0.1-0.1-0.2-0.1-0.3-0.1l0,0c-0.1,0-0.2,0-0.3,0.1   c-0.1,0.1-0.1,0.2-0.1,0.5c0,0.3-0.1,0.5-0.2,0.5c0,0-0.1,0-0.1,0c0,0,0,0,0,0c0,0,0,0,0-0.1c0-0.1,0-0.2,0-0.5   c0-0.3-0.1-0.5-0.2-0.5c-0.1-0.1-0.2-0.1-0.3,0c-0.2,0.1-0.3,0.3-0.3,0.6c0,0.3-0.1,0.4-0.2,0.4c0,0-0.1,0-0.1,0c0,0,0-0.3,0-0.5   l0-0.1c0-0.2,0-0.4-0.2-0.5c-0.1-0.1-0.3-0.1-0.4,0c-0.2,0.1-0.3,0.3-0.3,0.5c0,0.2-0.1,0.4-0.2,0.5C13.1,52.5,13.2,52.2,13.2,51.8   z M21.8,36.3l15-6.4l0,0.5l-10,4.3h0v0l-4.9,2.1L21.8,36.3z M23,35.5l-0.7,0.3v-0.6c0-0.1,0.2-0.4,0.4-0.4c0.1,0,0.2,0,0.3,0.1   V35.5z M24.3,35l-0.7,0.3v-0.6c0-0.1,0.2-0.4,0.4-0.4c0.1,0,0.2,0,0.3,0.1V35z M25.7,34.3l-0.7,0.3v-0.7c0-0.1,0.2-0.4,0.4-0.4   c0.1,0,0.2,0,0.3,0.1V34.3z M27.1,33.8L26.5,34v-0.7c0-0.1,0.2-0.4,0.4-0.4c0.1,0,0.2,0,0.3,0.1V33.8z M28.6,33.1l-0.7,0.3v-0.7   c0-0.1,0.2-0.4,0.4-0.4c0.1,0,0.2,0,0.3,0.1V33.1z M30,32.5l-0.7,0.3v-0.7c0-0.1,0.2-0.4,0.4-0.4c0.1,0,0.2,0,0.3,0.1V32.5z    M31.6,31.9l-0.7,0.3v-0.7c0-0.1,0.2-0.4,0.4-0.4c0.1,0,0.2,0,0.3,0.1V31.9z M33.1,31.2l-0.7,0.3v-0.7c0-0.1,0.2-0.4,0.4-0.4   c0.1,0,0.2,0,0.3,0.1V31.2z M34.8,30.5l-0.7,0.3v-0.7c0.1-0.1,0.2-0.4,0.4-0.5c0.1,0,0.2,0,0.3,0.1V30.5z M36.4,29.8l-0.8,0.3v-0.8   c0.1-0.1,0.2-0.5,0.5-0.5c0.1,0,0.2,0,0.3,0.1V29.8z M35.8,28.2c-0.1-0.2-0.3-0.8-0.3-1.5c0.1,0,2-1.1,3.8,0c0,0.4-0.1,0.8-0.2,0.9   H37L35.8,28.2z M35.7,24c0.1,0,0.2,0.1,0.2,0.2c0,0.1-0.1,0.2-0.2,0.2s-0.2-0.1-0.2-0.2C35.5,24.1,35.6,24,35.7,24z M35.7,25   c0.1,0,0.3,0.1,0.3,0.3c-0.1,0.1-0.2,0.2-0.3,0.3c-0.1,0-0.2-0.1-0.2-0.3C35.4,25.1,35.5,25,35.7,25z M35.7,25.7   c0.3-0.4,0.8-0.6,1.5-0.6c0.9,0,1.4,0.2,1.8,0.7c0.1,0.2,0.2,0.5,0.2,0.7c-1.7-0.9-3.3-0.2-3.8,0C35.5,26.2,35.6,26,35.7,25.7z    M37.4,23c0.1,0,0.2,0.1,0.2,0.2c0,0.1-0.1,0.2-0.2,0.2c-0.1,0-0.2-0.1-0.2-0.2C37.2,23.1,37.3,23,37.4,23z M37.7,23.7   c0.3,0.3,0.2,0.9,0.2,0.9l0,0.1h0.5v0.3c-0.3-0.1-0.7-0.2-1.2-0.2c-0.3,0-0.6,0-0.8,0.1v-0.3h0.5v-0.1c0-0.8,0.1-1,0.5-1   C37.5,23.6,37.7,23.6,37.7,23.7z M39.1,22.8c0.1,0,0.2,0.1,0.2,0.2s-0.1,0.2-0.2,0.2s-0.2-0.1-0.2-0.2S39,22.8,39.1,22.8z    M39.1,23.9c0.2,0,0.3,0.1,0.3,0.3c0,0.2-0.1,0.3-0.3,0.3s-0.3-0.1-0.3-0.3C38.8,24.1,38.9,23.9,39.1,23.9z M39.3,25.2   c0.1,0,0.1,0.1,0.2,0.2c0,0.1,0,0.2,0,0.2c-0.1,0-0.2,0-0.2,0.1c-0.1-0.1-0.2-0.2-0.3-0.3C38.9,25.2,39.1,25.1,39.3,25.2z M40,25.4   c0-0.2,0.1-0.3,0.3-0.3c0.2,0,0.3,0.1,0.3,0.3C40.5,25.4,40.3,25.4,40,25.4C40.1,25.4,40,25.4,40,25.4z M40.3,22.7   c0.1,0,0.2,0.1,0.2,0.2s-0.1,0.2-0.2,0.2s-0.2-0.1-0.2-0.2S40.2,22.7,40.3,22.7z M40.4,23.8c0.2,0,0.3,0.1,0.3,0.3   s-0.1,0.3-0.3,0.3c-0.2,0-0.3-0.1-0.3-0.3S40.2,23.8,40.4,23.8z M60.6,26.1c-0.2,0.6,0,1.2,0.1,1.5H39.3c0.1-0.3,0.2-0.9,0.1-1.5   C40.5,25.9,49.5,24,60.6,26.1z M41.3,25.1c0-0.2,0.1-0.3,0.3-0.3s0.3,0.1,0.3,0.3c0,0,0,0,0,0c-0.2,0-0.4,0.1-0.6,0.1   C41.3,25.2,41.3,25.2,41.3,25.1z M41.6,22.5c0.1,0,0.2,0.1,0.2,0.2S41.7,23,41.6,23s-0.2-0.1-0.2-0.2S41.5,22.5,41.6,22.5z    M41.6,23.6c0.2,0,0.3,0.1,0.3,0.3c0,0.2-0.1,0.3-0.3,0.3s-0.3-0.1-0.3-0.3C41.3,23.7,41.4,23.6,41.6,23.6z M42.6,25   c0-0.2,0.1-0.3,0.3-0.3s0.3,0.1,0.3,0.3c0,0,0,0,0,0C43.1,25,42.9,25,42.6,25C42.7,25,42.6,25,42.6,25z M42.9,22.3   c0.1,0,0.2,0.1,0.2,0.2s-0.1,0.2-0.2,0.2s-0.2-0.1-0.2-0.2S42.8,22.3,42.9,22.3z M43,23.4c0.2,0,0.3,0.1,0.3,0.3   c0,0.2-0.1,0.3-0.3,0.3s-0.3-0.1-0.3-0.3C42.6,23.6,42.8,23.4,43,23.4z M44,24.8c0-0.2,0.1-0.3,0.3-0.3c0.2,0,0.3,0.1,0.3,0.3   c0,0,0,0,0,0C44.4,24.9,44.2,24.9,44,24.8C44,24.9,44,24.9,44,24.8z M44.3,22.2c0.1,0,0.2,0.1,0.2,0.2s-0.1,0.2-0.2,0.2   s-0.2-0.1-0.2-0.2S44.2,22.2,44.3,22.2z M44.3,23.3c0.2,0,0.3,0.1,0.3,0.3c0,0.2-0.1,0.3-0.3,0.3c-0.2,0-0.3-0.1-0.3-0.3   C44,23.4,44.1,23.3,44.3,23.3z M45.5,24.7c0-0.2,0.1-0.3,0.3-0.3c0.2,0,0.3,0.1,0.3,0.3C46,24.7,45.8,24.8,45.5,24.7   C45.6,24.8,45.5,24.7,45.5,24.7z M45.8,22.1c0.1,0,0.2,0.1,0.2,0.2s-0.1,0.2-0.2,0.2s-0.2-0.1-0.2-0.2S45.7,22.1,45.8,22.1z    M45.9,23.2c0.2,0,0.3,0.1,0.3,0.3s-0.1,0.3-0.3,0.3c-0.2,0-0.3-0.1-0.3-0.3S45.7,23.2,45.9,23.2z M46.9,24.6   c0-0.2,0.1-0.3,0.3-0.3s0.3,0.1,0.3,0.3c0,0,0,0,0,0.1C47.3,24.7,47.1,24.7,46.9,24.6C46.9,24.7,46.9,24.6,46.9,24.6z M47.2,22   c0.1,0,0.2,0.1,0.2,0.2s-0.1,0.2-0.2,0.2s-0.2-0.1-0.2-0.2S47,22,47.2,22z M47.2,23.1c0.2,0,0.3,0.1,0.3,0.3s-0.1,0.3-0.3,0.3   s-0.3-0.1-0.3-0.3S47,23.1,47.2,23.1z M48.3,24.5c0-0.2,0.1-0.3,0.3-0.3s0.3,0.1,0.3,0.3c0,0,0,0,0,0.1   C48.7,24.6,48.5,24.6,48.3,24.5C48.3,24.6,48.3,24.6,48.3,24.5z M48.6,21.9c0.1,0,0.2,0.1,0.2,0.2s-0.1,0.2-0.2,0.2   s-0.2-0.1-0.2-0.2S48.4,21.9,48.6,21.9z M48.6,23c0.2,0,0.3,0.1,0.3,0.3c0,0.2-0.1,0.3-0.3,0.3s-0.3-0.1-0.3-0.3   C48.3,23.1,48.4,23,48.6,23z M49.7,24.5c0-0.2,0.1-0.3,0.3-0.3s0.3,0.1,0.3,0.3c0,0,0,0,0,0.1C50.1,24.6,49.9,24.6,49.7,24.5   C49.7,24.6,49.7,24.6,49.7,24.5z M50,21.9c0.1,0,0.2,0.1,0.2,0.2s-0.1,0.2-0.2,0.2s-0.2-0.1-0.2-0.2S49.8,21.9,50,21.9z M50,23   c0.2,0,0.3,0.1,0.3,0.3c0,0.2-0.1,0.3-0.3,0.3s-0.3-0.1-0.3-0.3C49.7,23.1,49.8,23,50,23z M51.1,24.5c0-0.2,0.1-0.3,0.3-0.3   s0.3,0.1,0.3,0.3c0,0,0,0.1,0,0.1C51.5,24.6,51.3,24.6,51.1,24.5C51.1,24.6,51.1,24.6,51.1,24.5z M51.4,21.9c0.1,0,0.2,0.1,0.2,0.2   s-0.1,0.2-0.2,0.2c-0.1,0-0.2-0.1-0.2-0.2S51.3,21.9,51.4,21.9z M51.4,23c0.2,0,0.3,0.1,0.3,0.3c0,0.2-0.1,0.3-0.3,0.3   s-0.3-0.1-0.3-0.3C51.1,23.1,51.2,23,51.4,23z M52.5,24.6c0-0.2,0.1-0.3,0.3-0.3s0.3,0.1,0.3,0.3c0,0.1,0,0.1-0.1,0.1   C52.9,24.7,52.7,24.7,52.5,24.6C52.5,24.6,52.5,24.6,52.5,24.6z M52.8,21.9c0.1,0,0.2,0.1,0.2,0.2s-0.1,0.2-0.2,0.2   c-0.1,0-0.2-0.1-0.2-0.2S52.7,21.9,52.8,21.9z M52.8,23c0.2,0,0.3,0.1,0.3,0.3s-0.1,0.3-0.3,0.3s-0.3-0.1-0.3-0.3S52.6,23,52.8,23z    M53.8,24.6c0-0.2,0.1-0.3,0.3-0.3s0.3,0.1,0.3,0.3c0,0.1,0,0.1-0.1,0.1c-0.2,0-0.4,0-0.5,0C53.8,24.7,53.8,24.7,53.8,24.6z    M54.1,22c0.1,0,0.2,0.1,0.2,0.2s-0.1,0.2-0.2,0.2c-0.1,0-0.2-0.1-0.2-0.2S54,22,54.1,22z M54.1,23.1c0.2,0,0.3,0.1,0.3,0.3   c0,0.2-0.1,0.3-0.3,0.3s-0.3-0.1-0.3-0.3C53.8,23.2,54,23.1,54.1,23.1z M55.3,24.7c0-0.2,0.1-0.3,0.3-0.3s0.3,0.1,0.3,0.3   c0,0.1,0,0.1-0.1,0.2c-0.2,0-0.4,0-0.5-0.1C55.3,24.8,55.3,24.8,55.3,24.7z M55.6,22.1c0.1,0,0.2,0.1,0.2,0.2s-0.1,0.2-0.2,0.2   c-0.1,0-0.2-0.1-0.2-0.2S55.5,22.1,55.6,22.1z M55.6,23.2c0.2,0,0.3,0.1,0.3,0.3c0,0.2-0.1,0.3-0.3,0.3s-0.3-0.1-0.3-0.3   C55.3,23.3,55.5,23.2,55.6,23.2z M56.7,24.9c0-0.2,0.1-0.3,0.3-0.3c0.2,0,0.3,0.1,0.3,0.3c0,0.1,0,0.1-0.1,0.2   C57.1,25.1,56.9,25,56.7,24.9C56.7,25,56.7,25,56.7,24.9z M57,22.3c0.1,0,0.2,0.1,0.2,0.2s-0.1,0.2-0.2,0.2c-0.1,0-0.2-0.1-0.2-0.2   S56.9,22.3,57,22.3z M57,23.4c0.2,0,0.3,0.1,0.3,0.3c0,0.2-0.1,0.3-0.3,0.3c-0.2,0-0.3-0.1-0.3-0.3C56.7,23.5,56.9,23.4,57,23.4z    M58,25.1c0-0.2,0.1-0.3,0.3-0.3c0.2,0,0.3,0.1,0.3,0.3c0,0.1,0,0.1-0.1,0.1C58.4,25.2,58.3,25.2,58,25.1   C58.1,25.2,58,25.1,58,25.1z M58.3,22.5c0.1,0,0.2,0.1,0.2,0.2S58.5,23,58.3,23c-0.1,0-0.2-0.1-0.2-0.2S58.2,22.5,58.3,22.5z    M58.4,23.6c0.2,0,0.3,0.1,0.3,0.3c0,0.2-0.1,0.3-0.3,0.3c-0.2,0-0.3-0.1-0.3-0.3C58,23.7,58.2,23.6,58.4,23.6z M59.3,25.3   c0-0.2,0.1-0.3,0.3-0.3s0.3,0.1,0.3,0.3c0,0.1,0,0.1-0.1,0.2C59.7,25.4,59.5,25.4,59.3,25.3C59.4,25.4,59.3,25.3,59.3,25.3z    M59.6,22.7c0.1,0,0.2,0.1,0.2,0.2s-0.1,0.2-0.2,0.2c-0.1,0-0.2-0.1-0.2-0.2S59.5,22.7,59.6,22.7z M59.7,23.8   c0.2,0,0.3,0.1,0.3,0.3c0,0.2-0.1,0.3-0.3,0.3s-0.3-0.1-0.3-0.3C59.3,23.9,59.5,23.8,59.7,23.8z M60.6,25.4c0-0.1,0.1-0.2,0.2-0.2   c0.1-0.1,0.3,0,0.4,0.1c-0.1,0.1-0.2,0.2-0.3,0.3c0,0,0,0,0,0c-0.1,0-0.1,0-0.2,0C60.6,25.5,60.6,25.5,60.6,25.4z M60.9,22.9   c0.1,0,0.2,0.1,0.2,0.2s-0.1,0.2-0.2,0.2c-0.1,0-0.2-0.1-0.2-0.2S60.7,22.9,60.9,22.9z M60.9,23.9c0.2,0,0.3,0.1,0.3,0.3   c0,0.2-0.1,0.3-0.3,0.3s-0.3-0.1-0.3-0.3C60.6,24.1,60.7,23.9,60.9,23.9z M62.1,24.6c0,0-0.1-0.6,0.2-0.9c0.1-0.1,0.2-0.1,0.3-0.1   c0.4,0,0.5,0.2,0.5,1v0.1h0.5v0.3c-0.3-0.1-0.6-0.2-1-0.2c-0.4,0-0.7,0.1-0.9,0.1v-0.3h0.5L62.1,24.6z M62.6,23   c0.1,0,0.2,0.1,0.2,0.2c0,0.1-0.1,0.2-0.2,0.2s-0.2-0.1-0.2-0.2C62.4,23.1,62.5,23,62.6,23z M62.5,25.1c0.6,0,1.1,0.1,1.5,0.4   c0,0,0,0.1,0.1,0.1c0.1,0.1,0.2,0.1,0.2,0.2c0.1,0.2,0.2,0.4,0.2,0.7c-0.5-0.2-2.1-0.9-3.8,0c0-0.1,0-0.2,0.1-0.3c0,0,0,0,0,0   l0-0.1c0-0.1,0.1-0.3,0.2-0.4C61.3,25.3,61.8,25.1,62.5,25.1z M64,25.3c0-0.2,0.1-0.3,0.3-0.3c0.2,0,0.3,0.1,0.3,0.3   c0,0.1-0.1,0.3-0.3,0.3C64.2,25.4,64.1,25.4,64,25.3C64,25.3,64,25.3,64,25.3z M64.3,24c0.1,0,0.2,0.1,0.2,0.2   c0,0.1-0.1,0.2-0.2,0.2s-0.2-0.1-0.2-0.2C64.1,24.1,64.2,24,64.3,24z M64.2,28.2L63,27.7l-0.1-0.1v0h0l0,0v0h-2   c-0.1-0.2-0.1-0.5-0.1-0.9c1.8-1.1,3.7-0.1,3.8,0C64.5,27.4,64.3,28.1,64.2,28.2z M78,34.3l0.1,1.8l-0.3-0.1v-0.7l0,0   c0-0.1-0.2-0.5-0.5-0.6c-0.2,0-0.3,0-0.5,0.2l0,0v0.7l-0.3-0.1v-0.7l0,0c0-0.1-0.2-0.5-0.5-0.6c-0.2,0-0.3,0-0.5,0.2l0,0v0.7   L75,34.7v-0.8l0,0c0-0.1-0.2-0.5-0.5-0.6c-0.2,0-0.3,0-0.5,0.2l0,0v0.7l-0.3-0.1v-0.8l0,0c0-0.1-0.2-0.5-0.5-0.6   c-0.2,0-0.3,0-0.5,0.2l0,0v0.7l-0.4-0.2v-0.8l0,0c0-0.1-0.2-0.5-0.5-0.6c-0.2,0-0.3,0-0.5,0.2l0,0v0.7l-0.4-0.2v-0.8l0,0   c0-0.1-0.2-0.5-0.5-0.6c-0.2,0-0.3,0-0.5,0.2l0,0v0.7l-0.5-0.2v-0.8l0,0c0-0.1-0.2-0.5-0.5-0.6c-0.2,0-0.3,0-0.5,0.2l0,0v0.7   l-0.5-0.2v-0.8l0,0c0-0.1-0.2-0.5-0.5-0.6c-0.2,0-0.3,0-0.5,0.2l0,0v0.7l-0.5-0.2v-0.8l0,0c0-0.1-0.2-0.5-0.6-0.6   c-0.2,0-0.3,0-0.5,0.2l0,0v0.7l-0.4-0.2v-0.9l0,0c0,0-0.2-0.6-0.6-0.7c-0.2,0-0.4,0-0.6,0.2l0,0v0.8l-0.2-0.1l-0.1-1.7L78,34.3z    M82.7,52c0,0-0.1,0-0.1,0c0,0,0,0-0.1,0c-0.1,0-0.1,0-0.1,0.1c-0.1,0.1,0,0.4,0.1,0.7c0,0.1,0.1,0.3,0.1,0.4   c-0.2-0.2-0.3-0.5-0.4-0.8c-0.1-0.4-0.3-0.8-0.7-0.8c-0.1,0-0.2,0-0.3,0.1c-0.2,0.1-0.1,0.4-0.1,0.6c0,0.1,0,0.2,0,0.2   c-0.2,0-0.4-0.2-0.5-0.9c-0.1-0.3-0.2-0.5-0.5-0.6c-0.2,0-0.4,0-0.5,0.1c-0.1,0.1-0.2,0.3-0.1,0.5c0.1,0.3,0.1,0.4,0.1,0.4   c0,0,0,0-0.1,0c-0.1-0.1-0.3-0.5-0.4-1c-0.1-0.2-0.3-0.5-0.7-0.5c-0.1,0-0.2,0.1-0.3,0.1c-0.1,0.2-0.1,0.4-0.1,0.6   c0,0.1,0,0.1,0,0.2c0,0,0,0.1,0,0.1c0,0-0.1-0.1-0.2-0.4l-0.1-0.3c-0.2-0.6-0.3-1-0.7-1c-0.1,0-0.2,0-0.2,0.1   c-0.2,0.2-0.2,0.8-0.2,1c0,0,0,0.1,0,0.1c0,0-0.1,0-0.2-0.3c-0.2-0.3-0.2-0.5-0.3-0.7c-0.1-0.3-0.2-0.6-0.6-0.7   c-0.1,0-0.2,0-0.3,0.1c-0.2,0.1-0.2,0.4-0.2,0.6c0,0.1,0,0.3-0.1,0.3c-0.1,0-0.1-0.3-0.2-0.5c-0.1-0.5-0.3-1.1-0.8-1.1   c-0.2,0-0.3,0-0.4,0.1c-0.2,0.2-0.2,0.5-0.1,0.7c0,0.1,0,0.2,0,0.3c-0.2,0-0.2-0.1-0.3-0.3l0-0.1c0-0.3-0.1-1.2-0.8-1.2   c-0.4,0-0.4,0.4-0.4,0.7c0,0.2,0,0.4-0.1,0.4c0,0,0,0-0.1,0c-0.2,0-0.2-0.3-0.3-0.6c0-0.3-0.1-0.7-0.4-0.8L71,47.8L82.7,52z    M87,52.9c-0.1-0.1-0.1-0.2-0.2-0.5c0-0.3-0.2-0.5-0.3-0.5c-0.1-0.1-0.3,0-0.4,0.1c-0.1,0.1-0.2,0.3-0.2,0.5l0,0.1   c0,0.2,0.1,0.5,0,0.5c0,0,0,0-0.1,0c0,0-0.1-0.1-0.2-0.4c0-0.2-0.1-0.5-0.3-0.6c-0.1-0.1-0.2-0.1-0.3,0c-0.1,0.1-0.2,0.2-0.2,0.5   c0,0.2,0,0.4,0,0.5c0,0,0,0.1,0,0.1c0,0,0,0,0,0c0,0,0,0-0.1,0c-0.1-0.1-0.2-0.3-0.2-0.5c0-0.2-0.1-0.4-0.1-0.5   c-0.1-0.1-0.2-0.1-0.3-0.1l0,0c-0.1,0-0.2,0-0.3,0.1c-0.1,0.1-0.1,0.3-0.1,0.7c0,0.3,0,0.5-0.1,0.5c0,0-0.1-0.1-0.3-0.4L83.2,52   l0,0c1.2-0.4,3.1-0.3,3.6-0.3C86.8,52.1,86.9,52.5,87,52.9z M76.7,82.4l8.9-0.2l0.4,4.2l-8.6,0.2C77.1,85.4,76.9,83.9,76.7,82.4z    M58,61.2h-1.4v-1l0.8-0.8l0.7,0.8V61.2z M57.3,59.1l-1,1v1.1h-1v-1.1l-0.9-1.1l-1,1v1.1h-1v-1.1l-0.9-1.1l-1,1v1.1h-1v-1.1   l-0.9-1.1l-1,1v1.1h-1v-1.1l-0.9-1.1l-1,1v1.1h-1v-1.1l-0.9-1.1l-1,1v1.1h-1.5v0.5h-3.3v-2.8h26.5v2.8h-3.3v-0.5h-1.7v-1.1   L57.3,59.1z M55,61.2h-1.4v-1l0.8-0.8l0.7,0.8V61.2z M52.1,61.2h-1.4v-1l0.8-0.8l0.7,0.8V61.2z M49.2,61.2h-1.4v-1l0.8-0.8l0.7,0.8   V61.2z M46.3,61.2h-1.4v-1l0.8-0.8l0.7,0.8V61.2z M43.3,61.2h-1.4v-1l0.8-0.8l0.7,0.8V61.2z M40.1,90.8h-3.3v-3.4h3.3V90.8z    M22.7,86.7l-8.6-0.2l0.4-4.2l8.9,0.2C23.1,84,22.9,85.4,22.7,86.7z M16.7,55.8l11.5-3.5c-0.2,1.2-0.4,2.4-0.6,3.7c0,0,0,0,0,0   l-11.1,3.1L16.7,55.8z M17,53c0.2-0.4,0.3-0.7,0.3-0.7c0,0,0,0,0.1,0c0,0,0,0,0,0c0,0.1-0.1,0.3-0.1,0.5c-0.1,0.4-0.2,0.6,0,0.7   c0.1,0.1,0.3,0,0.3-0.1c0.3-0.2,0.4-0.6,0.5-0.9c0.1-0.3,0.2-0.7,0.5-0.7c0.1,0,0.1,0,0.1,0c0.1,0.1,0.1,0.3,0,0.4   c0,0.2,0,0.5,0.2,0.5c0.2,0,0.6-0.1,0.8-1.1c0-0.2,0.2-0.3,0.3-0.4c0.1,0,0.2,0,0.2,0.1c0.1,0.1,0.1,0.2,0,0.3   c-0.1,0.3-0.1,0.5,0,0.6c0.1,0.1,0.3,0.1,0.3,0.1c0.1,0,0.3,0,0.6-1.1c0,0,0.1-0.4,0.5-0.3c0.1,0,0.1,0,0.1,0c0.1,0.1,0,0.3,0,0.4   c0,0.1,0,0.1,0,0.2c0,0.2,0.1,0.3,0.2,0.3c0.2,0,0.4-0.2,0.5-0.6l0.1-0.3c0.2-0.5,0.3-0.8,0.5-0.8c0,0,0,0,0,0   c0.1,0.1,0.1,0.6,0.1,0.8l0,0l0,0c0,0,0.1,0.3,0.3,0.3c0.2,0,0.4-0.2,0.5-0.4c0.2-0.3,0.2-0.5,0.3-0.8c0.1-0.3,0.1-0.4,0.4-0.5   c0.1,0,0.1,0,0.1,0c0.1,0.1,0.1,0.3,0.1,0.4c0,0.2,0,0.5,0.3,0.5c0.2,0,0.3-0.3,0.4-0.7c0.1-0.5,0.3-0.9,0.6-0.9   c0.1,0,0.2,0,0.2,0.1c0.1,0.1,0.1,0.3,0.1,0.5c0,0.2,0,0.4,0.1,0.5c0,0,0.1,0.1,0.2,0.1c0.4,0,0.5-0.3,0.5-0.6l0-0.1   c0-0.4,0.2-1,0.5-1c0.1,0,0.2,0.1,0.2,0.5c0,0.2,0,0.5,0.2,0.6c0.1,0.1,0.2,0.1,0.3,0.1c0.4-0.1,0.4-0.5,0.5-0.8   c0-0.2,0.1-0.3,0.1-0.4c-0.1,0.5-0.2,0.9-0.3,1.4l-11.7,3.6L17,53C17,53.1,17,53.1,17,53z M30.5,40.5c-0.3,0.4-0.4,0.8-0.5,1.2   v-0.5l-3.6,1.5v1.9l1.8-1.6l1.6,0.4c0,0.3-0.1,0.8-0.3,1.4c-0.5-0.7-1.3-1-1.3-1l0,0l0,0c-2.1,1.5-2.1,4.4-2.1,4.9l-0.3,0.1   l0.5-7.3l4.3-1.7V40.5z M35,39.6l0-0.6l-0.1,0c0,0-0.2,0-0.3-0.1c-0.1-0.1-0.2-0.3-0.2-0.5c0-0.5-0.1-1-0.4-1.1   c0.1-0.1,0.2-0.2,0.2-0.4c0-0.3-0.2-0.5-0.4-0.5v0l2.7-1l-0.3,5C35.9,40,35.5,39.7,35,39.6z M22.4,37.2c0.1,0,0.2,0.1,0.2,0.3   c0,0.1-0.1,0.3-0.2,0.3c-0.1,0-0.2-0.1-0.2-0.3C22.2,37.4,22.3,37.2,22.4,37.2z M22.4,37.9c0.1,0,0.3-0.2,0.3-0.4s-0.1-0.4-0.3-0.4   v-0.4l0.7-0.3v0.3c-0.1,0-0.3,0.2-0.3,0.4s0.1,0.4,0.3,0.4v0.4l-0.7,0.3V37.9z M23.2,37.4c-0.1,0-0.2-0.1-0.2-0.3   c0-0.1,0.1-0.3,0.2-0.3c0.1,0,0.2,0.1,0.2,0.3C23.4,37.2,23.3,37.4,23.2,37.4z M23.3,37.5c0.1,0,0.3-0.2,0.3-0.4s-0.1-0.4-0.3-0.4   v-0.4L24,36v0.3c-0.1,0-0.3,0.2-0.3,0.4s0.1,0.4,0.3,0.4v0.4l-0.7,0.3V37.5z M24.1,37c-0.1,0-0.2-0.1-0.2-0.3   c0-0.1,0.1-0.3,0.2-0.3c0.1,0,0.2,0.1,0.2,0.3C24.3,36.8,24.2,37,24.1,37z M24.2,37.1c0.1,0,0.3-0.2,0.3-0.4s-0.1-0.4-0.3-0.4V36   l0.7-0.3v0.3c-0.1,0-0.3,0.2-0.3,0.4c0,0.2,0.1,0.4,0.3,0.4v0.4l-0.7,0.3V37.1z M25,36.6c-0.1,0-0.2-0.1-0.2-0.3   c0-0.1,0.1-0.3,0.2-0.3c0.1,0,0.2,0.1,0.2,0.3C25.1,36.5,25.1,36.6,25,36.6z M25,36.8c0.1,0,0.3-0.2,0.3-0.4S25.2,36,25,35.9v-0.3   l0.8-0.3v0.3c-0.1,0-0.3,0.2-0.3,0.4s0.1,0.4,0.3,0.4v0.4L25,37.1V36.8z M25.9,36.2c-0.1,0-0.2-0.1-0.2-0.3c0-0.1,0.1-0.3,0.2-0.3   c0.1,0,0.2,0.1,0.2,0.3C26.1,36.1,26,36.2,25.9,36.2z M26,36.3c0.1,0,0.3-0.2,0.3-0.4s-0.1-0.4-0.3-0.4v-0.3l0.7-0.3v0.3   c-0.1,0-0.3,0.2-0.3,0.4s0.1,0.4,0.3,0.4v0.4L26,36.7V36.3z M26.7,35.9c-0.1,0-0.2-0.1-0.2-0.3s0.1-0.3,0.2-0.3   c0.1,0,0.2,0.1,0.2,0.3S26.8,35.9,26.7,35.9z M26.8,36c0.1,0,0.3-0.2,0.3-0.4s-0.1-0.4-0.3-0.4v-0.3l0.7-0.3v0.3   c-0.1,0-0.3,0.2-0.3,0.4s0.1,0.4,0.3,0.4V36l-0.7,0.3V36z M27.6,35.5c-0.1,0-0.2-0.1-0.2-0.3s0.1-0.3,0.2-0.3   c0.1,0,0.2,0.1,0.2,0.3S27.7,35.5,27.6,35.5z M27.7,35.6c0.1,0,0.3-0.2,0.3-0.4c0-0.2-0.1-0.4-0.3-0.4v-0.4l0.8-0.3v0.3   c-0.1,0-0.3,0.2-0.3,0.4c0,0.2,0.1,0.4,0.3,0.4v0.4l-0.8,0.3V35.6z M28.5,35.1c-0.1,0-0.2-0.1-0.2-0.3c0-0.1,0.1-0.3,0.2-0.3   c0.1,0,0.2,0.1,0.2,0.3C28.7,35,28.6,35.1,28.5,35.1z M28.6,35.2c0.1,0,0.3-0.2,0.3-0.4c0-0.2-0.1-0.4-0.3-0.4v-0.3l0.8-0.3v0.3   c-0.1,0-0.3,0.2-0.3,0.4s0.1,0.4,0.3,0.4v0.3l-0.8,0.3V35.2z M29.4,34.8c-0.1,0-0.2-0.1-0.2-0.3c0-0.1,0.1-0.3,0.2-0.3   c0.1,0,0.2,0.1,0.2,0.3C29.6,34.6,29.5,34.8,29.4,34.8z M29.5,34.9c0.1,0,0.3-0.2,0.3-0.4s-0.1-0.4-0.3-0.4v-0.4l0.6-0.3v0.3   c-0.1,0-0.3,0.2-0.3,0.4c0,0.2,0.1,0.4,0.3,0.4h0v0.4l-0.6,0.3V34.9z M30.2,33.9c0.1,0,0.2,0.1,0.2,0.3c0,0.1-0.1,0.3-0.2,0.3   c-0.1,0-0.2-0.1-0.2-0.3C30,34,30.1,33.9,30.2,33.9z M30.2,34.5c0.1,0,0.3-0.2,0.3-0.4c0-0.2-0.1-0.4-0.3-0.4v-0.4L31,33v0.3   c-0.1,0-0.3,0.2-0.3,0.4c0,0.2,0.1,0.4,0.3,0.4v0.3l-0.7,0.3L30.2,34.5L30.2,34.5z M31.1,34.1c-0.1,0-0.2-0.1-0.2-0.3   c0-0.1,0.1-0.3,0.2-0.3s0.2,0.1,0.2,0.3C31.2,33.9,31.2,34.1,31.1,34.1z M31.1,34.2c0.1,0,0.3-0.2,0.3-0.4c0-0.2-0.1-0.4-0.3-0.4   V33l0.8-0.3v0.3c-0.1,0-0.3,0.2-0.3,0.4s0.1,0.4,0.3,0.4v0.4l-0.8,0.3V34.2z M32,33.6c-0.1,0-0.2-0.1-0.2-0.3   c0-0.1,0.1-0.3,0.2-0.3c0.1,0,0.2,0.1,0.2,0.3C32.2,33.5,32.1,33.6,32,33.6z M32.1,33.8c0.1,0,0.3-0.2,0.3-0.4s-0.1-0.4-0.3-0.4   v-0.4l0.7-0.3v0.3c-0.1,0-0.3,0.2-0.3,0.4c0,0.2,0.1,0.4,0.3,0.4v0.4l-0.7,0.3V33.8z M32.8,33.3c-0.1,0-0.2-0.1-0.2-0.3   c0-0.1,0.1-0.3,0.2-0.3c0.1,0,0.2,0.1,0.2,0.3C33,33.2,32.9,33.3,32.8,33.3z M32.9,33.4c0.1,0,0.3-0.2,0.3-0.4   c0-0.2-0.1-0.4-0.3-0.4v-0.4l0.7-0.3v0.3c-0.1,0-0.3,0.2-0.3,0.4s0.1,0.4,0.3,0.4v0.4l-0.7,0.3V33.4z M33.6,32.9   c-0.1,0-0.2-0.1-0.2-0.3c0-0.1,0.1-0.3,0.2-0.3c0.1,0,0.2,0.1,0.2,0.3C33.8,32.8,33.7,32.9,33.6,32.9z M33.7,33.1   c0.1,0,0.3-0.2,0.3-0.4s-0.1-0.4-0.3-0.4v-0.4l0.7-0.3v0.3c-0.1,0-0.3,0.2-0.3,0.4c0,0.2,0.1,0.4,0.3,0.4v0.3l-0.7,0.3V33.1z    M34.5,32.6c-0.1,0-0.2-0.1-0.2-0.3c0-0.1,0.1-0.3,0.2-0.3c0.1,0,0.2,0.1,0.2,0.3C34.7,32.5,34.6,32.6,34.5,32.6z M34.6,32.7   c0.1,0,0.3-0.2,0.3-0.4s-0.1-0.4-0.3-0.4v-0.4l0.7-0.3v0.3c-0.1,0-0.3,0.2-0.3,0.4c0,0.2,0.1,0.4,0.3,0.4v0.3L34.6,33V32.7z    M35.3,32.2c-0.1,0-0.2-0.1-0.2-0.3c0-0.1,0.1-0.3,0.2-0.3c0.1,0,0.2,0.1,0.2,0.3C35.5,32.1,35.4,32.2,35.3,32.2z M35.4,32.4   c0.1,0,0.3-0.2,0.3-0.4c0-0.2-0.1-0.4-0.3-0.4v-0.4l0.7-0.3v0.3c-0.1,0-0.3,0.2-0.3,0.4S36,32,36.1,32v0.3l-0.7,0.3V32.4z    M36.2,31.9c-0.1,0-0.2-0.1-0.2-0.3c0-0.1,0.1-0.3,0.2-0.3c0.1,0,0.2,0.1,0.2,0.3C36.4,31.7,36.3,31.9,36.2,31.9z M36.3,32   c0.1,0,0.3-0.2,0.3-0.4s-0.1-0.4-0.3-0.4v-0.4l0.4-0.2l-0.1,1.5l-0.3,0.1V32z M37,27.9l25.9,0l0.1,1.8l-0.4,0l0-0.7   c0,0-0.1-0.7-0.9-0.7v0c-0.8,0-0.9,0.7-0.9,0.7v0.7l-0.8,0v-0.7c0,0-0.1-0.7-0.9-0.7v0c-0.8,0-0.9,0.7-0.9,0.7v0.7l-0.8,0v-0.7   c0,0-0.1-0.7-0.9-0.7v0c-0.8,0-0.9,0.7-0.9,0.7v0.7l-0.8,0v-0.7c0,0-0.1-0.7-0.9-0.7v0c-0.8,0-0.9,0.7-0.9,0.7v0.7l-0.8,0l0-0.7   c0,0-0.1-0.7-0.9-0.7v0c-0.8,0-0.9,0.7-0.9,0.7v0.7l-0.7,0l0-0.7c0,0-0.1-0.7-0.9-0.7v0c-0.8,0-0.9,0.7-0.9,0.7v0.7l-0.9,0l0-0.7   c0,0-0.1-0.7-0.9-0.7v0c-0.8,0-0.9,0.7-0.9,0.7v0.7l-0.8,0l0-0.7c0,0-0.1-0.7-0.9-0.7v0c-0.8,0-0.9,0.7-0.9,0.7v0.7l-0.8,0l0-0.7   c0,0-0.1-0.7-0.9-0.7v0c-0.8,0-0.9,0.7-0.9,0.7v0.7l-0.9,0l0-0.8c0,0-0.1-0.7-0.9-0.7v0c-0.8,0-0.9,0.7-0.9,0.7v0.7l-0.4,0L37,27.9   z M77.6,37.8c-0.1,0-0.2-0.1-0.2-0.3s0.1-0.3,0.2-0.3c0.1,0,0.2,0.1,0.2,0.3S77.7,37.8,77.6,37.8z M77.5,37.1   c-0.1,0-0.3,0.2-0.3,0.4c0,0.2,0.1,0.4,0.3,0.4v0.3l-0.7-0.3v-0.4c0.1,0,0.3-0.2,0.3-0.4c0-0.2-0.1-0.4-0.3-0.4v-0.3l0.7,0.3V37.1z    M76.7,36.9c0.1,0,0.2,0.1,0.2,0.3s-0.1,0.3-0.2,0.3s-0.2-0.1-0.2-0.3S76.6,36.9,76.7,36.9z M76.6,36.7c-0.1,0-0.3,0.2-0.3,0.4   c0,0.2,0.1,0.4,0.3,0.4v0.3l-0.7-0.3v-0.4c0.1,0,0.3-0.2,0.3-0.4c0-0.2-0.1-0.4-0.3-0.4v-0.3l0.7,0.3V36.7z M75.8,36.5   c0.1,0,0.2,0.1,0.2,0.3c0,0.1-0.1,0.3-0.2,0.3s-0.2-0.1-0.2-0.3C75.6,36.6,75.7,36.5,75.8,36.5z M75.7,36.3c-0.1,0-0.3,0.2-0.3,0.4   c0,0.2,0.1,0.4,0.3,0.4v0.3L75,37.2v-0.4c0.1,0,0.3-0.2,0.3-0.4S75.2,36,75,36v-0.3l0.7,0.3V36.3z M75,36.1c0.1,0,0.2,0.1,0.2,0.3   c0,0.1-0.1,0.3-0.2,0.3c-0.1,0-0.2-0.1-0.2-0.3C74.8,36.2,74.9,36.1,75,36.1z M74.9,36c-0.1,0-0.3,0.2-0.3,0.4s0.1,0.4,0.3,0.4v0.3   l-0.8-0.3v-0.4c0.1,0,0.3-0.2,0.3-0.4c0-0.2-0.1-0.4-0.3-0.4v-0.3l0.8,0.3V36z M74,35.7c0.1,0,0.2,0.1,0.2,0.3   c0,0.1-0.1,0.3-0.2,0.3s-0.2-0.1-0.2-0.3C73.8,35.8,73.9,35.7,74,35.7z M73.9,35.6c-0.1,0-0.3,0.2-0.3,0.4c0,0.2,0.1,0.4,0.3,0.4   v0.3l-0.7-0.3V36c0.1,0,0.3-0.2,0.3-0.4c0-0.2-0.1-0.4-0.3-0.4v-0.3l0.7,0.3V35.6z M73.2,35.3c0.1,0,0.2,0.1,0.2,0.3   c0,0.1-0.1,0.3-0.2,0.3S73,35.8,73,35.6C73,35.5,73.1,35.3,73.2,35.3z M73.1,35.2c-0.1,0-0.3,0.2-0.3,0.4c0,0.2,0.1,0.4,0.3,0.4   v0.3L72.4,36v-0.4c0.1,0,0.3-0.2,0.3-0.4c0-0.2-0.1-0.4-0.3-0.4v-0.3l0.7,0.3V35.2z M72.3,35c0.1,0,0.2,0.1,0.2,0.3   c0,0.1-0.1,0.3-0.2,0.3s-0.2-0.1-0.2-0.3C72.2,35.1,72.2,35,72.3,35z M72.3,34.9c-0.1,0-0.3,0.2-0.3,0.4c0,0.2,0.1,0.4,0.3,0.4V36   l-0.8-0.3v-0.4c0.1,0,0.3-0.2,0.3-0.4s-0.1-0.4-0.3-0.4v-0.3l0.8,0.3V34.9z M71.4,34.6c0.1,0,0.2,0.1,0.2,0.3   c0,0.1-0.1,0.3-0.2,0.3s-0.2-0.1-0.2-0.3C71.3,34.7,71.3,34.6,71.4,34.6z M71.4,34.5c-0.1,0-0.3,0.2-0.3,0.4s0.1,0.4,0.3,0.4v0.3   l-0.8-0.3v-0.3c0.1,0,0.3-0.2,0.3-0.4c0-0.2-0.1-0.4-0.3-0.4v-0.3l0.8,0.3V34.5z M70.5,34.2c0.1,0,0.2,0.1,0.2,0.3   c0,0.1-0.1,0.3-0.2,0.3s-0.2-0.1-0.2-0.3C70.3,34.4,70.4,34.2,70.5,34.2z M70.5,34.1c-0.1,0-0.3,0.2-0.3,0.4c0,0.2,0.1,0.4,0.3,0.4   v0.3l-0.6-0.3v-0.4h0c0.1,0,0.3-0.2,0.3-0.4s-0.1-0.4-0.3-0.4v-0.3l0.6,0.3V34.1z M69.8,33.9c0.1,0,0.2,0.1,0.2,0.3   c0,0.1-0.1,0.3-0.2,0.3c-0.1,0-0.2-0.1-0.2-0.3C69.6,34,69.7,33.9,69.8,33.9z M69.7,33.8c-0.1,0-0.3,0.2-0.3,0.4   c0,0.2,0.1,0.4,0.3,0.4h0v0.3l-0.7-0.3v-0.3c0.1,0,0.3-0.2,0.3-0.4s-0.1-0.4-0.3-0.4v-0.3l0.7,0.3V33.8z M68.9,33.5   c0.1,0,0.2,0.1,0.2,0.3c0,0.1-0.1,0.3-0.2,0.3s-0.2-0.1-0.2-0.3C68.7,33.7,68.8,33.5,68.9,33.5z M68.8,33.4c-0.1,0-0.3,0.2-0.3,0.4   s0.1,0.4,0.3,0.4v0.3L68,34.2v-0.4c0.1,0,0.3-0.2,0.3-0.4c0-0.2-0.1-0.4-0.3-0.4v-0.3l0.8,0.3V33.4z M67.9,33.1   c0.1,0,0.2,0.1,0.2,0.3s-0.1,0.3-0.2,0.3s-0.2-0.1-0.2-0.3S67.8,33.1,67.9,33.1z M67.9,33c-0.1,0-0.3,0.2-0.3,0.4   c0,0.2,0.1,0.4,0.3,0.4v0.3l-0.7-0.3v-0.4c0.1,0,0.3-0.2,0.3-0.4s-0.1-0.4-0.3-0.4v-0.3l0.7,0.3V33z M67.1,32.8   c0.1,0,0.2,0.1,0.2,0.3c0,0.1-0.1,0.3-0.2,0.3C67,33.3,67,33.2,67,33C67,32.9,67,32.8,67.1,32.8z M67.1,32.6   c-0.1,0-0.3,0.2-0.3,0.4c0,0.2,0.1,0.4,0.3,0.4v0.3l-0.7-0.3v-0.4c0.1,0,0.3-0.2,0.3-0.4c0-0.2-0.1-0.4-0.3-0.4V32l0.7,0.3V32.6z    M66.3,32.4c0.1,0,0.2,0.1,0.2,0.3S66.4,33,66.3,33s-0.2-0.1-0.2-0.3S66.2,32.4,66.3,32.4z M66.2,32.3c-0.1,0-0.3,0.2-0.3,0.4   c0,0.2,0.1,0.4,0.3,0.4v0.3l-0.7-0.3v-0.3c0.1,0,0.3-0.2,0.3-0.4s-0.1-0.4-0.3-0.4v-0.3l0.7,0.3V32.3z M65.4,32.1   c0.1,0,0.2,0.1,0.2,0.3c0,0.1-0.1,0.3-0.2,0.3c-0.1,0-0.2-0.1-0.2-0.3C65.2,32.2,65.3,32.1,65.4,32.1z M65.4,31.9   c-0.1,0-0.3,0.2-0.3,0.4c0,0.2,0.1,0.4,0.3,0.4V33l-0.7-0.3v-0.3c0.1,0,0.3-0.2,0.3-0.4s-0.1-0.4-0.3-0.4v-0.3l0.7,0.3V31.9z    M64.6,31.7c0.1,0,0.2,0.1,0.2,0.3c0,0.1-0.1,0.3-0.2,0.3s-0.2-0.1-0.2-0.3C64.4,31.8,64.5,31.7,64.6,31.7z M64.5,31.6   c-0.1,0-0.3,0.2-0.3,0.4s0.1,0.4,0.3,0.4v0.3l-0.7-0.3V32c0.1,0,0.3-0.2,0.3-0.4c0-0.2-0.1-0.4-0.3-0.4v-0.3l0.7,0.3V31.6z    M63.7,31.4c0.1,0,0.2,0.1,0.2,0.3c0,0.1-0.1,0.3-0.2,0.3c-0.1,0-0.2-0.1-0.2-0.3C63.5,31.5,63.6,31.4,63.7,31.4z M63.6,31.2   c-0.1,0-0.3,0.2-0.3,0.4c0,0.2,0.1,0.4,0.3,0.4v0.2l-0.3-0.1l-0.1-1.5l0.4,0.2V31.2z M73.7,49.4c0,0,0.1-0.1,0.2-0.1   c0.3,0,0.4,0.4,0.6,0.9c0.1,0.4,0.2,0.7,0.4,0.7c0.3,0,0.3-0.3,0.3-0.5c0-0.2,0-0.3,0.1-0.4c0,0,0,0,0.1,0c0.2,0,0.3,0.1,0.4,0.5   c0.1,0.2,0.1,0.5,0.3,0.8c0.1,0.2,0.3,0.4,0.5,0.4c0.2,0,0.2-0.3,0.3-0.3l0,0l0,0c0-0.3,0-0.7,0.1-0.8c0,0,0,0,0,0   c0.2,0,0.3,0.3,0.5,0.8l0.1,0.3c0.1,0.4,0.3,0.6,0.5,0.6c0.1,0,0.2-0.2,0.2-0.3c0-0.1,0-0.1,0-0.2c0-0.1-0.1-0.3,0-0.4   c0,0,0,0,0.1,0c0.3,0,0.5,0.3,0.5,0.3c0.4,1.1,0.6,1.1,0.6,1.1c0.1,0,0.2,0,0.3-0.1c0.1-0.1,0.1-0.3,0-0.6c0-0.1,0-0.2,0-0.3   c0.1-0.1,0.1-0.1,0.2-0.1c0.1,0,0.2,0.2,0.3,0.4c0.2,1,0.6,1.1,0.8,1c0.2,0,0.2-0.3,0.2-0.5c0-0.2,0-0.4,0-0.4c0,0,0.1,0,0.1,0   c0.2,0,0.3,0.3,0.5,0.7c0.1,0.3,0.3,0.7,0.5,0.9c0.1,0,0.2,0.1,0.3,0.1c0.1-0.1,0.1-0.3,0-0.7c0-0.2-0.1-0.4-0.1-0.5c0,0,0,0,0,0   c0,0,0.1,0,0,0c0,0,0.1,0.3,0.3,0.7l0.1,0.7l-11.7-3.6c-0.1-0.5-0.2-1-0.3-1.4c0,0.1,0.1,0.3,0.1,0.4c0.1,0.4,0.1,0.8,0.5,0.8   c0.1,0,0.2,0,0.3-0.1c0.1-0.1,0.2-0.3,0.2-0.6c0-0.4,0.1-0.5,0.2-0.5c0.4,0,0.5,0.6,0.5,1l0,0.1c0,0.2,0.1,0.5,0.5,0.6   c0.1,0,0.1,0,0.2-0.1c0.1-0.1,0.1-0.3,0.1-0.5C73.6,49.7,73.6,49.5,73.7,49.4z M83.5,59.1l-11.1-3.1c0,0,0,0-0.1,0   c-0.2-1.3-0.4-2.5-0.6-3.7l11.5,3.5L83.5,59.1z M76.5,80.9l9,0l0.1,1.1l-8.9,0.2C76.6,81.8,76.5,81.3,76.5,80.9z M59.9,62h3.3v6   h-3.3V62z M27.1,60.7c0.6-0.2,6-2,9.4,1.2v5.9c-4.3-2.9-9.4-1.4-10.5-1C26.4,64.7,26.7,62.7,27.1,60.7z M26,67.1   c0.6-0.2,6.1-2,10.5,1.1v3c-4.2-2.5-9.9-1.3-11-1.1C25.7,69,25.8,68,26,67.1z M25.5,70.3c0.8-0.2,6.8-1.5,11,1.1v2.7   C32.3,71.6,26.1,72.8,25,73C25.2,72.1,25.3,71.2,25.5,70.3z M25,73.3c0.8-0.2,7.3-1.5,11.5,1.1v6.3C32.8,78.8,25.2,79.8,24,80   C24.3,77.9,24.6,75.6,25,73.3z M23.9,80.2c0.9-0.1,9-1.2,12.6,0.8v1c-4-2-11.5-1-12.7-0.8C23.8,80.9,23.9,80.5,23.9,80.2z    M27.1,60.4c0.1-0.7,0.2-1.3,0.3-1.9c0.3-0.3,3.5-2.6,9.1,0.6v2.5C33.2,58.6,28.2,60,27.1,60.4z M16.4,60.2l11-3   c0,0.2-0.1,0.4-0.1,0.6l-11,2.8L16.4,60.2z M29.9,43.1L29.9,43.1c0,0,0,0.1,0,0.1l-1.7-0.4l-1.6,1.4v-1.4l3.3-1.4V43.1z M30.1,43.3   c3.1-2.1,6-0.1,6.4,0.2v1.3c-2.9-2.2-5.8-1.2-6.6-0.9C30,43.6,30.1,43.4,30.1,43.3z M37.5,31c0.2,0,0.3,0.2,0.3,0.4   c0,0.2-0.1,0.4-0.3,0.4s-0.3-0.2-0.3-0.4C37.2,31.1,37.3,31,37.5,31z M37.6,31.8c0.2,0,0.4-0.2,0.4-0.5s-0.2-0.5-0.4-0.5v-0.3l1,0   v0.3c-0.2,0-0.4,0.2-0.4,0.5s0.2,0.5,0.4,0.5v0.3h-1V31.8z M38.7,31.7c-0.2,0-0.3-0.2-0.3-0.4c0-0.2,0.1-0.4,0.3-0.4   s0.3,0.2,0.3,0.4C39,31.5,38.9,31.7,38.7,31.7z M38.7,31.8c0.2,0,0.4-0.2,0.4-0.5s-0.2-0.5-0.4-0.5v-0.3l1.1,0v0.3   c-0.2,0-0.4,0.2-0.4,0.5s0.2,0.5,0.4,0.5v0.3l-1.1,0V31.8z M62.4,31c0.2,0,0.3,0.2,0.3,0.4c0,0.2-0.1,0.4-0.3,0.4   c-0.2,0-0.3-0.2-0.3-0.4C62.1,31.1,62.3,31,62.4,31z M62.5,31.8c0.2,0,0.4-0.2,0.4-0.5s-0.2-0.5-0.4-0.5v-0.3l0.5,0l0.1,1.6l-0.6,0   V31.8z M62.4,30.8c-0.2,0-0.4,0.2-0.4,0.5s0.2,0.5,0.4,0.5v0.2h-1v-0.2c0.2,0,0.4-0.2,0.4-0.5s-0.2-0.5-0.4-0.5v-0.3l1,0V30.8z    M61.3,31c0.2,0,0.3,0.2,0.3,0.4c0,0.2-0.1,0.4-0.3,0.4c-0.2,0-0.3-0.2-0.3-0.4C61,31.1,61.1,31,61.3,31z M61.2,30.8   c-0.2,0-0.4,0.2-0.4,0.5s0.2,0.5,0.4,0.5v0.2l-1,0v-0.2c0.2,0,0.4-0.2,0.4-0.5s-0.2-0.5-0.4-0.5v-0.3l1,0V30.8z M60.1,31   c0.2,0,0.3,0.2,0.3,0.4c0,0.2-0.1,0.4-0.3,0.4c-0.2,0-0.3-0.2-0.3-0.4C59.8,31.1,59.9,31,60.1,31z M60,30.8c-0.2,0-0.4,0.2-0.4,0.5   s0.2,0.5,0.4,0.5v0.2l-1,0v-0.2c0.2,0,0.4-0.2,0.4-0.5s-0.2-0.5-0.4-0.5v-0.3l1,0V30.8z M58.9,31c0.2,0,0.3,0.2,0.3,0.4   c0,0.2-0.1,0.4-0.3,0.4c-0.2,0-0.3-0.2-0.3-0.4C58.6,31.1,58.8,31,58.9,31z M58.9,30.8c-0.2,0-0.4,0.2-0.4,0.5s0.2,0.5,0.4,0.5v0.2   l-1.1,0v-0.2c0.2,0,0.4-0.2,0.4-0.5s-0.2-0.5-0.4-0.5v-0.3l1.1,0V30.8z M57.7,31c0.2,0,0.3,0.2,0.3,0.4c0,0.2-0.1,0.4-0.3,0.4   c-0.2,0-0.3-0.2-0.3-0.4C57.4,31.1,57.5,31,57.7,31z M57.6,30.8c-0.2,0-0.4,0.2-0.4,0.5s0.2,0.5,0.4,0.5v0.2l-1,0v-0.2   c0.2,0,0.4-0.2,0.4-0.5s-0.2-0.5-0.4-0.5v-0.3l1,0V30.8z M56.6,31c0.2,0,0.3,0.2,0.3,0.4c0,0.2-0.1,0.4-0.3,0.4   c-0.2,0-0.3-0.2-0.3-0.4C56.2,31.1,56.4,31,56.6,31z M56.5,30.8c-0.2,0-0.4,0.2-0.4,0.5s0.2,0.5,0.4,0.5v0.2l-1.1,0v-0.2   c0.2,0,0.4-0.2,0.4-0.5s-0.2-0.5-0.4-0.5v-0.3l1.1,0V30.8z M55.3,31c0.2,0,0.3,0.2,0.3,0.4c0,0.2-0.1,0.4-0.3,0.4   c-0.2,0-0.3-0.2-0.3-0.4C55,31.1,55.1,31,55.3,31z M55.3,30.8c-0.2,0-0.4,0.2-0.4,0.5s0.2,0.5,0.4,0.5v0.2l-1,0v-0.2   c0.2,0,0.4-0.2,0.4-0.5s-0.2-0.5-0.4-0.5v-0.3l1,0V30.8z M54.2,31c0.2,0,0.3,0.2,0.3,0.4c0,0.2-0.1,0.4-0.3,0.4   c-0.2,0-0.3-0.2-0.3-0.4C53.8,31.1,54,31,54.2,31z M54.1,30.8c-0.2,0-0.4,0.2-0.4,0.5s0.2,0.5,0.4,0.5v0.2l-1,0v-0.2   c0.2,0,0.4-0.2,0.4-0.5s-0.2-0.5-0.4-0.5v-0.3l1,0V30.8z M53,31c0.2,0,0.3,0.2,0.3,0.4c0,0.2-0.1,0.4-0.3,0.4   c-0.2,0-0.3-0.2-0.3-0.4C52.6,31.1,52.8,31,53,31z M52.9,30.8c-0.2,0-0.4,0.2-0.4,0.5s0.2,0.5,0.4,0.5v0.2l-1.1,0v-0.2   c0.2,0,0.4-0.2,0.4-0.5s-0.2-0.5-0.4-0.5v-0.3l1.1,0V30.8z M51.8,31c0.2,0,0.3,0.2,0.3,0.4c0,0.2-0.1,0.4-0.3,0.4   c-0.2,0-0.3-0.2-0.3-0.4C51.4,31.1,51.6,31,51.8,31z M51.7,30.8c-0.2,0-0.4,0.2-0.4,0.5s0.2,0.5,0.4,0.5v0.2h-1v-0.2   c0.2,0,0.4-0.2,0.4-0.5s-0.2-0.5-0.4-0.5v-0.3l1,0V30.8z M50.6,31c0.2,0,0.3,0.2,0.3,0.4c0,0.2-0.2,0.4-0.3,0.4   c-0.2,0-0.3-0.2-0.3-0.4C50.2,31.1,50.4,31,50.6,31z M50.5,30.8c-0.2,0-0.4,0.2-0.4,0.5s0.2,0.5,0.4,0.5v0.2h-1v-0.2   c0.2,0,0.4-0.2,0.4-0.5s-0.2-0.5-0.4-0.5v-0.3l1,0V30.8z M49.4,31c0.2,0,0.3,0.2,0.3,0.4c0,0.2-0.1,0.4-0.3,0.4s-0.3-0.2-0.3-0.4   C49.1,31.1,49.2,31,49.4,31z M49.3,30.8c-0.2,0-0.4,0.2-0.4,0.5s0.2,0.5,0.4,0.5v0.2h-1v-0.2c0.2,0,0.4-0.2,0.4-0.5   s-0.2-0.5-0.4-0.5v-0.3l1,0V30.8z M48.3,31c0.2,0,0.3,0.2,0.3,0.4c0,0.2-0.1,0.4-0.3,0.4s-0.3-0.2-0.3-0.4   C47.9,31.1,48.1,31,48.3,31z M48.2,30.8c-0.2,0-0.4,0.2-0.4,0.5s0.2,0.5,0.4,0.5v0.2l-1.2,0v-0.2c0.2,0,0.4-0.2,0.4-0.5   s-0.2-0.5-0.4-0.5v-0.3l1.2,0V30.8z M46.9,31c0.2,0,0.3,0.2,0.3,0.4c0,0.2-0.1,0.4-0.3,0.4s-0.3-0.2-0.3-0.4   C46.6,31.1,46.8,31,46.9,31z M46.9,30.8c-0.2,0-0.4,0.2-0.4,0.5s0.2,0.5,0.4,0.5v0.2l-1,0v-0.2c0.2,0,0.4-0.2,0.4-0.5   s-0.2-0.5-0.4-0.5v-0.3l1,0V30.8z M45.8,31c0.2,0,0.3,0.2,0.3,0.4c0,0.2-0.1,0.4-0.3,0.4s-0.3-0.2-0.3-0.4   C45.5,31.1,45.6,31,45.8,31z M45.7,30.8c-0.2,0-0.4,0.2-0.4,0.5s0.2,0.5,0.4,0.5v0.2l-1,0v-0.2c0.2,0,0.4-0.2,0.4-0.5   s-0.2-0.5-0.4-0.5v-0.3l1,0V30.8z M44.7,31c0.2,0,0.3,0.2,0.3,0.4c0,0.2-0.1,0.4-0.3,0.4s-0.3-0.2-0.3-0.4   C44.3,31.1,44.5,31,44.7,31z M44.6,30.8c-0.2,0-0.4,0.2-0.4,0.5s0.2,0.5,0.4,0.5v0.2l-1,0v-0.2c0.2,0,0.4-0.2,0.4-0.5   s-0.2-0.5-0.4-0.5v-0.3l1,0V30.8z M43.5,31c0.2,0,0.3,0.2,0.3,0.4c0,0.2-0.1,0.4-0.3,0.4c-0.2,0-0.3-0.2-0.3-0.4   C43.2,31.1,43.3,31,43.5,31z M43.4,30.8c-0.2,0-0.4,0.2-0.4,0.5s0.2,0.5,0.4,0.5v0.2l-1.1,0v-0.3c0.2,0,0.4-0.2,0.4-0.5   s-0.2-0.5-0.4-0.5v-0.3l1.1,0V30.8z M42.2,31c0.2,0,0.3,0.2,0.3,0.4c0,0.2-0.1,0.4-0.3,0.4c-0.2,0-0.3-0.2-0.3-0.4   C41.9,31.1,42,31,42.2,31z M42.2,30.8c-0.2,0-0.4,0.2-0.4,0.5s0.2,0.5,0.4,0.5v0.3l-1,0v-0.3c0.2,0,0.4-0.2,0.4-0.5   s-0.2-0.5-0.4-0.5v-0.3l1,0V30.8z M41.1,31c0.2,0,0.3,0.2,0.3,0.4c0,0.2-0.1,0.4-0.3,0.4s-0.3-0.2-0.3-0.4   C40.8,31.1,40.9,31,41.1,31z M41,30.8c-0.2,0-0.4,0.2-0.4,0.5s0.2,0.5,0.4,0.5v0.3h-1v-0.3c0.2,0,0.4-0.2,0.4-0.5s-0.2-0.5-0.4-0.5   v-0.3l1,0V30.8z M39.9,31c0.2,0,0.3,0.2,0.3,0.4c0,0.2-0.1,0.4-0.3,0.4s-0.3-0.2-0.3-0.4C39.6,31.1,39.8,31,39.9,31z M41.6,32.3   v0.4H41v1.4h1.3v-1.4h-0.6v-0.4l16.4,0v0.4h-0.6v1.4H59v-1.4h-0.6v-0.4l1.5,0L60,35h-3.4v-2.3H43.4V35H40l0.1-2.7L41.6,32.3z    M42.1,33v1h-0.9v-1H42.1z M58.8,33v1h-0.9v-1H58.8z M52.5,46.9h-4.9V44c0.2-0.2,1.2-1.7,2.3-2.1c0.3,0.1,1.9,0.9,2.5,2.1V46.9z    M52.7,43.9c-0.8-1.4-2.6-2.2-2.7-2.2l0,0l0,0c-1.4,0.5-2.5,2.2-2.5,2.2l0,0v3h-0.6v-3.1c0.1-0.2,1.2-2,3.2-2.8   c0.3,0.2,2.3,1.2,3.3,2.8v3h-0.5L52.7,43.9L52.7,43.9z M53.5,43.7c-1.1-1.9-3.3-2.9-3.4-3l0,0l0,0c-2.3,0.9-3.4,2.9-3.4,3l0,3.1   h-0.4v-9.1h7.8v9.1h-0.4L53.5,43.7L53.5,43.7z M45.9,37.5v9.3h-1.5V36.3h11.2v10.5h-1.4v-9.3H45.9z M44.1,36.1v10.8h-0.5V35.3h12.7   v11.6h-0.5V36.1H44.1z M56.3,35h-0.6v-0.5c0.2,0,0.4-0.2,0.4-0.5s-0.2-0.5-0.4-0.5V33h0.6V35z M55.6,33.7c0.2,0,0.3,0.2,0.3,0.4   c0,0.2-0.1,0.4-0.3,0.4c-0.2,0-0.3-0.2-0.3-0.4C55.2,33.8,55.4,33.7,55.6,33.7z M55.5,33.5c-0.2,0-0.4,0.2-0.4,0.5s0.2,0.5,0.4,0.5   V35h-1v-0.5c0.2,0,0.4-0.2,0.4-0.5s-0.2-0.5-0.4-0.5V33h1V33.5z M54.4,33.7c0.2,0,0.3,0.2,0.3,0.4c0,0.2-0.1,0.4-0.3,0.4   c-0.2,0-0.3-0.2-0.3-0.4C54,33.8,54.2,33.7,54.4,33.7z M54.3,33.5c-0.2,0-0.4,0.2-0.4,0.5s0.2,0.5,0.4,0.5V35h-1v-0.5   c0.2,0,0.4-0.2,0.4-0.5s-0.2-0.5-0.4-0.5V33h1V33.5z M53.2,33.7c0.2,0,0.3,0.2,0.3,0.4c0,0.2-0.2,0.4-0.3,0.4s-0.3-0.2-0.3-0.4   C52.9,33.8,53,33.7,53.2,33.7z M53.1,33.5c-0.2,0-0.4,0.2-0.4,0.5s0.2,0.5,0.4,0.5V35h-1.1v-0.5c0.2,0,0.4-0.2,0.4-0.5   s-0.2-0.5-0.4-0.5V33h1.1V33.5z M52,33.7c0.2,0,0.3,0.2,0.3,0.4c0,0.2-0.1,0.4-0.3,0.4c-0.2,0-0.3-0.2-0.3-0.4   C51.7,33.8,51.8,33.7,52,33.7z M51.9,33.5c-0.2,0-0.4,0.2-0.4,0.5s0.2,0.5,0.4,0.5V35h-1.1v-0.5c0.2,0,0.4-0.2,0.4-0.5   s-0.2-0.5-0.4-0.5V33h1.1V33.5z M50.8,33.7c0.2,0,0.3,0.2,0.3,0.4c0,0.2-0.2,0.4-0.3,0.4s-0.3-0.2-0.3-0.4   C50.4,33.8,50.6,33.7,50.8,33.7z M50.7,33.5c-0.2,0-0.4,0.2-0.4,0.5s0.2,0.5,0.4,0.5V35h-1.4v-0.5c0.2,0,0.4-0.2,0.4-0.5   s-0.2-0.5-0.4-0.5V33h1.4V33.5z M49.2,33.7c0.2,0,0.3,0.2,0.3,0.4c0,0.2-0.1,0.4-0.3,0.4s-0.3-0.2-0.3-0.4   C48.9,33.8,49,33.7,49.2,33.7z M49.1,33.5c-0.2,0-0.4,0.2-0.4,0.5s0.2,0.5,0.4,0.5V35h-1.1v-0.5c0.2,0,0.4-0.2,0.4-0.5   s-0.2-0.5-0.4-0.5V33h1.1V33.5z M48,33.7c0.2,0,0.3,0.2,0.3,0.4c0,0.2-0.1,0.4-0.3,0.4c-0.2,0-0.3-0.2-0.3-0.4   C47.7,33.8,47.8,33.7,48,33.7z M47.9,33.5c-0.2,0-0.4,0.2-0.4,0.5s0.2,0.5,0.4,0.5V35h-1v-0.5c0.2,0,0.4-0.2,0.4-0.5   s-0.2-0.5-0.4-0.5V33h1V33.5z M46.8,33.7c0.2,0,0.3,0.2,0.3,0.4c0,0.2-0.1,0.4-0.3,0.4s-0.3-0.2-0.3-0.4   C46.5,33.8,46.6,33.7,46.8,33.7z M46.7,33.5c-0.2,0-0.4,0.2-0.4,0.5s0.2,0.5,0.4,0.5V35h-1.1v-0.5c0.2,0,0.4-0.2,0.4-0.5   s-0.2-0.5-0.4-0.5V33h1.1V33.5z M45.6,33.7c0.2,0,0.3,0.2,0.3,0.4c0,0.2-0.1,0.4-0.3,0.4c-0.2,0-0.3-0.2-0.3-0.4   C45.3,33.8,45.4,33.7,45.6,33.7z M45.5,33.5c-0.2,0-0.4,0.2-0.4,0.5s0.2,0.5,0.4,0.5V35h-1.1v-0.5c0.2,0,0.4-0.2,0.4-0.5   s-0.2-0.5-0.4-0.5V33h1.1V33.5z M44.3,33.7c0.2,0,0.3,0.2,0.3,0.4c0,0.2-0.1,0.4-0.3,0.4S44,34.2,44,34   C44,33.8,44.1,33.7,44.3,33.7z M44.2,33.5c-0.2,0-0.4,0.2-0.4,0.5s0.2,0.5,0.4,0.5V35h-0.6v-2h0.6V33.5z M56.5,35.3H60l0.3,11.6   h-3.8V35.3z M43.4,35.3v11.6h-3.8L40,35.3H43.4z M63.2,47.1v2.3c-0.4-0.1-0.5-0.5-0.6-1.1c0-0.5-0.1-1.1-0.6-1.1   c-0.6,0-0.7,0.7-0.7,1.3c0,0.5-0.1,0.9-0.3,0.9c-0.2,0-0.2-0.3-0.3-0.8c0-0.6-0.1-1.4-0.8-1.4c-0.2,0-0.3,0.1-0.4,0.2   c-0.2,0.2-0.2,0.7-0.2,1.1c0,0.4,0,0.7-0.1,0.9c0,0-0.1,0.1-0.2,0.1c-0.3,0-0.3-0.4-0.3-1c0-0.6,0-1.3-0.6-1.3   c-0.2,0-0.3,0-0.4,0.1c-0.2,0.2-0.2,0.6-0.2,1.1c0,0.4,0,0.8-0.1,0.9c-0.1,0.1-0.3,0.1-0.4,0c-0.1-0.1-0.1-0.5-0.1-0.8   c0-0.4,0-0.9-0.2-1.1c-0.1-0.1-0.3-0.2-0.5-0.2s-0.4,0.1-0.5,0.2c-0.2,0.2-0.2,0.7-0.2,1.1c0,0.3,0,0.7-0.1,0.8   c-0.1,0.1-0.4,0.1-0.5,0c-0.1-0.2-0.1-0.5-0.1-0.9c0-0.4,0-0.9-0.2-1.1c-0.1-0.1-0.2-0.2-0.4-0.2c-0.3,0-0.5,0.1-0.6,0.4   c-0.1,0.2-0.1,0.5-0.1,0.8c0,0.3,0,0.5-0.1,0.7c-0.1,0.2-0.2,0.3-0.3,0.3c-0.1,0-0.2,0-0.2-0.1c-0.1-0.1-0.1-0.5-0.1-0.9   c0-0.4,0-0.9-0.2-1.1c-0.1-0.1-0.3-0.2-0.5-0.2c-0.2,0-0.4,0.1-0.5,0.2c-0.2,0.2-0.2,0.6-0.2,1c0,0.3,0.1,0.7-0.1,0.8   c-0.1,0.1-0.1,0.1-0.3,0.1c-0.1,0-0.2,0-0.3-0.1c-0.1-0.1-0.1-0.5-0.1-0.8c0-0.4,0.1-0.8-0.2-1c-0.1-0.1-0.3-0.2-0.5-0.2   c-0.2,0-0.4,0.1-0.5,0.2c-0.2,0.2-0.2,0.7-0.2,1.1c0,0.3,0,0.7-0.1,0.8c-0.1,0.1-0.3,0.1-0.4,0c-0.1-0.1-0.1-0.5-0.1-0.8   c0-0.4,0-0.8-0.2-1.1c-0.1-0.1-0.3-0.2-0.4-0.2c-0.7,0-0.7,0.7-0.7,1.2c0,0.6,0,0.8-0.3,0.8c-0.1,0-0.1,0-0.2-0.1   c-0.1-0.1-0.1-0.5-0.1-0.8c0-0.4,0-0.8-0.2-1.1c-0.1-0.1-0.3-0.2-0.5-0.2c-0.7,0-0.7,0.7-0.7,1.2c0,0.6,0,0.9-0.3,0.9   c-0.1,0-0.2,0-0.2-0.1c-0.1-0.1-0.1-0.5-0.1-0.8c0-0.4,0-0.8-0.2-1.1c-0.1-0.1-0.2-0.2-0.4-0.2c-0.7,0-0.7,0.7-0.7,1.3   c0,0.5-0.1,0.8-0.3,0.8c-0.2,0-0.2-0.3-0.3-0.8c0-0.6,0-1.3-0.7-1.3c-0.7,0-0.7,0.7-0.7,1.3c0,0.6,0,0.9-0.3,0.9   c-0.1,0-0.1,0-0.2-0.1c-0.1-0.1-0.1-0.5-0.1-0.8c0-0.4,0-0.9-0.2-1.1c-0.1-0.1-0.3-0.2-0.4-0.2c-0.7,0-0.7,0.7-0.8,1.3   c0,0.3,0,0.6-0.2,0.7c0,0-0.1,0-0.1,0c-0.3-0.1-0.3-0.4-0.4-0.9c0-0.4,0-0.8-0.3-1c-0.1-0.1-0.3-0.1-0.4-0.1   c-0.6,0.1-0.6,0.8-0.6,1.3c0,0.3,0,0.6-0.1,0.7c0,0-0.1,0-0.1,0c-0.5-0.1-0.6-0.9-0.6-1.2v-0.9H63.2z M63.5,43.4   c0.4-0.3,3.3-2.3,6.4-0.2c0,0.1,0.1,0.3,0.1,0.7c-0.8-0.4-3.6-1.4-6.6,0.9V43.4z M70.2,43.1L70.2,43.1L70.2,43.1   C70.1,43,70.1,43,70.1,43v-1.5l3.3,1.4v1.4l-1.6-1.4l0,0l-1.6,0.4C70.2,43.2,70.2,43.1,70.2,43.1z M83.7,60.5l-11-2.8   c0-0.2-0.1-0.4-0.1-0.6l11,3L83.7,60.5z M27.8,56.1c0.8-0.4,4.1-1.9,8.7,0.7v0.5c-4.6-2.5-7.9-1.1-8.8-0.6   C27.8,56.5,27.8,56.3,27.8,56.1z M29.6,46.1c0.4-0.2,3.7-1.7,6.9,0.9v0.7c0,0,0,0.1,0,0.3v0.4c0,0.1-0.1,0.2-0.2,0.2   c-0.2,0-0.3-0.5-0.3-0.8l0-0.1c0-0.4,0-0.7-0.2-0.9c-0.1-0.1-0.2-0.1-0.3-0.1c-0.5,0-0.6,0.3-0.7,0.7c0,0.1-0.1,0.2-0.1,0.2   c-0.1,0-0.2,0-0.3-0.1c-0.1-0.2-0.1-0.4-0.1-0.7c0-0.4,0-0.9-0.5-0.9c-0.7,0-0.7,0.5-0.7,0.8c0,0.4,0,0.5-0.3,0.5   c-0.1,0-0.2,0-0.2-0.1c-0.1-0.1-0.1-0.3-0.1-0.5c0-0.3,0-0.6-0.2-0.8c-0.1-0.1-0.3-0.2-0.4-0.2c-0.6,0-0.7,0.5-0.8,1   c-0.1,0.5-0.1,0.7-0.4,0.7c-0.3,0-0.3-0.1-0.3-0.4c0-0.3,0-0.6-0.4-0.7c-0.1,0-0.3,0-0.4,0.1C29.6,46.2,29.6,46.2,29.6,46.1z    M37.8,48.6c0-0.6,0-1,0.4-1.1c0.1,0,0.2,0,0.2,0.1c0.2,0.1,0.2,0.5,0.2,0.8c0,0.5,0.1,1,0.5,1.1h-1.6c0,0,0.1,0,0.1,0   C37.9,49.3,37.9,48.9,37.8,48.6z M40.9,49.5C40.9,49.5,40.9,49.5,40.9,49.5l-1.4,0c0,0,0.1,0,0.1,0c0.2-0.2,0.2-0.5,0.3-0.9   c0-0.6,0.1-1.1,0.5-1.1c0.1,0,0.2,0,0.3,0.1c0.2,0.2,0.1,0.6,0.1,0.9C40.7,48.9,40.7,49.3,40.9,49.5z M44.8,49.3   c0.1,0.1,0.2,0.1,0.4,0.1c0.6,0,0.6-0.6,0.6-1.1c0-0.6,0-1,0.5-1c0.1,0,0.2,0,0.3,0.1c0.2,0.2,0.2,0.5,0.1,0.9c0,0.4,0,0.8,0.2,1   c0.1,0.1,0.2,0.1,0.3,0.1c0.6,0,0.6-0.6,0.6-1.1c0-0.6,0-1,0.5-1c0.1,0,0.2,0,0.3,0.1c0.1,0.2,0.1,0.5,0.1,0.9c0,0.4,0,0.8,0.2,1   c0.1,0.1,0.1,0.1,0.2,0.1h-7.4c0.2-0.2,0.2-0.6,0.3-1.1c0-0.6,0.1-1,0.4-1c0.4,0,0.4,0.4,0.5,1c0,0.5,0,1.1,0.5,1.1   c0.5,0,0.5-0.6,0.5-1.1c0-0.6,0.1-1,0.5-1c0.1,0,0.2,0,0.2,0.1c0.1,0.2,0.1,0.5,0.1,0.9C44.6,48.7,44.6,49.1,44.8,49.3z M49.7,48.4   c0-0.4,0-0.7,0.1-0.9c0.1-0.1,0.2-0.1,0.3-0.1c0.1,0,0.2,0,0.3,0.1c0.1,0.2,0.1,0.5,0.1,0.8c0,0.4-0.1,0.8,0.1,1   c0.1,0.1,0.2,0.1,0.4,0.2h-1.8c0.1,0,0.2-0.1,0.2-0.1C49.7,49.2,49.7,48.8,49.7,48.4z M51.7,48.3c0-0.3-0.1-0.7,0.1-0.8   c0.1-0.1,0.2-0.1,0.3-0.1c0.1,0,0.2,0,0.3,0.1c0.2,0.2,0.2,0.6,0.1,0.9c0,0.4,0,0.8,0.2,1c0,0,0,0,0.1,0h-1.6   c0.2,0,0.3-0.1,0.4-0.2C51.8,49.1,51.8,48.7,51.7,48.3z M54.7,49.4C54.7,49.5,54.7,49.5,54.7,49.4l-1.2,0c0.1-0.1,0.2-0.2,0.2-0.3   c0.1-0.2,0.1-0.5,0.1-0.8c0-0.3,0-0.5,0.1-0.7c0.1-0.2,0.2-0.3,0.3-0.3c0.1,0,0.2,0,0.2,0.1c0.1,0.2,0.1,0.5,0.1,0.9   C54.5,48.8,54.5,49.2,54.7,49.4z M55.7,48.4c0-0.4,0-0.8,0.1-0.9c0.1-0.1,0.2-0.1,0.3-0.1c0.1,0,0.2,0,0.3,0.1   c0.2,0.2,0.1,0.6,0.1,0.9c0,0.4,0,0.8,0.2,1c0,0,0,0,0.1,0h-1.3c0,0,0,0,0.1,0C55.7,49.2,55.7,48.8,55.7,48.4z M57.7,48.4   c0-0.4,0-0.7,0.1-0.9c0,0,0.1-0.1,0.2-0.1c0.3,0,0.4,0.4,0.4,1c0,0.4,0,0.9,0.3,1.1h-1.2c0,0,0,0,0.1,0   C57.7,49.2,57.7,48.8,57.7,48.4z M70.4,46c0,0,0,0.1,0,0.1c-0.1-0.1-0.2-0.1-0.4-0.1c-0.4,0.1-0.4,0.5-0.4,0.7c0,0.3,0,0.4-0.3,0.4   c-0.2,0-0.3-0.2-0.4-0.7c-0.1-0.4-0.2-1-0.8-1c-0.2,0-0.3,0.1-0.4,0.2c-0.2,0.2-0.2,0.5-0.2,0.8c0,0.2,0,0.4-0.1,0.5   c0,0-0.1,0.1-0.2,0.1c-0.3,0-0.3-0.1-0.3-0.5c0-0.3,0-0.8-0.7-0.8c-0.5,0-0.5,0.5-0.5,0.9c0,0.2,0,0.5-0.1,0.7   c-0.1,0-0.2,0.1-0.3,0.1c0,0-0.1,0-0.1-0.2c-0.1-0.4-0.1-0.7-0.7-0.7c-0.1,0-0.3,0-0.3,0.1C64,46.9,64,47.3,64,47.6l0,0.1   c0,0.3-0.2,0.8-0.3,0.8c-0.1,0-0.2-0.1-0.2-0.2V47C66.7,44.3,70,45.8,70.4,46z M72.2,56.6c-0.9-0.5-4.2-1.9-8.8,0.6v-0.5   c4.6-2.6,7.9-1.1,8.7-0.7C72.2,56.2,72.2,56.4,72.2,56.6z M63.2,56.4H36.8v-0.7h26.5V56.4z M63.2,55.4H36.8v-3.9h26.5V55.4z    M63.2,51.2H36.8v-1.5h26.5V51.2z M63.5,48.7c0.1,0.1,0.2,0.1,0.3,0.1c0.3-0.1,0.5-0.7,0.5-1l0-0.1c0-0.3,0-0.6,0.1-0.7   c0,0,0.1-0.1,0.2-0.1c0.3,0,0.3,0.1,0.4,0.5c0,0.3,0.2,0.3,0.3,0.4c0.2,0.1,0.4,0,0.5-0.1l0,0c0.1-0.2,0.1-0.5,0.1-0.8   c0-0.5,0.1-0.6,0.3-0.6c0.5,0,0.5,0.2,0.5,0.6c0,0.3,0,0.7,0.5,0.7c0.2,0,0.3,0,0.4-0.1c0.2-0.2,0.2-0.5,0.2-0.7   c0-0.2,0-0.5,0.1-0.6c0.1-0.1,0.1-0.1,0.3-0.1c0.4,0,0.4,0.3,0.5,0.8c0.1,0.4,0.1,0.9,0.6,0.9c0.5,0,0.6-0.4,0.6-0.7   c0-0.3,0-0.4,0.2-0.5c0.1,0,0.2,0,0.2,0c0.1,0.1,0.1,0.2,0.2,0.3c0.1,0.5,0.2,1,0.3,1.6c-0.8-0.4-3.5-1.5-7.3,1V48.7z M61.4,49.5   c0.2-0.2,0.2-0.6,0.2-1c0-0.7,0.1-1.1,0.5-1.1c0.3,0,0.3,0.3,0.4,0.9c0,0.4,0.1,1,0.4,1.2H61.4z M59.4,49.5   C59.4,49.5,59.4,49.5,59.4,49.5c0.3-0.2,0.3-0.6,0.2-1.1c0-0.4,0-0.8,0.2-0.9c0.1-0.1,0.1-0.1,0.3-0.1c0.4,0,0.5,0.5,0.5,1.1   c0,0.4,0.1,0.8,0.2,1H59.4z M36.8,49.5V49c0.1,0.2,0.3,0.4,0.5,0.5H36.8z M29.6,46.5c0.1-0.1,0.1-0.1,0.2,0   c0.2,0.1,0.2,0.2,0.2,0.5c0,0.3,0,0.7,0.6,0.7c0.5,0,0.6-0.5,0.6-0.9c0.1-0.5,0.1-0.8,0.5-0.8c0.1,0,0.2,0,0.3,0.1   c0.1,0.1,0.1,0.4,0.1,0.6c0,0.3,0,0.6,0.2,0.7c0.1,0.1,0.2,0.1,0.4,0.1c0.5,0,0.5-0.4,0.5-0.7c0-0.4,0-0.6,0.5-0.6   c0.2,0,0.3,0.1,0.3,0.6c0,0.3,0,0.6,0.1,0.8l0,0c0.1,0.1,0.3,0.2,0.5,0.1c0.1,0,0.3-0.1,0.3-0.4c0.1-0.4,0.1-0.5,0.4-0.5   c0.1,0,0.1,0,0.2,0.1c0.1,0.1,0.1,0.4,0.1,0.7l0,0.1c0,0.4,0.2,1,0.5,1c0.1,0,0.2,0,0.3-0.1v0.6c-3.8-2.5-6.5-1.4-7.3-1   c0.1-0.6,0.2-1.1,0.3-1.6C29.5,46.7,29.6,46.6,29.6,46.5z M36.8,56.6h26.5v0.6H36.8V56.6z M63.5,74.3c4.3-2.6,10.8-1.3,11.5-1.1   c0.4,2.3,0.7,4.6,1,6.7c-1.3-0.2-8.9-1.1-12.6,0.7V74.3z M63.5,74v-2.7c4.3-2.6,10.3-1.3,11-1.1c0.1,0.9,0.3,1.8,0.4,2.7   C73.9,72.7,67.7,71.5,63.5,74z M63.5,71v-3c4.4-3.1,9.9-1.3,10.5-1c0.2,1,0.3,2,0.5,3C73.4,69.7,67.7,68.5,63.5,71z M63.5,67.7   v-5.9c3.4-3.2,8.8-1.4,9.4-1.2c0.3,2,0.7,4,1,6.1C72.9,66.3,67.8,64.9,63.5,67.7z M63.5,61.5v-2.5c5.5-3.2,8.7-0.8,9.1-0.6   c0.1,0.6,0.2,1.3,0.3,1.9C71.8,60,66.8,58.5,63.5,61.5z M63.5,58.6v-1.1c4.9-2.8,8.4-0.9,8.8-0.6c0.1,0.4,0.1,0.7,0.2,1.1   C71.6,57.4,68.5,55.8,63.5,58.6z M72.5,56.9c0-0.2-0.1-0.5-0.1-0.7l11.1,3.2l0,0.5L72.5,56.9z M63.5,56.4v-0.7   c4.7-2.8,8.1-0.9,8.5-0.6c0,0.2,0.1,0.4,0.1,0.5C71,55.2,67.8,54,63.5,56.4z M63.5,55.5v-4.4c4-2.9,7.3-1.1,7.7-0.9   c0.2,1.4,0.5,2.9,0.8,4.6C71.1,54.4,67.9,53,63.5,55.5z M63.5,50.8v-1.3c4.2-2.8,7-1.2,7.4-1c0.1,0.4,0.2,0.9,0.2,1.3   C70.3,49.5,67.2,48.3,63.5,50.8z M63.5,45c3.2-2.5,6.2-1.1,6.6-0.9c0,0.2,0.1,0.4,0.1,0.6c-0.8-0.4-3.8-1.3-6.7,0.9V45z M63.5,46   c3.2-2.5,6.3-1.1,6.8-0.9c0,0.2,0.1,0.4,0.1,0.7c-0.8-0.4-3.9-1.5-6.9,0.9V46z M29.9,44.2c0.4-0.2,3.4-1.6,6.6,0.9v0.7   c-3-2.3-5.9-1.3-6.7-0.9C29.8,44.6,29.9,44.4,29.9,44.2z M29.8,45.2c0.4-0.2,3.6-1.6,6.8,0.9v0.6c-3-2.4-6.1-1.3-6.9-0.9   C29.7,45.6,29.7,45.4,29.8,45.2z M29.1,48.7c0.4-0.2,3.2-1.9,7.4,1v1.3c-3.7-2.6-6.8-1.3-7.6-0.9C29,49.6,29.1,49.2,29.1,48.7z    M28.8,50.4c0.4-0.3,3.7-2,7.7,0.9v4.3c-4.4-2.5-7.6-1.1-8.5-0.6C28.3,53.3,28.6,51.8,28.8,50.4z M28,55.3c0.4-0.3,3.8-2.2,8.5,0.6   v0.7c-4.3-2.4-7.5-1.2-8.6-0.7C27.9,55.6,28,55.5,28,55.3z M27.6,56.3c0,0.2-0.1,0.5-0.1,0.7l-11.1,3l0-0.5L27.6,56.3z M27.7,57   c0.4-0.3,3.9-2.2,8.8,0.6v1.1c-5-2.8-8.1-1.2-9-0.6C27.6,57.7,27.6,57.4,27.7,57z M36.8,57.5h26.5v1.2H36.8V57.5z M59.9,68.2h3.3   v2.9h-3.3V68.2z M59.9,71.3h3.3v2.9h-3.3V71.3z M59.9,74.5h3.3v6.2h-3.3V74.5z M59.9,80.9h3.3v0.9h-3.3V80.9z M59.9,82.1h3.3v5   h-3.3V82.1z M63.5,80.9c3.7-1.9,11.7-0.9,12.6-0.8c0,0.3,0.1,0.6,0.1,0.9c-1.3-0.2-8.8-1.2-12.8,0.8V80.9z M76.4,80.7   c-0.3-1.8-0.6-3.8-0.9-5.8l9.5,0.9l0.4,4.9H76.4z M75.5,74.6c-0.2-1.1-0.4-2.2-0.5-3.4l9.8,1.2l0.3,3.1L75.5,74.6z M74.9,71   c-0.1-0.7-0.2-1.4-0.3-2l10,1.6l0.1,1.7L74.9,71z M74.5,68.7c-0.3-1.9-0.6-3.7-0.9-5.6l10.5,2l0.4,5.1L74.5,68.7z M73.6,62.8   c-0.2-1.1-0.4-2.2-0.6-3.3l10.8,2.6l0.2,2.7L73.6,62.8z M72.9,59.2c-0.1-0.4-0.1-0.8-0.2-1.2l11,2.8l0.1,1.1L72.9,59.2z M71.7,51.9   c-0.1-0.5-0.2-1-0.3-1.5L83.1,54l0.1,1.4L71.7,51.9z M70.9,47.4C70.9,47.3,70.9,47.3,70.9,47.4c0-0.1,0-0.4-0.1-0.7   c0-0.3-0.1-0.5-0.1-0.8c0.4-0.9,0.9-1.2,1.1-1.2c1.5,1.3,1.5,3.2,1.5,3.7l-2.3-0.8L70.9,47.4z M71.8,44.4L71.8,44.4L71.8,44.4   c-0.1,0-0.7,0.2-1.2,1.1c0-0.2-0.1-0.3-0.1-0.5c0.4-0.6,1-0.9,1.2-1c1.9,1.4,2,3.9,2,4.4l-0.3-0.1C73.4,47.7,73.3,45.6,71.8,44.4z    M73.9,48.6c0-0.7-0.2-3.4-2.1-4.7l0,0l0,0c0,0-0.8,0.2-1.3,0.9c-0.1-0.6-0.2-1.1-0.2-1.4l1.5-0.3l1.8,1.6v-1.9l-3.6-1.5   c-0.1-0.3-0.2-0.6-0.5-0.8c0,0,0,0,0,0v-0.5l4.3,1.7l0.5,7.2L73.9,48.6z M69.8,42.8c-2.8-1.7-5.4-0.3-6.2,0.2   c0-0.2-0.1-0.5-0.1-0.9c2.7-1.9,5.8-0.7,6.3-0.5C69.8,42.2,69.8,42.6,69.8,42.8z M63.3,43.2C63.3,43.2,63.3,43.3,63.3,43.2   l-0.1,0.1v3.6h-2.7l-0.3-11.6h3.1l0.3,5.3C63,41.6,63.3,42.9,63.3,43.2z M60.2,35l-0.1-2.7l3,0l0.1,2.7H60.2z M61,29.7l0-0.7   c0,0,0.1-0.5,0.7-0.5v0c0.7,0,0.7,0.5,0.7,0.5v0.7L61,29.7z M59.8,28.9v0.7l-1.5,0v-0.7c0,0,0.1-0.5,0.7-0.5v0   C59.8,28.4,59.8,28.9,59.8,28.9z M57.2,28.9v0.7l-1.5,0v-0.7c0,0,0.1-0.5,0.7-0.5v0C57.2,28.4,57.2,28.9,57.2,28.9z M54.6,28.9v0.7   l-1.5,0v-0.7c0,0,0.1-0.5,0.7-0.5v0C54.6,28.4,54.6,28.9,54.6,28.9z M52,28.9v0.7l-1.5,0v-0.7c0,0,0.1-0.5,0.7-0.5v0   C51.9,28.4,52,28.9,52,28.9z M48,29.7l0-0.7c0,0,0.1-0.5,0.7-0.5v0c0.7,0,0.7,0.5,0.7,0.5v0.7L48,29.7z M45.3,29.7l0-0.7   c0,0,0.1-0.5,0.7-0.5v0c0.7,0,0.7,0.5,0.7,0.5v0.7L45.3,29.7z M42.7,29.7l0-0.7c0,0,0.1-0.5,0.7-0.5v0c0.7,0,0.7,0.5,0.7,0.5v0.7   L42.7,29.7z M40.1,29.7l0-0.7c0,0,0.1-0.5,0.7-0.5v0c0.7,0,0.7,0.5,0.7,0.5v0.7L40.1,29.7z M37.5,29.7l0-0.7c0,0,0.1-0.5,0.7-0.5v0   c0.7,0,0.7,0.5,0.7,0.5v0.7L37.5,29.7z M36.9,29.9l26.1,0l0,0.4l-26.1,0L36.9,29.9z M36.9,30.5l0.6,0v0.3c-0.2,0-0.4,0.2-0.4,0.5   s0.2,0.5,0.4,0.5v0.3l-0.6,0L36.9,30.5z M36.8,32.3l3.1,0L39.8,35h-3.1L36.8,32.3z M36.6,35.3h3.1l-0.3,11.6h-2.6v-3.5l0,0   c0,0,0,0-0.1-0.1c0.1-0.3,0.4-1.7-0.3-2.7L36.6,35.3z M36.4,43.1c-0.8-0.6-3.4-1.9-6.2-0.2c0-0.2-0.1-0.6,0-1.1   c0.5-0.2,3.6-1.4,6.3,0.5C36.5,42.7,36.5,43,36.4,43.1z M28.2,44c0.2,0.1,0.9,0.4,1.3,1c0,0.2-0.1,0.4-0.1,0.6   c-0.5-1-1.2-1.3-1.2-1.3l-0.1,0l0,0c-1.6,1.3-1.6,3.6-1.6,4.1l-0.3,0.1C26.2,48,26.4,45.4,28.2,44z M26.7,48.4c0-0.6,0-2.7,1.5-3.9   c0.2,0.1,0.7,0.4,1.2,1.4c0,0.2-0.1,0.5-0.1,0.7c-0.1,0.3-0.1,0.7-0.1,0.7l0,0.2L26.7,48.4z M16.9,54.1l11.7-3.6   c-0.1,0.5-0.2,1-0.3,1.5l-11.5,3.5L16.9,54.1z M16.3,60.8l11-2.8c-0.1,0.4-0.1,0.8-0.2,1.2l-10.8,2.6L16.3,60.8z M16.2,62.2   L27,59.6c-0.2,1.1-0.4,2.2-0.6,3.3l-10.5,2L16.2,62.2z M15.9,65.2l10.5-2c-0.3,1.8-0.6,3.7-0.9,5.6l-10,1.6L15.9,65.2z M15.5,70.6   l10-1.6c-0.1,0.7-0.2,1.4-0.3,2l-9.8,1.2L15.5,70.6z M15.3,72.5l9.8-1.2c-0.2,1.1-0.4,2.3-0.5,3.4L15,75.6L15.3,72.5z M15,75.9   l9.5-0.9c-0.3,2-0.6,4-0.9,5.8l-9,0L15,75.9z M14.6,81h9c-0.1,0.4-0.1,0.8-0.2,1.2l-8.9-0.1L14.6,81z M23.7,81.4   c0.9-0.1,8.9-1.2,12.8,0.8v4.8c-3.3-1-12.2-0.7-13.5-0.7C23.2,84.9,23.5,83.2,23.7,81.4z M40.1,87.1h-3.3v-5h3.3V87.1z M40.1,81.8   h-3.3v-0.9h3.3V81.8z M40.1,80.7h-3.3v-6.2h3.3V80.7z M40.1,74.2h-3.3v-2.9h3.3V74.2z M40.1,71.1h-3.3v-2.9h3.3V71.1z M40.1,68   h-3.3v-6h3.3V68z M59.9,87.4h3.3v3.4h-3.3V87.4z M63.5,82.2c3.9-2.1,11.9-1,12.8-0.8c0.3,1.8,0.5,3.5,0.7,5   c-1.3-0.1-10.2-0.4-13.5,0.7V82.2z M94.3,89c-0.8,0-4.7-0.1-7.9,0.8l-0.3-3c3.6-0.7,7.2-0.5,7.8-0.4C94.1,87.2,94.2,88.1,94.3,89z    M86.2,86.4l-0.4-4.2c2.8-0.6,6.8-0.4,7.5-0.3c0.3,1.5,0.5,2.8,0.6,4.1C93.2,85.9,89.7,85.7,86.2,86.4z M85.8,82l-0.1-1.1   c2.8-0.6,6.8-0.4,7.4-0.3c0.1,0.3,0.1,0.7,0.2,1C92.4,81.6,88.5,81.4,85.8,82z M85.7,80.7l-0.4-4.9c3.3-0.4,6.3-0.2,6.9-0.2   c0.3,1.6,0.6,3.2,0.9,4.7C92.2,80.3,88.4,80.1,85.7,80.7z M85.2,75.5L85,72.4c2.8-0.5,5.9-0.2,6.5-0.1c0.2,1,0.4,2.1,0.6,3.1   C91.4,75.3,88.4,75.1,85.2,75.5z M84.9,72.2l-0.1-1.7c2.7-0.9,5.7-0.4,6.2-0.3c0.1,0.6,0.3,1.2,0.4,1.8   C90.6,72,87.6,71.7,84.9,72.2z M84.8,70.2l-0.4-5.1c2.4-0.8,5-0.5,5.5-0.4c0.4,1.7,0.8,3.5,1.2,5.2C90.2,69.8,87.4,69.4,84.8,70.2z    M84.3,64.8l-0.2-2.7c2.4-0.6,4.6-0.4,5.1-0.3c0.2,0.9,0.4,1.7,0.6,2.6C89.1,64.3,86.6,64.1,84.3,64.8z M84,61.9l-0.1-1.1   c2.3-0.7,4.5-0.3,4.9-0.2c0.1,0.3,0.2,0.7,0.2,1C88.5,61.5,86.4,61.3,84,61.9z M83.9,60.5l0-0.4c2-0.6,4.3-0.4,4.8-0.3   c0,0.2,0.1,0.3,0.1,0.5C88.2,60.2,86.1,59.9,83.9,60.5z M83.9,59.8l0-0.5c1.7-0.7,4.2-0.5,4.6-0.4c0,0.2,0.1,0.4,0.1,0.6   C88,59.5,85.8,59.3,83.9,59.8z M83.8,59.1l-0.3-3.4c2-0.6,3.8-0.3,4.1-0.3c0.2,1,0.5,2.1,0.8,3.3C87.8,58.6,85.5,58.4,83.8,59.1z    M83.5,55.4L83.4,54c2.1-0.4,3.5-0.3,3.9-0.3c0.1,0.5,0.2,0.9,0.3,1.5C87.1,55.1,85.4,54.9,83.5,55.4z M87.2,53.4   c-0.5,0-1.8-0.1-3.8,0.3l0-0.3c0.1,0.1,0.2,0.1,0.2,0.1c0,0,0,0,0.1,0c0.2-0.1,0.3-0.4,0.3-0.8c-0.1-0.3,0-0.4,0-0.5   c0,0,0.1,0,0.1,0l0,0c0.1,0,0.1,0,0.1,0c0,0,0,0.1,0.1,0.3c0,0.3,0.2,0.6,0.4,0.7c0.1,0.1,0.2,0.1,0.3,0c0,0,0,0,0,0   c0.2,0,0.1-0.1,0.1-0.3c0-0.1,0-0.2,0-0.5c0-0.2,0-0.3,0.1-0.3c0,0,0.1,0,0.1,0c0.1,0.1,0.2,0.2,0.2,0.4c0,0.3,0.1,0.5,0.3,0.6   c0.1,0.1,0.2,0.1,0.3,0c0.2-0.1,0.1-0.3,0.1-0.8l0-0.1c0-0.1,0-0.2,0.1-0.2c0.1,0,0.1,0,0.2,0c0.1,0,0.2,0.2,0.2,0.3   c0.1,0.6,0.4,0.8,0.5,0.8C87.1,53.3,87.2,53.4,87.2,53.4z M82.9,52.1L82.9,52.1C82.9,52.1,82.9,52.1,82.9,52.1L82.9,52.1z    M74.5,48.8l-0.5-7.4l-4.7-1.9v0.7c-0.3-0.3-0.6-0.5-1-0.6v-1.8l6.5,2.5l0.6,8.8L74.5,48.8z M69.2,40.5L69.2,40.5   c0.2,0.3,0.4,0.6,0.5,0.9c-0.8-0.3-3.7-1.2-6.2,0.5c0-0.5,0.1-1,0.5-1.4c0.5-0.7,1.4-1,2.6-1C67.8,39.5,68.7,39.9,69.2,40.5z    M67.7,39.4c-0.4-0.1-0.8-0.1-1.2-0.1c-0.5,0-0.9,0.1-1.2,0.2v-0.3c0.1,0,0.3-0.1,0.4-0.2c0.2-0.1,0.2-0.4,0.2-0.7   c0-0.8,0.2-0.9,0.5-0.9c0.4,0,0.6,0.5,0.6,0.9c0,0.4,0.4,0.7,0.7,0.7V39.4z M66.4,37.1c-0.2,0-0.3-0.1-0.3-0.3s0.1-0.3,0.3-0.3   s0.3,0.1,0.3,0.3S66.5,37.1,66.4,37.1z M66,37.2c-0.3,0.2-0.4,0.6-0.4,1.1c0,0.2-0.1,0.4-0.2,0.5c-0.1,0.1-0.3,0.1-0.3,0.1l-0.1,0   v0.6c-0.5,0.2-0.9,0.4-1.2,0.8l-0.3-5l2.6,1c-0.1,0.1-0.2,0.3-0.2,0.4C65.8,36.9,65.9,37.1,66,37.2z M66.7,36.4   c-0.1,0-0.1-0.1-0.2-0.1v-0.7h-0.3v0.7l-2.7-1.1l-0.2-2.7l2.9,1.2V34l-0.5-0.2v1.1l1.1,0.5v-1.1l-0.5-0.2v-0.4l11.9,5.1l0.2,2.1   L66.7,36.4z M66.7,34.4v0.7L66,34.8v-0.7L66.7,34.4z M77.6,38.3v-0.3c0.1,0,0.3-0.2,0.3-0.4c0-0.2-0.1-0.4-0.3-0.4v-0.3l0.6,0.2   l0.1,1.5L77.6,38.3z M73.3,34.7L73.3,34.7L73.3,34.7l-10-4.3l0-0.5l15,6.4l0,0.5L73.3,34.7z M64.4,30.2l-0.8-0.3V29   c0.1-0.1,0.2-0.2,0.3-0.1c0.2,0,0.4,0.4,0.5,0.5V30.2z M65.9,30.8l-0.7-0.3v-0.7c0.1-0.1,0.2-0.1,0.3-0.1c0.2,0,0.4,0.3,0.4,0.5   V30.8z M67.5,31.5l-0.7-0.3v-0.7c0.1-0.1,0.2-0.1,0.3-0.1c0.2,0,0.3,0.3,0.4,0.4V31.5z M69,32.2l-0.7-0.3v-0.7   c0.1-0.1,0.2-0.1,0.3-0.1c0.2,0,0.3,0.3,0.4,0.4V32.2z M70.5,32.8l-0.7-0.3v-0.7c0.1-0.1,0.2-0.1,0.3-0.1c0.2,0,0.3,0.3,0.4,0.4   V32.8z M72,33.4l-0.7-0.3v-0.7c0.1-0.1,0.2-0.1,0.3-0.1c0.2,0,0.3,0.3,0.4,0.4V33.4z M73.5,34.1l-0.7-0.3v-0.7   c0.1-0.1,0.2-0.1,0.3-0.1c0.2,0,0.3,0.3,0.4,0.4V34.1z M74.8,34.7l-0.7-0.3v-0.7c0.1-0.1,0.2-0.1,0.3-0.1c0.2,0,0.3,0.3,0.4,0.4   V34.7z M76.3,35.3L75.6,35v-0.7c0.1-0.1,0.2-0.1,0.3-0.1c0.2,0,0.3,0.3,0.4,0.4V35.3z M77.6,35.8L77,35.6v-0.7   c0.1-0.1,0.2-0.1,0.3-0.1c0.2,0,0.3,0.3,0.4,0.4V35.8z M21.7,37l0.6-0.2v0.3c-0.1,0-0.3,0.2-0.3,0.4s0.1,0.4,0.3,0.4v0.3l-0.7,0.3   L21.7,37z M21.6,38.8l11.9-5.1v0.4L33,34.2v1.1l1.1-0.5v-1.1L33.7,34v-0.4l2.9-1.2l-0.1,2.7l-2.7,1v-0.5h-0.3v0.6l-12.1,4.7   L21.6,38.8z M34,34.1v0.7l-0.7,0.3v-0.7L34,34.1z M33.6,36.6c0.2,0,0.3,0.1,0.3,0.3c0,0.2-0.1,0.3-0.3,0.3c-0.2,0-0.3-0.1-0.3-0.3   C33.4,36.7,33.5,36.6,33.6,36.6z M33.6,37.4c0.3,0,0.5,0.1,0.5,0.9c0,0.3,0.1,0.5,0.2,0.7c0.1,0.1,0.3,0.2,0.4,0.2v0.3   c-0.4-0.1-0.8-0.2-1.2-0.2c-0.4,0-0.8,0.1-1.2,0.1v-0.4c0.3-0.1,0.7-0.3,0.7-0.7C33,37.9,33.2,37.4,33.6,37.4z M33.5,39.6   c1.2,0,2.1,0.3,2.6,1c0.3,0.4,0.4,0.9,0.5,1.4c-2.5-1.7-5.4-0.8-6.2-0.5c0.1-0.3,0.2-0.5,0.4-0.7h0v0c0,0,0,0,0-0.1   C31.3,39.9,32.2,39.6,33.5,39.6z M31.7,39.7c-0.4,0.2-0.7,0.4-1,0.7v-0.8L26,41.3l-0.5,7.6l-0.9,0.3l0.6-9l6.5-2.5V39.7z M29,47.9   l-0.1,0.5c-0.3,0.1-0.3,0.5-0.4,0.8c-0.1,0.4-0.1,0.6-0.3,0.6c-0.1,0-0.1,0-0.1,0c-0.1,0-0.1-0.2-0.1-0.4c0-0.3,0-0.7-0.4-0.7   c-0.6,0-0.7,0.9-0.8,1.2l0,0.1c0,0.2,0,0.3-0.2,0.4c0,0,0-0.2,0-0.3c0-0.2,0-0.5-0.1-0.7c-0.1-0.1-0.2-0.1-0.4-0.1   c-0.5,0-0.7,0.6-0.8,1.1c0,0.2-0.1,0.5-0.2,0.5c0,0,0-0.2,0-0.3c0-0.2,0-0.5-0.2-0.6c-0.1-0.1-0.2-0.1-0.3-0.1   c-0.4,0.1-0.5,0.3-0.6,0.7c-0.1,0.2-0.1,0.4-0.3,0.7c-0.2,0.3-0.2,0.3-0.2,0.3c0,0,0,0,0-0.1c0-0.2,0.1-0.8-0.1-1   c-0.1-0.1-0.1-0.1-0.2-0.1c-0.4,0-0.5,0.4-0.7,1l-0.1,0.3c-0.1,0.3-0.2,0.4-0.2,0.4c0,0,0,0,0-0.1c0,0,0-0.1,0-0.2   c0-0.2,0.1-0.5-0.1-0.6c-0.1-0.1-0.2-0.1-0.3-0.1c-0.4,0-0.7,0.3-0.7,0.5c-0.1,0.4-0.4,0.9-0.4,0.9c-0.1,0-0.1,0-0.1,0   c0,0,0-0.1,0.1-0.4c0.1-0.2,0-0.4-0.1-0.5c-0.1-0.1-0.3-0.2-0.5-0.1c-0.2,0.1-0.4,0.3-0.5,0.6c-0.1,0.6-0.3,0.8-0.5,0.9   c0-0.1,0-0.2,0-0.2c0-0.2,0-0.5-0.1-0.6c-0.1-0.1-0.2-0.1-0.3-0.1c-0.4,0.1-0.5,0.5-0.7,0.8c-0.1,0.3-0.2,0.6-0.4,0.8   c0-0.1,0.1-0.2,0.1-0.4c0.1-0.4,0.2-0.6,0.1-0.7c0,0-0.1-0.1-0.1-0.1c0,0,0,0-0.1,0c-0.1,0-0.1,0-0.1,0L29,47.9z M17,52.3L17,52.3   l0.1-0.1C17.1,52.2,17.1,52.2,17,52.3z M12.8,53.8c0.4,0,1.8-0.1,3.9,0.3l-0.1,1.4c-1.9-0.5-3.6-0.4-4.1-0.3   C12.5,54.7,12.7,54.2,12.8,53.8z M12.4,55.5c0.4-0.1,2.1-0.3,4.1,0.3l-0.3,3.4c-1.7-0.6-4-0.5-4.6-0.4   C11.9,57.6,12.1,56.5,12.4,55.5z M11.5,59c0.5,0,2.9-0.2,4.6,0.4l0,0.5c-1.9-0.6-4.1-0.4-4.8-0.3C11.4,59.4,11.5,59.2,11.5,59z    M11.3,59.9c0.5-0.1,2.8-0.3,4.8,0.3l0,0.4c-2.2-0.6-4.2-0.3-4.9-0.2C11.2,60.2,11.3,60.1,11.3,59.9z M11.1,60.6   c0.4-0.1,2.6-0.5,4.9,0.2L16,61.9c-2.3-0.6-4.4-0.4-5-0.3C11,61.3,11.1,61,11.1,60.6z M10.9,61.9c0.4-0.1,2.7-0.3,5.1,0.3l-0.2,2.7   c-2.3-0.7-4.8-0.5-5.4-0.4C10.5,63.6,10.7,62.7,10.9,61.9z M10.2,64.8c0.5-0.1,3.1-0.4,5.5,0.4l-0.4,5.1c-2.6-0.8-5.4-0.4-6.2-0.3   C9.4,68.2,9.8,66.5,10.2,64.8z M9,70.3c0.5-0.1,3.5-0.6,6.2,0.3l-0.1,1.7c-2.7-0.5-5.7-0.2-6.5-0.1C8.7,71.5,8.9,70.9,9,70.3z    M8.6,72.4c0.6-0.1,3.7-0.3,6.5,0.1l-0.3,3.1c-3.2-0.4-6.1-0.2-6.9-0.2C8.1,74.4,8.3,73.4,8.6,72.4z M7.9,75.7   c0.5,0,3.5-0.2,6.9,0.2l-0.4,4.9c-2.8-0.6-6.6-0.4-7.4-0.3C7.2,78.9,7.5,77.3,7.9,75.7z M6.9,80.7c0.6,0,4.6-0.3,7.4,0.3l-0.1,1   c-2.7-0.6-6.7-0.4-7.5-0.3C6.8,81.4,6.9,81,6.9,80.7z M6.7,82c0.7,0,4.7-0.3,7.5,0.3l-0.4,4.2c-3.5-0.7-7-0.5-7.8-0.4   C6.2,84.8,6.4,83.4,6.7,82z M6,86.3c0.6,0,4.2-0.3,7.8,0.4l-0.3,3C10.4,88.9,6.5,89,5.7,89C5.8,88.2,5.9,87.3,6,86.3z M5.7,89.3   c0.7,0,4.7-0.2,7.9,0.8l-0.1,1.3c-5.2-0.1-7.3-0.7-7.8-0.8C5.6,90.2,5.6,89.7,5.7,89.3z M14.1,86.8l8.6,0.2   c-0.2,1.2-0.3,2.3-0.4,3.2l-8.5-0.3L14.1,86.8z M23,86.7c1.1,0,10.4-0.4,13.5,0.7v3.4C34.4,90.1,24,90,22.6,90   C22.7,89.1,22.8,87.9,23,86.7z M36.8,93.2C36.8,93.2,36.8,93.2,36.8,93.2l0-2.1h3.3v2.1L36.8,93.2L36.8,93.2z M63.5,87.2   c3.1-1,12.5-0.7,13.5-0.7c0.2,1.3,0.3,2.4,0.4,3.4c-1.4,0-11.8,0.1-13.9,0.7V87.2z M77.3,86.9l8.6-0.2l0.3,3.1l-8.5,0.3   C77.6,89.2,77.5,88.1,77.3,86.9z M86.5,90c3.1-0.9,7.2-0.8,7.9-0.8c0,0.4,0.1,0.9,0.1,1.2c-0.5,0.2-2.6,0.8-7.8,0.8L86.5,90z    M86.1,48.9c0,0.1,0.1,0.2,0.1,0.4c-0.6-0.2-2.5-0.6-4.6,0.8v-0.8C81.9,49.1,83.9,47.7,86.1,48.9z M81.6,50.5   c2.3-1.7,4.3-1,4.6-0.8c0,0.1,0.1,0.2,0.1,0.4c-0.7-0.2-2.6-0.6-4.7,0.8V50.5z M81.5,49.1c-0.1-0.2-0.2-0.4-0.2-0.6v0   c2.1-1.9,4.6-0.8,4.7-0.8l0,0c0.1,0.4,0,0.7,0,0.9C83.9,47.6,82,48.7,81.5,49.1z M83,44.2c0,0,0.1-0.1,0.2-0.1   c0.1,0,0.2,0.1,0.2,0.2c0,0.1,0,0.1-0.1,0.2c0,0-0.1,0.1-0.2,0.1l0,0c0,0,0,0,0,0v0c-0.1,0-0.2-0.1-0.2-0.2   C83,44.3,83,44.3,83,44.2z M82.5,46l0.3,0l0-0.1c0-0.6,0-0.9,0.1-1c0,0,0.1-0.1,0.1-0.1c0.2,0,0.3,0,0.4,0.1   c0.3,0.2,0.3,0.7,0.3,0.7l0,0.1l0.3,0l0,0.2c-0.2,0-0.4,0-0.6,0c-0.1,0-0.5,0-1,0.2L82.5,46z M81.4,47.3c0.5-0.8,1.8-1,2-1   c1.1,0,1.9,0.3,2.3,0.8c0.1,0.1,0.1,0.2,0.2,0.3c-0.6-0.2-2.8-0.8-4.6,0.9C81.2,47.9,81.3,47.6,81.4,47.3z M81.6,51.3v-0.2   c2.3-1.7,4.4-1,4.8-0.9c0.1,0.3,0.2,0.7,0.3,1.2c-0.6,0-2.6-0.1-3.8,0.4L81.6,51.3L81.6,51.3z M78.8,50.3l-0.1-4.1l-1.4-0.5v4   l-0.9-0.3l0.6-1l-0.7-0.9l-0.6,1.1l0.5,0.8l-0.6-0.2l-0.6-9l0-0.1L68,37.5v2c0,0-0.1,0-0.1,0v-0.7l-0.1,0c0,0-0.6-0.1-0.6-0.5   c0-0.5-0.2-1-0.6-1.1c0.1-0.1,0.2-0.2,0.2-0.4c0,0,0-0.1,0-0.1l11.7,4.5l0.7,9.3L78.8,50.3z M77.5,49.7v-3.5l0.9,0.3l0.1,3.6   L77.5,49.7z M76.3,49.3l-0.5-0.7l0.4-0.8l0.5,0.7L76.3,49.3z M74.5,32.6c1.8-1,3.4,0.2,3.5,0.2l0,0c0,0.5-0.2,0.9-0.2,0.9l0,0   l0,0.2L74.5,32.6z M76.1,29.1c0.1,0,0.2,0.1,0.2,0.2c0,0.1-0.1,0.2-0.2,0.2c-0.1,0-0.2-0.1-0.2-0.2C75.9,29.1,76,29.1,76.1,29.1z    M75.1,30.8h0.5v-0.1c0-0.8,0.1-1,0.5-1c0.1,0,0.3,0,0.3,0.1c0.3,0.3,0.2,0.9,0.2,0.9l0,0.1h0.5V31c-0.3-0.1-0.7-0.2-1.1-0.2   c-0.2,0-0.5,0-0.8,0.1V30.8z M76,31.1c0.9,0,1.5,0.2,1.8,0.7c0.2,0.2,0.2,0.5,0.2,0.8c-0.4-0.3-2-1.1-3.6-0.2   C74.5,31.1,75.4,31.1,76,31.1z M64.4,28.3c0-0.1,0.2-0.5,0.3-1c0.8,0.3,5,1.6,7.5,3.7c0,0.2,0.1,0.4,0.1,0.6L64.4,28.3z M65.3,24.3   c0.1,0,0.2,0.1,0.2,0.2c0,0.1-0.1,0.2-0.2,0.2c-0.1,0-0.2-0.1-0.2-0.2C65.2,24.4,65.2,24.3,65.3,24.3z M65.3,25.3   c0.2,0,0.3,0.1,0.3,0.3c0,0.2-0.1,0.3-0.3,0.3c-0.2,0-0.3-0.1-0.3-0.3C65.1,25.5,65.2,25.3,65.3,25.3z M65.3,26.6   c0.2,0,0.3,0.1,0.3,0.3c0,0.1,0,0.1-0.1,0.2c-0.2-0.1-0.4-0.1-0.5-0.2C65.1,26.7,65.2,26.6,65.3,26.6z M66.3,24.7   c0.1,0,0.2,0.1,0.2,0.2c0,0.1-0.1,0.2-0.2,0.2s-0.2-0.1-0.2-0.2C66.1,24.8,66.2,24.7,66.3,24.7z M66.3,26.3c-0.2,0-0.3-0.1-0.3-0.3   c0-0.2,0.1-0.3,0.3-0.3c0.2,0,0.3,0.1,0.3,0.3C66.6,26.2,66.5,26.3,66.3,26.3z M66.3,27c0.2,0,0.3,0.1,0.3,0.3c0,0,0,0.1,0,0.1   c-0.2-0.1-0.3-0.1-0.5-0.2C66.1,27.1,66.1,27,66.3,27z M67.3,25.2c0.1,0,0.2,0.1,0.2,0.2c0,0.1-0.1,0.2-0.2,0.2s-0.2-0.1-0.2-0.2   C67.1,25.3,67.2,25.2,67.3,25.2z M67.3,26.2c0.2,0,0.3,0.1,0.3,0.3s-0.1,0.3-0.3,0.3S67,26.6,67,26.5S67.1,26.2,67.3,26.2z    M67.3,27.5c0.2,0,0.3,0.1,0.3,0.3c0,0,0,0,0,0c-0.2-0.1-0.3-0.1-0.5-0.2C67.1,27.5,67.2,27.5,67.3,27.5z M68.2,25.7   c0.1,0,0.2,0.1,0.2,0.2S68.3,26,68.2,26S68,26,68,25.9S68.1,25.7,68.2,25.7z M68.2,26.7c0.2,0,0.3,0.1,0.3,0.3   c0,0.2-0.1,0.3-0.3,0.3c-0.2,0-0.3-0.1-0.3-0.3C67.9,26.8,68,26.7,68.2,26.7z M68.2,27.9c0.1,0,0.3,0.1,0.3,0.3   c-0.1-0.1-0.3-0.1-0.4-0.2C68.1,28,68.1,27.9,68.2,27.9z M69,26.1c0.1,0,0.2,0.1,0.2,0.2c0,0.1-0.1,0.2-0.2,0.2   c-0.1,0-0.2-0.1-0.2-0.2C68.9,26.2,68.9,26.1,69,26.1z M69,27.2c0.2,0,0.3,0.1,0.3,0.3c0,0.2-0.1,0.3-0.3,0.3s-0.3-0.1-0.3-0.3   C68.8,27.3,68.9,27.2,69,27.2z M69,28.4c0.1,0,0.2,0.1,0.2,0.2C69.2,28.5,69.1,28.5,69,28.4C69,28.4,69,28.4,69,28.4z M69.9,26.7   c0.1,0,0.2,0.1,0.2,0.2c0,0.1-0.1,0.2-0.2,0.2c-0.1,0-0.2-0.1-0.2-0.2C69.7,26.8,69.8,26.7,69.9,26.7z M69.9,27.7   c0.1,0,0.3,0.1,0.3,0.3c0,0.1-0.1,0.3-0.3,0.3c-0.1,0-0.3-0.1-0.3-0.3C69.6,27.8,69.7,27.7,69.9,27.7z M69.9,28.9   c0.1,0,0.2,0.1,0.2,0.1C70,29,69.9,28.9,69.9,28.9C69.8,28.9,69.8,28.9,69.9,28.9z M70.8,27.4c0.1,0,0.1,0.1,0.1,0.1   c0,0.1-0.1,0.1-0.1,0.1c-0.1,0-0.1-0.1-0.1-0.1C70.6,27.4,70.7,27.4,70.8,27.4z M70.8,28.2c0.1,0,0.2,0.1,0.2,0.2   c0,0.1-0.1,0.2-0.2,0.2s-0.2-0.1-0.2-0.2C70.6,28.3,70.7,28.2,70.8,28.2z M70.8,29.2c0.1,0,0.2,0.1,0.2,0.2c0,0,0,0,0,0.1   c-0.1-0.1-0.2-0.1-0.4-0.2C70.6,29.3,70.7,29.2,70.8,29.2z M71.6,28.7c0.1,0.2,0.1,0.3,0.1,0.5c-0.1-0.1-0.1-0.1-0.2-0.1L71.6,28.7   C71.6,28.7,71.6,28.7,71.6,28.7z M71.5,28.3c0,0.1,0.1,0.2,0.1,0.3c0,0,0,0-0.1,0c-0.1,0-0.2-0.1-0.2-0.2   C71.3,28.4,71.4,28.3,71.5,28.3z M71.5,29.2c0.1,0,0.3,0.1,0.3,0.3s-0.1,0.3-0.3,0.3c-0.1,0-0.3-0.1-0.3-0.3S71.4,29.2,71.5,29.2z    M71.5,29.9c0.2,0,0.3-0.1,0.3-0.3c0.1,0.2,0.1,0.5,0.2,0.7C71.9,30.1,71.7,30,71.5,29.9C71.5,29.9,71.5,29.9,71.5,29.9z M50,6.9   c0.1,0.2,0.2,1,0.2,1.7c-0.1,0-0.2-0.1-0.3-0.1c-0.1,0-0.2,0-0.2,0C49.8,7.9,49.9,7.1,50,6.9z M50,8.8c0.3,0,0.5,0.2,0.5,0.5   S50.3,9.8,50,9.8c-0.3,0-0.5-0.2-0.5-0.5S49.7,8.8,50,8.8z M50,10.1c0.3,0,0.6,0.2,0.6,0.4c0,0.2-0.3,0.4-0.6,0.4s-0.6-0.2-0.6-0.4   C49.4,10.3,49.7,10.1,50,10.1z M49.2,11.4c0-0.1,0.3-0.3,0.8-0.3s0.8,0.2,0.8,0.3c0,0.1-0.3,0.3-0.8,0.3S49.2,11.6,49.2,11.4z    M50,12L50,12c0.2,0,0.5,0.1,0.7,0.4c-0.3-0.1-0.6-0.1-0.7-0.1c-0.3,0-0.5,0-0.7,0.1C49.5,12.2,49.7,12,50,12z M48.7,13   c0.3-0.3,0.7-0.5,1.3-0.5c0.5,0,1.4,0.2,1.7,1.3c-1.5-1.1-2.8-0.4-3.4,0C48.3,13.6,48.5,13.3,48.7,13z M48.2,14.2   c0.3-0.2,1.8-1.4,3.5,0c0,0.1,0,0.1,0,0.2c-1.1-0.1-1.7-0.1-1.8-0.1c-0.6,0-1.2,0.1-1.8,0.1C48.2,14.4,48.2,14.3,48.2,14.2z    M50,14.8c0.2,0,16.7-0.4,21.4,13.3v0.2c-0.1,0-0.2,0.1-0.2,0.2c0,0.1,0.1,0.2,0.2,0.3v0.4c-0.2,0-0.3,0.2-0.3,0.4   c0,0.1,0,0.1,0.1,0.2c-0.1,0-0.1-0.1-0.2-0.1c0,0,0-0.1,0-0.1c0-0.2-0.1-0.3-0.3-0.3v-0.4c0.2,0,0.3-0.1,0.3-0.3   c0-0.2-0.1-0.3-0.3-0.3v-0.4c0.1,0,0.2-0.1,0.2-0.2s-0.1-0.2-0.2-0.2V27h-0.1v0.3c-0.1,0-0.2,0.1-0.2,0.2c0,0.1,0.1,0.2,0.2,0.2   v0.4c-0.2,0-0.3,0.1-0.3,0.3s0.1,0.3,0.3,0.3v0.4c-0.1,0-0.2,0-0.2,0.1c-0.1-0.1-0.2-0.1-0.3-0.2c0-0.1-0.1-0.3-0.3-0.3v-0.5   c0.2,0,0.3-0.2,0.3-0.4c0-0.2-0.1-0.3-0.3-0.4v-0.4c0.1,0,0.2-0.1,0.2-0.3s-0.1-0.2-0.2-0.3v-0.2h-0.1v0.2c-0.1,0-0.2,0.1-0.2,0.3   s0.1,0.2,0.2,0.3v0.4c-0.2,0-0.3,0.2-0.3,0.4c0,0.2,0.1,0.3,0.3,0.4v0.5c0,0-0.1,0-0.1,0c-0.1-0.1-0.2-0.1-0.3-0.2   c0-0.2-0.1-0.3-0.3-0.3v-0.5c0.2,0,0.3-0.2,0.3-0.4c0-0.2-0.1-0.4-0.3-0.4v-0.5c0.1,0,0.2-0.1,0.2-0.3s-0.1-0.2-0.2-0.3v-0.3H69   v0.3c-0.1,0-0.2,0.1-0.2,0.3c0,0.1,0.1,0.2,0.2,0.3v0.5c-0.2,0-0.3,0.2-0.3,0.4s0.1,0.4,0.3,0.4v0.5c-0.1,0-0.1,0-0.2,0   c-0.1,0-0.2-0.1-0.3-0.1c0,0,0,0,0,0c0-0.2-0.1-0.3-0.3-0.4v-0.5c0.2,0,0.3-0.2,0.3-0.4c0-0.2-0.1-0.4-0.3-0.4v-0.5   c0.1,0,0.2-0.1,0.2-0.3s-0.1-0.2-0.2-0.3v-0.3h-0.1v0.3c-0.1,0-0.2,0.1-0.2,0.3s0.1,0.2,0.2,0.3v0.5c-0.2,0-0.3,0.2-0.3,0.4   c0,0.2,0.1,0.4,0.3,0.4v0.5c-0.1,0-0.2,0-0.3,0.1c-0.1,0-0.2-0.1-0.3-0.1c0,0,0-0.1,0-0.1c0-0.2-0.1-0.3-0.3-0.4v-0.5   c0.2,0,0.3-0.2,0.3-0.4c0-0.2-0.1-0.4-0.3-0.4v-0.5c0.1,0,0.2-0.1,0.2-0.3s-0.1-0.2-0.2-0.3v-0.2h-0.1v0.2c-0.1,0-0.2,0.1-0.2,0.3   c0,0.1,0.1,0.2,0.2,0.3v0.5c-0.2,0-0.3,0.2-0.3,0.4s0.1,0.4,0.3,0.4v0.5c-0.1,0-0.2,0.1-0.3,0.2c-0.1,0-0.2-0.1-0.3-0.1   c0-0.1,0-0.1,0-0.2c0-0.2-0.1-0.3-0.3-0.4v-0.5c0.2,0,0.3-0.2,0.3-0.4c0-0.2-0.2-0.4-0.4-0.4h0v-0.5c0.1,0,0.2-0.1,0.2-0.3   c0-0.1-0.1-0.2-0.2-0.3v-0.3h-0.1v0.3c-0.1,0-0.2,0.1-0.2,0.3c0,0.1,0.1,0.2,0.2,0.3v0.5h0c-0.2,0-0.4,0.2-0.4,0.4   c0,0.2,0.1,0.4,0.3,0.4v0.5c-0.2,0-0.3,0.1-0.4,0.3c-0.1,0-0.2-0.1-0.2-0.1c0-0.1,0.1-0.1,0.1-0.2c0-0.2-0.1-0.4-0.3-0.4V26   c0.2,0,0.3-0.2,0.3-0.4c0-0.2-0.1-0.4-0.3-0.4v-0.5c0.1,0,0.2-0.1,0.2-0.3s-0.1-0.2-0.2-0.3V24h-0.1v0.3c-0.1,0-0.2,0.1-0.2,0.3   c0,0.1,0.1,0.2,0.2,0.3v0.5c-0.2,0-0.3,0.2-0.3,0.4c0,0.2,0.1,0.4,0.3,0.4v0.5c-0.2,0-0.3,0.2-0.3,0.3c-0.1,0-0.2-0.1-0.3-0.1   c0-0.4-0.1-0.7-0.3-1.1c0,0,0,0-0.1-0.1c0.2,0,0.3-0.2,0.3-0.4c0-0.2-0.1-0.3-0.3-0.4v-0.4c0.1,0,0.2-0.1,0.2-0.3   c0-0.1-0.1-0.2-0.2-0.3v-0.2h-0.1V24c-0.1,0-0.2,0.1-0.2,0.3c0,0.1,0.1,0.2,0.2,0.3v0.4c-0.2,0-0.3,0.1-0.3,0.3   c-0.1,0-0.1-0.1-0.2-0.1v-0.6h-0.5c0-0.5-0.1-0.9-0.4-1.1c0.1-0.1,0.1-0.2,0.1-0.3c0-0.2-0.1-0.3-0.3-0.4v-0.7h-0.2v0.7   c-0.2,0-0.3,0.2-0.3,0.4c0,0.1,0,0.2,0.1,0.3c-0.1,0-0.1,0.1-0.2,0.2c-0.2,0.3-0.3,0.7-0.2,0.9h-0.5v0.6c0,0-0.1,0-0.1,0.1   c-0.1-0.1-0.2-0.2-0.3-0.2v-0.3c0.2,0,0.4-0.2,0.4-0.5s-0.2-0.4-0.4-0.5v-0.3c0.2,0,0.3-0.2,0.3-0.4s-0.1-0.3-0.3-0.4v-0.2h-0.2   v0.2c-0.2,0-0.3,0.2-0.3,0.4s0.1,0.3,0.3,0.4v0.3c-0.2,0-0.4,0.2-0.4,0.5s0.2,0.4,0.4,0.5V25c0,0-0.1,0-0.1,0   c-0.1,0.1-0.2,0.2-0.2,0.3c0,0.1,0,0.2,0,0.2c-0.1,0-0.2,0-0.4-0.1c0-0.1,0-0.1,0-0.2c0-0.2-0.2-0.4-0.4-0.5v-0.3   c0.2,0,0.4-0.2,0.4-0.5c0-0.2-0.2-0.4-0.4-0.5v-0.3c0.2,0,0.3-0.2,0.3-0.4s-0.1-0.3-0.3-0.4v-0.1h-0.2v0.1c-0.2,0-0.3,0.2-0.3,0.4   s0.1,0.3,0.3,0.4v0.3c-0.2,0-0.4,0.2-0.4,0.5c0,0.2,0.2,0.4,0.4,0.5v0.3c-0.2,0-0.4,0.2-0.4,0.5c0,0,0,0,0,0c-0.1,0-0.3,0-0.4-0.1   c0-0.1,0-0.1,0-0.2c0-0.2-0.2-0.4-0.4-0.5v-0.3c0.2,0,0.4-0.2,0.4-0.5c0-0.2-0.2-0.4-0.4-0.5v-0.3c0.2,0,0.3-0.2,0.3-0.4   c0-0.2-0.1-0.3-0.3-0.4v-0.2h-0.2v0.2c-0.2,0-0.3,0.2-0.3,0.4c0,0.2,0.1,0.4,0.3,0.4v0.3c-0.2,0-0.4,0.2-0.4,0.5   c0,0.2,0.2,0.4,0.4,0.5v0.3c-0.2,0-0.4,0.2-0.4,0.5c0,0,0,0,0,0c-0.1,0-0.3,0-0.4-0.1c0-0.1,0-0.1,0-0.2c0-0.2-0.2-0.4-0.4-0.5   v-0.3c0.2,0,0.4-0.2,0.4-0.5c0-0.2-0.2-0.4-0.4-0.5v-0.3c0.2,0,0.3-0.2,0.3-0.4c0-0.2-0.1-0.3-0.3-0.4V22H57v0.2   c-0.2,0-0.3,0.2-0.3,0.4c0,0.2,0.1,0.4,0.3,0.4v0.3c-0.2,0-0.4,0.2-0.4,0.5c0,0.2,0.2,0.4,0.4,0.5v0.3c-0.2,0-0.4,0.2-0.4,0.5   c0,0,0,0,0,0.1c-0.2,0-0.3,0-0.5,0c0-0.1,0-0.1,0-0.2c0-0.2-0.2-0.4-0.4-0.5V24c0.2,0,0.4-0.2,0.4-0.5s-0.2-0.4-0.4-0.5v-0.3   c0.2,0,0.3-0.2,0.3-0.4S55.9,22,55.7,22v-0.2h-0.2V22c-0.2,0-0.3,0.2-0.3,0.4s0.1,0.4,0.3,0.4v0.3c-0.2,0-0.4,0.2-0.4,0.5   s0.2,0.4,0.4,0.5v0.3c-0.2,0-0.4,0.2-0.4,0.5c0,0,0,0.1,0,0.1c-0.2,0-0.4,0-0.6-0.1c0,0,0-0.1,0-0.2c0-0.2-0.2-0.4-0.4-0.5v-0.3   c0.2,0,0.4-0.2,0.4-0.5c0-0.2-0.2-0.4-0.4-0.5v-0.3c0.2,0,0.3-0.2,0.3-0.4c0-0.2-0.1-0.3-0.3-0.4v-0.2h-0.2v0.1   c-0.2,0-0.3,0.2-0.3,0.4c0,0.2,0.1,0.4,0.3,0.4V23c-0.2,0-0.4,0.2-0.4,0.5c0,0.2,0.2,0.4,0.4,0.5v0.3c-0.2,0-0.4,0.2-0.4,0.5   c0,0,0,0.1,0,0.1c-0.1,0-0.3,0-0.4,0c0,0,0-0.1,0-0.1c0-0.2-0.2-0.4-0.4-0.5v-0.3c0.2,0,0.4-0.2,0.4-0.5s-0.2-0.4-0.4-0.5v-0.3   c0.2,0,0.3-0.2,0.3-0.4c0-0.2-0.1-0.3-0.3-0.4v-0.2h-0.2v0.2c-0.2,0-0.3,0.2-0.3,0.4c0,0.2,0.1,0.3,0.3,0.4v0.3   c-0.2,0-0.4,0.2-0.4,0.5s0.2,0.4,0.4,0.5v0.3c-0.2,0-0.4,0.2-0.4,0.5c0,0,0,0.1,0,0.1c-0.2,0-0.3,0-0.5,0c0,0,0-0.1,0-0.1   c0-0.2-0.2-0.4-0.4-0.5v-0.3c0.2,0,0.4-0.2,0.4-0.5c0-0.2-0.2-0.4-0.4-0.5v-0.3c0.2,0,0.3-0.2,0.3-0.4c0-0.2-0.1-0.3-0.3-0.4v-0.2   h-0.2v0.2c-0.2,0-0.3,0.2-0.3,0.4c0,0.2,0.1,0.3,0.3,0.4v0.3c-0.2,0-0.4,0.2-0.4,0.5c0,0.2,0.2,0.4,0.4,0.5v0.3   c-0.2,0-0.4,0.2-0.4,0.5c0,0,0,0.1,0,0.1c-0.2,0-0.3,0-0.5,0c0,0,0,0,0-0.1c0-0.2-0.2-0.4-0.4-0.5v-0.3c0.2,0,0.4-0.2,0.4-0.5   c0-0.2-0.2-0.4-0.4-0.5v-0.3c0.2,0,0.3-0.2,0.3-0.4s-0.1-0.3-0.3-0.4v-0.2h-0.2v0.2c-0.2,0-0.3,0.2-0.3,0.4s0.1,0.4,0.3,0.4v0.3   c-0.2,0-0.4,0.2-0.4,0.5c0,0.2,0.2,0.4,0.4,0.5v0.3c-0.2,0-0.4,0.2-0.4,0.5c0,0,0,0,0,0.1c-0.2,0-0.3,0-0.5,0c0,0,0,0,0-0.1   c0-0.3-0.2-0.5-0.4-0.5v-0.3c0.2,0,0.4-0.2,0.4-0.5c0-0.2-0.2-0.4-0.4-0.5v-0.3c0.2,0,0.3-0.2,0.3-0.4s-0.1-0.3-0.3-0.4v-0.2h-0.2   v0.2c-0.2,0-0.3,0.2-0.3,0.4c0,0.2,0.1,0.3,0.3,0.4v0.3c-0.2,0-0.4,0.2-0.4,0.5c0,0.2,0.2,0.4,0.4,0.5v0.3   c-0.2,0.1-0.4,0.2-0.4,0.5c0,0,0,0.1,0,0.1c-0.2,0-0.3,0-0.5,0c0,0,0,0,0,0c0-0.2-0.2-0.4-0.4-0.5v-0.3c0.2,0,0.4-0.2,0.4-0.5   s-0.2-0.4-0.4-0.5v-0.3c0.2,0,0.3-0.2,0.3-0.4s-0.1-0.3-0.3-0.4v-0.2h-0.2v0.2c-0.2,0-0.3,0.2-0.3,0.4s0.1,0.3,0.3,0.4v0.3   c-0.2,0-0.4,0.2-0.4,0.5s0.2,0.4,0.4,0.5v0.3c-0.2,0-0.4,0.2-0.4,0.5c0,0,0,0.1,0,0.1c-0.1,0-0.3,0-0.4,0c0-0.2-0.2-0.4-0.4-0.5V24   c0.2,0,0.4-0.2,0.4-0.5s-0.2-0.4-0.4-0.5v-0.3c0.2,0,0.3-0.2,0.3-0.4c0-0.2-0.1-0.3-0.3-0.4v-0.2h-0.2V22c-0.2,0-0.3,0.2-0.3,0.4   c0,0.2,0.1,0.3,0.3,0.4v0.3c-0.2,0-0.4,0.2-0.4,0.5s0.2,0.4,0.4,0.5v0.3c-0.2,0-0.4,0.2-0.4,0.5c0,0,0,0,0,0c-0.2,0-0.4,0-0.6,0.1   c0,0,0,0,0,0c0-0.2-0.2-0.4-0.4-0.5v-0.3c0.2,0,0.4-0.2,0.4-0.5c0-0.2-0.2-0.4-0.4-0.5v-0.3c0.2,0,0.3-0.2,0.3-0.4   s-0.1-0.3-0.3-0.4v-0.2h-0.2v0.2c-0.2,0-0.3,0.2-0.3,0.4c0,0.2,0.1,0.4,0.3,0.4v0.3c-0.2,0-0.4,0.2-0.4,0.5c0,0.2,0.2,0.4,0.4,0.5   v0.3c-0.2,0-0.4,0.2-0.4,0.5c0,0,0,0.1,0,0.1c-0.1,0-0.3,0-0.4,0c0-0.2-0.2-0.4-0.4-0.5v-0.3c0.2,0,0.4-0.2,0.4-0.5   c0-0.2-0.2-0.4-0.4-0.5v-0.3c0.2,0,0.3-0.2,0.3-0.4s-0.1-0.3-0.3-0.4V22h-0.2v0.2c-0.2,0-0.3,0.2-0.3,0.4s0.1,0.3,0.3,0.4v0.3   c-0.2,0-0.4,0.2-0.4,0.5c0,0.2,0.2,0.4,0.4,0.5v0.3c-0.2,0-0.4,0.2-0.4,0.5c0,0,0,0.1,0,0.1c-0.1,0-0.3,0-0.4,0.1   c0-0.3-0.2-0.5-0.4-0.5v-0.3c0.2,0,0.4-0.2,0.4-0.5c0-0.2-0.2-0.4-0.4-0.5v-0.3c0.2,0,0.3-0.2,0.3-0.4s-0.1-0.3-0.3-0.4v-0.2h-0.2   v0.2c-0.2,0-0.3,0.2-0.3,0.4s0.1,0.3,0.3,0.4v0.3c-0.2,0-0.4,0.2-0.4,0.5c0,0.2,0.2,0.4,0.4,0.5v0.3c-0.2,0.1-0.4,0.2-0.4,0.5   c0,0,0,0.1,0,0.1c-0.1,0-0.2,0-0.3,0.1c0-0.2-0.2-0.4-0.4-0.4v-0.3c0.2,0,0.4-0.2,0.4-0.5c0-0.2-0.2-0.4-0.4-0.5v-0.3   c0.2,0,0.3-0.2,0.3-0.4c0-0.2-0.1-0.3-0.3-0.4v-0.2h-0.2v0.2c-0.2,0-0.3,0.2-0.3,0.4c0,0.2,0.1,0.3,0.3,0.4v0.3   c-0.2,0-0.4,0.2-0.4,0.5c0,0.2,0.2,0.4,0.4,0.5v0.3c-0.2,0.1-0.4,0.2-0.4,0.5c0,0,0,0.1,0,0.1c-0.1,0-0.3,0-0.3,0.1   c0-0.1,0-0.2,0-0.2c0-0.1-0.1-0.2-0.2-0.3c0,0-0.1,0-0.1,0v-0.3c0.2,0,0.4-0.2,0.4-0.5c0-0.2-0.2-0.4-0.4-0.5v-0.3   c0.2,0,0.3-0.2,0.3-0.4s-0.1-0.3-0.3-0.4v-0.2h-0.2v0.2c-0.2,0-0.3,0.2-0.3,0.4s0.1,0.3,0.3,0.4v0.3c-0.2,0-0.4,0.2-0.4,0.5   c0,0.2,0.2,0.4,0.4,0.5V25c-0.1,0-0.3,0.1-0.3,0.2c0,0-0.1-0.1-0.2-0.1h0.1v-0.6h-0.5c0-0.2,0-0.7-0.2-0.9   c-0.1-0.1-0.1-0.1-0.2-0.2c0.1-0.1,0.1-0.2,0.1-0.3c0-0.2-0.1-0.3-0.3-0.4v-0.7h-0.2v0.7c-0.2,0-0.3,0.2-0.3,0.4   c0,0.1,0,0.2,0.1,0.3c-0.3,0.1-0.4,0.5-0.4,1.1h-0.5v0.5c-0.1,0-0.2,0.1-0.2,0.1c0-0.2-0.2-0.3-0.3-0.3v-0.4c0.1,0,0.2-0.1,0.2-0.3   c0-0.1-0.1-0.2-0.2-0.3v-0.2h-0.1V24c-0.1,0-0.2,0.1-0.2,0.3s0.1,0.2,0.2,0.3v0.4c-0.2,0-0.3,0.2-0.3,0.4c0,0.2,0.1,0.3,0.3,0.4   c0,0,0,0,0,0c-0.2,0.3-0.3,0.7-0.3,1.1c-0.1,0-0.2,0.1-0.3,0.1c0,0,0,0,0,0c0-0.2-0.1-0.4-0.3-0.4V26c0.2,0,0.3-0.2,0.3-0.4   c0-0.2-0.1-0.4-0.3-0.4v-0.5c0.1,0,0.2-0.1,0.2-0.3s-0.1-0.2-0.2-0.3v-0.3h-0.1v0.3c-0.1,0-0.2,0.1-0.2,0.3c0,0.1,0.1,0.2,0.2,0.3   v0.5c-0.2,0-0.3,0.2-0.3,0.4c0,0.2,0.1,0.4,0.3,0.4v0.5c-0.2,0-0.3,0.2-0.3,0.4c0,0.1,0,0.2,0.1,0.3c-0.1,0-0.2,0.1-0.3,0.1   c0-0.2-0.2-0.4-0.4-0.4v-0.5c0.2,0,0.3-0.2,0.3-0.4c0-0.2-0.2-0.4-0.4-0.4h0v-0.5c0.1,0,0.2-0.1,0.2-0.3c0-0.1-0.1-0.2-0.2-0.3   v-0.3h-0.1v0.3c-0.1,0-0.2,0.1-0.2,0.3s0.1,0.2,0.2,0.3v0.5h0c-0.2,0-0.4,0.2-0.4,0.4c0,0.2,0.1,0.4,0.3,0.4v0.5   c-0.2,0-0.3,0.2-0.3,0.4c0,0.1,0,0.2,0.1,0.3c-0.1,0-0.2,0.1-0.3,0.1c0-0.2-0.2-0.3-0.4-0.3v-0.5c0.2,0,0.3-0.2,0.3-0.4   c0-0.2-0.1-0.4-0.3-0.4v-0.5c0.1,0,0.2-0.1,0.2-0.3c0-0.1-0.1-0.2-0.2-0.3v-0.3h-0.1v0.3c-0.1,0-0.2,0.1-0.2,0.3   c0,0.1,0.1,0.2,0.2,0.3v0.5c-0.2,0-0.3,0.2-0.3,0.4s0.1,0.4,0.3,0.4v0.5c-0.2,0-0.3,0.2-0.3,0.4c0,0.1,0,0.2,0.1,0.2   c-0.1,0-0.2,0.1-0.2,0.1c-0.1-0.1-0.2-0.2-0.3-0.2v-0.5c0.2,0,0.3-0.2,0.3-0.4s-0.1-0.4-0.3-0.4v-0.5c0.1,0,0.2-0.1,0.2-0.3   s-0.1-0.2-0.2-0.3v-0.2h-0.1v0.3c-0.1,0-0.2,0.1-0.2,0.3s0.1,0.2,0.2,0.3v0.5c-0.2,0-0.3,0.2-0.3,0.4c0,0.2,0.1,0.4,0.3,0.4v0.5   c-0.2,0-0.3,0.2-0.3,0.4c0,0.1,0,0.1,0,0.2c-0.1,0-0.1,0.1-0.2,0.1c-0.1-0.1-0.2-0.2-0.3-0.2v-0.5c0.2,0,0.3-0.2,0.3-0.4   s-0.1-0.4-0.3-0.4v-0.5c0.1,0,0.2-0.1,0.2-0.3s-0.1-0.2-0.2-0.3v-0.3h-0.1v0.3c-0.1,0-0.2,0.1-0.2,0.3s0.1,0.2,0.2,0.3v0.5   c-0.2,0-0.3,0.2-0.3,0.4c0,0.2,0.1,0.4,0.3,0.4v0.5c-0.2,0-0.3,0.2-0.3,0.4c0,0,0,0.1,0,0.1c-0.1,0-0.1,0.1-0.2,0.1   c-0.1-0.1-0.2-0.1-0.3-0.1v-0.5c0.2,0,0.3-0.2,0.3-0.4c0-0.2-0.1-0.3-0.3-0.4v-0.4c0.1,0,0.2-0.1,0.2-0.3s-0.1-0.2-0.2-0.3v-0.3H30   v0.3c-0.1,0-0.2,0.1-0.2,0.3s0.1,0.2,0.2,0.3v0.4c-0.2,0-0.3,0.2-0.3,0.4c0,0.2,0.1,0.3,0.3,0.4v0.5c-0.2,0-0.3,0.2-0.3,0.3   c0,0,0,0.1,0,0.1c-0.1,0-0.2,0.1-0.3,0.1c0-0.1-0.1-0.2-0.3-0.2v-0.4c0.2,0,0.3-0.1,0.3-0.3s-0.1-0.3-0.3-0.3v-0.4   c0.1,0,0.2-0.1,0.2-0.2s-0.1-0.2-0.2-0.2V27h-0.1v0.3c-0.1,0-0.2,0.1-0.2,0.2s0.1,0.2,0.2,0.2v0.4c-0.2,0-0.3,0.1-0.3,0.3   c0,0.2,0.1,0.3,0.3,0.3v0.4c-0.1,0-0.2,0.1-0.2,0.3c0,0.1,0,0.1,0.1,0.2c-0.1,0-0.2,0.1-0.2,0.1c0.1-0.1,0.1-0.2,0.1-0.3   c0-0.2-0.1-0.4-0.3-0.4v-0.4c0.1,0,0.2-0.1,0.2-0.3s-0.1-0.2-0.2-0.3V28C30.1,23.2,35.1,15.6,50,14.8z M34.3,26.9   c0-0.2,0.1-0.3,0.3-0.3s0.3,0.1,0.3,0.3c0,0,0,0,0,0c-0.1,0.1-0.3,0.1-0.5,0.2C34.3,27,34.3,27,34.3,26.9z M34.6,24.3   c0.1,0,0.2,0.1,0.2,0.2s-0.1,0.2-0.2,0.2c-0.1,0-0.2-0.1-0.2-0.2S34.5,24.3,34.6,24.3z M34.6,25.3c0.2,0,0.3,0.1,0.3,0.3   c0,0.2-0.1,0.3-0.3,0.3s-0.3-0.1-0.3-0.3C34.3,25.4,34.4,25.3,34.6,25.3z M33.4,27.3c0-0.2,0.1-0.3,0.3-0.3c0.2,0,0.3,0.1,0.3,0.3   c0,0,0,0,0,0c-0.2,0.1-0.3,0.1-0.5,0.2C33.4,27.4,33.4,27.3,33.4,27.3z M33.6,24.7c0.1,0,0.2,0.1,0.2,0.2c0,0.1-0.1,0.2-0.2,0.2   s-0.2-0.1-0.2-0.2C33.4,24.8,33.5,24.7,33.6,24.7z M33.6,26.3c-0.2,0-0.3-0.1-0.3-0.3c0-0.2,0.1-0.3,0.3-0.3c0.2,0,0.3,0.1,0.3,0.3   C33.9,26.1,33.8,26.3,33.6,26.3z M32.4,27.7c0-0.2,0.1-0.3,0.3-0.3c0.1,0,0.2,0.1,0.3,0.2c-0.2,0.1-0.3,0.1-0.5,0.2   C32.4,27.9,32.4,27.8,32.4,27.7z M32.6,25.2c0.1,0,0.2,0.1,0.2,0.2c0,0.1-0.1,0.2-0.2,0.2c-0.1,0-0.2-0.1-0.2-0.2   C32.5,25.3,32.5,25.2,32.6,25.2z M32.6,26.2c0.2,0,0.3,0.1,0.3,0.3s-0.1,0.3-0.3,0.3c-0.2,0-0.3-0.1-0.3-0.3S32.5,26.2,32.6,26.2z    M31.5,28.2c0-0.2,0.1-0.3,0.3-0.3c0.1,0,0.2,0.1,0.2,0.2c-0.2,0.1-0.3,0.1-0.5,0.2C31.5,28.3,31.5,28.3,31.5,28.2z M31.7,25.7   c0.1,0,0.2,0.1,0.2,0.2c0,0.1-0.1,0.2-0.2,0.2c-0.1,0-0.2-0.1-0.2-0.2C31.5,25.7,31.6,25.7,31.7,25.7z M31.7,26.7   c0.2,0,0.3,0.1,0.3,0.3s-0.1,0.3-0.3,0.3s-0.3-0.1-0.3-0.3S31.6,26.7,31.7,26.7z M30.6,28.7c0-0.2,0.1-0.3,0.3-0.3   c0.1,0,0.2,0,0.2,0.1C31,28.6,30.8,28.7,30.6,28.7C30.7,28.7,30.6,28.7,30.6,28.7z M30.9,26.1c0.1,0,0.2,0.1,0.2,0.2   c0,0.1-0.1,0.2-0.2,0.2c-0.1,0-0.2-0.1-0.2-0.2C30.7,26.2,30.8,26.1,30.9,26.1z M30.9,27.1c0.2,0,0.3,0.1,0.3,0.3   c0,0.2-0.1,0.3-0.3,0.3s-0.3-0.1-0.3-0.3C30.6,27.3,30.7,27.1,30.9,27.1z M29.8,29.1c0-0.1,0.1-0.3,0.3-0.3c0.1,0,0.1,0,0.2,0.1   C30.1,29,30,29.1,29.8,29.1C29.8,29.1,29.8,29.1,29.8,29.1z M30,26.7c0.1,0,0.2,0.1,0.2,0.2c0,0.1-0.1,0.2-0.2,0.2   s-0.2-0.1-0.2-0.2C29.9,26.8,30,26.7,30,26.7z M30,27.7c0.1,0,0.3,0.1,0.3,0.3c0,0.1-0.1,0.3-0.3,0.3c-0.1,0-0.3-0.1-0.3-0.3   C29.8,27.8,29.9,27.7,30,27.7z M28.9,29.5c0-0.1,0.1-0.2,0.2-0.2c0.1,0,0.2,0.1,0.2,0.2c-0.1,0.1-0.3,0.1-0.4,0.2   C29,29.5,28.9,29.5,28.9,29.5z M29.1,27.4c0.1,0,0.1,0.1,0.1,0.1s-0.1,0.1-0.1,0.1c-0.1,0-0.1-0.1-0.1-0.1S29.1,27.4,29.1,27.4z    M29.1,28.2c0.1,0,0.2,0.1,0.2,0.2c0,0.1-0.1,0.2-0.2,0.2c-0.1,0-0.2-0.1-0.2-0.2C28.9,28.3,29,28.2,29.1,28.2z M28.4,29.2   c0.1,0,0.3,0.1,0.3,0.3s-0.1,0.3-0.3,0.3c-0.1,0-0.3-0.1-0.3-0.3S28.3,29.2,28.4,29.2z M28.4,28.6c-0.1,0-0.1,0-0.1-0.1   c0-0.1,0-0.2,0.1-0.2c0,0,0,0,0.1,0c0.1,0,0.2,0.1,0.2,0.2C28.6,28.5,28.5,28.6,28.4,28.6z M28.3,28.6c0,0,0.1,0,0.1,0.1v0.4   c-0.2,0-0.3,0.2-0.3,0.4c0,0.2,0.2,0.4,0.4,0.4c0,0,0,0,0,0c-0.2,0.1-0.4,0.2-0.6,0.3C28,29.7,28.1,29.2,28.3,28.6z M27.8,30.8   c0.8-0.4,5.1-2.7,7.6-3.5c0.1,0.5,0.2,0.8,0.3,1l-7.9,3.4C27.7,31.4,27.7,31.1,27.8,30.8z M23.9,28.9c0.1,0,0.2,0.1,0.2,0.2   c0,0.1-0.1,0.2-0.2,0.2c-0.1,0-0.2-0.1-0.2-0.2C23.7,28.9,23.8,28.9,23.9,28.9z M22.9,30.6h0.5l0-0.1c0,0-0.1-0.6,0.2-0.9   c0.1-0.1,0.2-0.1,0.3-0.1c0.4,0,0.5,0.2,0.5,1v0.1h0.5v0.2c-0.3-0.1-0.6-0.2-0.8-0.2c-0.4,0-0.8,0.1-1.1,0.2V30.6z M22.3,31.5   c0.3-0.5,0.9-0.7,1.8-0.7c0.6,0,1.4,0.2,1.6,1.4c-1.6-1-3.2-0.1-3.6,0.1C22,32.1,22.1,31.8,22.3,31.5z M22.2,33.5   c0,0-0.2-0.4-0.2-0.9l0,0c0.1-0.1,1.8-1.3,3.6-0.1l-3.5,1.5L22.2,33.5L22.2,33.5z M21.9,34.2l5.6-2.4l0.2,0c0,0,0,0,0-0.1l9.2-3.9   l-0.1,1.7l-0.2,0.1v-0.8l0,0c-0.2-0.2-0.4-0.3-0.6-0.2c-0.4,0.1-0.6,0.6-0.6,0.7l0,1L35,30.4v-0.7l0,0c-0.2-0.2-0.3-0.3-0.5-0.2   c-0.3,0.1-0.5,0.6-0.6,0.6l0,0.9l-0.5,0.2v-0.7l0,0c-0.2-0.2-0.3-0.2-0.5-0.2c-0.3,0.1-0.5,0.5-0.5,0.6l0,0.8l-0.5,0.2v-0.7l0,0   c-0.2-0.2-0.3-0.2-0.5-0.2c-0.3,0.1-0.5,0.5-0.5,0.6l0,0.8l-0.5,0.2v-0.7l0,0c-0.2-0.2-0.3-0.2-0.5-0.2c-0.3,0.1-0.5,0.5-0.5,0.6   l0,0.8L28.8,33v-0.7l0,0c-0.2-0.2-0.3-0.2-0.5-0.2c-0.3,0.1-0.5,0.5-0.5,0.6l0,0.8l-0.4,0.2v-0.7l0,0c-0.2-0.2-0.3-0.2-0.5-0.2   c-0.3,0.1-0.5,0.5-0.5,0.6l0,0.8l-0.3,0.1v-0.7l0,0c-0.2-0.2-0.3-0.2-0.5-0.2c-0.3,0.1-0.5,0.5-0.5,0.6l0,0.8l-0.4,0.2v-0.7l0,0   C24.3,34,24.2,33.9,24,34c-0.3,0.1-0.5,0.5-0.5,0.6l0,0.8l-0.3,0.1v-0.7l0,0c-0.2-0.2-0.3-0.2-0.5-0.2c-0.3,0.1-0.5,0.5-0.5,0.6   l0,0.8L21.8,36L21.9,34.2z M21.4,41.1l11.8-4.6c-0.1,0.1-0.1,0.2-0.1,0.3c0,0.2,0.1,0.3,0.2,0.4c-0.4,0.2-0.6,0.7-0.6,1.1   c0,0.4-0.5,0.5-0.6,0.5l-0.1,0v0.7c-0.1,0-0.1,0-0.2,0v-2.2L25,40.1l-0.7,9.2l-0.7,0.3l0.6-1l-0.6-1.1L23,48.4l0.6,1.1l-2.9,1.1   L21.4,41.1z M23.6,49.3l-0.5-0.8l0.5-0.7l0.4,0.8L23.6,49.3z M17.1,51.9c-1.2-0.5-3.2-0.4-3.8-0.4c0.1-0.4,0.2-0.8,0.3-1.2   c0.4-0.2,2.5-0.8,4.8,0.9v0.2h0.1L17.1,51.9z M18.4,49.4v0.8c-2.1-1.5-3.9-1.1-4.6-0.8c0.1-0.2,0.1-0.4,0.1-0.4   C16.2,47.5,18.1,49.2,18.4,49.4z M13.7,49.7c0.3-0.1,2.3-0.9,4.6,0.8v0.4c-2.2-1.5-4.1-1.1-4.7-0.8C13.7,49.9,13.7,49.8,13.7,49.7z    M16.8,44.7c-0.1,0-0.1,0-0.2-0.1c0,0-0.1-0.1-0.1-0.2c0-0.1,0.1-0.2,0.2-0.2h0c0.1,0,0.1,0,0.2,0.1c0,0,0.1,0.1,0.1,0.2   C17,44.6,16.9,44.7,16.8,44.7L16.8,44.7C16.8,44.7,16.8,44.7,16.8,44.7L16.8,44.7z M16,45.9l0.3,0l0-0.1c0,0,0-0.5,0.3-0.7   c0.1-0.1,0.3-0.2,0.4-0.1c0.1,0,0.1,0,0.1,0.1c0.1,0.1,0.2,0.3,0.1,1l0,0.1l0.3,0l0,0.2c-0.4-0.2-0.8-0.2-1-0.2c-0.2,0-0.4,0-0.6,0   L16,45.9z M16.5,46.4c0.2,0,1.5,0.2,2,1c0.2,0.3,0.2,0.6,0.2,0.9c-1.9-1.6-4-1.1-4.6-0.9c0-0.1,0.1-0.2,0.2-0.3   C14.7,46.7,15.4,46.4,16.5,46.4z M14,47.8L14,47.8c0,0,2.5-1.1,4.7,0.8l0,0c0,0.2-0.1,0.4-0.2,0.6c-0.5-0.4-2.4-1.7-4.5-0.5   C14,48.5,13.9,48.1,14,47.8z M13.7,91.4l0.1-1.3l8.5,0.3c-0.1,0.8-0.1,1.5-0.1,2c-0.3,0-0.5,0-0.5,0L13.7,91.4z M22.4,92.4   c0-0.5,0.1-1.2,0.1-2.1c1.3,0,12.1,0.1,14,0.7v2.2C32.3,93.2,24.8,92.6,22.4,92.4z M63.5,93.1v-2.2c1.9-0.6,12.7-0.7,14-0.7   c0.1,0.9,0.1,1.6,0.2,2.1C75.2,92.5,67.7,93.1,63.5,93.1z M78.4,92.3c0,0-0.2,0-0.5,0c0-0.5-0.1-1.1-0.1-2l8.5-0.3l0.1,1.3   L78.4,92.3z" fill="#231F20"/><path style="" d="M44.1,70.7l4.3-4h-4.3V70.7z M44.4,67h3.4l-3.4,3.1V67z" fill="#231F20"/><path style="" d="M55.9,70.7v-4h-4.3L55.9,70.7z M55.7,70.1L52.3,67h3.4V70.1z" fill="#231F20"/><path style="" d="M56.5,65h-13v1.6h13V65z M46.6,65.3h1.2v1.1h-1.2V65.3z M46.4,66.4h-1.1v-1.1h1.1V66.4z M48.1,65.3   h1.1v1.1h-1.1V65.3z M49.4,65.3h1.2v1.1h-1.2V65.3z M50.9,65.3h1.1v1.1h-1.1V65.3z M52.2,65.3h1.2v1.1h-1.2V65.3z M53.6,65.3h1.1   v1.1h-1.1V65.3z M43.8,65.3H45v1.1h-1.2V65.3z M56.2,66.4H55v-1.1h1.2V66.4z" fill="#231F20"/><path style="" d="M46.6,90.5h6.7v-7.2h-6.7V90.5z M46.9,88.8h1.2v1.5h-1.2V88.8z M48.3,86.5h1v2h-1V86.5z M50.4,87.2   h-0.8v-0.7h0.8V87.2z M51.6,88.8v1.5h-3.3v-1.5H51.6z M49.6,88.5v-1h2.1v1H49.6z M51.9,85.2h1.2v3.3h-1.2V85.2z M51.6,87.2h-1v-2h1   V87.2z M48.3,84.9v-1.4h3.3v1.4H48.3z M50.4,85.2v1.1h-2.1v-1.1H50.4z M48.1,88.5h-1.2v-3.3h1.2V88.5z M51.9,90.3v-1.5h1.2v1.5   H51.9z M53.1,84.9h-1.2v-1.4h1.2V84.9z M48.1,83.6v1.4h-1.2v-1.4H48.1z" fill="#231F20"/><path style="" d="M46.2,80.7V83h7.7v-2.3H46.2z M53.6,82.8h-7.2v-1.8h7.2V82.8z" fill="#231F20"/><path style="" d="M46.5,81.1v1.5l0.8-0.8L46.5,81.1z M46.7,81.4l0.4,0.4l-0.4,0.4V81.4z" fill="#231F20"/><path style="" d="M53.5,82.6v-1.5l-0.8,0.7L53.5,82.6z M53.3,82.2l-0.4-0.4l0.4-0.4V82.2z" fill="#231F20"/><path style="" d="M48.1,81h-1.3l0.6,0.7L48.1,81z M47.7,81.2l-0.3,0.3l-0.3-0.3H47.7z" fill="#231F20"/><path style="" d="M49.8,81h-1.3l0.6,0.7L49.8,81z M49.4,81.2l-0.3,0.3l-0.3-0.3H49.4z" fill="#231F20"/><path style="" d="M51.4,81h-1.3l0.6,0.7L51.4,81z M51.1,81.2l-0.3,0.3l-0.3-0.3H51.1z" fill="#231F20"/><path style="" d="M53.2,81h-1.3l0.6,0.7L53.2,81z M52.8,81.2l-0.3,0.3l-0.3-0.3H52.8z" fill="#231F20"/><path style="" d="M46.8,82.6h1.3L47.4,82L46.8,82.6z M47.7,82.5h-0.6l0.3-0.3L47.7,82.5z" fill="#231F20"/><path style="" d="M48.5,82.6h1.3L49.1,82L48.5,82.6z M49.4,82.5h-0.6l0.3-0.3L49.4,82.5z" fill="#231F20"/><path style="" d="M50.2,82.6h1.3L50.8,82L50.2,82.6z M51.1,82.5h-0.6l0.3-0.3L51.1,82.5z" fill="#231F20"/><path style="" d="M51.9,82.6h1.3L52.5,82L51.9,82.6z M52.8,82.5h-0.6l0.3-0.3L52.8,82.5z" fill="#231F20"/><path style="" d="M48.3,82.5l0.7-0.7l-0.7-0.7l-0.7,0.7L48.3,82.5z M48.3,81.4l0.5,0.5l-0.5,0.5l-0.5-0.5L48.3,81.4z" fill="#231F20"/><path style="" d="M50,82.5l0.7-0.7L50,81.1l-0.7,0.7L50,82.5z M50,81.4l0.5,0.5L50,82.3l-0.5-0.5L50,81.4z" fill="#231F20"/><path style="" d="M51.7,82.5l0.7-0.7l-0.7-0.7L51,81.8L51.7,82.5z M51.7,81.4l0.5,0.5l-0.5,0.5l-0.5-0.5L51.7,81.4z" fill="#231F20"/><path style="" d="M48,72.3l-1.3,1.2l1.2,1.3l1.3-1.2L48,72.3z M46.9,73.5l1.1-1l1,1.1l-1.1,1L46.9,73.5z" fill="#231F20"/><path style="" d="M48,72.7l-1,0.9l0.9,0.9l1-0.9L48,72.7z M47.3,73.6l0.7-0.7l0.7,0.7l-0.7,0.7L47.3,73.6z" fill="#231F20"/><path style="" d="M50.8,73.5l1.2,1.3l1.3-1.2l-1.2-1.3L50.8,73.5z M52,74.6l-1-1.1l1.1-1l1,1.1L52,74.6z" fill="#231F20"/><path style="" d="M51.1,73.5l0.9,0.9l1-0.9l-0.9-0.9L51.1,73.5z M52,74.3l-0.7-0.7l0.7-0.7l0.7,0.7L52,74.3z" fill="#231F20"/><path style="" d="M50.7,71L50,70.2L49.2,71l0.7,0.8L50.7,71z M50,70.5l0.5,0.6l-0.6,0.5L49.4,71L50,70.5z" fill="#231F20"/><path style="" d="M49.4,74.2l0.6,0.6l0.6-0.6L50,73.6L49.4,74.2z M50,74.6l-0.4-0.5l0.5-0.5l0.4,0.5L50,74.6z" fill="#231F20"/><path style="" d="M53.8,76.1l-1.5,1.4l1.4,1.5l1.5-1.4L53.8,76.1z M52.5,77.5l1.3-1.2l1.2,1.2l-1.3,1.2L52.5,77.5z" fill="#231F20"/><path style="" d="M53.8,76.5l-1.1,1l1,1.1l1.1-1L53.8,76.5z M52.9,77.5l0.9-0.8l0.8,0.8l-0.9,0.8L52.9,77.5z" fill="#231F20"/><path style="" d="M47.7,77.5l-1.4-1.5l-1.5,1.4l1.4,1.5L47.7,77.5z M46.4,76.3l1.2,1.2l-1.3,1.2l-1.2-1.2L46.4,76.3z" fill="#231F20"/><path style="" d="M47.3,77.5l-1-1.1l-1.1,1l1,1.1L47.3,77.5z M46.3,76.7l0.8,0.8l-0.9,0.8l-0.8-0.8L46.3,76.7z" fill="#231F20"/><path style="" d="M50.1,71.9L51,71L50,70l-1.1,1l0.9,1v1.6l-0.7,0.6l0.8,0.8l0.9-0.8l-0.7-0.7V71.9z M50,70.2l0.8,0.8   l-0.8,0.8L49.2,71L50,70.2z M49.9,74.8l-0.7-0.7l0.7-0.7l0.7,0.7L49.9,74.8z" fill="#231F20"/><path style="" d="M42.2,60.4V61H43v-0.7l-0.4-0.5L42.2,60.4z M42.9,60.4v0.5h-0.6v-0.4l0.3-0.4L42.9,60.4z" fill="#231F20"/><path style="" d="M45.1,60.4V61H46v-0.7l-0.4-0.5L45.1,60.4z M45.9,60.4v0.5h-0.6v-0.4l0.3-0.4L45.9,60.4z" fill="#231F20"/><path style="" d="M48,60.4V61h0.9v-0.7l-0.4-0.5L48,60.4z M48.8,60.4v0.5h-0.6v-0.4l0.3-0.4L48.8,60.4z" fill="#231F20"/><path style="" d="M51,60.4V61h0.9v-0.7l-0.4-0.5L51,60.4z M51.7,60.4v0.5h-0.6v-0.4l0.3-0.4L51.7,60.4z" fill="#231F20"/><path style="" d="M53.9,60.4V61h0.9v-0.7l-0.4-0.5L53.9,60.4z M54.6,60.4v0.5h-0.6v-0.4l0.3-0.4L54.6,60.4z" fill="#231F20"/><path style="" d="M56.8,60.4V61h0.9v-0.7l-0.4-0.5L56.8,60.4z M57.6,60.4v0.5H57v-0.4l0.3-0.4L57.6,60.4z" fill="#231F20"/><path style="" d="M51.6,25.5h-3.3v1.6h3.3V25.5z M51.3,26.8h-2.6v-1h2.6V26.8z" fill="#231F20"/><path style="" d="M21.3,46l1.4-0.4v-2.9l-1.3,0.5L21.3,46z M21.6,43.4l0.8-0.3v2.3l-0.9,0.2L21.6,43.4z" fill="#231F20"/><path style="" d="M21.1,50.4l1.6-0.5v-4.1l-1.4,0.5L21.1,50.4z M21.5,46.4l0.9-0.3v3.5l-1,0.3L21.5,46.4z" fill="#231F20"/><path style="" d="M29.7,43.1v-1.5l-2.9,1.3l0,0l-0.1,1.1l1.6-1.3L29.7,43.1z M26.8,43.7l0.1-0.8l2.8-1.2V43l-1.4-0.4   l0,0L26.8,43.7z" fill="#231F20"/><path style="" d="M24.5,43.8l-0.6-1.1l-0.7,0.9l0.6,1.1L24.5,43.8z M23.9,43l0.4,0.8l-0.5,0.7l-0.5-0.8L23.9,43z" fill="#231F20"/><path style="" d="M24.1,41.9c0.3,0,0.5-0.3,0.5-0.7c0-0.4-0.2-0.7-0.5-0.7c-0.3,0-0.5,0.3-0.5,0.7   C23.6,41.6,23.8,41.9,24.1,41.9z M24.1,40.6c0.2,0,0.4,0.3,0.4,0.6c0,0.3-0.2,0.6-0.4,0.6c-0.2,0-0.4-0.3-0.4-0.6   C23.7,40.9,23.9,40.6,24.1,40.6z" fill="#231F20"/><path style="" d="M23.8,45.5c-0.3,0-0.5,0.3-0.5,0.7s0.2,0.7,0.5,0.7s0.5-0.3,0.5-0.7S24.1,45.5,23.8,45.5z    M23.8,46.9c-0.2,0-0.4-0.3-0.4-0.6s0.2-0.6,0.4-0.6c0.2,0,0.4,0.3,0.4,0.6S24,46.9,23.8,46.9z" fill="#231F20"/><path style="" d="M31.9,36.7v-1.8l-7,2.9v1.6L31.9,36.7z M25,37.8l6.7-2.8v1.5L25,39.2V37.8z" fill="#231F20"/><path style="" d="M25.9,37.5c-0.2,0-0.4,0.3-0.4,0.6c0,0.4,0.2,0.6,0.4,0.6s0.4-0.3,0.4-0.6   C26.2,37.8,26.1,37.5,25.9,37.5z M25.9,38.6c-0.1,0-0.2-0.2-0.2-0.5c0-0.3,0.1-0.5,0.2-0.5s0.2,0.2,0.2,0.5   C26.1,38.4,26,38.6,25.9,38.6z" fill="#231F20"/><path style="" d="M26.7,37.2c-0.2,0-0.4,0.3-0.4,0.6c0,0.4,0.2,0.6,0.4,0.6c0.2,0,0.4-0.3,0.4-0.6   C27.1,37.5,27,37.2,26.7,37.2z M26.7,38.3c-0.1,0-0.2-0.2-0.2-0.5c0-0.3,0.1-0.5,0.2-0.5c0.1,0,0.2,0.2,0.2,0.5   C27,38.1,26.8,38.3,26.7,38.3z" fill="#231F20"/><path style="" d="M27.5,36.8c-0.2,0-0.4,0.3-0.4,0.6c0,0.4,0.2,0.6,0.4,0.6s0.4-0.3,0.4-0.6   C27.9,37.1,27.8,36.8,27.5,36.8z M27.5,37.9c-0.1,0-0.2-0.2-0.2-0.5c0-0.3,0.1-0.5,0.2-0.5s0.2,0.2,0.2,0.5   C27.8,37.7,27.6,37.9,27.5,37.9z" fill="#231F20"/><path style="" d="M28.4,36.5c-0.2,0-0.4,0.3-0.4,0.6c0,0.4,0.2,0.6,0.4,0.6c0.2,0,0.4-0.3,0.4-0.6   C28.8,36.7,28.6,36.5,28.4,36.5z M28.4,37.6c-0.1,0-0.2-0.2-0.2-0.5c0-0.3,0.1-0.5,0.2-0.5c0.1,0,0.2,0.2,0.2,0.5   C28.6,37.4,28.5,37.6,28.4,37.6z" fill="#231F20"/><path style="" d="M29.3,36.1c-0.2,0-0.4,0.3-0.4,0.6s0.2,0.6,0.4,0.6s0.4-0.3,0.4-0.6S29.5,36.1,29.3,36.1z    M29.3,37.2c-0.1,0-0.2-0.2-0.2-0.5s0.1-0.5,0.2-0.5s0.2,0.2,0.2,0.5S29.4,37.2,29.3,37.2z" fill="#231F20"/><path style="" d="M30.1,35.8c-0.2,0-0.4,0.3-0.4,0.6s0.2,0.6,0.4,0.6c0.2,0,0.4-0.3,0.4-0.6S30.3,35.8,30.1,35.8z    M30.1,36.9c-0.1,0-0.2-0.2-0.2-0.5s0.1-0.5,0.2-0.5c0.1,0,0.2,0.2,0.2,0.5S30.2,36.9,30.1,36.9z" fill="#231F20"/><path style="" d="M31,35.4c-0.2,0-0.4,0.3-0.4,0.6c0,0.4,0.2,0.6,0.4,0.6s0.4-0.3,0.4-0.6   C31.4,35.7,31.2,35.4,31,35.4z M31,36.5c-0.1,0-0.2-0.2-0.2-0.5c0-0.3,0.1-0.5,0.2-0.5c0.1,0,0.2,0.2,0.2,0.5   C31.2,36.3,31.1,36.5,31,36.5z" fill="#231F20"/><path style="" d="M77.3,42.7v2.9l1.4,0.4l-0.1-2.7L77.3,42.7z M77.5,45.4v-2.3l0.8,0.3l0,2.2L77.5,45.4z" fill="#231F20"/><path style="" d="M73.2,42.9l-3-1.3v1.5l1.5-0.4l1.6,1.3L73.2,42.9z M71.8,42.6L71.8,42.6L70.3,43v-1.2l2.8,1.2   l0.1,0.8L71.8,42.6z" fill="#231F20"/><path style="" d="M75.4,43.9l0.6,1l0.6-1.1L76,42.8L75.4,43.9z M76.5,43.7L76,44.6l-0.5-0.7l0.4-0.8L76.5,43.7z" fill="#231F20"/><path style="" d="M75.8,42c0.3,0,0.5-0.3,0.5-0.7c0-0.4-0.2-0.7-0.5-0.7s-0.5,0.3-0.5,0.7C75.3,41.6,75.6,42,75.8,42z    M75.8,40.6c0.2,0,0.4,0.3,0.4,0.6s-0.2,0.6-0.4,0.6s-0.4-0.3-0.4-0.6S75.6,40.6,75.8,40.6z" fill="#231F20"/><path style="" d="M76.2,45.5c-0.3,0-0.5,0.3-0.5,0.7c0,0.4,0.2,0.7,0.5,0.7c0.3,0,0.5-0.3,0.5-0.7   C76.7,45.9,76.4,45.5,76.2,45.5z M76.2,46.9c-0.2,0-0.4-0.3-0.4-0.6c0-0.3,0.2-0.6,0.4-0.6c0.2,0,0.4,0.3,0.4,0.6   C76.5,46.6,76.3,46.9,76.2,46.9z" fill="#231F20"/><path style="" d="M68.1,34.8v1.8l6.9,2.7l0.1,0v-1.6L68.1,34.8z M74.9,39.2l-6.7-2.6v-1.5l6.7,2.8V39.2z" fill="#231F20"/><path style="" d="M74,38.8c0.2,0,0.4-0.3,0.4-0.6c0-0.4-0.2-0.6-0.4-0.6s-0.4,0.3-0.4,0.6   C73.7,38.5,73.8,38.8,74,38.8z M74,37.7c0.1,0,0.2,0.2,0.2,0.5c0,0.3-0.1,0.5-0.2,0.5s-0.2-0.2-0.2-0.5   C73.8,37.9,73.9,37.7,74,37.7z" fill="#231F20"/><path style="" d="M73.2,38.5c0.2,0,0.4-0.3,0.4-0.6c0-0.4-0.2-0.6-0.4-0.6s-0.4,0.3-0.4,0.6   C72.8,38.2,73,38.5,73.2,38.5z M73.2,37.4c0.1,0,0.2,0.2,0.2,0.5s-0.1,0.5-0.2,0.5S73,38.1,73,37.9S73.1,37.4,73.2,37.4z" fill="#231F20"/><path style="" d="M72.4,38.1c0.2,0,0.4-0.3,0.4-0.6s-0.2-0.6-0.4-0.6S72,37.1,72,37.5S72.2,38.1,72.4,38.1z M72.4,37   c0.1,0,0.2,0.2,0.2,0.5S72.5,38,72.4,38c-0.1,0-0.2-0.2-0.2-0.5S72.3,37,72.4,37z" fill="#231F20"/><path style="" d="M71.5,37.8c0.2,0,0.4-0.3,0.4-0.6c0-0.4-0.2-0.6-0.4-0.6s-0.4,0.3-0.4,0.6   C71.2,37.5,71.3,37.8,71.5,37.8z M71.5,36.6c0.1,0,0.2,0.2,0.2,0.5s-0.1,0.5-0.2,0.5s-0.2-0.2-0.2-0.5S71.4,36.6,71.5,36.6z" fill="#231F20"/><path style="" d="M70.7,37.4c0.2,0,0.4-0.3,0.4-0.6c0-0.4-0.2-0.6-0.4-0.6c-0.2,0-0.4,0.3-0.4,0.6   C70.3,37.1,70.4,37.4,70.7,37.4z M70.7,36.3c0.1,0,0.2,0.2,0.2,0.5c0,0.3-0.1,0.5-0.2,0.5c-0.1,0-0.2-0.2-0.2-0.5   C70.4,36.5,70.6,36.3,70.7,36.3z" fill="#231F20"/><path style="" d="M69.8,37.1c0.2,0,0.4-0.3,0.4-0.6c0-0.4-0.2-0.6-0.4-0.6s-0.4,0.3-0.4,0.6   C69.4,36.8,69.6,37.1,69.8,37.1z M69.8,35.9c0.1,0,0.2,0.2,0.2,0.5c0,0.3-0.1,0.5-0.2,0.5c-0.1,0-0.2-0.2-0.2-0.5   C69.6,36.2,69.7,35.9,69.8,35.9z" fill="#231F20"/><path style="" d="M68.9,36.7c0.2,0,0.4-0.3,0.4-0.6s-0.2-0.6-0.4-0.6s-0.4,0.3-0.4,0.6S68.7,36.7,68.9,36.7z    M68.9,35.6c0.1,0,0.2,0.2,0.2,0.5s-0.1,0.5-0.2,0.5s-0.2-0.2-0.2-0.5S68.8,35.6,68.9,35.6z" fill="#231F20"/><path style="" d="M41.5,37c0.5,0,0.8-0.4,0.8-0.8s-0.4-0.8-0.8-0.8s-0.8,0.4-0.8,0.8S41.1,37,41.5,37z M41.5,35.7   c0.3,0,0.5,0.2,0.5,0.5s-0.2,0.5-0.5,0.5c-0.3,0-0.5-0.2-0.5-0.5S41.3,35.7,41.5,35.7z" fill="#231F20"/><path style="" d="M40.2,39.6l1.1,1l1.1-1.1l-1.1-1.1L40.2,39.6z M42,39.6l-0.7,0.7l-0.7-0.6l0.7-0.7L42,39.6z" fill="#231F20"/><path style="" d="M42.2,42.7c0-0.5-0.4-0.8-0.8-0.8c-0.5,0-0.8,0.4-0.8,0.8c0,0.5,0.4,0.8,0.8,0.8   C41.8,43.6,42.2,43.2,42.2,42.7z M40.8,42.7c0-0.3,0.2-0.5,0.5-0.5c0.3,0,0.5,0.2,0.5,0.5c0,0.3-0.2,0.5-0.5,0.5   C41,43.3,40.8,43,40.8,42.7z" fill="#231F20"/><path style="" d="M40.3,45.8l1,1l1-1l-1-1L40.3,45.8z M41.9,45.7l-0.6,0.6l-0.6-0.6l0.6-0.6L41.9,45.7z" fill="#231F20"/><path style="" d="M58.7,37c0.5,0,0.8-0.4,0.8-0.8s-0.4-0.8-0.8-0.8c-0.5,0-0.8,0.4-0.8,0.8S58.2,37,58.7,37z    M58.7,35.7c0.3,0,0.5,0.2,0.5,0.5s-0.2,0.5-0.5,0.5s-0.5-0.2-0.5-0.5S58.4,35.7,58.7,35.7z" fill="#231F20"/><path style="" d="M59.6,39.6l-1.1-1.1l-1.1,1.1l1.1,1L59.6,39.6z M57.8,39.6l0.7-0.7l0.7,0.7l-0.7,0.7L57.8,39.6z" fill="#231F20"/><path style="" d="M57.6,42.7c0,0.5,0.4,0.8,0.8,0.8c0.5,0,0.8-0.4,0.8-0.8c0-0.5-0.4-0.8-0.8-0.8   C58,41.9,57.6,42.3,57.6,42.7z M59,42.7c0,0.3-0.2,0.5-0.5,0.5s-0.5-0.2-0.5-0.5c0-0.3,0.2-0.5,0.5-0.5S59,42.4,59,42.7z" fill="#231F20"/><path style="" d="M57.4,45.8l1,1l1-1l-1-1L57.4,45.8z M59,45.7l-0.6,0.6l-0.6-0.6l0.6-0.6L59,45.7z" fill="#231F20"/><path style="" d="M38.9,46.7l0.4-8.7h-2.2l-0.4,8.7H38.9z M39,38.3l-0.1,2.6h-1.6l0.1-2.6H39z M37.3,41.1h1.6   l-0.3,5.2h-1.5L37.3,41.1z" fill="#231F20"/><path style="" d="M60.6,38l0.4,8.7h2.1L62.8,38H60.6z M62.5,38.3l0.1,2.6H61l-0.1-2.6H62.5z M61.3,46.4L61,41.1h1.6   l0.2,5.2H61.3z" fill="#231F20"/><path style="" d="M46.6,42.1l3.3-2l3.3,2.2v-3.7h-6.6V42.1z M46.9,38.9H53v3l-3.1-2l-3.1,1.8V38.9z" fill="#231F20"/></g></svg>